<?xml version="1.0" encoding="UTF-8"?><svg id="Layer_2" xmlns="http://www.w3.org/2000/svg" xmlns:xlink="http://www.w3.org/1999/xlink" viewBox="0 0 900 600"><defs><style>.cls-1{fill:#fff;}.cls-2{opacity:.6;}</style></defs><g id="Layer_1-2"><g><g><rect x=".5" y=".5" width="899" height="599"/><path d="M899,1V599H1V1H899m1-1H0V600H900V0h0Z"/></g><image width="920" height="604" transform="translate(114 32) scale(.76)" xlink:href="../../../xsauced site mockup/modal-walkthrough/Home 2/Group 47267.png"/><rect class="cls-2" x="55" y="294" width="240" height="254"/><g><path class="cls-1" d="M54.34,380.57l3.6,27.45h.54l4.73-27.45h7.29l4.72,27.45h.54l3.6-27.45h4.59l-4.37,31.5h-7.74l-4.73-27.45h-.54l-4.72,27.45h-7.74l-4.37-31.5h4.59Z"/><path class="cls-1" d="M97.22,389.3c6.48,0,10.8,4.77,10.8,11.16v2.12h-17.37c.27,3.96,3.06,6.43,7.02,6.43,3.24,0,5.13-1.62,6.3-3.96l3.55,2.03c-1.67,2.7-4.5,5.62-9.76,5.62-6.84,0-11.52-5.17-11.52-11.83s4.59-11.56,10.98-11.56Zm6.39,9.86c-.09-3.78-2.52-6.17-6.39-6.17s-6.25,2.25-6.57,6.17h12.96Z"/><path class="cls-1" d="M116.93,412.07h-4.23v-31.5h4.23v31.5Z"/><path class="cls-1" d="M133.22,389.39c5.94,0,9.81,3.65,10.71,8.55l-4.14,.85c-.36-3.1-2.65-5.53-6.57-5.53-4.23,0-7.2,3.1-7.2,7.78s2.97,7.78,7.29,7.78,5.94-2.65,6.52-5.49l4.19,.81c-.99,4.19-4.19,8.55-10.71,8.55s-11.52-4.91-11.52-11.65,4.86-11.66,11.43-11.66Z"/><path class="cls-1" d="M158.6,389.39c6.48,0,11.34,4.82,11.34,11.66s-4.86,11.65-11.34,11.65-11.34-4.82-11.34-11.65,4.86-11.66,11.34-11.66Zm0,19.44c4.23,0,7.11-2.92,7.11-7.78s-2.88-7.78-7.11-7.78-7.11,2.92-7.11,7.78,2.88,7.78,7.11,7.78Z"/><path class="cls-1" d="M178.94,390.02v2.88h.63c1.12-1.89,3.1-3.24,6.03-3.24,3.2,0,5.04,1.67,6.12,3.69h.63c.9-1.85,2.79-3.69,6.39-3.69,3.92,0,7.47,2.79,7.47,7.33v15.07h-4.23v-14.8c0-2.56-1.94-4-4.54-4-2.75,0-4.82,1.71-4.82,5.04v13.77h-4.23v-14.8c0-2.56-1.75-4-4.32-4-2.83,0-5.04,1.71-5.04,5.04v13.77h-4.23v-22.05h4.14Z"/><path class="cls-1" d="M221.78,389.3c6.48,0,10.8,4.77,10.8,11.16v2.12h-17.37c.27,3.96,3.06,6.43,7.02,6.43,3.24,0,5.13-1.62,6.3-3.96l3.55,2.03c-1.67,2.7-4.5,5.62-9.76,5.62-6.84,0-11.52-5.17-11.52-11.83s4.59-11.56,10.98-11.56Zm6.39,9.86c-.09-3.78-2.52-6.17-6.39-6.17s-6.25,2.25-6.57,6.17h12.96Z"/><path class="cls-1" d="M254.36,390.02v-7.65h4.23v7.65h6.48v3.69h-6.48v13.41c0,.9,.36,1.26,1.17,1.26h4.05v3.69h-5.76c-2.16,0-3.69-1.53-3.69-3.78v-14.58h-6.12v-3.69h6.12Z"/><path class="cls-1" d="M279.16,389.39c6.48,0,11.34,4.82,11.34,11.66s-4.86,11.65-11.34,11.65-11.34-4.82-11.34-11.65,4.86-11.66,11.34-11.66Zm0,19.44c4.23,0,7.11-2.92,7.11-7.78s-2.88-7.78-7.11-7.78-7.11,2.92-7.11,7.78,2.88,7.78,7.11,7.78Z"/><path class="cls-1" d="M312,380.57l7.38,12.46h.54l7.38-12.46h5.22l-9.36,15.34v.54l9.54,15.61h-5.26l-7.51-12.73h-.54l-7.51,12.73h-5.26l9.54-15.61v-.54l-9.36-15.34h5.22Z"/><path class="cls-1" d="M344.04,389.39c4.5,0,7.47,1.76,10.93,5.62l-3.15,2.25c-2.43-3.15-5.08-4.37-7.7-4.37-2.47,0-4.32,1.08-4.32,2.97,0,2.16,2.16,2.38,4.54,2.74l1.84,.27c5,.72,8.91,1.93,8.91,6.52s-4.05,7.29-9.72,7.29c-6.25,0-9.76-3.69-11.47-6.93l3.78-2.02c1.4,3.33,4.23,5.35,7.83,5.35,3.15,0,5.4-1.4,5.4-3.56,0-2.29-2.83-2.47-5.22-2.83l-1.84-.27c-4.95-.72-8.23-2.34-8.23-6.53s3.91-6.53,8.41-6.53Z"/><path class="cls-1" d="M369.56,389.39c5.94,0,9.76,3.46,9.76,8.78v13.9h-4.14v-3.46h-.63c-.95,1.98-3.24,4.09-7.78,4.09-4.95,0-8.15-2.7-8.15-6.66s2.75-6.17,8.42-6.71l8.14-.77v-.58c0-3.02-2.11-4.82-5.71-4.82s-5.71,1.75-6.75,4.32l-3.65-1.66c1.58-3.42,5.08-6.44,10.48-6.44Zm-2.07,19.8c5.17,0,7.69-3.1,7.69-6.93v-.36l-7.69,.72c-2.57,.22-4.59,.99-4.59,3.24,0,2.07,1.67,3.33,4.59,3.33Z"/><path class="cls-1" d="M401.55,412.07v-3.73h-.63c-1.04,2.07-3.06,4.09-7.42,4.09-4.63,0-8.59-3.06-8.59-9.13v-13.27h4.23v12.91c0,3.83,2.07,5.8,5.67,5.8,4.09,0,6.66-2.61,6.66-7.2v-11.52h4.23v22.05h-4.14Z"/><path class="cls-1" d="M421.98,389.39c5.94,0,9.81,3.65,10.71,8.55l-4.14,.85c-.36-3.1-2.65-5.53-6.57-5.53-4.23,0-7.2,3.1-7.2,7.78s2.97,7.78,7.29,7.78,5.94-2.65,6.52-5.49l4.19,.81c-.99,4.19-4.19,8.55-10.71,8.55s-11.52-4.91-11.52-11.65,4.86-11.66,11.43-11.66Z"/><path class="cls-1" d="M447,389.3c6.48,0,10.8,4.77,10.8,11.16v2.12h-17.37c.27,3.96,3.06,6.43,7.02,6.43,3.24,0,5.13-1.62,6.3-3.96l3.55,2.03c-1.67,2.7-4.5,5.62-9.76,5.62-6.84,0-11.52-5.17-11.52-11.83s4.59-11.56,10.98-11.56Zm6.39,9.86c-.09-3.78-2.52-6.17-6.39-6.17s-6.25,2.25-6.57,6.17h12.96Z"/><path class="cls-1" d="M69.01,469.35h-3.32c-.13-.71-.37-1.34-.71-1.88-.35-.54-.77-1-1.28-1.38-.5-.38-1.07-.66-1.69-.85s-1.28-.29-1.98-.29c-1.26,0-2.38,.32-3.37,.95-.99,.63-1.77,1.56-2.34,2.78-.57,1.22-.86,2.71-.86,4.47s.29,3.27,.86,4.5c.57,1.22,1.35,2.15,2.35,2.77s2.11,.94,3.36,.94c.69,0,1.34-.09,1.96-.28,.62-.19,1.18-.47,1.69-.84,.5-.37,.93-.82,1.28-1.36,.35-.54,.59-1.15,.73-1.85h3.32c-.18,1.08-.52,2.07-1.03,2.97s-1.16,1.67-1.95,2.32c-.79,.65-1.7,1.15-2.71,1.51s-2.12,.53-3.32,.53c-1.89,0-3.57-.45-5.05-1.35s-2.64-2.19-3.49-3.86-1.27-3.67-1.27-6,.43-4.33,1.28-6c.85-1.67,2.02-2.96,3.49-3.86,1.48-.9,3.16-1.35,5.04-1.35,1.16,0,2.24,.17,3.24,.5,1,.33,1.91,.81,2.71,1.45,.8,.63,1.47,1.41,1.99,2.32s.88,1.96,1.07,3.13Z"/><path class="cls-1" d="M83.06,477.29v-9.58h3.2v16.36h-3.13v-2.83h-.17c-.38,.87-.98,1.6-1.81,2.18s-1.86,.87-3.08,.87c-1.05,0-1.98-.23-2.79-.7-.81-.46-1.44-1.16-1.9-2.07s-.69-2.05-.69-3.4v-10.41h3.19v10.02c0,1.12,.31,2,.93,2.66,.62,.66,1.42,.99,2.41,.99,.6,0,1.19-.15,1.78-.45,.59-.3,1.09-.75,1.48-1.35,.39-.6,.59-1.37,.58-2.3Z"/><path class="cls-1" d="M93.71,462.25v21.82h-3.19v-21.82h3.19Z"/><path class="cls-1" d="M105.63,467.71v2.56h-8.94v-2.56h8.94Zm-6.54-3.92h3.19v15.48c0,.62,.09,1.08,.28,1.39s.42,.52,.72,.63c.29,.11,.62,.16,.96,.16,.26,0,.48-.02,.67-.05,.19-.04,.34-.06,.45-.09l.58,2.63c-.18,.07-.45,.14-.79,.22-.34,.08-.77,.12-1.28,.12-.84,.01-1.62-.13-2.34-.45-.72-.31-1.31-.79-1.76-1.45-.45-.65-.67-1.47-.67-2.46v-16.14Z"/><path class="cls-1" d="M119.52,477.29v-9.58h3.2v16.36h-3.13v-2.83h-.17c-.38,.87-.98,1.6-1.81,2.18s-1.86,.87-3.08,.87c-1.05,0-1.98-.23-2.79-.7-.81-.46-1.44-1.16-1.9-2.07s-.69-2.05-.69-3.4v-10.41h3.19v10.02c0,1.12,.31,2,.93,2.66,.62,.66,1.42,.99,2.41,.99,.6,0,1.19-.15,1.78-.45,.59-.3,1.09-.75,1.48-1.35,.39-.6,.59-1.37,.58-2.3Z"/><path class="cls-1" d="M126.98,484.07v-16.36h3.08v2.6h.17c.3-.88,.83-1.58,1.58-2.08,.76-.51,1.61-.76,2.57-.76,.2,0,.43,0,.71,.02,.27,.01,.49,.03,.64,.05v3.05c-.13-.04-.36-.08-.68-.12-.33-.05-.65-.07-.98-.07-.75,0-1.42,.16-2.01,.47s-1.05,.75-1.39,1.31-.51,1.19-.51,1.9v9.99h-3.19Z"/><path class="cls-1" d="M144.97,484.4c-1.61,0-3-.35-4.16-1.04-1.16-.69-2.06-1.67-2.69-2.93-.63-1.26-.94-2.74-.94-4.44s.31-3.15,.94-4.43c.63-1.28,1.51-2.28,2.64-2.99,1.13-.72,2.46-1.08,3.98-1.08,.92,0,1.82,.15,2.69,.46,.87,.31,1.64,.79,2.33,1.44,.69,.65,1.23,1.5,1.63,2.54,.4,1.04,.6,2.3,.6,3.79v1.13h-13.01v-2.39h9.89c0-.84-.17-1.58-.51-2.23-.34-.65-.82-1.16-1.43-1.54-.61-.38-1.33-.56-2.16-.56-.89,0-1.67,.22-2.34,.66s-1.18,1-1.53,1.7c-.36,.7-.54,1.46-.54,2.28v1.86c0,1.09,.19,2.03,.58,2.79,.39,.77,.93,1.35,1.62,1.75,.7,.4,1.51,.6,2.44,.6,.6,0,1.15-.09,1.65-.26s.93-.43,1.29-.78c.36-.35,.64-.78,.83-1.29l3.01,.54c-.24,.89-.67,1.66-1.29,2.33-.62,.66-1.4,1.18-2.33,1.54-.93,.37-2,.55-3.19,.55Z"/><path class="cls-1" d="M165.09,465.18c-.55,0-1.03-.19-1.42-.56-.39-.37-.59-.82-.59-1.34s.2-.97,.59-1.35c.39-.37,.87-.56,1.42-.56s1.03,.19,1.42,.56c.39,.37,.59,.82,.59,1.34s-.2,.97-.59,1.35c-.39,.37-.87,.56-1.42,.56Zm-1.61,18.89v-16.36h3.19v16.36h-3.19Z"/><path class="cls-1" d="M183.21,471.7l-2.89,.51c-.12-.37-.31-.72-.57-1.05s-.61-.61-1.05-.82c-.44-.21-.99-.32-1.65-.32-.9,0-1.66,.2-2.26,.6-.6,.4-.91,.92-.91,1.55,0,.55,.2,.99,.61,1.32,.41,.33,1.06,.61,1.96,.82l2.6,.6c1.5,.35,2.63,.88,3.37,1.61,.74,.72,1.11,1.67,1.11,2.82,0,.98-.28,1.85-.85,2.62-.56,.76-1.35,1.36-2.35,1.79-1,.43-2.17,.65-3.49,.65-1.83,0-3.33-.39-4.48-1.18-1.16-.78-1.87-1.9-2.13-3.35l3.08-.47c.19,.8,.59,1.41,1.18,1.82,.6,.41,1.37,.61,2.33,.61,1.04,0,1.88-.22,2.5-.66,.62-.44,.94-.97,.94-1.6,0-.51-.19-.94-.57-1.29-.38-.35-.96-.61-1.74-.79l-2.77-.61c-1.53-.35-2.66-.9-3.38-1.66-.73-.76-1.09-1.72-1.09-2.89,0-.97,.27-1.81,.81-2.54,.54-.72,1.29-1.29,2.24-1.7,.95-.41,2.04-.61,3.27-.61,1.77,0,3.16,.38,4.18,1.14s1.69,1.79,2.01,3.06Z"/><path class="cls-1" d="M198.16,474.36v9.72h-3.19v-16.36h3.06v2.66h.2c.38-.87,.97-1.56,1.77-2.09,.81-.53,1.82-.79,3.05-.79,1.11,0,2.09,.23,2.93,.7,.84,.46,1.49,1.16,1.95,2.07s.69,2.05,.69,3.4v10.41h-3.19v-10.03c0-1.19-.31-2.11-.93-2.79-.62-.67-1.47-1.01-2.55-1.01-.74,0-1.39,.16-1.97,.48-.57,.32-1.02,.79-1.35,1.4-.33,.62-.5,1.36-.5,2.22Z"/><path class="cls-1" d="M219.79,484.4c-1.53,0-2.87-.35-4.02-1.05s-2.03-1.69-2.66-2.95c-.63-1.26-.95-2.74-.95-4.43s.32-3.18,.95-4.45,1.52-2.26,2.66-2.96,2.48-1.05,4.02-1.05,2.87,.35,4.02,1.05c1.14,.7,2.03,1.69,2.66,2.96s.95,2.76,.95,4.45-.32,3.17-.95,4.43c-.63,1.26-1.52,2.25-2.66,2.95-1.14,.7-2.48,1.05-4.02,1.05Zm.01-2.67c.99,0,1.82-.26,2.47-.79,.65-.53,1.14-1.22,1.45-2.1,.32-.87,.47-1.84,.47-2.89s-.16-2.01-.47-2.88c-.32-.88-.8-1.58-1.45-2.11s-1.48-.8-2.47-.8-1.83,.27-2.49,.8c-.66,.53-1.14,1.24-1.46,2.11s-.47,1.84-.47,2.88,.16,2.01,.47,2.89c.32,.87,.8,1.57,1.46,2.1,.66,.53,1.49,.79,2.49,.79Z"/><path class="cls-1" d="M234.01,484.07l-4.81-16.36h3.29l3.21,12.02h.16l3.22-12.02h3.29l3.2,11.96h.16l3.18-11.96h3.29l-4.8,16.36h-3.25l-3.32-11.81h-.25l-3.32,11.81h-3.24Z"/><path class="cls-1" d="M264.77,465.18c-.55,0-1.03-.19-1.42-.56-.39-.37-.59-.82-.59-1.34s.2-.97,.59-1.35c.39-.37,.87-.56,1.42-.56s1.03,.19,1.42,.56c.39,.37,.59,.82,.59,1.34s-.2,.97-.59,1.35c-.39,.37-.87,.56-1.42,.56Zm-1.61,18.89v-16.36h3.19v16.36h-3.19Z"/><path class="cls-1" d="M273.81,474.36v9.72h-3.19v-16.36h3.06v2.66h.2c.38-.87,.97-1.56,1.77-2.09,.81-.53,1.82-.79,3.05-.79,1.11,0,2.09,.23,2.93,.7,.84,.46,1.49,1.16,1.95,2.07s.69,2.05,.69,3.4v10.41h-3.19v-10.03c0-1.19-.31-2.11-.93-2.79-.62-.67-1.47-1.01-2.55-1.01-.74,0-1.39,.16-1.97,.48-.57,.32-1.02,.79-1.35,1.4-.33,.62-.5,1.36-.5,2.22Z"/><path class="cls-1" d="M298.5,490.21c-.48,0-.91-.04-1.3-.11s-.68-.15-.87-.24l.77-2.61c.58,.16,1.1,.22,1.55,.2,.46-.02,.86-.19,1.21-.51,.35-.32,.66-.84,.93-1.57l.39-1.09-5.99-16.58h3.41l4.14,12.7h.17l4.14-12.7h3.42l-6.74,18.55c-.31,.85-.71,1.58-1.19,2.17-.48,.59-1.06,1.04-1.73,1.34-.67,.3-1.44,.45-2.32,.45Z"/><path class="cls-1" d="M319.8,484.4c-1.53,0-2.87-.35-4.02-1.05s-2.03-1.69-2.66-2.95c-.63-1.26-.95-2.74-.95-4.43s.32-3.18,.95-4.45,1.52-2.26,2.66-2.96,2.48-1.05,4.02-1.05,2.87,.35,4.02,1.05c1.14,.7,2.03,1.69,2.66,2.96s.95,2.76,.95,4.45-.32,3.17-.95,4.43c-.63,1.26-1.52,2.25-2.66,2.95-1.14,.7-2.48,1.05-4.02,1.05Zm.01-2.67c.99,0,1.82-.26,2.47-.79,.65-.53,1.14-1.22,1.45-2.1,.32-.87,.47-1.84,.47-2.89s-.16-2.01-.47-2.88c-.32-.88-.8-1.58-1.45-2.11s-1.48-.8-2.47-.8-1.83,.27-2.49,.8c-.66,.53-1.14,1.24-1.46,2.11s-.47,1.84-.47,2.88,.16,2.01,.47,2.89c.32,.87,.8,1.57,1.46,2.1,.66,.53,1.49,.79,2.49,.79Z"/><path class="cls-1" d="M341.34,477.29v-9.58h3.2v16.36h-3.13v-2.83h-.17c-.38,.87-.98,1.6-1.81,2.18s-1.86,.87-3.08,.87c-1.05,0-1.98-.23-2.79-.7-.81-.46-1.44-1.16-1.9-2.07s-.69-2.05-.69-3.4v-10.41h3.19v10.02c0,1.12,.31,2,.93,2.66,.62,.66,1.42,.99,2.41,.99,.6,0,1.19-.15,1.78-.45,.59-.3,1.09-.75,1.48-1.35,.39-.6,.59-1.37,.58-2.3Z"/><path class="cls-1" d="M348.81,484.07v-16.36h3.08v2.6h.17c.3-.88,.83-1.58,1.58-2.08,.76-.51,1.61-.76,2.57-.76,.2,0,.43,0,.71,.02,.27,.01,.49,.03,.64,.05v3.05c-.13-.04-.36-.08-.68-.12-.33-.05-.65-.07-.98-.07-.75,0-1.42,.16-2.01,.47s-1.05,.75-1.39,1.31-.51,1.19-.51,1.9v9.99h-3.19Z"/><path class="cls-1" d="M371.47,474.36v9.72h-3.19v-21.82h3.14v8.12h.2c.38-.88,.97-1.58,1.76-2.1s1.82-.78,3.09-.78c1.12,0,2.1,.23,2.95,.69,.84,.46,1.5,1.15,1.96,2.06,.47,.91,.7,2.05,.7,3.41v10.41h-3.19v-10.03c0-1.2-.31-2.13-.93-2.8s-1.48-1-2.58-1c-.75,0-1.43,.16-2.02,.48-.59,.32-1.06,.79-1.4,1.4-.34,.62-.51,1.36-.51,2.22Z"/><path class="cls-1" d="M391.1,484.43c-1.04,0-1.97-.19-2.81-.58s-1.5-.95-1.99-1.69c-.49-.74-.73-1.64-.73-2.72,0-.92,.18-1.68,.53-2.28,.35-.6,.83-1.07,1.44-1.42,.6-.35,1.28-.61,2.02-.79,.75-.18,1.51-.31,2.28-.4,.98-.11,1.78-.21,2.39-.28,.61-.08,1.05-.2,1.33-.37,.28-.17,.42-.45,.42-.83v-.07c0-.93-.26-1.65-.78-2.16-.52-.51-1.3-.77-2.33-.77s-1.92,.24-2.53,.71-1.04,1-1.27,1.57l-2.99-.68c.36-.99,.88-1.8,1.56-2.41s1.48-1.06,2.37-1.34c.9-.28,1.84-.42,2.82-.42,.65,0,1.35,.08,2.08,.23s1.42,.43,2.07,.84c.64,.41,1.17,.98,1.58,1.73,.41,.75,.62,1.72,.62,2.91v10.87h-3.11v-2.24h-.13c-.21,.41-.52,.82-.93,1.21-.41,.4-.94,.73-1.59,.99-.65,.26-1.42,.39-2.32,.39Zm.69-2.56c.88,0,1.64-.17,2.26-.52,.63-.35,1.11-.8,1.44-1.37s.5-1.17,.5-1.82v-2.11c-.11,.11-.33,.22-.66,.31s-.69,.18-1.1,.25-.81,.13-1.2,.18c-.39,.05-.72,.1-.98,.13-.62,.08-1.18,.21-1.69,.39-.51,.19-.91,.45-1.21,.79-.3,.34-.45,.8-.45,1.37,0,.79,.29,1.38,.87,1.78,.58,.4,1.32,.6,2.23,.6Z"/><path class="cls-1" d="M406.61,474.36v9.72h-3.19v-16.36h3.06v2.66h.2c.38-.87,.97-1.56,1.77-2.09,.81-.53,1.82-.79,3.05-.79,1.11,0,2.09,.23,2.93,.7,.84,.46,1.49,1.16,1.95,2.07s.69,2.05,.69,3.4v10.41h-3.19v-10.03c0-1.19-.31-2.11-.93-2.79-.62-.67-1.47-1.01-2.55-1.01-.74,0-1.39,.16-1.97,.48-.57,.32-1.02,.79-1.35,1.4-.33,.62-.5,1.36-.5,2.22Z"/><path class="cls-1" d="M427.46,484.39c-1.32,0-2.5-.34-3.53-1.02-1.03-.68-1.84-1.65-2.43-2.91-.59-1.26-.88-2.78-.88-4.54s.3-3.28,.89-4.54c.59-1.26,1.41-2.22,2.44-2.89s2.21-1,3.53-1c1.02,0,1.83,.17,2.46,.51,.62,.34,1.1,.73,1.45,1.18,.34,.45,.61,.84,.8,1.18h.19v-8.11h3.19v21.82h-3.11v-2.55h-.27c-.19,.35-.47,.75-.83,1.19-.36,.45-.85,.84-1.48,1.17-.62,.33-1.43,.5-2.43,.5Zm.7-2.72c.92,0,1.69-.24,2.33-.73s1.12-1.16,1.45-2.03c.33-.87,.5-1.88,.5-3.03s-.16-2.13-.49-2.98c-.33-.85-.81-1.52-1.44-1.99-.63-.48-1.41-.71-2.34-.71s-1.76,.25-2.4,.75c-.64,.5-1.12,1.18-1.44,2.04s-.49,1.83-.49,2.91,.16,2.08,.49,2.95c.33,.87,.81,1.56,1.45,2.07s1.44,.76,2.38,.76Z"/><path class="cls-1" d="M452.37,471.7l-2.89,.51c-.12-.37-.31-.72-.57-1.05s-.61-.61-1.05-.82c-.44-.21-.99-.32-1.65-.32-.9,0-1.66,.2-2.26,.6-.6,.4-.91,.92-.91,1.55,0,.55,.2,.99,.61,1.32,.41,.33,1.06,.61,1.96,.82l2.6,.6c1.5,.35,2.63,.88,3.37,1.61,.74,.72,1.11,1.67,1.11,2.82,0,.98-.28,1.85-.85,2.62-.56,.76-1.35,1.36-2.35,1.79-1,.43-2.17,.65-3.49,.65-1.83,0-3.33-.39-4.48-1.18-1.16-.78-1.87-1.9-2.13-3.35l3.08-.47c.19,.8,.59,1.41,1.18,1.82,.6,.41,1.37,.61,2.33,.61,1.04,0,1.88-.22,2.5-.66,.62-.44,.94-.97,.94-1.6,0-.51-.19-.94-.57-1.29-.38-.35-.96-.61-1.74-.79l-2.77-.61c-1.53-.35-2.66-.9-3.38-1.66-.73-.76-1.09-1.72-1.09-2.89,0-.97,.27-1.81,.81-2.54,.54-.72,1.29-1.29,2.24-1.7,.95-.41,2.04-.61,3.27-.61,1.77,0,3.16,.38,4.18,1.14s1.69,1.79,2.01,3.06Z"/><path class="cls-1" d="M458.29,484.28c-.58,0-1.08-.21-1.5-.62-.42-.42-.63-.92-.63-1.51s.21-1.08,.63-1.5c.42-.41,.92-.62,1.5-.62s1.08,.21,1.5,.62c.42,.42,.63,.92,.63,1.5,0,.39-.1,.75-.29,1.07s-.45,.58-.77,.77c-.32,.19-.67,.29-1.07,.29Z"/><path class="cls-1" d="M472.54,484.07v-21.82h7.99c1.55,0,2.83,.25,3.85,.76,1.01,.51,1.78,1.19,2.28,2.06s.76,1.83,.76,2.91c0,.91-.17,1.67-.5,2.29s-.78,1.12-1.34,1.49-1.17,.64-1.84,.81v.21c.72,.04,1.43,.27,2.12,.7,.69,.43,1.27,1.04,1.72,1.83,.46,.79,.68,1.75,.68,2.88s-.26,2.11-.78,3c-.52,.88-1.33,1.58-2.41,2.1-1.09,.51-2.48,.77-4.17,.77h-8.36Zm3.29-12.38h4.41c.74,0,1.4-.14,2-.43,.59-.29,1.07-.68,1.42-1.2,.35-.51,.53-1.12,.53-1.83,0-.9-.32-1.66-.95-2.27-.63-.61-1.6-.92-2.91-.92h-4.5v6.64Zm0,9.56h4.75c1.58,0,2.71-.31,3.39-.92s1.02-1.37,1.02-2.29c0-.69-.17-1.32-.52-1.9-.35-.58-.84-1.03-1.49-1.38-.64-.34-1.4-.51-2.29-.51h-4.87v6.99Z"/><path class="cls-1" d="M498.96,484.4c-1.61,0-3-.35-4.16-1.04-1.16-.69-2.06-1.67-2.69-2.93-.63-1.26-.94-2.74-.94-4.44s.31-3.15,.94-4.43c.63-1.28,1.51-2.28,2.64-2.99,1.13-.72,2.46-1.08,3.98-1.08,.92,0,1.82,.15,2.69,.46,.87,.31,1.64,.79,2.33,1.44,.69,.65,1.23,1.5,1.63,2.54,.4,1.04,.6,2.3,.6,3.79v1.13h-13.01v-2.39h9.89c0-.84-.17-1.58-.51-2.23-.34-.65-.82-1.16-1.43-1.54-.61-.38-1.33-.56-2.16-.56-.89,0-1.67,.22-2.34,.66s-1.18,1-1.53,1.7c-.36,.7-.54,1.46-.54,2.28v1.86c0,1.09,.19,2.03,.58,2.79,.39,.77,.93,1.35,1.62,1.75,.7,.4,1.51,.6,2.44,.6,.6,0,1.15-.09,1.65-.26s.93-.43,1.29-.78c.36-.35,.64-.78,.83-1.29l3.01,.54c-.24,.89-.67,1.66-1.29,2.33-.62,.66-1.4,1.18-2.33,1.54-.93,.37-2,.55-3.19,.55Z"/><path class="cls-1" d="M517.31,467.71v2.56h-9.25v-2.56h9.25Zm-6.71,16.36v-18.26c0-1.02,.22-1.87,.67-2.55s1.04-1.19,1.78-1.52c.74-.34,1.54-.51,2.41-.51,.64,0,1.19,.05,1.64,.15s.79,.2,1.01,.28l-.75,2.58c-.15-.04-.34-.09-.58-.15s-.52-.09-.85-.09c-.77,0-1.33,.19-1.66,.57-.33,.38-.5,.94-.5,1.66v17.83h-3.18Z"/><path class="cls-1" d="M526.84,484.4c-1.53,0-2.87-.35-4.02-1.05s-2.03-1.69-2.66-2.95c-.63-1.26-.95-2.74-.95-4.43s.32-3.18,.95-4.45,1.52-2.26,2.66-2.96,2.48-1.05,4.02-1.05,2.87,.35,4.02,1.05c1.14,.7,2.03,1.69,2.66,2.96s.95,2.76,.95,4.45-.32,3.17-.95,4.43c-.63,1.26-1.52,2.25-2.66,2.95-1.14,.7-2.48,1.05-4.02,1.05Zm.01-2.67c.99,0,1.82-.26,2.47-.79,.65-.53,1.14-1.22,1.45-2.1,.32-.87,.47-1.84,.47-2.89s-.16-2.01-.47-2.88c-.32-.88-.8-1.58-1.45-2.11s-1.48-.8-2.47-.8-1.83,.27-2.49,.8c-.66,.53-1.14,1.24-1.46,2.11s-.47,1.84-.47,2.88,.16,2.01,.47,2.89c.32,.87,.8,1.57,1.46,2.1,.66,.53,1.49,.79,2.49,.79Z"/><path class="cls-1" d="M538.01,484.07v-16.36h3.08v2.6h.17c.3-.88,.83-1.58,1.58-2.08,.76-.51,1.61-.76,2.57-.76,.2,0,.43,0,.71,.02,.27,.01,.49,.03,.64,.05v3.05c-.13-.04-.36-.08-.68-.12-.33-.05-.65-.07-.98-.07-.75,0-1.42,.16-2.01,.47s-1.05,.75-1.39,1.31-.51,1.19-.51,1.9v9.99h-3.19Z"/><path class="cls-1" d="M556,484.4c-1.61,0-3-.35-4.16-1.04-1.16-.69-2.06-1.67-2.69-2.93-.63-1.26-.94-2.74-.94-4.44s.31-3.15,.94-4.43c.63-1.28,1.51-2.28,2.64-2.99,1.13-.72,2.46-1.08,3.98-1.08,.92,0,1.82,.15,2.69,.46,.87,.31,1.64,.79,2.33,1.44,.69,.65,1.23,1.5,1.63,2.54,.4,1.04,.6,2.3,.6,3.79v1.13h-13.01v-2.39h9.89c0-.84-.17-1.58-.51-2.23-.34-.65-.82-1.16-1.43-1.54-.61-.38-1.33-.56-2.16-.56-.89,0-1.67,.22-2.34,.66s-1.18,1-1.53,1.7c-.36,.7-.54,1.46-.54,2.28v1.86c0,1.09,.19,2.03,.58,2.79,.39,.77,.93,1.35,1.62,1.75,.7,.4,1.51,.6,2.44,.6,.6,0,1.15-.09,1.65-.26s.93-.43,1.29-.78c.36-.35,.64-.78,.83-1.29l3.01,.54c-.24,.89-.67,1.66-1.29,2.33-.62,.66-1.4,1.18-2.33,1.54-.93,.37-2,.55-3.19,.55Z"/><path class="cls-1" d="M576.53,490.21c-.48,0-.91-.04-1.3-.11s-.68-.15-.87-.24l.77-2.61c.58,.16,1.1,.22,1.55,.2,.46-.02,.86-.19,1.21-.51,.35-.32,.66-.84,.93-1.57l.39-1.09-5.99-16.58h3.41l4.14,12.7h.17l4.14-12.7h3.42l-6.74,18.55c-.31,.85-.71,1.58-1.19,2.17-.48,.59-1.06,1.04-1.73,1.34-.67,.3-1.44,.45-2.32,.45Z"/><path class="cls-1" d="M597.82,484.4c-1.53,0-2.87-.35-4.02-1.05s-2.03-1.69-2.66-2.95c-.63-1.26-.95-2.74-.95-4.43s.32-3.18,.95-4.45,1.52-2.26,2.66-2.96,2.48-1.05,4.02-1.05,2.87,.35,4.02,1.05c1.14,.7,2.03,1.69,2.66,2.96s.95,2.76,.95,4.45-.32,3.17-.95,4.43c-.63,1.26-1.52,2.25-2.66,2.95-1.14,.7-2.48,1.05-4.02,1.05Zm.01-2.67c.99,0,1.82-.26,2.47-.79,.65-.53,1.14-1.22,1.45-2.1,.32-.87,.47-1.84,.47-2.89s-.16-2.01-.47-2.88c-.32-.88-.8-1.58-1.45-2.11s-1.48-.8-2.47-.8-1.83,.27-2.49,.8c-.66,.53-1.14,1.24-1.46,2.11s-.47,1.84-.47,2.88,.16,2.01,.47,2.89c.32,.87,.8,1.57,1.46,2.1,.66,.53,1.49,.79,2.49,.79Z"/><path class="cls-1" d="M619.37,477.29v-9.58h3.2v16.36h-3.13v-2.83h-.17c-.38,.87-.98,1.6-1.81,2.18s-1.86,.87-3.08,.87c-1.05,0-1.98-.23-2.79-.7-.81-.46-1.44-1.16-1.9-2.07s-.69-2.05-.69-3.4v-10.41h3.19v10.02c0,1.12,.31,2,.93,2.66,.62,.66,1.42,.99,2.41,.99,.6,0,1.19-.15,1.78-.45,.59-.3,1.09-.75,1.48-1.35,.39-.6,.59-1.37,.58-2.3Z"/><path class="cls-1" d="M641.64,490.55c-1.3,0-2.42-.17-3.35-.51-.93-.34-1.7-.79-2.29-1.35-.59-.56-1.03-1.18-1.32-1.84l2.74-1.13c.19,.31,.45,.64,.77,1s.76,.65,1.32,.9c.56,.25,1.28,.37,2.16,.37,1.21,0,2.21-.29,2.99-.88,.79-.59,1.18-1.52,1.18-2.8v-3.22h-.2c-.19,.35-.47,.73-.83,1.16-.36,.43-.85,.8-1.48,1.11s-1.44,.47-2.44,.47c-1.29,0-2.46-.3-3.49-.91s-1.85-1.51-2.45-2.7c-.6-1.19-.9-2.65-.9-4.39s.3-3.23,.89-4.47c.59-1.24,1.41-2.2,2.44-2.86s2.21-1,3.53-1c1.02,0,1.84,.17,2.46,.51,.62,.34,1.11,.73,1.46,1.18,.35,.45,.62,.84,.82,1.18h.23v-2.65h3.12v16.73c0,1.41-.33,2.56-.98,3.46-.65,.9-1.54,1.57-2.65,2-1.11,.43-2.36,.65-3.76,.65Zm-.03-9.36c.92,0,1.69-.21,2.33-.64s1.12-1.05,1.45-1.85c.33-.81,.5-1.77,.5-2.9s-.16-2.07-.49-2.91c-.33-.84-.81-1.49-1.44-1.96-.63-.47-1.41-.71-2.34-.71s-1.76,.25-2.4,.74c-.64,.49-1.12,1.16-1.44,2.01s-.49,1.79-.49,2.83,.16,2.01,.49,2.82c.33,.81,.81,1.44,1.45,1.9,.64,.45,1.44,.68,2.38,.68Z"/><path class="cls-1" d="M660.35,484.4c-1.61,0-3-.35-4.16-1.04-1.16-.69-2.06-1.67-2.69-2.93-.63-1.26-.94-2.74-.94-4.44s.31-3.15,.94-4.43c.63-1.28,1.51-2.28,2.64-2.99,1.13-.72,2.46-1.08,3.98-1.08,.92,0,1.82,.15,2.69,.46,.87,.31,1.64,.79,2.33,1.44,.69,.65,1.23,1.5,1.63,2.54,.4,1.04,.6,2.3,.6,3.79v1.13h-13.01v-2.39h9.89c0-.84-.17-1.58-.51-2.23-.34-.65-.82-1.16-1.43-1.54-.61-.38-1.33-.56-2.16-.56-.89,0-1.67,.22-2.34,.66s-1.18,1-1.53,1.7c-.36,.7-.54,1.46-.54,2.28v1.86c0,1.09,.19,2.03,.58,2.79,.39,.77,.93,1.35,1.62,1.75,.7,.4,1.51,.6,2.44,.6,.6,0,1.15-.09,1.65-.26s.93-.43,1.29-.78c.36-.35,.64-.78,.83-1.29l3.01,.54c-.24,.89-.67,1.66-1.29,2.33-.62,.66-1.4,1.18-2.33,1.54-.93,.37-2,.55-3.19,.55Z"/><path class="cls-1" d="M678.56,467.71v2.56h-8.94v-2.56h8.94Zm-6.54-3.92h3.19v15.48c0,.62,.09,1.08,.28,1.39s.42,.52,.72,.63c.29,.11,.62,.16,.96,.16,.26,0,.48-.02,.67-.05,.19-.04,.34-.06,.45-.09l.58,2.63c-.18,.07-.45,.14-.79,.22-.34,.08-.77,.12-1.28,.12-.84,.01-1.62-.13-2.34-.45-.72-.31-1.31-.79-1.76-1.45-.45-.65-.67-1.47-.67-2.46v-16.14Z"/><path class="cls-1" d="M702.28,471.7l-2.89,.51c-.12-.37-.31-.72-.57-1.05s-.61-.61-1.05-.82c-.44-.21-.99-.32-1.65-.32-.9,0-1.66,.2-2.26,.6-.6,.4-.91,.92-.91,1.55,0,.55,.2,.99,.61,1.32,.41,.33,1.06,.61,1.96,.82l2.6,.6c1.5,.35,2.63,.88,3.37,1.61,.74,.72,1.11,1.67,1.11,2.82,0,.98-.28,1.85-.85,2.62-.56,.76-1.35,1.36-2.35,1.79-1,.43-2.17,.65-3.49,.65-1.83,0-3.33-.39-4.48-1.18-1.16-.78-1.87-1.9-2.13-3.35l3.08-.47c.19,.8,.59,1.41,1.18,1.82,.6,.41,1.37,.61,2.33,.61,1.04,0,1.88-.22,2.5-.66,.62-.44,.94-.97,.94-1.6,0-.51-.19-.94-.57-1.29-.38-.35-.96-.61-1.74-.79l-2.77-.61c-1.53-.35-2.66-.9-3.38-1.66-.73-.76-1.09-1.72-1.09-2.89,0-.97,.27-1.81,.81-2.54,.54-.72,1.29-1.29,2.24-1.7,.95-.41,2.04-.61,3.27-.61,1.77,0,3.16,.38,4.18,1.14s1.69,1.79,2.01,3.06Z"/><path class="cls-1" d="M713.73,467.71v2.56h-8.94v-2.56h8.94Zm-6.54-3.92h3.19v15.48c0,.62,.09,1.08,.28,1.39s.42,.52,.72,.63c.29,.11,.62,.16,.96,.16,.26,0,.48-.02,.67-.05,.19-.04,.34-.06,.45-.09l.58,2.63c-.18,.07-.45,.14-.79,.22-.34,.08-.77,.12-1.28,.12-.84,.01-1.62-.13-2.34-.45-.72-.31-1.31-.79-1.76-1.45-.45-.65-.67-1.47-.67-2.46v-16.14Z"/><path class="cls-1" d="M722.01,484.43c-1.04,0-1.97-.19-2.81-.58s-1.5-.95-1.99-1.69c-.49-.74-.73-1.64-.73-2.72,0-.92,.18-1.68,.53-2.28,.35-.6,.83-1.07,1.44-1.42,.6-.35,1.28-.61,2.02-.79,.75-.18,1.51-.31,2.28-.4,.98-.11,1.78-.21,2.39-.28,.61-.08,1.05-.2,1.33-.37,.28-.17,.42-.45,.42-.83v-.07c0-.93-.26-1.65-.78-2.16-.52-.51-1.3-.77-2.33-.77s-1.92,.24-2.53,.71-1.04,1-1.27,1.57l-2.99-.68c.36-.99,.88-1.8,1.56-2.41s1.48-1.06,2.37-1.34c.9-.28,1.84-.42,2.82-.42,.65,0,1.35,.08,2.08,.23s1.42,.43,2.07,.84c.64,.41,1.17,.98,1.58,1.73,.41,.75,.62,1.72,.62,2.91v10.87h-3.11v-2.24h-.13c-.21,.41-.52,.82-.93,1.21-.41,.4-.94,.73-1.59,.99-.65,.26-1.42,.39-2.32,.39Zm.69-2.56c.88,0,1.64-.17,2.26-.52,.63-.35,1.11-.8,1.44-1.37s.5-1.17,.5-1.82v-2.11c-.11,.11-.33,.22-.66,.31s-.69,.18-1.1,.25-.81,.13-1.2,.18c-.39,.05-.72,.1-.98,.13-.62,.08-1.18,.21-1.69,.39-.51,.19-.91,.45-1.21,.79-.3,.34-.45,.8-.45,1.37,0,.79,.29,1.38,.87,1.78,.58,.4,1.32,.6,2.23,.6Z"/><path class="cls-1" d="M734.33,484.07v-16.36h3.08v2.6h.17c.3-.88,.83-1.58,1.58-2.08,.76-.51,1.61-.76,2.57-.76,.2,0,.43,0,.71,.02,.27,.01,.49,.03,.64,.05v3.05c-.13-.04-.36-.08-.68-.12-.33-.05-.65-.07-.98-.07-.75,0-1.42,.16-2.01,.47s-1.05,.75-1.39,1.31-.51,1.19-.51,1.9v9.99h-3.19Z"/><path class="cls-1" d="M754.45,467.71v2.56h-8.94v-2.56h8.94Zm-6.54-3.92h3.19v15.48c0,.62,.09,1.08,.28,1.39s.42,.52,.72,.63c.29,.11,.62,.16,.96,.16,.26,0,.48-.02,.67-.05,.19-.04,.34-.06,.45-.09l.58,2.63c-.18,.07-.45,.14-.79,.22-.34,.08-.77,.12-1.28,.12-.84,.01-1.62-.13-2.34-.45-.72-.31-1.31-.79-1.76-1.45-.45-.65-.67-1.47-.67-2.46v-16.14Z"/><path class="cls-1" d="M764.85,484.4c-1.61,0-3-.35-4.16-1.04-1.16-.69-2.06-1.67-2.69-2.93-.63-1.26-.94-2.74-.94-4.44s.31-3.15,.94-4.43c.63-1.28,1.51-2.28,2.64-2.99,1.13-.72,2.46-1.08,3.98-1.08,.92,0,1.82,.15,2.69,.46,.87,.31,1.64,.79,2.33,1.44,.69,.65,1.23,1.5,1.63,2.54,.4,1.04,.6,2.3,.6,3.79v1.13h-13.01v-2.39h9.89c0-.84-.17-1.58-.51-2.23-.34-.65-.82-1.16-1.43-1.54-.61-.38-1.33-.56-2.16-.56-.89,0-1.67,.22-2.34,.66s-1.18,1-1.53,1.7c-.36,.7-.54,1.46-.54,2.28v1.86c0,1.09,.19,2.03,.58,2.79,.39,.77,.93,1.35,1.62,1.75,.7,.4,1.51,.6,2.44,.6,.6,0,1.15-.09,1.65-.26s.93-.43,1.29-.78c.36-.35,.64-.78,.83-1.29l3.01,.54c-.24,.89-.67,1.66-1.29,2.33-.62,.66-1.4,1.18-2.33,1.54-.93,.37-2,.55-3.19,.55Z"/><path class="cls-1" d="M781.54,484.39c-1.32,0-2.5-.34-3.53-1.02-1.03-.68-1.84-1.65-2.43-2.91-.59-1.26-.88-2.78-.88-4.54s.3-3.28,.89-4.54c.59-1.26,1.41-2.22,2.44-2.89s2.21-1,3.53-1c1.02,0,1.83,.17,2.46,.51,.62,.34,1.1,.73,1.45,1.18,.34,.45,.61,.84,.8,1.18h.19v-8.11h3.19v21.82h-3.11v-2.55h-.27c-.19,.35-.47,.75-.83,1.19-.36,.45-.85,.84-1.48,1.17-.62,.33-1.43,.5-2.43,.5Zm.7-2.72c.92,0,1.69-.24,2.33-.73s1.12-1.16,1.45-2.03c.33-.87,.5-1.88,.5-3.03s-.16-2.13-.49-2.98c-.33-.85-.81-1.52-1.44-1.99-.63-.48-1.41-.71-2.34-.71s-1.76,.25-2.4,.75c-.64,.5-1.12,1.18-1.44,2.04s-.49,1.83-.49,2.91,.16,2.08,.49,2.95c.33,.87,.81,1.56,1.45,2.07s1.44,.76,2.38,.76Z"/><path class="cls-1" d="M798.33,481.09l-.16,1.16c-.11,.85-.29,1.74-.54,2.67-.25,.93-.51,1.79-.78,2.58-.27,.8-.48,1.43-.65,1.9h-2.26c.09-.44,.22-1.04,.38-1.78,.16-.75,.32-1.59,.48-2.51s.27-1.86,.35-2.82l.11-1.19h3.07Z"/><path class="cls-1" d="M813.97,484.07l-4.81-16.36h3.29l3.21,12.02h.16l3.22-12.02h3.29l3.2,11.96h.16l3.18-11.96h3.29l-4.8,16.36h-3.25l-3.32-11.81h-.25l-3.32,11.81h-3.24Z"/><path class="cls-1" d="M841.73,484.4c-1.61,0-3-.35-4.16-1.04-1.16-.69-2.06-1.67-2.69-2.93-.63-1.26-.94-2.74-.94-4.44s.31-3.15,.94-4.43c.63-1.28,1.51-2.28,2.64-2.99,1.13-.72,2.46-1.08,3.98-1.08,.92,0,1.82,.15,2.69,.46,.87,.31,1.64,.79,2.33,1.44,.69,.65,1.23,1.5,1.63,2.54,.4,1.04,.6,2.3,.6,3.79v1.13h-13.01v-2.39h9.89c0-.84-.17-1.58-.51-2.23-.34-.65-.82-1.16-1.43-1.54-.61-.38-1.33-.56-2.16-.56-.89,0-1.67,.22-2.34,.66s-1.18,1-1.53,1.7c-.36,.7-.54,1.46-.54,2.28v1.86c0,1.09,.19,2.03,.58,2.79,.39,.77,.93,1.35,1.62,1.75,.7,.4,1.51,.6,2.44,.6,.6,0,1.15-.09,1.65-.26s.93-.43,1.29-.78c.36-.35,.64-.78,.83-1.29l3.01,.54c-.24,.89-.67,1.66-1.29,2.33-.62,.66-1.4,1.18-2.33,1.54-.93,.37-2,.55-3.19,.55Z"/><path class="cls-1" d="M53.82,510.36v9.72h-3.19v-16.36h3.06v2.66h.2c.38-.87,.97-1.56,1.77-2.09,.81-.53,1.82-.79,3.05-.79,1.11,0,2.09,.23,2.93,.7,.84,.46,1.49,1.16,1.95,2.07s.69,2.05,.69,3.4v10.41h-3.19v-10.03c0-1.19-.31-2.11-.93-2.79-.62-.67-1.47-1.01-2.55-1.01-.74,0-1.39,.16-1.97,.48-.57,.32-1.02,.79-1.35,1.4-.33,.62-.5,1.36-.5,2.22Z"/><path class="cls-1" d="M75.6,520.4c-1.61,0-3-.35-4.16-1.04-1.16-.69-2.06-1.67-2.69-2.93-.63-1.26-.94-2.74-.94-4.44s.31-3.15,.94-4.43c.63-1.28,1.51-2.28,2.64-2.99,1.13-.72,2.46-1.08,3.98-1.08,.92,0,1.82,.15,2.69,.46,.87,.31,1.64,.79,2.33,1.44,.69,.65,1.23,1.5,1.63,2.54,.4,1.04,.6,2.3,.6,3.79v1.13h-13.01v-2.39h9.89c0-.84-.17-1.58-.51-2.23-.34-.65-.82-1.16-1.43-1.54-.61-.38-1.33-.56-2.16-.56-.89,0-1.67,.22-2.34,.66s-1.18,1-1.53,1.7c-.36,.7-.54,1.46-.54,2.28v1.86c0,1.09,.19,2.03,.58,2.79,.39,.77,.93,1.35,1.62,1.75,.7,.4,1.51,.6,2.44,.6,.6,0,1.15-.09,1.65-.26s.93-.43,1.29-.78c.36-.35,.64-.78,.83-1.29l3.01,.54c-.24,.89-.67,1.66-1.29,2.33-.62,.66-1.4,1.18-2.33,1.54-.93,.37-2,.55-3.19,.55Z"/><path class="cls-1" d="M93.22,520.4c-1.61,0-3-.35-4.16-1.04-1.16-.69-2.06-1.67-2.69-2.93-.63-1.26-.94-2.74-.94-4.44s.31-3.15,.94-4.43c.63-1.28,1.51-2.28,2.64-2.99,1.13-.72,2.46-1.08,3.98-1.08,.92,0,1.82,.15,2.69,.46,.87,.31,1.64,.79,2.33,1.44,.69,.65,1.23,1.5,1.63,2.54,.4,1.04,.6,2.3,.6,3.79v1.13h-13.01v-2.39h9.89c0-.84-.17-1.58-.51-2.23-.34-.65-.82-1.16-1.43-1.54-.61-.38-1.33-.56-2.16-.56-.89,0-1.67,.22-2.34,.66s-1.18,1-1.53,1.7c-.36,.7-.54,1.46-.54,2.28v1.86c0,1.09,.19,2.03,.58,2.79,.39,.77,.93,1.35,1.62,1.75,.7,.4,1.51,.6,2.44,.6,.6,0,1.15-.09,1.65-.26s.93-.43,1.29-.78c.36-.35,.64-.78,.83-1.29l3.01,.54c-.24,.89-.67,1.66-1.29,2.33-.62,.66-1.4,1.18-2.33,1.54-.93,.37-2,.55-3.19,.55Z"/><path class="cls-1" d="M109.92,520.39c-1.32,0-2.5-.34-3.53-1.02-1.03-.68-1.84-1.65-2.43-2.91-.59-1.26-.88-2.78-.88-4.54s.3-3.28,.89-4.54c.59-1.26,1.41-2.22,2.44-2.89s2.21-1,3.53-1c1.02,0,1.83,.17,2.46,.51,.62,.34,1.1,.73,1.45,1.18,.34,.45,.61,.84,.8,1.18h.19v-8.11h3.19v21.82h-3.11v-2.55h-.27c-.19,.35-.47,.75-.83,1.19-.36,.45-.85,.84-1.48,1.17-.62,.33-1.43,.5-2.43,.5Zm.7-2.72c.92,0,1.69-.24,2.33-.73s1.12-1.16,1.45-2.03c.33-.87,.5-1.88,.5-3.03s-.16-2.13-.49-2.98c-.33-.85-.81-1.52-1.44-1.99-.63-.48-1.41-.71-2.34-.71s-1.76,.25-2.4,.75c-.64,.5-1.12,1.18-1.44,2.04s-.49,1.83-.49,2.91,.16,2.08,.49,2.95c.33,.87,.81,1.56,1.45,2.07s1.44,.76,2.38,.76Z"/><path class="cls-1" d="M138.15,503.71v2.56h-8.94v-2.56h8.94Zm-6.54-3.92h3.19v15.48c0,.62,.09,1.08,.28,1.39s.42,.52,.72,.63c.29,.11,.62,.16,.96,.16,.26,0,.48-.02,.67-.05,.19-.04,.34-.06,.45-.09l.58,2.63c-.18,.07-.45,.14-.79,.22-.34,.08-.77,.12-1.28,.12-.84,.01-1.62-.13-2.34-.45-.72-.31-1.31-.79-1.76-1.45-.45-.65-.67-1.47-.67-2.46v-16.14Z"/><path class="cls-1" d="M148.39,520.4c-1.53,0-2.87-.35-4.02-1.05s-2.03-1.69-2.66-2.95c-.63-1.26-.95-2.74-.95-4.43s.32-3.18,.95-4.45,1.52-2.26,2.66-2.96,2.48-1.05,4.02-1.05,2.87,.35,4.02,1.05c1.14,.7,2.03,1.69,2.66,2.96s.95,2.76,.95,4.45-.32,3.17-.95,4.43c-.63,1.26-1.52,2.25-2.66,2.95-1.14,.7-2.48,1.05-4.02,1.05Zm.01-2.67c.99,0,1.82-.26,2.47-.79,.65-.53,1.14-1.22,1.45-2.1,.32-.87,.47-1.84,.47-2.89s-.16-2.01-.47-2.88c-.32-.88-.8-1.58-1.45-2.11s-1.48-.8-2.47-.8-1.83,.27-2.49,.8c-.66,.53-1.14,1.24-1.46,2.11s-.47,1.84-.47,2.88,.16,2.01,.47,2.89c.32,.87,.8,1.57,1.46,2.1,.66,.53,1.49,.79,2.49,.79Z"/><path class="cls-1" d="M174.56,520.4c-1.61,0-3-.35-4.16-1.04-1.16-.69-2.06-1.67-2.69-2.93-.63-1.26-.94-2.74-.94-4.44s.31-3.15,.94-4.43c.63-1.28,1.51-2.28,2.64-2.99,1.13-.72,2.46-1.08,3.98-1.08,.92,0,1.82,.15,2.69,.46,.87,.31,1.64,.79,2.33,1.44,.69,.65,1.23,1.5,1.63,2.54,.4,1.04,.6,2.3,.6,3.79v1.13h-13.01v-2.39h9.89c0-.84-.17-1.58-.51-2.23-.34-.65-.82-1.16-1.43-1.54-.61-.38-1.33-.56-2.16-.56-.89,0-1.67,.22-2.34,.66s-1.18,1-1.53,1.7c-.36,.7-.54,1.46-.54,2.28v1.86c0,1.09,.19,2.03,.58,2.79,.39,.77,.93,1.35,1.62,1.75,.7,.4,1.51,.6,2.44,.6,.6,0,1.15-.09,1.65-.26s.93-.43,1.29-.78c.36-.35,.64-.78,.83-1.29l3.01,.54c-.24,.89-.67,1.66-1.29,2.33-.62,.66-1.4,1.18-2.33,1.54-.93,.37-2,.55-3.19,.55Z"/><path class="cls-1" d="M187.27,503.71l3.61,6.37,3.64-6.37h3.48l-5.1,8.18,5.15,8.18h-3.48l-3.69-6.12-3.67,6.12h-3.49l5.09-8.18-5.03-8.18h3.49Z"/><path class="cls-1" d="M201.29,526.21v-22.5h3.11v2.65h.27c.18-.34,.45-.73,.8-1.18,.35-.45,.83-.84,1.45-1.18,.62-.34,1.43-.51,2.45-.51,1.32,0,2.5,.33,3.54,1,1.04,.67,1.85,1.63,2.44,2.89,.59,1.26,.89,2.77,.89,4.54s-.29,3.28-.88,4.54c-.59,1.26-1.4,2.23-2.43,2.91-1.03,.68-2.21,1.02-3.53,1.02-1,0-1.81-.17-2.43-.5-.63-.33-1.12-.72-1.48-1.17-.36-.45-.63-.84-.82-1.19h-.19v8.68h-3.19Zm3.12-14.32c0,1.15,.17,2.16,.5,3.03,.33,.87,.82,1.54,1.45,2.03,.63,.49,1.41,.73,2.32,.73s1.75-.25,2.39-.76c.64-.51,1.12-1.2,1.45-2.07,.33-.87,.5-1.86,.5-2.95s-.16-2.05-.49-2.91-.81-1.54-1.45-2.04c-.64-.5-1.44-.75-2.4-.75s-1.7,.24-2.34,.71c-.64,.47-1.12,1.14-1.44,1.99-.33,.85-.49,1.85-.49,2.98Z"/><path class="cls-1" d="M223,498.25v21.82h-3.19v-21.82h3.19Z"/><path class="cls-1" d="M232.04,520.43c-1.04,0-1.97-.19-2.81-.58s-1.5-.95-1.99-1.69c-.49-.74-.73-1.64-.73-2.72,0-.92,.18-1.68,.53-2.28,.35-.6,.83-1.07,1.44-1.42,.6-.35,1.28-.61,2.02-.79,.75-.18,1.51-.31,2.28-.4,.98-.11,1.78-.21,2.39-.28,.61-.08,1.05-.2,1.33-.37,.28-.17,.42-.45,.42-.83v-.07c0-.93-.26-1.65-.78-2.16-.52-.51-1.3-.77-2.33-.77s-1.92,.24-2.53,.71-1.04,1-1.27,1.57l-2.99-.68c.36-.99,.88-1.8,1.56-2.41s1.48-1.06,2.37-1.34c.9-.28,1.84-.42,2.82-.42,.65,0,1.35,.08,2.08,.23s1.42,.43,2.07,.84c.64,.41,1.17,.98,1.58,1.73,.41,.75,.62,1.72,.62,2.91v10.87h-3.11v-2.24h-.13c-.21,.41-.52,.82-.93,1.21-.41,.4-.94,.73-1.59,.99-.65,.26-1.42,.39-2.32,.39Zm.69-2.56c.88,0,1.64-.17,2.26-.52,.63-.35,1.11-.8,1.44-1.37s.5-1.17,.5-1.82v-2.11c-.11,.11-.33,.22-.66,.31s-.69,.18-1.1,.25-.81,.13-1.2,.18c-.39,.05-.72,.1-.98,.13-.62,.08-1.18,.21-1.69,.39-.51,.19-.91,.45-1.21,.79-.3,.34-.45,.8-.45,1.37,0,.79,.29,1.38,.87,1.78,.58,.4,1.32,.6,2.23,.6Z"/><path class="cls-1" d="M245.96,501.18c-.55,0-1.03-.19-1.42-.56-.39-.37-.59-.82-.59-1.34s.2-.97,.59-1.35c.39-.37,.87-.56,1.42-.56s1.03,.19,1.42,.56c.39,.37,.59,.82,.59,1.34s-.2,.97-.59,1.35c-.39,.37-.87,.56-1.42,.56Zm-1.61,18.89v-16.36h3.19v16.36h-3.19Z"/><path class="cls-1" d="M255.01,510.36v9.72h-3.19v-16.36h3.06v2.66h.2c.38-.87,.97-1.56,1.77-2.09,.81-.53,1.82-.79,3.05-.79,1.11,0,2.09,.23,2.93,.7,.84,.46,1.49,1.16,1.95,2.07s.69,2.05,.69,3.4v10.41h-3.19v-10.03c0-1.19-.31-2.11-.93-2.79-.62-.67-1.47-1.01-2.55-1.01-.74,0-1.39,.16-1.97,.48-.57,.32-1.02,.79-1.35,1.4-.33,.62-.5,1.36-.5,2.22Z"/><path class="cls-1" d="M282.45,520.43c-1.04,0-1.97-.19-2.81-.58s-1.5-.95-1.99-1.69c-.49-.74-.73-1.64-.73-2.72,0-.92,.18-1.68,.53-2.28,.35-.6,.83-1.07,1.44-1.42,.6-.35,1.28-.61,2.02-.79,.75-.18,1.51-.31,2.28-.4,.98-.11,1.78-.21,2.39-.28,.61-.08,1.05-.2,1.33-.37,.28-.17,.42-.45,.42-.83v-.07c0-.93-.26-1.65-.78-2.16-.52-.51-1.3-.77-2.33-.77s-1.92,.24-2.53,.71-1.04,1-1.27,1.57l-2.99-.68c.36-.99,.88-1.8,1.56-2.41s1.48-1.06,2.37-1.34c.9-.28,1.84-.42,2.82-.42,.65,0,1.35,.08,2.08,.23s1.42,.43,2.07,.84c.64,.41,1.17,.98,1.58,1.73,.41,.75,.62,1.72,.62,2.91v10.87h-3.11v-2.24h-.13c-.21,.41-.52,.82-.93,1.21-.41,.4-.94,.73-1.59,.99-.65,.26-1.42,.39-2.32,.39Zm.69-2.56c.88,0,1.64-.17,2.26-.52,.63-.35,1.11-.8,1.44-1.37s.5-1.17,.5-1.82v-2.11c-.11,.11-.33,.22-.66,.31s-.69,.18-1.1,.25-.81,.13-1.2,.18c-.39,.05-.72,.1-.98,.13-.62,.08-1.18,.21-1.69,.39-.51,.19-.91,.45-1.21,.79-.3,.34-.45,.8-.45,1.37,0,.79,.29,1.38,.87,1.78,.58,.4,1.32,.6,2.23,.6Z"/><path class="cls-1" d="M310.5,503.71v2.56h-9.25v-2.56h9.25Zm-6.71,16.36v-18.26c0-1.02,.22-1.87,.67-2.55s1.04-1.19,1.78-1.52c.74-.34,1.54-.51,2.41-.51,.64,0,1.19,.05,1.64,.15s.79,.2,1.01,.28l-.75,2.58c-.15-.04-.34-.09-.58-.15s-.52-.09-.85-.09c-.77,0-1.33,.19-1.66,.57-.33,.38-.5,.94-.5,1.66v17.83h-3.18Z"/><path class="cls-1" d="M320.18,520.4c-1.61,0-3-.35-4.16-1.04-1.16-.69-2.06-1.67-2.69-2.93-.63-1.26-.94-2.74-.94-4.44s.31-3.15,.94-4.43c.63-1.28,1.51-2.28,2.64-2.99,1.13-.72,2.46-1.08,3.98-1.08,.92,0,1.82,.15,2.69,.46,.87,.31,1.64,.79,2.33,1.44,.69,.65,1.23,1.5,1.63,2.54,.4,1.04,.6,2.3,.6,3.79v1.13h-13.01v-2.39h9.89c0-.84-.17-1.58-.51-2.23-.34-.65-.82-1.16-1.43-1.54-.61-.38-1.33-.56-2.16-.56-.89,0-1.67,.22-2.34,.66s-1.18,1-1.53,1.7c-.36,.7-.54,1.46-.54,2.28v1.86c0,1.09,.19,2.03,.58,2.79,.39,.77,.93,1.35,1.62,1.75,.7,.4,1.51,.6,2.44,.6,.6,0,1.15-.09,1.65-.26s.93-.43,1.29-.78c.36-.35,.64-.78,.83-1.29l3.01,.54c-.24,.89-.67,1.66-1.29,2.33-.62,.66-1.4,1.18-2.33,1.54-.93,.37-2,.55-3.19,.55Z"/><path class="cls-1" d="M334.26,520.07l-4.81-16.36h3.29l3.21,12.02h.16l3.22-12.02h3.29l3.2,11.96h.16l3.18-11.96h3.29l-4.8,16.36h-3.25l-3.32-11.81h-.25l-3.32,11.81h-3.24Z"/><path class="cls-1" d="M371.04,503.71v2.56h-8.94v-2.56h8.94Zm-6.54-3.92h3.19v15.48c0,.62,.09,1.08,.28,1.39s.42,.52,.72,.63c.29,.11,.62,.16,.96,.16,.26,0,.48-.02,.67-.05,.19-.04,.34-.06,.45-.09l.58,2.63c-.18,.07-.45,.14-.79,.22-.34,.08-.77,.12-1.28,.12-.84,.01-1.62-.13-2.34-.45-.72-.31-1.31-.79-1.76-1.45-.45-.65-.67-1.47-.67-2.46v-16.14Z"/><path class="cls-1" d="M378.09,510.36v9.72h-3.19v-21.82h3.14v8.12h.2c.38-.88,.97-1.58,1.76-2.1s1.82-.78,3.09-.78c1.12,0,2.1,.23,2.95,.69,.84,.46,1.5,1.15,1.96,2.06,.47,.91,.7,2.05,.7,3.41v10.41h-3.19v-10.03c0-1.2-.31-2.13-.93-2.8s-1.48-1-2.58-1c-.75,0-1.43,.16-2.02,.48-.59,.32-1.06,.79-1.4,1.4-.34,.62-.51,1.36-.51,2.22Z"/><path class="cls-1" d="M394.57,501.18c-.55,0-1.03-.19-1.42-.56-.39-.37-.59-.82-.59-1.34s.2-.97,.59-1.35c.39-.37,.87-.56,1.42-.56s1.03,.19,1.42,.56c.39,.37,.59,.82,.59,1.34s-.2,.97-.59,1.35c-.39,.37-.87,.56-1.42,.56Zm-1.61,18.89v-16.36h3.19v16.36h-3.19Z"/><path class="cls-1" d="M403.61,510.36v9.72h-3.19v-16.36h3.06v2.66h.2c.38-.87,.97-1.56,1.77-2.09,.81-.53,1.82-.79,3.05-.79,1.11,0,2.09,.23,2.93,.7,.84,.46,1.49,1.16,1.95,2.07s.69,2.05,.69,3.4v10.41h-3.19v-10.03c0-1.19-.31-2.11-.93-2.79-.62-.67-1.47-1.01-2.55-1.01-.74,0-1.39,.16-1.97,.48-.57,.32-1.02,.79-1.35,1.4-.33,.62-.5,1.36-.5,2.22Z"/><path class="cls-1" d="M425.21,526.55c-1.3,0-2.42-.17-3.35-.51-.93-.34-1.7-.79-2.29-1.35-.59-.56-1.03-1.18-1.32-1.84l2.74-1.13c.19,.31,.45,.64,.77,1s.76,.65,1.32,.9c.56,.25,1.28,.37,2.16,.37,1.21,0,2.21-.29,2.99-.88,.79-.59,1.18-1.52,1.18-2.8v-3.22h-.2c-.19,.35-.47,.73-.83,1.16-.36,.43-.85,.8-1.48,1.11s-1.44,.47-2.44,.47c-1.29,0-2.46-.3-3.49-.91s-1.85-1.51-2.45-2.7c-.6-1.19-.9-2.65-.9-4.39s.3-3.23,.89-4.47c.59-1.24,1.41-2.2,2.44-2.86s2.21-1,3.53-1c1.02,0,1.84,.17,2.46,.51,.62,.34,1.11,.73,1.46,1.18,.35,.45,.62,.84,.82,1.18h.23v-2.65h3.12v16.73c0,1.41-.33,2.56-.98,3.46-.65,.9-1.54,1.57-2.65,2-1.11,.43-2.36,.65-3.76,.65Zm-.03-9.36c.92,0,1.69-.21,2.33-.64s1.12-1.05,1.45-1.85c.33-.81,.5-1.77,.5-2.9s-.16-2.07-.49-2.91c-.33-.84-.81-1.49-1.44-1.96-.63-.47-1.41-.71-2.34-.71s-1.76,.25-2.4,.74c-.64,.49-1.12,1.16-1.44,2.01s-.49,1.79-.49,2.83,.16,2.01,.49,2.82c.33,.81,.81,1.44,1.45,1.9,.64,.45,1.44,.68,2.38,.68Z"/><path class="cls-1" d="M449.12,507.7l-2.89,.51c-.12-.37-.31-.72-.57-1.05s-.61-.61-1.05-.82c-.44-.21-.99-.32-1.65-.32-.9,0-1.66,.2-2.26,.6-.6,.4-.91,.92-.91,1.55,0,.55,.2,.99,.61,1.32,.41,.33,1.06,.61,1.96,.82l2.6,.6c1.5,.35,2.63,.88,3.37,1.61,.74,.72,1.11,1.67,1.11,2.82,0,.98-.28,1.85-.85,2.62-.56,.76-1.35,1.36-2.35,1.79-1,.43-2.17,.65-3.49,.65-1.83,0-3.33-.39-4.48-1.18-1.16-.78-1.87-1.9-2.13-3.35l3.08-.47c.19,.8,.59,1.41,1.18,1.82,.6,.41,1.37,.61,2.33,.61,1.04,0,1.88-.22,2.5-.66,.62-.44,.94-.97,.94-1.6,0-.51-.19-.94-.57-1.29-.38-.35-.96-.61-1.74-.79l-2.77-.61c-1.53-.35-2.66-.9-3.38-1.66-.73-.76-1.09-1.72-1.09-2.89,0-.97,.27-1.81,.81-2.54,.54-.72,1.29-1.29,2.24-1.7,.95-.41,2.04-.61,3.27-.61,1.77,0,3.16,.38,4.18,1.14s1.69,1.79,2.01,3.06Z"/><path class="cls-1" d="M455.04,520.28c-.58,0-1.08-.21-1.5-.62-.42-.42-.63-.92-.63-1.51s.21-1.08,.63-1.5c.42-.41,.92-.62,1.5-.62s1.08,.21,1.5,.62c.42,.42,.63,.92,.63,1.5,0,.39-.1,.75-.29,1.07s-.45,.58-.77,.77c-.32,.19-.67,.29-1.07,.29Z"/></g></g></g></svg>