<?xml version="1.0" encoding="UTF-8"?><svg id="Layer_1" xmlns="http://www.w3.org/2000/svg" viewBox="0 0 350 80"><defs><style>.cls-1{fill:#69727b;}.cls-2{fill:#fff;}.cls-3{fill:#333;}.cls-4{fill:#a7cf38;}.cls-5{fill:#d0d1d0;}.cls-6{fill:#5c646c;}.cls-7{fill:#273719;}</style></defs><rect class="cls-7" width="350" height="80"/><g><path class="cls-2" d="M23.27,36.88l.98,7.09h.14l1.27-7.09h2.21l1.27,7.09h.14l.98-7.09h1.4l-1.24,8.4h-2.33l-1.27-7.09h-.14l-1.27,7.09h-2.31l-1.25-8.4h1.4Z"/><path class="cls-2" d="M35.07,39.19c1.73,0,2.88,1.24,2.88,2.99v.58h-4.47c.06,.92,.72,1.56,1.68,1.56,.85,0,1.32-.46,1.58-.97l1.09,.62c-.43,.67-1.15,1.49-2.65,1.49-1.8,0-3.07-1.37-3.07-3.18s1.24-3.08,2.96-3.08Zm1.52,2.58c-.06-.89-.62-1.44-1.54-1.44s-1.48,.55-1.58,1.44h3.12Z"/><path class="cls-2" d="M40.37,45.28h-1.32v-8.4h1.32v8.4Z"/><path class="cls-2" d="M44.58,39.2c1.62,0,2.65,.95,2.93,2.28l-1.3,.3c-.1-.77-.64-1.39-1.62-1.39s-1.76,.77-1.76,1.93,.72,1.94,1.77,1.94,1.46-.62,1.62-1.39l1.3,.3c-.28,1.23-1.22,2.28-2.93,2.28s-3.08-1.31-3.08-3.13,1.33-3.12,3.07-3.12Z"/><path class="cls-2" d="M51.31,39.2c1.74,0,3.07,1.27,3.07,3.12s-1.33,3.13-3.07,3.13-3.07-1.28-3.07-3.13,1.33-3.12,3.07-3.12Zm0,5.06c1.04,0,1.75-.76,1.75-1.94s-.71-1.93-1.75-1.93-1.75,.74-1.75,1.93,.71,1.94,1.75,1.94Z"/><path class="cls-2" d="M56.82,39.37v.83h.17c.28-.54,.79-.92,1.6-.92s1.33,.42,1.61,1h.17c.25-.53,.74-1,1.69-1,1.07,0,1.98,.78,1.98,2v4.01h-1.32v-3.91c0-.61-.46-.96-1.09-.96-.67,0-1.18,.41-1.18,1.22v3.65h-1.32v-3.91c0-.61-.43-.96-1.07-.96-.68,0-1.21,.41-1.21,1.22v3.65h-1.32v-5.91h1.3Z"/><path class="cls-2" d="M68.06,39.19c1.73,0,2.88,1.24,2.88,2.99v.58h-4.47c.06,.92,.72,1.56,1.68,1.56,.85,0,1.32-.46,1.58-.97l1.09,.62c-.43,.67-1.15,1.49-2.65,1.49-1.8,0-3.07-1.37-3.07-3.18s1.24-3.08,2.96-3.08Zm1.52,2.58c-.06-.89-.62-1.44-1.54-1.44s-1.48,.55-1.58,1.44h3.12Z"/><path class="cls-2" d="M76.38,39.37v-1.94h1.32v1.94h1.68v1.14h-1.68v3.29c0,.24,.11,.35,.32,.35h1.02v1.14h-1.58c-.62,0-1.08-.44-1.08-1.08v-3.69h-1.57v-1.14h1.57Z"/><path class="cls-2" d="M83.11,39.2c1.74,0,3.07,1.27,3.07,3.12s-1.33,3.13-3.07,3.13-3.07-1.28-3.07-3.13,1.33-3.12,3.07-3.12Zm0,5.06c1.04,0,1.75-.76,1.75-1.94s-.71-1.93-1.75-1.93-1.75,.74-1.75,1.93,.71,1.94,1.75,1.94Z"/><path class="cls-2" d="M91.67,39.37v-1.94h1.32v1.94h1.68v1.14h-1.68v3.29c0,.24,.11,.35,.32,.35h1.02v1.14h-1.58c-.62,0-1.08-.44-1.08-1.08v-3.69h-1.57v-1.14h1.57Z"/><path class="cls-2" d="M97.08,36.88v3.45h.14c.26-.55,.8-1.07,1.93-1.07,1.28,0,2.3,.88,2.3,2.46v3.55h-1.32v-3.43c0-.92-.52-1.43-1.43-1.43-1.03,0-1.63,.65-1.63,1.79v3.07h-1.32v-8.4h1.32Z"/><path class="cls-2" d="M105.49,39.19c1.73,0,2.88,1.24,2.88,2.99v.58h-4.47c.06,.92,.72,1.56,1.68,1.56,.85,0,1.32-.46,1.58-.97l1.09,.62c-.43,.67-1.15,1.49-2.65,1.49-1.8,0-3.07-1.37-3.07-3.18s1.24-3.08,2.96-3.08Zm1.52,2.58c-.06-.89-.62-1.44-1.54-1.44s-1.48,.55-1.58,1.44h3.12Z"/><path class="cls-2" d="M113.71,39.37l.82,4.68h.16l1.01-4.68h1.87l1,4.68h.16l.82-4.68h1.34l-1.24,5.91h-1.93l-1.01-4.68h-.16l-1.01,4.68h-1.92l-1.25-5.91h1.34Z"/><path class="cls-2" d="M124.51,39.2c1.74,0,3.07,1.27,3.07,3.12s-1.33,3.13-3.07,3.13-3.07-1.28-3.07-3.13,1.33-3.12,3.07-3.12Zm0,5.06c1.04,0,1.75-.76,1.75-1.94s-.71-1.93-1.75-1.93-1.75,.74-1.75,1.93,.71,1.94,1.75,1.94Z"/><path class="cls-2" d="M130.01,40.28h.17c.22-.65,.71-.94,1.51-.94h.62v1.24h-.96c-.8,0-1.31,.44-1.31,1.31v3.39h-1.32v-5.91h1.28v.91Z"/><path class="cls-2" d="M134.54,45.28h-1.32v-8.4h1.32v8.4Z"/><path class="cls-2" d="M141.85,45.28h-1.3v-.89h-.17c-.31,.53-.85,1.06-1.95,1.06-1.51,0-2.75-1.31-2.75-3.13s1.24-3.12,2.75-3.12c1.1,0,1.64,.53,1.95,1.04h.14v-3.36h1.32v8.4Zm-4.85-2.96c0,1.25,.76,1.95,1.77,1.95s1.75-.74,1.75-1.95-.71-1.94-1.75-1.94-1.77,.7-1.77,1.94Z"/><path class="cls-2" d="M144.23,36.69c.59,0,1.03,.42,1.03,1.02v1.43c0,.59-.43,1.03-1.02,1.03h-1v-.74h.84c.24,0,.34-.12,.34-.35v-.38s-.12,.02-.22,.02c-.55,0-1.02-.38-1.02-.98s.46-1.04,1.04-1.04Z"/><path class="cls-2" d="M148.33,39.2c1.21,0,2.04,.5,2.9,1.44l-.96,.73c-.55-.7-1.21-1.09-1.96-1.09-.61,0-1.01,.26-1.01,.7,0,.5,.5,.59,1.14,.67l.35,.05c1.62,.2,2.49,.61,2.49,1.78s-1.09,1.98-2.64,1.98c-1.66,0-2.58-.91-3.08-1.76l1.1-.65c.37,.83,1.15,1.31,2.02,1.31,.73,0,1.31-.32,1.31-.84s-.68-.6-1.32-.68l-.35-.05c-1.5-.19-2.31-.67-2.31-1.79s1.03-1.79,2.31-1.79Z"/><path class="cls-2" d="M161.72,39.37v5.91h-1.32v-4.77h-2.28v4.77h-1.32v-4.77h-1.57v-1.14h1.57v-1.35c0-.66,.46-1.13,1.1-1.13h1.38v1.14h-.84c-.22,0-.32,.11-.32,.35v1h3.6Zm.32-1.76c0,.55-.43,.96-.98,.96s-1-.41-1-.96,.44-.96,1-.96,.98,.4,.98,.96Z"/><path class="cls-2" d="M164.52,40.28h.17c.22-.65,.71-.94,1.51-.94h.62v1.24h-.96c-.8,0-1.31,.44-1.31,1.31v3.39h-1.32v-5.91h1.28v.91Z"/><path class="cls-2" d="M169.77,39.2c1.21,0,2.04,.5,2.9,1.44l-.96,.73c-.55-.7-1.21-1.09-1.96-1.09-.61,0-1.01,.26-1.01,.7,0,.5,.5,.59,1.14,.67l.35,.05c1.62,.2,2.49,.61,2.49,1.78s-1.09,1.98-2.64,1.98c-1.66,0-2.58-.91-3.08-1.76l1.1-.65c.37,.83,1.15,1.31,2.02,1.31,.73,0,1.31-.32,1.31-.84s-.68-.6-1.32-.68l-.35-.05c-1.5-.19-2.31-.67-2.31-1.79s1.03-1.79,2.31-1.79Z"/><path class="cls-2" d="M174.75,39.37v-1.94h1.32v1.94h1.68v1.14h-1.68v3.29c0,.24,.11,.35,.32,.35h1.02v1.14h-1.58c-.62,0-1.08-.44-1.08-1.08v-3.69h-1.57v-1.14h1.57Z"/><path class="cls-2" d="M182.27,39.37h1.29v.88h.17c.32-.52,.85-1.04,1.96-1.04,1.52,0,2.75,1.3,2.75,3.12s-1.22,3.13-2.75,3.13c-1.1,0-1.63-.53-1.96-1.06h-.14v3.29h-1.32v-8.31Zm4.85,2.95c0-1.25-.76-1.94-1.78-1.94s-1.75,.73-1.75,1.94,.71,1.95,1.75,1.95,1.78-.71,1.78-1.95Z"/><path class="cls-2" d="M190.86,40.28h.17c.22-.65,.71-.94,1.51-.94h.62v1.24h-.96c-.8,0-1.31,.44-1.31,1.31v3.39h-1.32v-5.91h1.28v.91Z"/><path class="cls-2" d="M196.42,39.19c1.73,0,2.88,1.24,2.88,2.99v.58h-4.47c.06,.92,.72,1.56,1.68,1.56,.85,0,1.32-.46,1.58-.97l1.09,.62c-.43,.67-1.15,1.49-2.65,1.49-1.8,0-3.07-1.37-3.07-3.18s1.24-3.08,2.96-3.08Zm1.52,2.58c-.06-.89-.62-1.44-1.54-1.44s-1.47,.55-1.58,1.44h3.12Z"/><path class="cls-2" d="M206.19,45.28h-1.3v-.89h-.17c-.31,.53-.85,1.06-1.96,1.06-1.51,0-2.75-1.31-2.75-3.13s1.24-3.12,2.75-3.12c1.1,0,1.64,.53,1.96,1.04h.14v-3.36h1.32v8.4Zm-4.85-2.96c0,1.25,.76,1.95,1.78,1.95s1.75-.74,1.75-1.95-.71-1.94-1.75-1.94-1.78,.7-1.78,1.94Z"/><path class="cls-2" d="M208.37,36.64c.55,0,.98,.4,.98,.96s-.43,.96-.98,.96-1-.41-1-.96,.44-.96,1-.96Zm.66,8.64h-1.32v-5.91h1.32v5.91Z"/><path class="cls-2" d="M213.24,39.2c1.62,0,2.65,.95,2.93,2.28l-1.3,.3c-.1-.77-.64-1.39-1.62-1.39s-1.76,.77-1.76,1.93,.72,1.94,1.78,1.94,1.46-.62,1.62-1.39l1.29,.3c-.28,1.23-1.22,2.28-2.93,2.28s-3.08-1.31-3.08-3.13,1.33-3.12,3.07-3.12Z"/><path class="cls-2" d="M218.13,39.37v-1.94h1.32v1.94h1.68v1.14h-1.68v3.29c0,.24,.11,.35,.32,.35h1.02v1.14h-1.58c-.62,0-1.08-.44-1.08-1.08v-3.69h-1.57v-1.14h1.57Z"/><path class="cls-2" d="M222.88,36.64c.55,0,.98,.4,.98,.96s-.43,.96-.98,.96-1-.41-1-.96,.44-.96,1-.96Zm.66,8.64h-1.32v-5.91h1.32v5.91Z"/><path class="cls-2" d="M227.75,39.2c1.74,0,3.07,1.27,3.07,3.12s-1.33,3.13-3.07,3.13-3.07-1.28-3.07-3.13,1.33-3.12,3.07-3.12Zm0,5.06c1.04,0,1.75-.76,1.75-1.94s-.71-1.93-1.75-1.93-1.75,.74-1.75,1.93,.71,1.94,1.75,1.94Z"/><path class="cls-2" d="M233.26,39.37v.97h.17c.26-.55,.8-1.07,1.93-1.07,1.28,0,2.3,.88,2.3,2.46v3.55h-1.32v-3.43c0-.92-.52-1.43-1.43-1.43-1.03,0-1.63,.65-1.63,1.79v3.07h-1.32v-5.91h1.29Z"/><path class="cls-2" d="M243.82,39.37v.83h.17c.28-.54,.79-.92,1.59-.92s1.33,.42,1.61,1h.17c.25-.53,.74-1,1.69-1,1.07,0,1.98,.78,1.98,2v4.01h-1.32v-3.91c0-.61-.46-.96-1.09-.96-.67,0-1.18,.41-1.18,1.22v3.65h-1.32v-3.91c0-.61-.43-.96-1.07-.96-.68,0-1.21,.41-1.21,1.22v3.65h-1.32v-5.91h1.29Z"/><path class="cls-2" d="M255.16,39.2c1.61,0,2.64,.92,2.64,2.33v3.75h-1.3v-.89h-.17c-.22,.47-.73,1.06-1.97,1.06-1.33,0-2.21-.72-2.21-1.82,0-1.01,.78-1.62,2.11-1.75l2.22-.23v-.16c0-.68-.49-1.14-1.38-1.14s-1.4,.43-1.73,1.09l-1.1-.62c.56-.9,1.44-1.62,2.88-1.62Zm-.52,5.16c1.22,0,1.85-.73,1.85-1.64v-.1l-1.93,.2c-.62,.06-1.03,.26-1.03,.74s.4,.79,1.12,.79Z"/><path class="cls-2" d="M260.53,40.28h.17c.22-.65,.71-.94,1.51-.94h.62v1.24h-.96c-.8,0-1.31,.44-1.31,1.31v3.39h-1.32v-5.91h1.28v.91Z"/><path class="cls-2" d="M267.08,41.62l2.61,3.66h-1.55l-2.01-2.87-1.07,.89v1.98h-1.32v-8.4h1.32v4.74h.14l2.67-2.26h1.88l-2.69,2.26Z"/><path class="cls-2" d="M272.79,39.19c1.73,0,2.88,1.24,2.88,2.99v.58h-4.47c.06,.92,.72,1.56,1.68,1.56,.85,0,1.32-.46,1.58-.97l1.09,.62c-.43,.67-1.15,1.49-2.65,1.49-1.8,0-3.07-1.37-3.07-3.18s1.24-3.08,2.96-3.08Zm1.52,2.58c-.06-.89-.62-1.44-1.54-1.44s-1.47,.55-1.58,1.44h3.12Z"/><path class="cls-2" d="M277.63,39.37v-1.94h1.32v1.94h1.68v1.14h-1.68v3.29c0,.24,.11,.35,.32,.35h1.02v1.14h-1.58c-.62,0-1.08-.44-1.08-1.08v-3.69h-1.57v-1.14h1.57Z"/><path class="cls-2" d="M286.13,39.37v-1.35c0-.66,.46-1.13,1.1-1.13h1.52v1.14h-.98c-.22,0-.32,.11-.32,.35v1h1.62v1.14h-1.62v4.77h-1.32v-4.77h-1.57v-1.14h1.57Z"/><path class="cls-2" d="M292.66,39.2c1.74,0,3.07,1.27,3.07,3.12s-1.33,3.13-3.07,3.13-3.07-1.28-3.07-3.13,1.33-3.12,3.07-3.12Zm0,5.06c1.04,0,1.75-.76,1.75-1.94s-.71-1.93-1.75-1.93-1.75,.74-1.75,1.93,.71,1.94,1.75,1.94Z"/><path class="cls-2" d="M298.16,40.28h.17c.22-.65,.71-.94,1.51-.94h.62v1.24h-.96c-.8,0-1.31,.44-1.31,1.31v3.39h-1.32v-5.91h1.28v.91Z"/><g><path class="cls-4" d="M305.46,37.55s.32-.42,1.73,.23c1.1,.51-1.95,1.95-2.25,1.36-.18-.37,.52-1.59,.52-1.59Z"/><path class="cls-6" d="M313.79,42.22c-1.72-1.21-3.53-4.76-3.74-4.76-.64,0-1.06,.25-1.06,.25l4.11,5.97s.92-1.3,.69-1.46Z"/><path class="cls-3" d="M314.64,42.78c-.26-.22-1.02-.37-1.21-.59-.79-.86-2.44-2.39-3.84-4.95-.52-.95-2.84,.71-2.84,.71l4.09,6.51s4.77-.88,3.8-1.69Z"/><path class="cls-6" d="M310.96,44.07c.23-.2,.22-1.32,.02-1.61-1.28-1.83-3.37-4.61-4.2-4.61s-1.02,1.16-1.5,1.16c-.42,0,.17-1.46,.17-1.46-.8,.87-.92,3.69-.92,3.69,0,0,3.33,5.5,6.42,2.84Z"/><path class="cls-1" d="M304.54,40.98s-.07-.73,.24-1.71c.03,1.11,.72,1.37,.53,2.84l-.77-1.13Z"/><path class="cls-1" d="M308.21,44.38c.86-2.01,4.57,.02,6.43-1.6,.3,.03,.91,1.07,.91,1.07,0,0-.69,2.7-7.34,.52Z"/><path class="cls-5" d="M304.55,40.89c-.19,0-.16,1.29,0,1.49,.99,1.24,2.02,1.55,3.39,3.21,1.65,1.98,7.72,1.04,7.72-.66,0-1.39-.17-1.25-.17-1.25-.43,1.13-4.28,1.37-5.68,1.07-3.09-.65-5.06-3.87-5.27-3.87Z"/><path class="cls-3" d="M306.81,38.16c.15,0,.27,.14,.27,.32s-.12,.32-.27,.32-.27-.14-.27-.32,.12-.32,.27-.32Z"/><path class="cls-3" d="M307.57,39.03c.15,0,.27,.14,.27,.32s-.12,.32-.27,.32-.27-.14-.27-.32,.12-.32,.27-.32Z"/><path class="cls-3" d="M308.24,39.85c.15,0,.27,.14,.27,.32s-.12,.32-.27,.32-.27-.14-.27-.32,.12-.32,.27-.32Z"/><ellipse class="cls-3" cx="308.94" cy="41.21" rx=".27" ry=".32"/><path class="cls-3" d="M309.6,41.68c.15,0,.27,.14,.27,.32s-.12,.32-.27,.32-.27-.14-.27-.32,.12-.32,.27-.32Z"/><path class="cls-3" d="M310.28,42.59c.15,0,.27,.14,.27,.32s-.12,.32-.27,.32-.27-.14-.27-.32,.12-.32,.27-.32Z"/><path class="cls-4" d="M310.29,43.14s-.09-.02-.13-.06c-.07-.09-.07-.23,0-.31,.04-.05,1.04-1.24,2.97-1.24,.1,0,.18,.1,.18,.22s-.08,.22-.18,.22c-1.77,0-2.71,1.1-2.71,1.11-.04,.04-.08,.06-.13,.06Z"/><path class="cls-4" d="M309.61,42.22s-.08-.02-.11-.05c-.08-.08-.09-.21-.03-.31,.03-.05,.83-1.24,3.04-1.24,.1,0,.18,.1,.18,.22s-.08,.22-.18,.22c-2.01,0-2.74,1.07-2.75,1.08-.04,.05-.09,.08-.14,.08Z"/><path class="cls-4" d="M308.95,41.43s-.09-.02-.12-.06c-.07-.08-.08-.22-.01-.31,.9-1.21,3.03-1.22,3.12-1.22,.1,0,.18,.1,.18,.22s-.08,.22-.18,.22c-.02,0-2.05,.01-2.85,1.08-.04,.05-.09,.07-.13,.07Z"/><path class="cls-4" d="M308.25,40.39c-.06,0-.11-.03-.15-.09-.06-.1-.04-.23,.04-.31,.05-.04,1.13-1,3.15-1,.1,0,.18,.1,.18,.22s-.08,.22-.18,.22c-1.89,0-2.92,.91-2.93,.91-.03,.03-.07,.04-.11,.04Z"/><path class="cls-4" d="M307.58,39.58c-.05,0-.11-.03-.14-.08-.06-.1-.05-.23,.03-.31,.04-.04,1.07-1.02,3.27-1.02,.1,0,.18,.1,.18,.22s-.08,.22-.18,.22c-2.07,0-3.04,.91-3.05,.92-.03,.03-.07,.05-.11,.05Z"/></g><path class="cls-2" d="M318.95,39.2c1.21,0,2.04,.5,2.9,1.44l-.96,.73c-.55-.7-1.21-1.09-1.96-1.09-.61,0-1.01,.26-1.01,.7,0,.5,.5,.59,1.14,.67l.35,.05c1.62,.2,2.5,.61,2.5,1.78s-1.09,1.98-2.64,1.98c-1.66,0-2.58-.91-3.08-1.76l1.1-.65c.37,.83,1.15,1.31,2.01,1.31,.73,0,1.31-.32,1.31-.84s-.68-.6-1.32-.68l-.35-.05c-1.5-.19-2.31-.67-2.31-1.79s1.03-1.79,2.31-1.79Z"/></g></svg>