<?xml version="1.0" encoding="UTF-8"?><svg id="Layer_2" xmlns="http://www.w3.org/2000/svg" xmlns:xlink="http://www.w3.org/1999/xlink" viewBox="0 0 900 600"><defs><style>.cls-1{fill:none;}.cls-2{clip-path:url(#clippath);}.cls-3{fill:#fff;}.cls-4{fill:#acff00;}.cls-5,.cls-6{fill:#0c1615;}.cls-7{clip-path:url(#clippath-1);}.cls-8{clip-path:url(#clippath-2);}.cls-9{fill:#a1a7a7;}.cls-9,.cls-10,.cls-11,.cls-12,.cls-13,.cls-14,.cls-15{stroke:#0c1615;}.cls-16{opacity:.6;}.cls-10{fill:url(#linear-gradient-3);}.cls-11{fill:url(#linear-gradient-4);}.cls-12{fill:url(#linear-gradient-2);}.cls-13{fill:url(#linear-gradient-5);}.cls-14{fill:url(#linear-gradient-6);}.cls-6{fill-rule:evenodd;}.cls-15{fill:url(#linear-gradient);}</style><linearGradient id="linear-gradient" x1="355.76" y1="-1272.93" x2="280.37" y2="-1091.67" gradientTransform="translate(0 -750.97) scale(1 -1)" gradientUnits="userSpaceOnUse"><stop offset="0" stop-color="#acff00"/><stop offset="1" stop-color="#d4ff78" stop-opacity=".4"/></linearGradient><linearGradient id="linear-gradient-2" x1="349.2" y1="-1257.26" x2="284.5" y2="-1101.71" xlink:href="#linear-gradient"/><clipPath id="clippath"><rect class="cls-1" x="275.95" y="382.09" width="71.38" height="64.68" transform="translate(-153.19 184.64) rotate(-26.75)"/></clipPath><linearGradient id="linear-gradient-3" x1="296.43" y1="-1112.88" x2="360.79" y2="-990.3" gradientTransform="translate(0 -750.97) scale(1 -1)" gradientUnits="userSpaceOnUse"><stop offset="0" stop-color="#acff00"/><stop offset="1" stop-color="#e0ff9d"/></linearGradient><linearGradient id="linear-gradient-4" x1="301.97" y1="-1102.26" x2="357.2" y2="-997.07" xlink:href="#linear-gradient"/><clipPath id="clippath-1"><rect class="cls-1" x="312.07" y="264.35" width="45.62" height="50.34" transform="translate(-64.27 480.94) rotate(-66.47)"/></clipPath><linearGradient id="linear-gradient-5" x1="349" y1="-917.81" x2="281.63" y2="-839.86" xlink:href="#linear-gradient"/><linearGradient id="linear-gradient-6" x1="343.15" y1="-911.08" x2="285.34" y2="-844.18" xlink:href="#linear-gradient"/><clipPath id="clippath-2"><rect class="cls-1" x="290.61" y="103.52" width="37.46" height="33.95" transform="translate(5.4 254.03) rotate(-45)"/></clipPath></defs><g id="Layer_1-2"><g><g><rect x=".5" y=".5" width="899" height="599"/><path d="M899,1V599H1V1H899m1-1H0V600H900V0h0Z"/></g><path class="cls-15" d="M382.89,378.51c19.84,39.35,3.8,87.45-35.83,107.43-39.63,19.98-87.84,4.27-107.67-35.09-19.84-39.35-3.8-87.45,35.84-107.43,39.63-19.98,87.84-4.26,107.67,35.09Z"/><path class="cls-12" d="M372.42,383.22c17,33.73,3.26,74.97-30.72,92.09-33.98,17.13-75.3,3.66-92.3-30.08-17-33.73-3.26-74.97,30.72-92.09,33.98-17.13,75.3-3.66,92.3,30.08Z"/><g class="cls-2"><g><path class="cls-5" d="M327.77,414.31l24.07,6.26c5.1,1.33,6.97,6.29,2.07,8.76l-9.22,4.65c-1.45,.73-3.12,.91-4.63,.46l-18.71-5.44c-.92-.27-1.94,.25-2.28,1.15l-6.84,18.33c-.55,1.46-1.66,2.69-3.11,3.42l-9.36,4.72c-4.86,2.45-10.02-1.76-8.12-6.65l8.48-21.9c.54-1.42-.23-2.9-1.69-3.26l-20.46-5.08c-5.17-1.25-5.59-8.01-.66-10.5l8.46-4.27c1.42-.71,3.04-.89,4.5-.49l18.33,4.95,19.16,4.9Z"/><path class="cls-6" d="M313.46,398.5l19.76-9.96c2.92,5.8,.66,12.83-5.04,15.7-5.7,2.88-12.7,.51-15.62-5.29h.02c-2.1-4.17-1.26-7.07-.2-10.7,.82-2.81,1.76-6.06,1.57-10.68-.03-.67,.75-1.09,1.28-.67,3.58,2.78,6.67,3.9,9.33,4.87,3.59,1.3,6.41,2.32,8.64,6.75l-19.75,9.98Z"/></g></g><path class="cls-10" d="M386.34,311.93c-12.38,28.42-45.61,41.36-74.23,28.89-28.62-12.46-41.78-45.61-29.41-74.03,12.38-28.42,45.61-41.36,74.23-28.89,28.62,12.46,41.79,45.61,29.41,74.03Z"/><path class="cls-11" d="M379.07,308.37c-10.6,24.35-39.08,35.44-63.61,24.76-24.53-10.68-35.8-39.08-25.2-63.43,10.6-24.35,39.08-35.44,63.61-24.76,24.53,10.68,35.8,39.08,25.2,63.43Z"/><g class="cls-7"><g><path class="cls-5" d="M342.21,298.22l7.45,15.88c1.57,3.37-.27,6.61-3.82,5.07l-6.67-2.91c-1.05-.46-1.9-1.28-2.33-2.3l-5.48-12.6c-.27-.62-1.01-.94-1.65-.72l-13.02,4.55c-1.04,.36-2.21,.31-3.26-.15l-6.78-2.95c-3.52-1.53-3.56-6.23-.05-7.4l15.7-5.26c1.01-.34,1.47-1.43,1.01-2.39l-6.46-13.39c-1.65-3.37,1.83-6.64,5.4-5.09l6.13,2.67c1.03,.45,1.85,1.25,2.29,2.22l5.57,12.17,5.98,12.6Z"/><path class="cls-6" d="M344.34,283.33l14.31,6.23c-1.83,4.2-6.66,6.14-10.79,4.34-4.13-1.8-6-6.66-4.17-10.86h.01c1.31-3.01,3.26-3.86,5.71-4.92,1.89-.82,4.08-1.78,6.5-3.96,.35-.32,.93-.08,.94,.39,.1,3.2,.89,5.38,1.57,7.26,.91,2.53,1.63,4.52,.23,7.73l-14.31-6.22Z"/></g></g><path class="cls-13" d="M338.78,91.05c16.26,16.26,16.17,42.72-.21,59.1-16.38,16.38-42.84,16.47-59.1,.21-16.26-16.26-16.17-42.72,.21-59.1,16.38-16.38,42.84-16.47,59.1-.21Z"/><path class="cls-14" d="M334.33,95.12c13.93,13.92,13.85,36.58-.18,50.61-14.03,14.03-36.69,14.1-50.61,.18-13.92-13.92-13.85-36.59,.18-50.61,14.03-14.03,36.69-14.1,50.61-.18Z"/><g class="cls-8"><g><path class="cls-5" d="M317.36,117.79l13.03-.84c2.76-.17,4.51,1.99,2.47,4.02l-3.83,3.83c-.6,.6-1.4,.97-2.23,.99l-10.22,.36c-.5,.02-.93,.44-.95,.95l-.4,10.26c-.03,.82-.38,1.61-.99,2.22l-3.89,3.89c-2.02,2.02-5.28,.77-5.14-1.98l.63-12.31c.04-.8-.59-1.41-1.38-1.35l-11.04,.83c-2.79,.23-4.1-3.07-2.05-5.12l3.52-3.52c.59-.59,1.37-.94,2.16-.98l9.95-.54,10.35-.71Z"/><path class="cls-6" d="M307.63,112.26l8.21-8.21c2.41,2.41,2.44,6.28,.07,8.65s-6.25,2.34-8.65-.07h0c-1.73-1.74-1.79-3.32-1.86-5.3-.05-1.54-.12-3.31-.97-5.58-.12-.33,.2-.67,.53-.54,2.24,.8,3.97,.85,5.45,.89,2,.06,3.58,.1,5.42,1.94l-8.21,8.22Z"/></g></g><path class="cls-4" d="M560.84,213.94c-.82,.08-1.56-.52-1.64-1.34-.08-.82,.52-1.56,1.34-1.64l.3,2.99Zm64.05-45.87l-1.44-.42h0l1.44,.42Zm-45.13-31.55l-1.5-.11h0l1.5,.11Zm54.02-66.72l.77-1.29h0l-.77,1.29Zm23.62-14.26l1.49-.19h0l-1.49,.19Zm-160.12-10.12c-.64,.52-1.59,.43-2.11-.21-.52-.64-.43-1.59,.21-2.11l1.9,2.32Zm74.41,149.45c.79,.23,1.25,1.07,1.02,1.86-.23,.79-1.07,1.25-1.86,1.02l.85-2.88Zm-12.97,18.21l-.7,1.33c-.38-.2-.65-.55-.75-.96-.1-.41-.03-.85,.21-1.2l1.25,.84Zm19.33,8.5c.73,.39,1.01,1.29,.63,2.03-.39,.73-1.29,1.01-2.03,.63l1.4-2.65Zm-17.37-9.12q-.15-1.49-.15-1.49h.03s.06,0,.1-.01c.09-.01,.24-.03,.43-.05,.38-.05,.94-.12,1.66-.23,1.44-.22,3.52-.57,6.05-1.12,5.07-1.09,11.94-2.95,19.15-6.01,14.46-6.13,30.01-16.97,35.49-35.89l2.88,.83c-5.84,20.18-22.38,31.53-37.2,37.82-7.43,3.15-14.49,5.06-19.69,6.18-2.6,.56-4.74,.93-6.24,1.15-.75,.11-1.33,.19-1.74,.24-.2,.03-.36,.04-.46,.05-.05,0-.09,.01-.12,.01h-.05s0,0-.15-1.49Zm62.76-44.8c2.73-9.42,1.4-16.6-1.97-21.95-3.4-5.39-8.99-9.1-15.07-11.3-6.09-2.2-12.52-2.83-17.42-2.19-2.46,.32-4.43,.95-5.77,1.78-1.33,.82-1.89,1.72-1.95,2.63l-2.99-.22c.16-2.18,1.53-3.83,3.37-4.96,1.83-1.12,4.25-1.84,6.95-2.2,5.41-.71,12.33,0,18.83,2.34,6.5,2.35,12.73,6.4,16.59,12.52,3.89,6.17,5.25,14.25,2.32,24.38l-2.88-.83Zm-42.19-31.03c-.17,2.38,1.44,5.53,5.01,8.65,3.5,3.06,8.62,5.85,14.77,7.55,12.27,3.37,28.47,2.31,43.71-9.57l1.85,2.37c-16.07,12.53-33.27,13.7-46.36,10.1-6.53-1.79-12.07-4.78-15.95-8.18-3.81-3.34-6.3-7.32-6.03-11.12l2.99,.22Zm63.49,6.62c7.6-5.93,11.91-12.58,13.84-19.38,1.93-6.81,1.5-13.88-.54-20.66-4.1-13.62-14.65-25.88-25.04-32.12l1.55-2.57c10.97,6.59,22.03,19.44,26.36,33.82,2.18,7.22,2.67,14.88,.56,22.34-2.12,7.48-6.82,14.65-14.88,20.93l-1.85-2.37Zm-11.74-72.16c-10.52-6.32-27.54-12.78-41.86-13.98-7.18-.61-13.46,.13-17.91,2.64-4.32,2.44-7.1,6.66-7.17,13.62l-3-.03c.08-7.92,3.35-13.18,8.69-16.2,5.22-2.95,12.22-3.64,19.64-3.02,14.87,1.25,32.32,7.9,43.15,14.4l-1.54,2.57Zm-66.94,2.27c-.06,6.45,5.27,11.69,14.3,15.1,8.92,3.38,20.89,4.71,32.73,3.64,11.85-1.07,23.38-4.53,31.52-10.56,8.06-5.97,12.79-14.44,11.31-25.82l2.97-.39c1.65,12.62-3.7,22.1-12.5,28.62-8.73,6.46-20.85,10.03-33.03,11.13-12.19,1.1-24.62-.25-34.06-3.83-9.33-3.53-16.31-9.51-16.23-17.94l3,.03Zm89.85-17.63c-1.48-11.36-9.08-20.02-20.68-26.07-11.61-6.06-27.09-9.4-43.88-10.12-33.63-1.43-71.92,7.72-94.08,25.87l-1.9-2.32c22.92-18.78,62.03-28,96.1-26.55,17.06,.72,33.01,4.12,45.14,10.45,12.15,6.34,20.62,15.7,22.27,28.34l-2.97,.39Zm-85.07,142.02c.47,.14,.82-.01,.88-.04,.1-.04,.14-.08,.12-.06-.05,.03-.16,.13-.35,.33-.37,.38-.87,.98-1.47,1.75-1.2,1.53-2.72,3.61-4.22,5.72-1.49,2.11-2.96,4.23-4.05,5.82-.54,.8-.99,1.46-1.31,1.93-.16,.23-.28,.41-.36,.54-.04,.06-.07,.11-.1,.14l-.03,.04h0l-1.24-.82-1.25-.84h0l.02-.05s.05-.08,.1-.14c.08-.13,.21-.31,.37-.54,.32-.47,.77-1.14,1.32-1.94,1.1-1.6,2.57-3.74,4.07-5.86,1.5-2.12,3.06-4.25,4.31-5.84,.62-.79,1.19-1.48,1.66-1.96,.23-.24,.47-.48,.71-.66,.12-.09,.29-.21,.5-.29,.17-.07,.61-.24,1.15-.08l-.85,2.88Zm-11.43,14.01l18.64,9.82-1.4,2.65-18.64-9.82,1.4-2.65Z"/><path class="cls-9" d="M382.33,157.4h118c21.82,0,39.5,17.68,39.5,39.5v103c0,21.82-17.68,39.5-39.5,39.5h-118c-21.82,0-39.5-17.68-39.5-39.5v-103c0-21.82,17.68-39.5,39.5-39.5Z"/><path class="cls-5" d="M379.28,228.35c-1.68,0-3.18-.3-4.48-.9s-2.32-1.47-3.07-2.62c-.72-1.17-1.09-2.59-1.09-4.26v-.8h3.42v.8c0,1.58,.47,2.76,1.41,3.55,.96,.79,2.23,1.18,3.81,1.18s2.81-.33,3.62-.99c.81-.68,1.22-1.56,1.22-2.62,0-.7-.19-1.28-.58-1.73-.38-.45-.93-.8-1.63-1.06-.7-.28-1.55-.53-2.53-.77l-1.18-.29c-1.43-.34-2.68-.76-3.74-1.25-1.04-.51-1.86-1.18-2.43-2.02s-.86-1.9-.86-3.2,.32-2.45,.96-3.39c.66-.94,1.57-1.66,2.72-2.18,1.15-.51,2.51-.77,4.06-.77s2.94,.27,4.16,.8c1.24,.53,2.21,1.32,2.91,2.37,.7,1.04,1.06,2.36,1.06,3.94v1.15h-3.42v-1.15c0-.96-.2-1.74-.61-2.34-.38-.6-.93-1.04-1.63-1.31-.7-.28-1.52-.42-2.46-.42-1.36,0-2.43,.29-3.2,.86-.75,.55-1.12,1.33-1.12,2.34,0,.68,.16,1.25,.48,1.7,.34,.43,.83,.78,1.47,1.06,.64,.28,1.44,.52,2.4,.74l1.18,.29c1.45,.32,2.73,.74,3.84,1.25,1.11,.49,1.98,1.16,2.62,2.02,.64,.85,.96,1.95,.96,3.3s-.34,2.52-1.02,3.52c-.66,1-1.61,1.79-2.85,2.37-1.24,.56-2.7,.83-4.38,.83Zm17.9-.45c-.96,0-1.73-.29-2.3-.86-.56-.58-.83-1.34-.83-2.3v-9.82h-4.35v-2.78h4.35v-5.22h3.3v5.22h4.7v2.78h-4.7v9.25c0,.64,.3,.96,.9,.96h3.3v2.78h-4.35Zm15.41,.45c-1.6,0-3-.33-4.19-.99-1.19-.68-2.13-1.63-2.82-2.85-.66-1.24-.99-2.67-.99-4.29v-.38c0-1.64,.33-3.07,.99-4.29,.66-1.24,1.58-2.19,2.75-2.85,1.19-.68,2.57-1.02,4.13-1.02s2.84,.34,3.97,1.02c1.15,.66,2.05,1.59,2.69,2.78,.64,1.2,.96,2.59,.96,4.19v1.25h-12.13c.04,1.39,.5,2.5,1.38,3.33,.9,.81,2,1.22,3.33,1.22,1.24,0,2.16-.28,2.78-.83,.64-.55,1.13-1.19,1.47-1.92l2.72,1.41c-.3,.6-.74,1.23-1.31,1.89-.55,.66-1.29,1.22-2.21,1.66-.92,.45-2.09,.67-3.52,.67Zm-4.61-9.95h8.74c-.09-1.2-.51-2.12-1.28-2.78-.77-.68-1.77-1.02-3.01-1.02s-2.25,.34-3.04,1.02c-.77,.66-1.24,1.59-1.41,2.78Zm16.06,15.9v-22.18h3.23v2.27h.51c.41-.7,1.01-1.33,1.82-1.89,.83-.56,2.02-.83,3.55-.83,1.32,0,2.53,.32,3.62,.96,1.11,.64,1.99,1.57,2.66,2.78,.68,1.19,1.02,2.64,1.02,4.35v.48c0,1.71-.33,3.17-.99,4.38-.66,1.2-1.55,2.11-2.66,2.75-1.11,.64-2.32,.96-3.65,.96-1.02,0-1.89-.13-2.59-.38-.7-.26-1.27-.58-1.7-.96-.43-.4-.77-.82-1.02-1.25h-.51v8.54h-3.3Zm8.16-8.83c1.45,0,2.64-.46,3.55-1.38,.92-.92,1.38-2.23,1.38-3.94v-.29c0-1.68-.47-2.99-1.41-3.9-.92-.92-2.09-1.38-3.52-1.38s-2.58,.46-3.52,1.38c-.92,.92-1.38,2.22-1.38,3.9v.29c0,1.71,.46,3.02,1.38,3.94,.94,.92,2.11,1.38,3.52,1.38Zm18.13,2.43v-20.03h-.51l-3.68,7.55h-3.55l4.96-9.92h6.14v22.4h-3.36Z"/><path class="cls-4" d="M460.43,228.35c-.75,0-1.38-.24-1.89-.74-.49-.49-.74-1.12-.74-1.89s.24-1.39,.74-1.86c.51-.49,1.14-.74,1.89-.74s1.36,.25,1.86,.74c.51,.49,.77,1.11,.77,1.86s-.26,1.4-.77,1.89c-.49,.49-1.11,.74-1.86,.74Z"/><path class="cls-5" d="M370.56,272.9v-10.18h3.44c.8,0,1.45,.14,1.96,.43,.51,.28,.89,.67,1.13,1.16,.24,.49,.37,1.03,.37,1.63s-.12,1.15-.37,1.64c-.24,.49-.62,.88-1.12,1.17-.51,.29-1.16,.43-1.95,.43h-2.47v-1.09h2.43c.55,0,.99-.1,1.32-.28,.33-.19,.57-.44,.72-.77,.15-.32,.23-.69,.23-1.1s-.08-.77-.23-1.09c-.15-.32-.39-.57-.73-.76-.34-.18-.78-.28-1.33-.28h-2.17v9.09h-1.23Zm8.73,0v-7.64h1.17v7.64h-1.17Zm.6-8.91c-.23,0-.43-.08-.59-.23-.16-.16-.24-.34-.24-.56s.08-.41,.24-.56c.16-.16,.36-.23,.59-.23s.42,.08,.59,.23c.17,.16,.25,.34,.25,.56s-.08,.41-.25,.56c-.16,.16-.36,.23-.59,.23Zm5.83,9.07c-.72,0-1.33-.17-1.85-.51-.52-.34-.91-.8-1.19-1.4-.28-.59-.42-1.27-.42-2.03s.14-1.46,.43-2.05c.29-.6,.69-1.06,1.2-1.4,.52-.34,1.12-.51,1.81-.51,.54,0,1.02,.1,1.45,.3,.43,.2,.78,.48,1.06,.84,.27,.36,.45,.78,.51,1.25h-1.17c-.09-.35-.29-.66-.6-.93-.3-.27-.72-.41-1.23-.41-.46,0-.86,.12-1.2,.36-.34,.24-.61,.57-.8,1-.19,.43-.28,.93-.28,1.51s.09,1.1,.28,1.54c.19,.44,.45,.78,.79,1.02,.35,.24,.75,.36,1.21,.36,.31,0,.58-.05,.83-.16,.25-.11,.46-.26,.63-.46,.17-.2,.29-.44,.37-.72h1.17c-.07,.45-.23,.86-.49,1.22-.26,.36-.6,.64-1.03,.86-.43,.21-.92,.31-1.48,.31Zm5.81-2.94l-.02-1.45h.24l3.34-3.4h1.45l-3.56,3.6h-.1l-1.35,1.25Zm-1.09,2.78v-10.18h1.17v10.18h-1.17Zm4.85,0l-2.98-3.78,.84-.82,3.64,4.59h-1.49Zm8.95,.18c-.48,0-.92-.09-1.32-.27-.4-.19-.71-.45-.94-.8-.23-.35-.35-.78-.35-1.27,0-.44,.09-.79,.26-1.06,.17-.28,.4-.49,.69-.65,.29-.16,.61-.27,.95-.35,.35-.08,.7-.14,1.06-.19,.46-.06,.84-.1,1.13-.13,.29-.03,.5-.09,.64-.16,.14-.08,.2-.21,.2-.4v-.04c0-.49-.13-.87-.4-1.14-.26-.27-.67-.41-1.21-.41s-1,.12-1.32,.37c-.32,.24-.54,.51-.67,.79l-1.11-.4c.2-.46,.46-.82,.79-1.08,.34-.26,.7-.44,1.09-.55,.4-.11,.79-.16,1.17-.16,.25,0,.53,.03,.85,.09,.32,.06,.63,.17,.93,.35,.3,.18,.55,.45,.75,.81,.2,.36,.3,.85,.3,1.45v5.03h-1.17v-1.03h-.06c-.08,.17-.21,.34-.4,.53-.18,.19-.43,.35-.74,.48-.31,.13-.68,.2-1.13,.2Zm.18-1.05c.46,0,.85-.09,1.17-.27,.32-.18,.56-.42,.73-.71,.17-.29,.25-.59,.25-.91v-1.07c-.05,.06-.16,.11-.33,.16-.17,.05-.36,.09-.58,.12-.22,.03-.43,.06-.63,.09-.2,.02-.37,.04-.49,.06-.31,.04-.59,.1-.86,.19-.26,.09-.47,.22-.64,.39-.16,.17-.24,.41-.24,.71,0,.41,.15,.72,.45,.93,.31,.21,.69,.31,1.16,.31Zm14.81-5.05l-1.05,.3c-.07-.18-.16-.35-.29-.51-.13-.17-.3-.31-.52-.42-.22-.11-.5-.16-.84-.16-.47,0-.86,.11-1.17,.32-.31,.21-.46,.48-.46,.81,0,.29,.11,.52,.32,.69,.21,.17,.54,.31,.99,.42l1.13,.28c.68,.17,1.19,.42,1.53,.76,.34,.34,.5,.77,.5,1.31,0,.44-.13,.83-.38,1.17-.25,.35-.6,.62-1.04,.82-.45,.2-.97,.3-1.56,.3-.78,0-1.42-.17-1.93-.51-.51-.34-.83-.83-.97-1.48l1.11-.28c.11,.41,.31,.72,.6,.93,.3,.21,.69,.31,1.17,.31,.55,0,.98-.12,1.3-.35,.32-.23,.49-.52,.49-.84,0-.26-.09-.49-.28-.67-.19-.18-.47-.32-.85-.41l-1.27-.3c-.7-.17-1.21-.42-1.54-.77-.32-.35-.49-.79-.49-1.32,0-.43,.12-.81,.36-1.14,.24-.33,.58-.59,1-.78,.42-.19,.9-.28,1.44-.28,.76,0,1.35,.17,1.78,.5,.43,.33,.74,.77,.93,1.31Zm3.08,1.33v4.59h-1.17v-7.64h1.13v1.19h.1c.18-.39,.45-.7,.82-.94,.36-.24,.83-.36,1.41-.36,.52,0,.97,.11,1.36,.32,.39,.21,.69,.53,.9,.96,.21,.42,.32,.96,.32,1.61v4.85h-1.17v-4.77c0-.6-.16-1.07-.47-1.4-.31-.34-.74-.51-1.28-.51-.38,0-.71,.08-1.01,.24-.29,.16-.52,.4-.69,.71-.17,.31-.25,.69-.25,1.13Zm10.22,4.75c-.74,0-1.37-.16-1.9-.49-.53-.33-.94-.79-1.23-1.37-.29-.59-.43-1.28-.43-2.06s.14-1.47,.43-2.07c.29-.6,.69-1.07,1.2-1.4,.52-.34,1.12-.51,1.81-.51,.4,0,.79,.07,1.18,.2,.39,.13,.74,.35,1.06,.65,.32,.3,.57,.69,.76,1.17,.19,.49,.28,1.09,.28,1.8v.5h-5.89v-1.01h4.69c0-.43-.09-.82-.26-1.15-.17-.34-.41-.6-.73-.8-.31-.2-.68-.29-1.1-.29-.47,0-.87,.12-1.21,.35-.34,.23-.6,.53-.78,.9-.18,.37-.27,.76-.27,1.18v.68c0,.58,.1,1.07,.3,1.47,.2,.4,.48,.7,.84,.91,.36,.21,.77,.31,1.25,.31,.31,0,.59-.04,.84-.13,.25-.09,.47-.22,.65-.4,.18-.18,.32-.4,.42-.67l1.13,.32c-.12,.39-.32,.72-.6,1.01-.28,.29-.63,.51-1.04,.68-.41,.16-.88,.24-1.4,.24Zm7.19,.02c-.48,0-.92-.09-1.32-.27-.39-.19-.71-.45-.94-.8-.23-.35-.35-.78-.35-1.27,0-.44,.09-.79,.26-1.06,.17-.28,.4-.49,.69-.65,.29-.16,.61-.27,.95-.35,.35-.08,.7-.14,1.06-.19,.46-.06,.84-.1,1.13-.13,.29-.03,.5-.09,.64-.16,.14-.08,.2-.21,.2-.4v-.04c0-.49-.13-.87-.4-1.14-.27-.27-.67-.41-1.21-.41s-1,.12-1.32,.37-.54,.51-.67,.79l-1.11-.4c.2-.46,.46-.82,.8-1.08,.33-.26,.7-.44,1.09-.55,.4-.11,.79-.16,1.17-.16,.24,0,.53,.03,.85,.09,.32,.06,.63,.17,.93,.35,.3,.18,.55,.45,.75,.81,.2,.36,.3,.85,.3,1.45v5.03h-1.17v-1.03h-.06c-.08,.17-.21,.34-.4,.53-.19,.19-.43,.35-.74,.48-.31,.13-.68,.2-1.13,.2Zm.18-1.05c.46,0,.85-.09,1.17-.27,.32-.18,.56-.42,.73-.71,.17-.29,.25-.59,.25-.91v-1.07c-.05,.06-.16,.11-.33,.16-.17,.05-.36,.09-.58,.12-.21,.03-.43,.06-.63,.09-.2,.02-.37,.04-.49,.06-.3,.04-.59,.1-.85,.19-.26,.09-.47,.22-.64,.39-.16,.17-.24,.41-.24,.71,0,.41,.15,.72,.45,.93,.3,.21,.69,.31,1.16,.31Zm6.56-1.91l-.02-1.45h.24l3.34-3.4h1.45l-3.56,3.6h-.1l-1.35,1.25Zm-1.09,2.78v-10.18h1.17v10.18h-1.17Zm4.85,0l-2.98-3.78,.84-.82,3.64,4.59h-1.49Zm5.65,.16c-.74,0-1.37-.16-1.9-.49-.53-.33-.94-.79-1.23-1.37-.29-.59-.43-1.28-.43-2.06s.14-1.47,.43-2.07c.29-.6,.69-1.07,1.2-1.4,.52-.34,1.12-.51,1.81-.51,.4,0,.79,.07,1.18,.2,.39,.13,.74,.35,1.06,.65,.32,.3,.57,.69,.76,1.17,.19,.49,.28,1.09,.28,1.8v.5h-5.89v-1.01h4.69c0-.43-.09-.82-.26-1.15-.17-.34-.41-.6-.73-.8-.31-.2-.68-.29-1.1-.29-.47,0-.87,.12-1.21,.35-.34,.23-.6,.53-.78,.9-.18,.37-.27,.76-.27,1.18v.68c0,.58,.1,1.07,.3,1.47,.2,.4,.48,.7,.84,.91,.36,.21,.77,.31,1.25,.31,.31,0,.59-.04,.83-.13,.25-.09,.47-.22,.65-.4,.18-.18,.32-.4,.42-.67l1.13,.32c-.12,.39-.32,.72-.6,1.01-.28,.29-.63,.51-1.04,.68-.42,.16-.88,.24-1.4,.24Zm4.95-.16v-7.64h1.13v1.15h.08c.14-.38,.39-.68,.76-.92,.36-.24,.78-.35,1.23-.35,.09,0,.19,0,.32,0,.13,0,.23,0,.29,.02v1.19s-.13-.02-.27-.04c-.14-.02-.29-.03-.44-.03-.37,0-.7,.08-1,.23-.29,.15-.52,.36-.69,.64-.17,.27-.25,.57-.25,.92v4.83h-1.17Zm12.03,.16c-.64,0-1.2-.16-1.69-.48-.49-.33-.87-.78-1.14-1.37-.27-.59-.41-1.29-.41-2.1s.14-1.5,.41-2.09c.28-.59,.66-1.05,1.15-1.37,.49-.32,1.06-.48,1.7-.48,.5,0,.89,.08,1.18,.25,.29,.16,.51,.35,.67,.56,.15,.2,.28,.37,.36,.51h.1v-3.76h1.17v10.18h-1.13v-1.17h-.14c-.09,.14-.21,.32-.37,.53-.16,.21-.39,.4-.68,.56-.3,.16-.69,.24-1.18,.24Zm.16-1.05c.47,0,.87-.12,1.19-.37,.32-.25,.57-.59,.74-1.03,.17-.44,.25-.95,.25-1.53s-.08-1.07-.25-1.5c-.17-.43-.41-.76-.74-1-.32-.24-.73-.36-1.2-.36s-.91,.13-1.24,.38c-.33,.25-.58,.6-.74,1.03-.16,.43-.24,.92-.24,1.45s.08,1.04,.25,1.48c.17,.44,.42,.79,.74,1.05,.33,.26,.74,.39,1.23,.39Zm5.65,.89v-7.64h1.13v1.15h.08c.14-.38,.39-.68,.76-.92,.36-.24,.78-.35,1.23-.35,.09,0,.19,0,.32,0,.13,0,.23,0,.29,.02v1.19s-.13-.02-.27-.04c-.14-.02-.29-.03-.44-.03-.37,0-.7,.08-.99,.23-.29,.15-.52,.36-.69,.64-.17,.27-.25,.57-.25,.92v4.83h-1.17Zm8.08,.16c-.69,0-1.29-.16-1.82-.49-.52-.33-.92-.79-1.21-1.38-.29-.59-.43-1.28-.43-2.07s.14-1.49,.43-2.08c.29-.59,.7-1.05,1.21-1.38,.52-.33,1.13-.49,1.82-.49s1.29,.16,1.81,.49c.52,.33,.92,.79,1.21,1.38,.29,.59,.44,1.29,.44,2.08s-.15,1.48-.44,2.07c-.29,.59-.69,1.05-1.21,1.38-.52,.33-1.12,.49-1.81,.49Zm0-1.05c.52,0,.95-.13,1.29-.4,.34-.27,.59-.62,.75-1.06,.16-.44,.24-.91,.24-1.42s-.08-.99-.24-1.43c-.16-.44-.41-.8-.75-1.07-.34-.27-.77-.41-1.29-.41s-.96,.14-1.29,.41c-.34,.27-.59,.63-.75,1.07-.16,.44-.24,.92-.24,1.43s.08,.98,.24,1.42c.16,.44,.41,.79,.75,1.06,.34,.27,.77,.4,1.29,.4Zm5.25,3.76v-10.5h1.13v1.21h.14c.09-.13,.21-.3,.36-.51,.16-.21,.38-.4,.67-.56,.29-.17,.69-.25,1.18-.25,.64,0,1.21,.16,1.7,.48,.49,.32,.87,.78,1.15,1.37s.41,1.29,.41,2.09-.14,1.51-.41,2.1c-.27,.59-.66,1.05-1.14,1.37-.49,.32-1.05,.48-1.69,.48-.49,0-.88-.08-1.18-.24-.3-.17-.52-.35-.68-.56-.16-.21-.28-.39-.37-.53h-.1v4.04h-1.17Zm1.15-6.68c0,.58,.08,1.08,.25,1.53,.17,.44,.42,.78,.74,1.03,.33,.24,.72,.37,1.19,.37s.9-.13,1.23-.39c.33-.26,.58-.61,.75-1.05,.17-.44,.25-.94,.25-1.48s-.08-1.02-.25-1.45c-.16-.43-.41-.78-.74-1.03-.33-.26-.74-.38-1.24-.38s-.88,.12-1.2,.36c-.33,.24-.57,.57-.74,1-.17,.43-.25,.93-.25,1.5Zm-120.48,26c-.48,0-.92-.09-1.32-.27-.4-.19-.71-.45-.94-.8-.23-.35-.35-.78-.35-1.27,0-.44,.09-.79,.26-1.06,.17-.27,.4-.49,.69-.65,.29-.16,.61-.27,.96-.35,.35-.08,.7-.14,1.06-.19,.46-.06,.84-.1,1.13-.13,.29-.03,.5-.09,.64-.16,.14-.08,.2-.21,.2-.4v-.04c0-.49-.13-.87-.4-1.14-.26-.27-.67-.41-1.21-.41s-1,.12-1.32,.37c-.32,.25-.54,.51-.67,.79l-1.11-.4c.2-.46,.46-.82,.79-1.08,.34-.26,.7-.44,1.09-.55,.4-.11,.79-.16,1.17-.16,.25,0,.53,.03,.85,.09,.32,.06,.63,.17,.93,.35,.3,.18,.55,.45,.75,.81,.2,.36,.3,.85,.3,1.45v5.03h-1.17v-1.03h-.06c-.08,.17-.21,.34-.4,.53-.18,.19-.43,.35-.74,.48-.31,.13-.68,.2-1.13,.2Zm.18-1.05c.46,0,.85-.09,1.17-.27,.32-.18,.56-.42,.73-.71,.17-.29,.25-.59,.25-.91v-1.07c-.05,.06-.16,.11-.33,.16-.17,.05-.36,.09-.58,.12-.22,.03-.43,.06-.63,.09-.2,.02-.37,.04-.49,.06-.31,.04-.59,.11-.85,.19-.26,.09-.47,.22-.64,.39-.16,.17-.24,.41-.24,.71,0,.41,.15,.72,.45,.92,.31,.21,.69,.31,1.16,.31Zm6.64-3.72v4.59h-1.17v-7.64h1.13v1.19h.1c.18-.39,.45-.7,.82-.93,.36-.24,.83-.36,1.41-.36,.52,0,.97,.11,1.36,.32,.39,.21,.69,.53,.9,.95,.21,.42,.32,.96,.32,1.61v4.85h-1.17v-4.77c0-.6-.16-1.07-.47-1.4-.31-.34-.74-.51-1.28-.51-.38,0-.71,.08-1.01,.24-.29,.16-.52,.4-.69,.71-.17,.31-.25,.69-.25,1.13Zm9.9,4.75c-.64,0-1.2-.16-1.69-.48-.49-.33-.87-.78-1.14-1.37-.27-.59-.41-1.29-.41-2.1s.14-1.5,.41-2.09c.27-.59,.66-1.05,1.15-1.37,.49-.32,1.06-.48,1.7-.48,.5,0,.89,.08,1.18,.25,.29,.16,.51,.35,.67,.56,.16,.2,.28,.37,.36,.51h.1v-3.76h1.17v10.18h-1.13v-1.17h-.14c-.09,.14-.21,.32-.37,.53-.16,.21-.39,.4-.68,.56-.29,.16-.69,.24-1.18,.24Zm.16-1.05c.47,0,.87-.12,1.19-.37,.32-.25,.57-.59,.74-1.03,.17-.44,.25-.95,.25-1.53s-.08-1.07-.25-1.5c-.17-.43-.41-.76-.74-1-.32-.24-.73-.36-1.2-.36s-.91,.13-1.24,.38c-.33,.25-.57,.6-.74,1.03-.16,.43-.24,.91-.24,1.45s.08,1.04,.25,1.48c.17,.44,.42,.79,.75,1.05,.33,.26,.74,.39,1.23,.39Zm12.79,1.05c-.74,0-1.37-.16-1.9-.49-.53-.33-.94-.79-1.23-1.37-.29-.59-.43-1.28-.43-2.06s.14-1.47,.43-2.07c.29-.6,.69-1.07,1.2-1.4,.52-.34,1.12-.51,1.81-.51,.4,0,.79,.07,1.18,.2,.39,.13,.74,.35,1.06,.65,.32,.29,.57,.69,.76,1.17,.19,.49,.28,1.09,.28,1.8v.5h-5.89v-1.01h4.69c0-.43-.09-.82-.26-1.15-.17-.34-.41-.6-.73-.8-.31-.2-.68-.29-1.1-.29-.47,0-.87,.12-1.21,.35-.34,.23-.6,.53-.78,.9-.18,.37-.27,.76-.27,1.18v.68c0,.58,.1,1.07,.3,1.47,.2,.4,.48,.7,.84,.91,.36,.21,.77,.31,1.25,.31,.31,0,.59-.04,.84-.13,.25-.09,.47-.22,.65-.4,.18-.18,.32-.4,.42-.67l1.13,.32c-.12,.38-.32,.72-.6,1.01-.28,.29-.63,.51-1.04,.68-.42,.16-.88,.24-1.4,.24Zm5.62-7.79l1.83,3.12,1.83-3.12h1.35l-2.47,3.82,2.47,3.82h-1.35l-1.83-2.96-1.83,2.96h-1.35l2.43-3.82-2.43-3.82h1.35Zm6.69,10.5v-10.5h1.13v1.21h.14c.09-.13,.21-.3,.36-.51,.16-.21,.38-.4,.67-.56,.29-.17,.69-.25,1.18-.25,.64,0,1.21,.16,1.7,.48,.49,.32,.87,.78,1.15,1.37,.28,.59,.41,1.29,.41,2.09s-.14,1.51-.41,2.1c-.28,.59-.66,1.05-1.14,1.37-.49,.32-1.05,.48-1.68,.48-.49,0-.88-.08-1.18-.24-.29-.17-.52-.35-.68-.56-.16-.21-.28-.39-.37-.53h-.1v4.04h-1.17Zm1.15-6.68c0,.58,.08,1.08,.25,1.53,.17,.44,.42,.78,.74,1.03,.32,.24,.72,.37,1.19,.37s.9-.13,1.23-.39c.33-.26,.58-.61,.74-1.05,.17-.44,.25-.94,.25-1.48s-.08-1.02-.25-1.45c-.16-.43-.41-.78-.74-1.03-.33-.25-.74-.38-1.24-.38s-.88,.12-1.2,.36c-.32,.24-.57,.57-.74,1-.17,.43-.25,.93-.25,1.5Zm7.38,3.82v-7.64h1.17v7.64h-1.17Zm.6-8.91c-.23,0-.43-.08-.59-.23-.16-.16-.24-.34-.24-.56s.08-.41,.24-.56c.17-.16,.36-.23,.59-.23s.42,.08,.59,.23c.17,.15,.25,.34,.25,.56s-.08,.41-.25,.56c-.16,.16-.36,.23-.59,.23Zm2.73,8.91v-7.64h1.13v1.15h.08c.14-.38,.39-.68,.76-.92,.37-.23,.78-.35,1.23-.35,.09,0,.19,0,.32,0,.13,0,.23,0,.29,.02v1.19s-.13-.02-.27-.04c-.14-.02-.29-.04-.44-.04-.37,0-.7,.08-.99,.23-.29,.15-.52,.36-.69,.64-.17,.27-.25,.58-.25,.92v4.83h-1.17Zm7.46,.18c-.48,0-.92-.09-1.32-.27-.4-.19-.71-.45-.94-.8-.23-.35-.35-.78-.35-1.27,0-.44,.09-.79,.26-1.06,.17-.27,.4-.49,.69-.65,.29-.16,.61-.27,.95-.35,.35-.08,.7-.14,1.06-.19,.46-.06,.84-.1,1.13-.13,.29-.03,.5-.09,.64-.16,.14-.08,.2-.21,.2-.4v-.04c0-.49-.13-.87-.4-1.14-.27-.27-.67-.41-1.21-.41s-1,.12-1.32,.37c-.32,.25-.54,.51-.67,.79l-1.11-.4c.2-.46,.46-.82,.79-1.08,.34-.26,.7-.44,1.09-.55,.4-.11,.79-.16,1.17-.16,.24,0,.53,.03,.85,.09,.32,.06,.63,.17,.93,.35,.3,.18,.55,.45,.75,.81,.2,.36,.3,.85,.3,1.45v5.03h-1.17v-1.03h-.06c-.08,.17-.21,.34-.4,.53-.19,.19-.43,.35-.74,.48-.31,.13-.68,.2-1.13,.2Zm.18-1.05c.46,0,.85-.09,1.17-.27,.32-.18,.56-.42,.73-.71,.17-.29,.25-.59,.25-.91v-1.07c-.05,.06-.16,.11-.33,.16-.17,.05-.36,.09-.58,.12-.21,.03-.43,.06-.63,.09-.2,.02-.37,.04-.49,.06-.3,.04-.59,.11-.86,.19-.26,.09-.47,.22-.64,.39-.16,.17-.24,.41-.24,.71,0,.41,.15,.72,.45,.92,.31,.21,.69,.31,1.16,.31Zm8.78-6.76v.99h-3.96v-.99h3.96Zm-2.8-1.83h1.17v7.28c0,.33,.05,.58,.14,.75,.1,.16,.23,.27,.38,.33,.16,.05,.32,.08,.49,.08,.13,0,.24,0,.32-.02,.08-.02,.15-.03,.2-.04l.24,1.05c-.08,.03-.19,.06-.33,.09-.14,.03-.32,.05-.54,.05-.33,0-.66-.07-.97-.21-.32-.14-.58-.36-.79-.65-.21-.29-.31-.66-.31-1.1v-7.6Zm4.57,9.47v-7.64h1.17v7.64h-1.17Zm.6-8.91c-.23,0-.42-.08-.59-.23-.16-.16-.24-.34-.24-.56s.08-.41,.24-.56c.17-.16,.36-.23,.59-.23s.42,.08,.59,.23c.17,.15,.25,.34,.25,.56s-.08,.41-.25,.56c-.16,.16-.36,.23-.59,.23Zm5.83,9.07c-.69,0-1.29-.16-1.81-.49-.52-.33-.92-.79-1.21-1.38-.29-.59-.43-1.28-.43-2.07s.14-1.49,.43-2.08c.29-.59,.7-1.05,1.21-1.38,.52-.33,1.12-.49,1.81-.49s1.29,.16,1.81,.49c.52,.33,.92,.79,1.21,1.38,.29,.59,.44,1.29,.44,2.08s-.15,1.48-.44,2.07c-.29,.59-.69,1.05-1.21,1.38-.52,.33-1.12,.49-1.81,.49Zm0-1.05c.52,0,.95-.13,1.29-.4,.34-.27,.59-.62,.75-1.06,.16-.44,.24-.91,.24-1.42s-.08-.99-.24-1.43c-.16-.44-.41-.8-.75-1.07-.34-.27-.77-.41-1.29-.41s-.95,.14-1.29,.41c-.34,.27-.59,.63-.75,1.07-.16,.44-.24,.92-.24,1.43s.08,.98,.24,1.42c.16,.44,.41,.79,.75,1.06,.34,.27,.77,.4,1.29,.4Zm6.42-3.7v4.59h-1.17v-7.64h1.13v1.19h.1c.18-.39,.45-.7,.82-.93,.36-.24,.84-.36,1.41-.36,.52,0,.97,.11,1.36,.32,.39,.21,.69,.53,.9,.95,.21,.42,.32,.96,.32,1.61v4.85h-1.17v-4.77c0-.6-.16-1.07-.47-1.4-.31-.34-.74-.51-1.28-.51-.38,0-.71,.08-1.01,.24-.29,.16-.52,.4-.69,.71-.17,.31-.25,.69-.25,1.13Zm13.84,4.75c-.64,0-1.2-.16-1.68-.48-.49-.33-.87-.78-1.14-1.37-.28-.59-.41-1.29-.41-2.1s.14-1.5,.41-2.09c.27-.59,.66-1.05,1.15-1.37,.49-.32,1.06-.48,1.7-.48,.5,0,.89,.08,1.18,.25,.29,.16,.51,.35,.67,.56,.16,.2,.28,.37,.36,.51h.1v-3.76h1.17v10.18h-1.13v-1.17h-.14c-.09,.14-.21,.32-.37,.53-.16,.21-.39,.4-.68,.56-.3,.16-.69,.24-1.18,.24Zm.16-1.05c.47,0,.87-.12,1.19-.37,.32-.25,.57-.59,.74-1.03,.17-.44,.25-.95,.25-1.53s-.08-1.07-.25-1.5c-.17-.43-.41-.76-.74-1-.32-.24-.73-.36-1.2-.36s-.91,.13-1.24,.38c-.33,.25-.58,.6-.74,1.03-.16,.43-.24,.91-.24,1.45s.08,1.04,.25,1.48c.17,.44,.42,.79,.75,1.05,.33,.26,.74,.39,1.23,.39Zm7.9,1.07c-.48,0-.92-.09-1.32-.27-.39-.19-.71-.45-.94-.8-.23-.35-.35-.78-.35-1.27,0-.44,.09-.79,.26-1.06,.17-.27,.4-.49,.69-.65,.29-.16,.61-.27,.95-.35,.35-.08,.7-.14,1.06-.19,.46-.06,.84-.1,1.13-.13,.29-.03,.5-.09,.64-.16,.14-.08,.2-.21,.2-.4v-.04c0-.49-.14-.87-.4-1.14-.26-.27-.67-.41-1.21-.41s-1,.12-1.32,.37c-.32,.25-.54,.51-.67,.79l-1.11-.4c.2-.46,.46-.82,.8-1.08,.33-.26,.7-.44,1.09-.55,.4-.11,.79-.16,1.17-.16,.24,0,.53,.03,.85,.09,.32,.06,.63,.17,.93,.35,.3,.18,.55,.45,.75,.81,.2,.36,.3,.85,.3,1.45v5.03h-1.17v-1.03h-.06c-.08,.17-.21,.34-.4,.53-.18,.19-.43,.35-.74,.48-.31,.13-.68,.2-1.13,.2Zm.18-1.05c.46,0,.86-.09,1.17-.27,.32-.18,.56-.42,.73-.71,.17-.29,.25-.59,.25-.91v-1.07c-.05,.06-.16,.11-.33,.16-.17,.05-.36,.09-.58,.12-.22,.03-.43,.06-.63,.09-.2,.02-.37,.04-.49,.06-.3,.04-.59,.11-.85,.19-.26,.09-.47,.22-.64,.39-.16,.17-.24,.41-.24,.71,0,.41,.15,.72,.45,.92,.3,.21,.69,.31,1.16,.31Zm8.78-6.76v.99h-3.96v-.99h3.96Zm-2.8-1.83h1.17v7.28c0,.33,.05,.58,.14,.75,.1,.16,.23,.27,.38,.33,.16,.05,.32,.08,.49,.08,.13,0,.24,0,.32-.02,.08-.02,.15-.03,.2-.04l.24,1.05c-.08,.03-.19,.06-.33,.09-.14,.03-.32,.05-.54,.05-.33,0-.66-.07-.98-.21-.32-.14-.58-.36-.79-.65-.21-.29-.31-.66-.31-1.1v-7.6Zm7.69,9.62c-.74,0-1.37-.16-1.9-.49-.53-.33-.94-.79-1.23-1.37-.29-.59-.43-1.28-.43-2.06s.14-1.47,.43-2.07c.29-.6,.69-1.07,1.2-1.4,.52-.34,1.12-.51,1.81-.51,.4,0,.79,.07,1.18,.2,.39,.13,.74,.35,1.06,.65,.32,.29,.57,.69,.76,1.17,.19,.49,.28,1.09,.28,1.8v.5h-5.89v-1.01h4.69c0-.43-.09-.82-.26-1.15-.17-.34-.41-.6-.72-.8-.31-.2-.68-.29-1.1-.29-.47,0-.87,.12-1.21,.35-.34,.23-.6,.53-.78,.9-.18,.37-.27,.76-.27,1.18v.68c0,.58,.1,1.07,.3,1.47,.2,.4,.48,.7,.84,.91,.36,.21,.77,.31,1.25,.31,.31,0,.59-.04,.83-.13,.25-.09,.47-.22,.65-.4,.18-.18,.32-.4,.42-.67l1.13,.32c-.12,.38-.32,.72-.6,1.01-.28,.29-.63,.51-1.04,.68-.41,.16-.88,.24-1.4,.24Z"/><g class="cls-16"><circle cx="312" cy="443" r="106.5"/><path d="M312,337c58.45,0,106,47.55,106,106s-47.55,106-106,106-106-47.55-106-106,47.55-106,106-106m0-1c-59.09,0-107,47.91-107,107s47.91,107,107,107,107-47.91,107-107-47.91-107-107-107h0Z"/></g><g><path class="cls-3" d="M79.23,369.57v4.14h-10.17v27.36h-4.5v-27.36h-10.17v-4.14h24.84Z"/><path class="cls-3" d="M87.51,369.57v13.18h.54c1.04-2.07,3.06-4.09,7.42-4.09,4.63,0,8.59,3.06,8.59,9.13v13.27h-4.23v-12.91c0-3.83-2.07-5.8-5.67-5.8-4.09,0-6.66,2.61-6.66,7.2v11.52h-4.23v-31.5h4.23Z"/><path class="cls-3" d="M119.64,378.3c6.48,0,10.8,4.77,10.8,11.16v2.12h-17.37c.27,3.96,3.06,6.43,7.02,6.43,3.24,0,5.13-1.62,6.3-3.96l3.55,2.03c-1.67,2.7-4.5,5.62-9.76,5.62-6.84,0-11.52-5.17-11.52-11.83s4.59-11.56,10.98-11.56Zm6.39,9.85c-.09-3.78-2.52-6.17-6.39-6.17s-6.25,2.25-6.57,6.17h12.96Z"/><path class="cls-3" d="M161.71,369.57c5.45,0,9.31,3.06,9.31,8.46,0,3.69-2.07,6.17-5.22,6.97v.54c3.02,.86,5.31,3.33,5.31,7.02,0,5.31-3.92,8.5-9.32,8.5h-13.09v-31.5h13Zm-8.5,13.63h8.19c3.24,0,5.31-1.8,5.31-4.81s-2.21-4.68-5.4-4.68h-8.1v9.49Zm0,13.72h8.19c3.19,0,5.4-1.8,5.4-4.72s-2.07-4.86-5.31-4.86h-8.28v9.58Z"/><path class="cls-3" d="M186.01,378.39c5.94,0,9.76,3.46,9.76,8.77v13.9h-4.14v-3.46h-.63c-.95,1.98-3.24,4.09-7.78,4.09-4.95,0-8.15-2.7-8.15-6.66s2.75-6.17,8.42-6.71l8.14-.76v-.58c0-3.01-2.11-4.82-5.71-4.82s-5.71,1.75-6.75,4.32l-3.65-1.67c1.58-3.42,5.08-6.43,10.48-6.43Zm-2.07,19.8c5.17,0,7.69-3.1,7.69-6.93v-.36l-7.69,.72c-2.57,.22-4.59,.99-4.59,3.24,0,2.07,1.67,3.33,4.59,3.33Z"/><path class="cls-3" d="M209.77,378.39c4.5,0,7.47,1.75,10.93,5.62l-3.15,2.25c-2.43-3.15-5.08-4.37-7.7-4.37-2.47,0-4.32,1.08-4.32,2.97,0,2.16,2.16,2.38,4.54,2.75l1.84,.27c5,.72,8.91,1.94,8.91,6.53s-4.05,7.29-9.72,7.29c-6.25,0-9.76-3.69-11.47-6.93l3.78-2.02c1.4,3.33,4.23,5.35,7.83,5.35,3.15,0,5.4-1.39,5.4-3.55,0-2.29-2.83-2.47-5.22-2.83l-1.84-.27c-4.95-.72-8.23-2.34-8.23-6.53s3.91-6.52,8.41-6.52Z"/><path class="cls-3" d="M227.64,368.94c1.89,0,3.42,1.44,3.42,3.33s-1.53,3.33-3.42,3.33-3.42-1.44-3.42-3.33,1.53-3.33,3.42-3.33Zm2.12,32.13h-4.23v-22.05h4.23v22.05Z"/><path class="cls-3" d="M246.04,378.39c5.94,0,9.81,3.64,10.71,8.55l-4.14,.85c-.36-3.1-2.65-5.53-6.57-5.53-4.23,0-7.2,3.1-7.2,7.78s2.97,7.79,7.29,7.79,5.94-2.66,6.52-5.49l4.19,.81c-.99,4.19-4.19,8.55-10.71,8.55s-11.52-4.9-11.52-11.65,4.86-11.65,11.43-11.65Z"/><path class="cls-3" d="M269.31,378.39c4.5,0,7.47,1.75,10.93,5.62l-3.15,2.25c-2.43-3.15-5.08-4.37-7.7-4.37-2.47,0-4.32,1.08-4.32,2.97,0,2.16,2.16,2.38,4.54,2.75l1.84,.27c5,.72,8.91,1.94,8.91,6.53s-4.05,7.29-9.72,7.29c-6.25,0-9.76-3.69-11.47-6.93l3.78-2.02c1.4,3.33,4.23,5.35,7.83,5.35,3.15,0,5.4-1.39,5.4-3.55,0-2.29-2.83-2.47-5.22-2.83l-1.84-.27c-4.95-.72-8.23-2.34-8.23-6.53s3.91-6.52,8.41-6.52Z"/><path class="cls-3" d="M67.79,456.99c-.11-1.01-.58-1.79-1.41-2.35s-1.86-.84-3.11-.84c-.9,0-1.67,.14-2.32,.42-.65,.28-1.16,.66-1.52,1.15-.36,.49-.54,1.04-.54,1.66,0,.52,.12,.97,.37,1.34,.25,.38,.57,.69,.97,.94s.83,.46,1.29,.63c.46,.17,.91,.3,1.33,.41l2.13,.55c.7,.17,1.41,.4,2.14,.69,.73,.29,1.41,.67,2.03,1.15,.62,.48,1.13,1.07,1.52,1.77,.39,.7,.58,1.54,.58,2.53,0,1.24-.32,2.33-.95,3.29-.64,.96-1.56,1.71-2.76,2.27-1.2,.55-2.66,.83-4.36,.83s-3.05-.26-4.24-.78c-1.19-.52-2.13-1.26-2.8-2.21s-1.05-2.09-1.12-3.4h3.3c.06,.79,.32,1.44,.77,1.96,.45,.52,1.03,.91,1.74,1.16,.71,.25,1.48,.38,2.33,.38,.93,0,1.76-.15,2.49-.44,.73-.29,1.3-.71,1.72-1.24,.42-.53,.63-1.15,.63-1.86,0-.65-.18-1.18-.55-1.59-.37-.41-.86-.75-1.48-1.02-.62-.27-1.32-.51-2.1-.71l-2.58-.7c-1.75-.48-3.13-1.17-4.15-2.1-1.02-.92-1.53-2.14-1.53-3.66,0-1.26,.34-2.35,1.02-3.29s1.61-1.67,2.77-2.19c1.16-.52,2.48-.78,3.94-.78s2.78,.26,3.92,.78c1.13,.52,2.03,1.23,2.68,2.14,.65,.91,.99,1.94,1.02,3.12h-3.17Z"/><path class="cls-3" d="M81.99,473.4c-1.61,0-3-.35-4.16-1.04-1.16-.69-2.06-1.67-2.69-2.93-.63-1.26-.94-2.74-.94-4.44s.31-3.15,.94-4.43c.63-1.28,1.51-2.28,2.64-2.99,1.13-.72,2.46-1.08,3.98-1.08,.92,0,1.82,.15,2.69,.46,.87,.31,1.64,.78,2.33,1.44,.69,.65,1.23,1.5,1.63,2.54,.4,1.04,.6,2.3,.6,3.79v1.13h-13.01v-2.39h9.89c0-.84-.17-1.58-.51-2.23-.34-.65-.82-1.16-1.43-1.54-.61-.38-1.33-.56-2.16-.56-.89,0-1.67,.22-2.34,.66s-1.18,1-1.53,1.71c-.36,.7-.54,1.46-.54,2.27v1.86c0,1.09,.19,2.02,.58,2.79,.39,.77,.93,1.35,1.62,1.75,.7,.4,1.51,.6,2.44,.6,.6,0,1.15-.09,1.65-.26,.5-.17,.93-.44,1.29-.78s.64-.78,.83-1.29l3.01,.54c-.24,.89-.67,1.66-1.29,2.33-.62,.66-1.4,1.18-2.33,1.54-.93,.37-2,.55-3.19,.55Z"/><path class="cls-3" d="M95.74,451.25v21.82h-3.19v-21.82h3.19Z"/><path class="cls-3" d="M107.08,473.4c-1.61,0-3-.35-4.16-1.04-1.16-.69-2.06-1.67-2.69-2.93-.63-1.26-.94-2.74-.94-4.44s.31-3.15,.94-4.43c.63-1.28,1.51-2.28,2.64-2.99,1.13-.72,2.46-1.08,3.98-1.08,.92,0,1.82,.15,2.69,.46,.87,.31,1.64,.78,2.33,1.44,.69,.65,1.23,1.5,1.63,2.54,.4,1.04,.6,2.3,.6,3.79v1.13h-13.01v-2.39h9.89c0-.84-.17-1.58-.51-2.23-.34-.65-.82-1.16-1.43-1.54-.61-.38-1.33-.56-2.16-.56-.89,0-1.67,.22-2.34,.66s-1.18,1-1.53,1.71c-.36,.7-.54,1.46-.54,2.27v1.86c0,1.09,.19,2.02,.58,2.79,.39,.77,.93,1.35,1.62,1.75,.7,.4,1.51,.6,2.44,.6,.6,0,1.15-.09,1.65-.26,.5-.17,.93-.44,1.29-.78s.64-.78,.83-1.29l3.01,.54c-.24,.89-.67,1.66-1.29,2.33-.62,.66-1.4,1.18-2.33,1.54-.93,.37-2,.55-3.19,.55Z"/><path class="cls-3" d="M124.54,473.4c-1.58,0-2.95-.36-4.09-1.08-1.14-.72-2.01-1.72-2.63-2.99-.61-1.27-.92-2.73-.92-4.37s.31-3.13,.94-4.4c.62-1.28,1.51-2.27,2.64-2.99,1.14-.72,2.48-1.08,4.02-1.08,1.24,0,2.35,.23,3.32,.69,.97,.46,1.76,1.1,2.36,1.92,.6,.82,.96,1.79,1.07,2.89h-3.1c-.17-.77-.56-1.43-1.17-1.98-.61-.55-1.42-.83-2.43-.83-.89,0-1.66,.23-2.33,.7-.66,.47-1.18,1.13-1.55,1.98-.37,.86-.55,1.87-.55,3.03s.18,2.22,.54,3.09c.36,.87,.88,1.54,1.54,2.01,.66,.48,1.45,.71,2.35,.71,.6,0,1.15-.11,1.65-.33,.49-.22,.91-.54,1.25-.96,.34-.42,.57-.92,.71-1.51h3.1c-.11,1.06-.46,2-1.03,2.83s-1.34,1.48-2.31,1.96c-.96,.48-2.09,.71-3.38,.71Z"/><path class="cls-3" d="M142.32,456.71v2.56h-8.94v-2.56h8.94Zm-6.54-3.92h3.19v15.48c0,.62,.09,1.08,.28,1.39s.42,.52,.72,.63c.29,.11,.62,.17,.96,.17,.26,0,.48-.02,.67-.05,.19-.04,.34-.06,.45-.08l.58,2.63c-.18,.07-.45,.14-.79,.22s-.77,.12-1.28,.12c-.84,.01-1.62-.13-2.34-.45-.72-.31-1.31-.79-1.76-1.45-.45-.65-.67-1.47-.67-2.46v-16.14Z"/><path class="cls-3" d="M158.54,473.43c-1.04,0-1.97-.19-2.81-.58-.84-.39-1.5-.95-1.99-1.69-.49-.74-.73-1.64-.73-2.72,0-.92,.18-1.68,.53-2.28,.35-.6,.83-1.07,1.44-1.42,.6-.35,1.28-.61,2.02-.79,.75-.18,1.51-.31,2.28-.41,.98-.11,1.78-.21,2.39-.28,.61-.07,1.05-.2,1.33-.37s.42-.45,.42-.83v-.07c0-.93-.26-1.65-.78-2.16-.52-.51-1.3-.77-2.33-.77s-1.92,.24-2.53,.71c-.61,.47-1.04,1-1.27,1.57l-2.99-.68c.36-.99,.88-1.8,1.56-2.41s1.48-1.06,2.37-1.34c.9-.28,1.84-.42,2.82-.42,.65,0,1.35,.08,2.08,.23,.74,.15,1.42,.43,2.07,.84,.64,.4,1.17,.98,1.58,1.73,.41,.75,.62,1.72,.62,2.91v10.87h-3.11v-2.24h-.13c-.21,.41-.52,.82-.93,1.21-.41,.4-.94,.73-1.59,.99-.65,.26-1.42,.39-2.32,.39Zm.69-2.56c.88,0,1.64-.17,2.26-.52,.63-.35,1.11-.8,1.44-1.37,.33-.57,.5-1.17,.5-1.82v-2.11c-.11,.11-.33,.22-.66,.31-.32,.1-.69,.18-1.1,.25-.41,.07-.81,.13-1.2,.18-.39,.05-.72,.1-.98,.13-.62,.08-1.18,.21-1.69,.39s-.91,.45-1.21,.79c-.3,.34-.45,.8-.45,1.37,0,.79,.29,1.38,.87,1.79s1.32,.6,2.23,.6Z"/><path class="cls-3" d="M191.07,460.7l-2.89,.51c-.12-.37-.31-.72-.57-1.05-.26-.33-.61-.61-1.05-.82-.44-.21-.99-.32-1.65-.32-.9,0-1.66,.2-2.26,.6-.6,.4-.91,.92-.91,1.55,0,.55,.2,.99,.61,1.32,.41,.33,1.06,.61,1.96,.82l2.6,.6c1.5,.35,2.63,.88,3.37,1.61,.74,.72,1.11,1.67,1.11,2.82,0,.98-.28,1.85-.85,2.62s-1.35,1.36-2.35,1.79c-1,.43-2.17,.65-3.49,.65-1.83,0-3.33-.39-4.48-1.18-1.16-.79-1.87-1.9-2.13-3.35l3.08-.47c.19,.8,.59,1.41,1.18,1.82,.6,.41,1.37,.61,2.33,.61,1.04,0,1.88-.22,2.5-.66,.62-.44,.94-.97,.94-1.6,0-.51-.19-.94-.57-1.29-.38-.35-.96-.61-1.74-.79l-2.77-.61c-1.53-.35-2.66-.9-3.38-1.66-.73-.76-1.09-1.72-1.09-2.89,0-.97,.27-1.81,.81-2.54s1.29-1.29,2.24-1.7c.95-.41,2.04-.61,3.27-.61,1.77,0,3.16,.38,4.18,1.14,1.02,.76,1.69,1.79,2.01,3.06Z"/><path class="cls-3" d="M198.07,463.36v9.72h-3.19v-16.36h3.06v2.66h.2c.38-.87,.97-1.56,1.77-2.09,.81-.53,1.82-.79,3.05-.79,1.11,0,2.09,.23,2.93,.7,.84,.47,1.49,1.16,1.95,2.07s.69,2.05,.69,3.4v10.41h-3.19v-10.02c0-1.19-.31-2.12-.93-2.79-.62-.67-1.47-1.01-2.55-1.01-.74,0-1.39,.16-1.97,.48-.57,.32-1.02,.79-1.35,1.4s-.5,1.35-.5,2.22Z"/><path class="cls-3" d="M219.85,473.4c-1.61,0-3-.35-4.16-1.04-1.16-.69-2.06-1.67-2.69-2.93-.63-1.26-.94-2.74-.94-4.44s.31-3.15,.94-4.43c.63-1.28,1.51-2.28,2.64-2.99,1.13-.72,2.46-1.08,3.98-1.08,.92,0,1.82,.15,2.69,.46,.87,.31,1.64,.78,2.33,1.44,.69,.65,1.23,1.5,1.63,2.54,.4,1.04,.6,2.3,.6,3.79v1.13h-13.01v-2.39h9.89c0-.84-.17-1.58-.51-2.23-.34-.65-.82-1.16-1.43-1.54-.61-.38-1.33-.56-2.16-.56-.89,0-1.67,.22-2.34,.66s-1.18,1-1.53,1.71c-.36,.7-.54,1.46-.54,2.27v1.86c0,1.09,.19,2.02,.58,2.79,.39,.77,.93,1.35,1.62,1.75,.7,.4,1.51,.6,2.44,.6,.6,0,1.15-.09,1.65-.26,.5-.17,.93-.44,1.29-.78s.64-.78,.83-1.29l3.01,.54c-.24,.89-.67,1.66-1.29,2.33-.62,.66-1.4,1.18-2.33,1.54-.93,.37-2,.55-3.19,.55Z"/><path class="cls-3" d="M235.18,473.43c-1.04,0-1.97-.19-2.81-.58-.84-.39-1.5-.95-1.99-1.69-.49-.74-.73-1.64-.73-2.72,0-.92,.18-1.68,.53-2.28,.35-.6,.83-1.07,1.44-1.42,.6-.35,1.28-.61,2.02-.79,.75-.18,1.51-.31,2.28-.41,.98-.11,1.78-.21,2.39-.28,.61-.07,1.05-.2,1.33-.37s.42-.45,.42-.83v-.07c0-.93-.26-1.65-.78-2.16-.52-.51-1.3-.77-2.33-.77s-1.92,.24-2.53,.71c-.61,.47-1.04,1-1.27,1.57l-2.99-.68c.36-.99,.88-1.8,1.56-2.41s1.48-1.06,2.37-1.34c.9-.28,1.84-.42,2.82-.42,.65,0,1.35,.08,2.08,.23,.74,.15,1.42,.43,2.07,.84,.64,.4,1.17,.98,1.58,1.73,.41,.75,.62,1.72,.62,2.91v10.87h-3.11v-2.24h-.13c-.21,.41-.52,.82-.93,1.21-.41,.4-.94,.73-1.59,.99-.65,.26-1.42,.39-2.32,.39Zm.69-2.56c.88,0,1.64-.17,2.26-.52,.63-.35,1.11-.8,1.44-1.37,.33-.57,.5-1.17,.5-1.82v-2.11c-.11,.11-.33,.22-.66,.31-.32,.1-.69,.18-1.1,.25-.41,.07-.81,.13-1.2,.18-.39,.05-.72,.1-.98,.13-.62,.08-1.18,.21-1.69,.39s-.91,.45-1.21,.79c-.3,.34-.45,.8-.45,1.37,0,.79,.29,1.38,.87,1.79s1.32,.6,2.23,.6Z"/><path class="cls-3" d="M247.5,473.07v-21.82h3.19v21.82h-3.19Zm2.93-5.55l-.02-3.89h.55l6.52-6.92h3.81l-7.44,7.88h-.5l-2.93,2.93Zm7.4,5.55l-5.86-7.78,2.19-2.23,7.57,10h-3.91Z"/><path class="cls-3" d="M270.56,473.4c-1.61,0-3-.35-4.16-1.04-1.16-.69-2.06-1.67-2.69-2.93-.63-1.26-.94-2.74-.94-4.44s.31-3.15,.94-4.43c.63-1.28,1.51-2.28,2.64-2.99,1.13-.72,2.46-1.08,3.98-1.08,.92,0,1.82,.15,2.69,.46,.87,.31,1.64,.78,2.33,1.44,.69,.65,1.23,1.5,1.63,2.54,.4,1.04,.6,2.3,.6,3.79v1.13h-13.01v-2.39h9.89c0-.84-.17-1.58-.51-2.23-.34-.65-.82-1.16-1.43-1.54-.61-.38-1.33-.56-2.16-.56-.89,0-1.67,.22-2.34,.66s-1.18,1-1.53,1.71c-.36,.7-.54,1.46-.54,2.27v1.86c0,1.09,.19,2.02,.58,2.79,.39,.77,.93,1.35,1.62,1.75,.7,.4,1.51,.6,2.44,.6,.6,0,1.15-.09,1.65-.26,.5-.17,.93-.44,1.29-.78s.64-.78,.83-1.29l3.01,.54c-.24,.89-.67,1.66-1.29,2.33-.62,.66-1.4,1.18-2.33,1.54-.93,.37-2,.55-3.19,.55Z"/><path class="cls-3" d="M281.13,473.07v-16.36h3.08v2.6h.17c.3-.88,.83-1.58,1.58-2.08s1.61-.76,2.57-.76c.2,0,.43,0,.71,.02,.27,.01,.49,.03,.64,.05v3.05c-.13-.04-.36-.08-.68-.12-.33-.05-.65-.07-.98-.07-.75,0-1.42,.16-2.01,.47-.59,.32-1.05,.75-1.39,1.31s-.51,1.19-.51,1.9v9.99h-3.19Z"/><path class="cls-3" d="M302.62,479.21c-.48,0-.91-.04-1.3-.11-.39-.07-.68-.15-.87-.24l.77-2.61c.58,.16,1.1,.22,1.55,.2,.46-.02,.86-.19,1.21-.51s.66-.84,.93-1.57l.39-1.09-5.99-16.58h3.41l4.14,12.7h.17l4.14-12.7h3.42l-6.74,18.55c-.31,.85-.71,1.57-1.19,2.17-.48,.59-1.06,1.04-1.73,1.34-.67,.3-1.44,.45-2.32,.45Z"/><path class="cls-3" d="M323.92,473.4c-1.53,0-2.87-.35-4.02-1.05s-2.03-1.69-2.66-2.95c-.63-1.26-.95-2.74-.95-4.43s.32-3.18,.95-4.45c.63-1.27,1.52-2.26,2.66-2.96s2.48-1.05,4.02-1.05,2.87,.35,4.02,1.05c1.14,.7,2.03,1.69,2.66,2.96,.63,1.27,.95,2.76,.95,4.45s-.32,3.17-.95,4.43c-.63,1.26-1.52,2.25-2.66,2.95-1.14,.7-2.48,1.05-4.02,1.05Zm.01-2.67c.99,0,1.82-.26,2.47-.79s1.14-1.23,1.45-2.1c.32-.87,.47-1.84,.47-2.89s-.16-2-.47-2.88c-.32-.88-.8-1.58-1.45-2.12-.65-.53-1.48-.8-2.47-.8s-1.83,.27-2.49,.8c-.66,.53-1.14,1.24-1.46,2.12-.32,.88-.47,1.84-.47,2.88s.16,2.01,.47,2.89c.32,.87,.8,1.57,1.46,2.1,.66,.53,1.49,.79,2.49,.79Z"/><path class="cls-3" d="M345.46,466.29v-9.58h3.2v16.36h-3.13v-2.83h-.17c-.38,.87-.98,1.6-1.81,2.18-.83,.58-1.86,.87-3.08,.87-1.05,0-1.98-.23-2.79-.7-.81-.46-1.44-1.16-1.9-2.07s-.69-2.05-.69-3.4v-10.41h3.19v10.02c0,1.12,.31,2,.93,2.66,.62,.66,1.42,.99,2.41,.99,.6,0,1.19-.15,1.78-.45,.59-.3,1.09-.75,1.48-1.35,.39-.6,.59-1.37,.58-2.3Z"/><path class="cls-3" d="M364.42,473.07l-4.81-16.36h3.29l3.21,12.02h.16l3.22-12.02h3.29l3.2,11.96h.16l3.18-11.96h3.29l-4.8,16.36h-3.25l-3.32-11.81h-.25l-3.32,11.81h-3.24Z"/><path class="cls-3" d="M390.38,473.43c-1.04,0-1.97-.19-2.81-.58-.84-.39-1.5-.95-1.99-1.69-.49-.74-.73-1.64-.73-2.72,0-.92,.18-1.68,.53-2.28,.35-.6,.83-1.07,1.44-1.42,.6-.35,1.28-.61,2.02-.79,.75-.18,1.51-.31,2.28-.41,.98-.11,1.78-.21,2.39-.28,.61-.07,1.05-.2,1.33-.37s.42-.45,.42-.83v-.07c0-.93-.26-1.65-.78-2.16-.52-.51-1.3-.77-2.33-.77s-1.92,.24-2.53,.71c-.61,.47-1.04,1-1.27,1.57l-2.99-.68c.36-.99,.88-1.8,1.56-2.41s1.48-1.06,2.37-1.34c.9-.28,1.84-.42,2.82-.42,.65,0,1.35,.08,2.08,.23,.74,.15,1.42,.43,2.07,.84,.64,.4,1.17,.98,1.58,1.73,.41,.75,.62,1.72,.62,2.91v10.87h-3.11v-2.24h-.13c-.21,.41-.52,.82-.93,1.21-.41,.4-.94,.73-1.59,.99-.65,.26-1.42,.39-2.32,.39Zm.69-2.56c.88,0,1.64-.17,2.26-.52,.63-.35,1.11-.8,1.44-1.37,.33-.57,.5-1.17,.5-1.82v-2.11c-.11,.11-.33,.22-.66,.31-.32,.1-.69,.18-1.1,.25-.41,.07-.81,.13-1.2,.18-.39,.05-.72,.1-.98,.13-.62,.08-1.18,.21-1.69,.39s-.91,.45-1.21,.79c-.3,.34-.45,.8-.45,1.37,0,.79,.29,1.38,.87,1.79s1.32,.6,2.23,.6Z"/><path class="cls-3" d="M405.88,463.36v9.72h-3.19v-16.36h3.06v2.66h.2c.38-.87,.97-1.56,1.77-2.09,.81-.53,1.82-.79,3.05-.79,1.11,0,2.09,.23,2.93,.7,.84,.47,1.49,1.16,1.95,2.07s.69,2.05,.69,3.4v10.41h-3.19v-10.02c0-1.19-.31-2.12-.93-2.79-.62-.67-1.47-1.01-2.55-1.01-.74,0-1.39,.16-1.97,.48-.57,.32-1.02,.79-1.35,1.4s-.5,1.35-.5,2.22Z"/><path class="cls-3" d="M428.26,456.71v2.56h-8.94v-2.56h8.94Zm-6.54-3.92h3.19v15.48c0,.62,.09,1.08,.28,1.39s.42,.52,.72,.63c.29,.11,.62,.17,.96,.17,.26,0,.48-.02,.67-.05,.19-.04,.34-.06,.45-.08l.58,2.63c-.18,.07-.45,.14-.79,.22s-.77,.12-1.28,.12c-.84,.01-1.62-.13-2.34-.45-.72-.31-1.31-.79-1.76-1.45-.45-.65-.67-1.47-.67-2.46v-16.14Z"/><path class="cls-3" d="M447.36,456.71v2.56h-8.94v-2.56h8.94Zm-6.54-3.92h3.19v15.48c0,.62,.09,1.08,.28,1.39s.42,.52,.72,.63c.29,.11,.62,.17,.96,.17,.26,0,.48-.02,.67-.05,.19-.04,.34-.06,.45-.08l.58,2.63c-.18,.07-.45,.14-.79,.22s-.77,.12-1.28,.12c-.84,.01-1.62-.13-2.34-.45-.72-.31-1.31-.79-1.76-1.45-.45-.65-.67-1.47-.67-2.46v-16.14Z"/><path class="cls-3" d="M457.6,473.4c-1.53,0-2.87-.35-4.02-1.05s-2.03-1.69-2.66-2.95c-.63-1.26-.95-2.74-.95-4.43s.32-3.18,.95-4.45c.63-1.27,1.52-2.26,2.66-2.96s2.48-1.05,4.02-1.05,2.87,.35,4.02,1.05c1.14,.7,2.03,1.69,2.66,2.96,.63,1.27,.95,2.76,.95,4.45s-.32,3.17-.95,4.43c-.63,1.26-1.52,2.25-2.66,2.95-1.14,.7-2.48,1.05-4.02,1.05Zm.01-2.67c.99,0,1.82-.26,2.47-.79s1.14-1.23,1.45-2.1c.32-.87,.47-1.84,.47-2.89s-.16-2-.47-2.88c-.32-.88-.8-1.58-1.45-2.12-.65-.53-1.48-.8-2.47-.8s-1.83,.27-2.49,.8c-.66,.53-1.14,1.24-1.46,2.12-.32,.88-.47,1.84-.47,2.88s.16,2.01,.47,2.89c.32,.87,.8,1.57,1.46,2.1,.66,.53,1.49,.79,2.49,.79Z"/><path class="cls-3" d="M476.72,479.21v-22.5h3.11v2.65h.27c.18-.34,.45-.73,.8-1.18,.35-.45,.83-.84,1.45-1.18,.62-.34,1.43-.51,2.45-.51,1.32,0,2.5,.33,3.54,1,1.04,.67,1.85,1.63,2.44,2.89,.59,1.26,.89,2.77,.89,4.54s-.29,3.28-.88,4.54c-.59,1.26-1.4,2.23-2.43,2.91-1.03,.68-2.21,1.02-3.53,1.02-1,0-1.81-.17-2.43-.5-.63-.33-1.12-.72-1.48-1.17-.36-.45-.63-.85-.82-1.19h-.19v8.68h-3.19Zm3.12-14.32c0,1.15,.17,2.16,.5,3.03,.33,.87,.82,1.54,1.45,2.03,.63,.49,1.41,.73,2.32,.73s1.75-.25,2.39-.76c.64-.51,1.12-1.2,1.45-2.07,.33-.87,.5-1.86,.5-2.95s-.16-2.05-.49-2.91-.81-1.54-1.45-2.04c-.64-.5-1.44-.75-2.4-.75s-1.7,.24-2.34,.71c-.64,.48-1.12,1.14-1.44,1.99-.33,.85-.49,1.85-.49,2.98Z"/><path class="cls-3" d="M498.42,451.25v21.82h-3.19v-21.82h3.19Z"/><path class="cls-3" d="M507.46,473.43c-1.04,0-1.97-.19-2.81-.58-.84-.39-1.5-.95-1.99-1.69-.49-.74-.73-1.64-.73-2.72,0-.92,.18-1.68,.53-2.28,.35-.6,.83-1.07,1.44-1.42,.6-.35,1.28-.61,2.02-.79,.75-.18,1.51-.31,2.28-.41,.98-.11,1.78-.21,2.39-.28,.61-.07,1.05-.2,1.33-.37s.42-.45,.42-.83v-.07c0-.93-.26-1.65-.78-2.16-.52-.51-1.3-.77-2.33-.77s-1.92,.24-2.53,.71c-.61,.47-1.04,1-1.27,1.57l-2.99-.68c.36-.99,.88-1.8,1.56-2.41s1.48-1.06,2.37-1.34c.9-.28,1.84-.42,2.82-.42,.65,0,1.35,.08,2.08,.23,.74,.15,1.42,.43,2.07,.84,.64,.4,1.17,.98,1.58,1.73,.41,.75,.62,1.72,.62,2.91v10.87h-3.11v-2.24h-.13c-.21,.41-.52,.82-.93,1.21-.41,.4-.94,.73-1.59,.99-.65,.26-1.42,.39-2.32,.39Zm.69-2.56c.88,0,1.64-.17,2.26-.52,.63-.35,1.11-.8,1.44-1.37,.33-.57,.5-1.17,.5-1.82v-2.11c-.11,.11-.33,.22-.66,.31-.32,.1-.69,.18-1.1,.25-.41,.07-.81,.13-1.2,.18-.39,.05-.72,.1-.98,.13-.62,.08-1.18,.21-1.69,.39s-.91,.45-1.21,.79c-.3,.34-.45,.8-.45,1.37,0,.79,.29,1.38,.87,1.79s1.32,.6,2.23,.6Z"/><path class="cls-3" d="M526.67,473.4c-1.58,0-2.95-.36-4.09-1.08-1.14-.72-2.01-1.72-2.63-2.99-.61-1.27-.92-2.73-.92-4.37s.31-3.13,.94-4.4c.62-1.28,1.51-2.27,2.64-2.99,1.14-.72,2.48-1.08,4.02-1.08,1.24,0,2.35,.23,3.32,.69,.97,.46,1.76,1.1,2.36,1.92,.6,.82,.96,1.79,1.07,2.89h-3.1c-.17-.77-.56-1.43-1.17-1.98-.61-.55-1.42-.83-2.43-.83-.89,0-1.66,.23-2.33,.7-.66,.47-1.18,1.13-1.55,1.98-.37,.86-.55,1.87-.55,3.03s.18,2.22,.54,3.09c.36,.87,.88,1.54,1.54,2.01,.66,.48,1.45,.71,2.35,.71,.6,0,1.15-.11,1.65-.33,.49-.22,.91-.54,1.25-.96,.34-.42,.57-.92,.71-1.51h3.1c-.11,1.06-.46,2-1.03,2.83s-1.34,1.48-2.31,1.96c-.96,.48-2.09,.71-3.38,.71Z"/><path class="cls-3" d="M543.87,473.4c-1.61,0-3-.35-4.16-1.04-1.16-.69-2.06-1.67-2.69-2.93-.63-1.26-.94-2.74-.94-4.44s.31-3.15,.94-4.43c.63-1.28,1.51-2.28,2.64-2.99,1.13-.72,2.46-1.08,3.98-1.08,.92,0,1.82,.15,2.69,.46,.87,.31,1.64,.78,2.33,1.44,.69,.65,1.23,1.5,1.63,2.54,.4,1.04,.6,2.3,.6,3.79v1.13h-13.01v-2.39h9.89c0-.84-.17-1.58-.51-2.23-.34-.65-.82-1.16-1.43-1.54-.61-.38-1.33-.56-2.16-.56-.89,0-1.67,.22-2.34,.66s-1.18,1-1.53,1.71c-.36,.7-.54,1.46-.54,2.27v1.86c0,1.09,.19,2.02,.58,2.79,.39,.77,.93,1.35,1.62,1.75,.7,.4,1.51,.6,2.44,.6,.6,0,1.15-.09,1.65-.26,.5-.17,.93-.44,1.29-.78s.64-.78,.83-1.29l3.01,.54c-.24,.89-.67,1.66-1.29,2.33-.62,.66-1.4,1.18-2.33,1.54-.93,.37-2,.55-3.19,.55Z"/><path class="cls-3" d="M567.15,473.43c-1.04,0-1.97-.19-2.81-.58-.84-.39-1.5-.95-1.99-1.69-.49-.74-.73-1.64-.73-2.72,0-.92,.18-1.68,.53-2.28,.35-.6,.83-1.07,1.44-1.42,.6-.35,1.28-.61,2.02-.79,.75-.18,1.51-.31,2.28-.41,.98-.11,1.78-.21,2.39-.28,.61-.07,1.05-.2,1.33-.37s.42-.45,.42-.83v-.07c0-.93-.26-1.65-.78-2.16-.52-.51-1.3-.77-2.33-.77s-1.92,.24-2.53,.71c-.61,.47-1.04,1-1.27,1.57l-2.99-.68c.36-.99,.88-1.8,1.56-2.41s1.48-1.06,2.37-1.34c.9-.28,1.84-.42,2.82-.42,.65,0,1.35,.08,2.08,.23,.74,.15,1.42,.43,2.07,.84,.64,.4,1.17,.98,1.58,1.73,.41,.75,.62,1.72,.62,2.91v10.87h-3.11v-2.24h-.13c-.21,.41-.52,.82-.93,1.21-.41,.4-.94,.73-1.59,.99-.65,.26-1.42,.39-2.32,.39Zm.69-2.56c.88,0,1.64-.17,2.26-.52,.63-.35,1.11-.8,1.44-1.37,.33-.57,.5-1.17,.5-1.82v-2.11c-.11,.11-.33,.22-.66,.31-.32,.1-.69,.18-1.1,.25-.41,.07-.81,.13-1.2,.18-.39,.05-.72,.1-.98,.13-.62,.08-1.18,.21-1.69,.39s-.91,.45-1.21,.79c-.3,.34-.45,.8-.45,1.37,0,.79,.29,1.38,.87,1.79s1.32,.6,2.23,.6Z"/><path class="cls-3" d="M587.66,473.07v-21.82h3.18v8.11h.19c.18-.34,.45-.73,.8-1.18,.35-.45,.83-.84,1.45-1.18,.62-.34,1.43-.51,2.45-.51,1.32,0,2.5,.33,3.54,1,1.04,.67,1.85,1.63,2.45,2.89,.59,1.26,.89,2.77,.89,4.54s-.29,3.28-.88,4.54c-.59,1.26-1.4,2.23-2.43,2.91-1.03,.68-2.21,1.02-3.53,1.02-.99,0-1.81-.17-2.43-.5-.63-.33-1.12-.72-1.48-1.17-.36-.45-.63-.85-.82-1.19h-.27v2.55h-3.11Zm3.12-8.18c0,1.15,.17,2.16,.5,3.03,.33,.87,.82,1.54,1.45,2.03,.63,.49,1.41,.73,2.32,.73s1.75-.25,2.39-.76c.64-.51,1.12-1.2,1.45-2.07,.33-.87,.5-1.86,.5-2.95s-.16-2.05-.48-2.91-.81-1.54-1.45-2.04c-.64-.5-1.44-.75-2.4-.75s-1.7,.24-2.34,.71c-.64,.48-1.12,1.14-1.44,1.99-.33,.85-.49,1.85-.49,2.98Z"/><path class="cls-3" d="M607.79,454.18c-.55,0-1.03-.19-1.42-.56-.39-.37-.59-.82-.59-1.34s.2-.98,.59-1.35c.39-.37,.87-.56,1.42-.56s1.03,.19,1.42,.56c.39,.37,.59,.82,.59,1.34s-.2,.97-.59,1.35c-.39,.37-.87,.56-1.42,.56Zm-1.61,18.89v-16.36h3.19v16.36h-3.19Z"/><path class="cls-3" d="M619.77,473.39c-1.32,0-2.5-.34-3.53-1.02-1.03-.68-1.84-1.65-2.43-2.91s-.88-2.78-.88-4.54,.3-3.28,.89-4.54c.59-1.26,1.41-2.22,2.44-2.89,1.04-.67,2.21-1,3.53-1,1.02,0,1.83,.17,2.46,.51,.62,.34,1.1,.73,1.45,1.18,.34,.45,.61,.84,.8,1.18h.19v-8.11h3.19v21.82h-3.11v-2.55h-.27c-.19,.35-.47,.75-.83,1.19-.36,.45-.85,.84-1.48,1.17s-1.43,.5-2.43,.5Zm.7-2.72c.92,0,1.69-.24,2.33-.73,.64-.49,1.12-1.16,1.45-2.03,.33-.87,.5-1.88,.5-3.03s-.16-2.13-.49-2.98c-.33-.85-.81-1.52-1.44-1.99-.63-.48-1.41-.71-2.34-.71s-1.76,.25-2.4,.75c-.64,.5-1.12,1.18-1.44,2.04s-.49,1.83-.49,2.91,.16,2.08,.49,2.95c.33,.87,.81,1.56,1.45,2.07s1.44,.76,2.38,.76Z"/><path class="cls-3" d="M647.26,473.4c-1.53,0-2.87-.35-4.02-1.05s-2.03-1.69-2.66-2.95c-.63-1.26-.95-2.74-.95-4.43s.32-3.18,.95-4.45c.63-1.27,1.52-2.26,2.66-2.96s2.48-1.05,4.02-1.05,2.87,.35,4.02,1.05c1.14,.7,2.03,1.69,2.66,2.96,.63,1.27,.95,2.76,.95,4.45s-.32,3.17-.95,4.43c-.63,1.26-1.52,2.25-2.66,2.95-1.14,.7-2.48,1.05-4.02,1.05Zm.01-2.67c.99,0,1.82-.26,2.47-.79s1.14-1.23,1.45-2.1c.32-.87,.47-1.84,.47-2.89s-.16-2-.47-2.88c-.32-.88-.8-1.58-1.45-2.12-.65-.53-1.48-.8-2.47-.8s-1.83,.27-2.49,.8c-.66,.53-1.14,1.24-1.46,2.12-.32,.88-.47,1.84-.47,2.88s.16,2.01,.47,2.89c.32,.87,.8,1.57,1.46,2.1,.66,.53,1.49,.79,2.49,.79Z"/><path class="cls-3" d="M661.62,463.36v9.72h-3.19v-16.36h3.06v2.66h.2c.38-.87,.97-1.56,1.77-2.09,.81-.53,1.82-.79,3.05-.79,1.11,0,2.09,.23,2.93,.7,.84,.47,1.49,1.16,1.95,2.07s.69,2.05,.69,3.4v10.41h-3.19v-10.02c0-1.19-.31-2.12-.93-2.79-.62-.67-1.47-1.01-2.55-1.01-.74,0-1.39,.16-1.97,.48-.57,.32-1.02,.79-1.35,1.4s-.5,1.35-.5,2.22Z"/><path class="cls-3" d="M678.45,473.28c-.58,0-1.08-.21-1.5-.62-.42-.42-.63-.92-.63-1.51s.21-1.08,.63-1.5c.42-.42,.92-.62,1.5-.62s1.08,.21,1.5,.62,.63,.91,.63,1.5c0,.39-.1,.75-.29,1.07s-.45,.58-.77,.77c-.32,.19-.67,.29-1.07,.29Z"/><path class="cls-3" d="M710.83,458.35h-3.32c-.13-.71-.37-1.33-.71-1.88-.35-.54-.77-1-1.28-1.37-.5-.38-1.07-.66-1.69-.85s-1.28-.29-1.98-.29c-1.26,0-2.38,.32-3.37,.95-.99,.63-1.77,1.56-2.34,2.78-.57,1.22-.86,2.71-.86,4.47s.29,3.27,.86,4.5c.57,1.22,1.35,2.14,2.35,2.77s2.11,.94,3.36,.94c.69,0,1.34-.09,1.96-.28,.62-.19,1.18-.47,1.69-.84,.5-.37,.93-.82,1.28-1.36s.59-1.15,.73-1.85h3.32c-.18,1.08-.52,2.07-1.03,2.97-.51,.9-1.16,1.67-1.95,2.32-.79,.65-1.7,1.15-2.71,1.51-1.02,.36-2.12,.53-3.32,.53-1.89,0-3.57-.45-5.05-1.35s-2.64-2.19-3.49-3.86c-.85-1.68-1.27-3.67-1.27-6s.43-4.33,1.28-6c.85-1.67,2.02-2.96,3.49-3.86,1.48-.9,3.16-1.35,5.04-1.35,1.16,0,2.24,.17,3.24,.5,1,.33,1.91,.81,2.71,1.45s1.47,1.41,1.99,2.32c.53,.91,.88,1.96,1.07,3.13Z"/><path class="cls-3" d="M717.7,463.36v9.72h-3.19v-21.82h3.14v8.12h.2c.38-.88,.97-1.58,1.76-2.1s1.82-.78,3.09-.78c1.12,0,2.1,.23,2.95,.69s1.5,1.15,1.96,2.06c.47,.91,.7,2.05,.7,3.41v10.41h-3.19v-10.02c0-1.2-.31-2.13-.93-2.8s-1.48-1-2.58-1c-.75,0-1.43,.16-2.02,.48-.59,.32-1.06,.79-1.4,1.4-.34,.61-.51,1.35-.51,2.22Z"/><path class="cls-3" d="M739.46,473.4c-1.53,0-2.87-.35-4.02-1.05s-2.03-1.69-2.66-2.95c-.63-1.26-.95-2.74-.95-4.43s.32-3.18,.95-4.45c.63-1.27,1.52-2.26,2.66-2.96s2.48-1.05,4.02-1.05,2.87,.35,4.02,1.05c1.14,.7,2.03,1.69,2.66,2.96,.63,1.27,.95,2.76,.95,4.45s-.32,3.17-.95,4.43c-.63,1.26-1.52,2.25-2.66,2.95-1.14,.7-2.48,1.05-4.02,1.05Zm.01-2.67c.99,0,1.82-.26,2.47-.79s1.14-1.23,1.45-2.1c.32-.87,.47-1.84,.47-2.89s-.16-2-.47-2.88c-.32-.88-.8-1.58-1.45-2.12-.65-.53-1.48-.8-2.47-.8s-1.83,.27-2.49,.8c-.66,.53-1.14,1.24-1.46,2.12-.32,.88-.47,1.84-.47,2.88s.16,2.01,.47,2.89c.32,.87,.8,1.57,1.46,2.1,.66,.53,1.49,.79,2.49,.79Z"/><path class="cls-3" d="M757.53,473.4c-1.53,0-2.87-.35-4.02-1.05s-2.03-1.69-2.66-2.95c-.63-1.26-.95-2.74-.95-4.43s.32-3.18,.95-4.45c.63-1.27,1.52-2.26,2.66-2.96s2.48-1.05,4.02-1.05,2.87,.35,4.02,1.05c1.14,.7,2.03,1.69,2.66,2.96,.63,1.27,.95,2.76,.95,4.45s-.32,3.17-.95,4.43c-.63,1.26-1.52,2.25-2.66,2.95-1.14,.7-2.48,1.05-4.02,1.05Zm.01-2.67c.99,0,1.82-.26,2.47-.79s1.14-1.23,1.45-2.1c.32-.87,.47-1.84,.47-2.89s-.16-2-.47-2.88c-.32-.88-.8-1.58-1.45-2.12-.65-.53-1.48-.8-2.47-.8s-1.83,.27-2.49,.8c-.66,.53-1.14,1.24-1.46,2.12-.32,.88-.47,1.84-.47,2.88s.16,2.01,.47,2.89c.32,.87,.8,1.57,1.46,2.1,.66,.53,1.49,.79,2.49,.79Z"/><path class="cls-3" d="M780.97,460.7l-2.89,.51c-.12-.37-.31-.72-.57-1.05-.26-.33-.61-.61-1.05-.82-.44-.21-.99-.32-1.65-.32-.9,0-1.66,.2-2.26,.6-.6,.4-.91,.92-.91,1.55,0,.55,.2,.99,.61,1.32,.41,.33,1.06,.61,1.96,.82l2.6,.6c1.5,.35,2.63,.88,3.37,1.61,.74,.72,1.11,1.67,1.11,2.82,0,.98-.28,1.85-.85,2.62s-1.35,1.36-2.35,1.79c-1,.43-2.17,.65-3.49,.65-1.83,0-3.33-.39-4.48-1.18-1.16-.79-1.87-1.9-2.13-3.35l3.08-.47c.19,.8,.59,1.41,1.18,1.82,.6,.41,1.37,.61,2.33,.61,1.04,0,1.88-.22,2.5-.66,.62-.44,.94-.97,.94-1.6,0-.51-.19-.94-.57-1.29-.38-.35-.96-.61-1.74-.79l-2.77-.61c-1.53-.35-2.66-.9-3.38-1.66-.73-.76-1.09-1.72-1.09-2.89,0-.97,.27-1.81,.81-2.54s1.29-1.29,2.24-1.7c.95-.41,2.04-.61,3.27-.61,1.77,0,3.16,.38,4.18,1.14,1.02,.76,1.69,1.79,2.01,3.06Z"/><path class="cls-3" d="M791.84,473.4c-1.61,0-3-.35-4.16-1.04-1.16-.69-2.06-1.67-2.69-2.93-.63-1.26-.94-2.74-.94-4.44s.31-3.15,.94-4.43c.63-1.28,1.51-2.28,2.64-2.99,1.13-.72,2.46-1.08,3.98-1.08,.92,0,1.82,.15,2.69,.46,.87,.31,1.64,.78,2.33,1.44,.69,.65,1.23,1.5,1.63,2.54,.4,1.04,.6,2.3,.6,3.79v1.13h-13.01v-2.39h9.89c0-.84-.17-1.58-.51-2.23-.34-.65-.82-1.16-1.43-1.54-.61-.38-1.33-.56-2.16-.56-.89,0-1.67,.22-2.34,.66s-1.18,1-1.53,1.71c-.36,.7-.54,1.46-.54,2.27v1.86c0,1.09,.19,2.02,.58,2.79,.39,.77,.93,1.35,1.62,1.75,.7,.4,1.51,.6,2.44,.6,.6,0,1.15-.09,1.65-.26,.5-.17,.93-.44,1.29-.78s.64-.78,.83-1.29l3.01,.54c-.24,.89-.67,1.66-1.29,2.33-.62,.66-1.4,1.18-2.33,1.54-.93,.37-2,.55-3.19,.55Z"/><path class="cls-3" d="M57.65,515.21c-.48,0-.91-.04-1.3-.11-.39-.07-.68-.15-.87-.24l.77-2.61c.58,.16,1.1,.22,1.55,.2,.46-.02,.86-.19,1.21-.51s.66-.84,.93-1.57l.39-1.09-5.99-16.58h3.41l4.14,12.7h.17l4.14-12.7h3.42l-6.74,18.55c-.31,.85-.71,1.57-1.19,2.17-.48,.59-1.06,1.04-1.73,1.34-.67,.3-1.44,.45-2.32,.45Z"/><path class="cls-3" d="M78.94,509.4c-1.53,0-2.87-.35-4.02-1.05s-2.03-1.69-2.66-2.95c-.63-1.26-.95-2.74-.95-4.43s.32-3.18,.95-4.45c.63-1.27,1.52-2.26,2.66-2.96s2.48-1.05,4.02-1.05,2.87,.35,4.02,1.05c1.14,.7,2.03,1.69,2.66,2.96,.63,1.27,.95,2.76,.95,4.45s-.32,3.17-.95,4.43c-.63,1.26-1.52,2.25-2.66,2.95-1.14,.7-2.48,1.05-4.02,1.05Zm.01-2.67c.99,0,1.82-.26,2.47-.79s1.14-1.23,1.45-2.1c.32-.87,.47-1.84,.47-2.89s-.16-2-.47-2.88c-.32-.88-.8-1.58-1.45-2.12-.65-.53-1.48-.8-2.47-.8s-1.83,.27-2.49,.8c-.66,.53-1.14,1.24-1.46,2.12-.32,.88-.47,1.84-.47,2.88s.16,2.01,.47,2.89c.32,.87,.8,1.57,1.46,2.1,.66,.53,1.49,.79,2.49,.79Z"/><path class="cls-3" d="M100.48,502.29v-9.58h3.2v16.36h-3.13v-2.83h-.17c-.38,.87-.98,1.6-1.81,2.18-.83,.58-1.86,.87-3.08,.87-1.05,0-1.98-.23-2.79-.7-.81-.46-1.44-1.16-1.9-2.07s-.69-2.05-.69-3.4v-10.41h3.19v10.02c0,1.12,.31,2,.93,2.66,.62,.66,1.42,.99,2.41,.99,.6,0,1.19-.15,1.78-.45,.59-.3,1.09-.75,1.48-1.35,.39-.6,.59-1.37,.58-2.3Z"/><path class="cls-3" d="M107.95,509.07v-16.36h3.08v2.6h.17c.3-.88,.83-1.58,1.58-2.08s1.61-.76,2.57-.76c.2,0,.43,0,.71,.02,.27,.01,.49,.03,.64,.05v3.05c-.13-.04-.36-.08-.68-.12-.33-.05-.65-.07-.98-.07-.75,0-1.42,.16-2.01,.47-.59,.32-1.05,.75-1.39,1.31s-.51,1.19-.51,1.9v9.99h-3.19Z"/><path class="cls-3" d="M127.43,515.21v-22.5h3.11v2.65h.27c.18-.34,.45-.73,.8-1.18,.35-.45,.83-.84,1.45-1.18,.62-.34,1.43-.51,2.45-.51,1.32,0,2.5,.33,3.54,1,1.04,.67,1.85,1.63,2.44,2.89,.59,1.26,.89,2.77,.89,4.54s-.29,3.28-.88,4.54c-.59,1.26-1.4,2.23-2.43,2.91-1.03,.68-2.21,1.02-3.53,1.02-1,0-1.81-.17-2.43-.5-.63-.33-1.12-.72-1.48-1.17-.36-.45-.63-.85-.82-1.19h-.19v8.68h-3.19Zm3.12-14.32c0,1.15,.17,2.16,.5,3.03,.33,.87,.82,1.54,1.45,2.03,.63,.49,1.41,.73,2.32,.73s1.75-.25,2.39-.76c.64-.51,1.12-1.2,1.45-2.07,.33-.87,.5-1.86,.5-2.95s-.16-2.05-.49-2.91-.81-1.54-1.45-2.04c-.64-.5-1.44-.75-2.4-.75s-1.7,.24-2.34,.71c-.64,.48-1.12,1.14-1.44,1.99-.33,.85-.49,1.85-.49,2.98Z"/><path class="cls-3" d="M145.94,509.07v-16.36h3.08v2.6h.17c.3-.88,.83-1.58,1.58-2.08s1.61-.76,2.57-.76c.2,0,.43,0,.71,.02,.27,.01,.49,.03,.64,.05v3.05c-.13-.04-.36-.08-.68-.12-.33-.05-.65-.07-.98-.07-.75,0-1.42,.16-2.01,.47-.59,.32-1.05,.75-1.39,1.31s-.51,1.19-.51,1.9v9.99h-3.19Z"/><path class="cls-3" d="M163.92,509.4c-1.61,0-3-.35-4.16-1.04-1.16-.69-2.06-1.67-2.69-2.93-.63-1.26-.94-2.74-.94-4.44s.31-3.15,.94-4.43c.63-1.28,1.51-2.28,2.64-2.99,1.13-.72,2.46-1.08,3.98-1.08,.92,0,1.82,.15,2.69,.46,.87,.31,1.64,.78,2.33,1.44,.69,.65,1.23,1.5,1.63,2.54,.4,1.04,.6,2.3,.6,3.79v1.13h-13.01v-2.39h9.89c0-.84-.17-1.58-.51-2.23-.34-.65-.82-1.16-1.43-1.54-.61-.38-1.33-.56-2.16-.56-.89,0-1.67,.22-2.34,.66s-1.18,1-1.53,1.71c-.36,.7-.54,1.46-.54,2.27v1.86c0,1.09,.19,2.02,.58,2.79,.39,.77,.93,1.35,1.62,1.75,.7,.4,1.51,.6,2.44,.6,.6,0,1.15-.09,1.65-.26,.5-.17,.93-.44,1.29-.78s.64-.78,.83-1.29l3.01,.54c-.24,.89-.67,1.66-1.29,2.33-.62,.66-1.4,1.18-2.33,1.54-.93,.37-2,.55-3.19,.55Z"/><path class="cls-3" d="M180.62,509.39c-1.32,0-2.5-.34-3.53-1.02-1.03-.68-1.84-1.65-2.43-2.91s-.88-2.78-.88-4.54,.3-3.28,.89-4.54c.59-1.26,1.41-2.22,2.44-2.89,1.04-.67,2.21-1,3.53-1,1.02,0,1.83,.17,2.46,.51,.62,.34,1.1,.73,1.45,1.18,.34,.45,.61,.84,.8,1.18h.19v-8.11h3.19v21.82h-3.11v-2.55h-.27c-.19,.35-.47,.75-.83,1.19-.36,.45-.85,.84-1.48,1.17s-1.43,.5-2.43,.5Zm.7-2.72c.92,0,1.69-.24,2.33-.73,.64-.49,1.12-1.16,1.45-2.03,.33-.87,.5-1.88,.5-3.03s-.16-2.13-.49-2.98c-.33-.85-.81-1.52-1.44-1.99-.63-.48-1.41-.71-2.34-.71s-1.76,.25-2.4,.75c-.64,.5-1.12,1.18-1.44,2.04s-.49,1.83-.49,2.91,.16,2.08,.49,2.95c.33,.87,.81,1.56,1.45,2.07s1.44,.76,2.38,.76Z"/><path class="cls-3" d="M194.87,490.18c-.55,0-1.03-.19-1.42-.56-.39-.37-.59-.82-.59-1.34s.2-.98,.59-1.35c.39-.37,.87-.56,1.42-.56s1.03,.19,1.42,.56c.39,.37,.59,.82,.59,1.34s-.2,.97-.59,1.35c-.39,.37-.87,.56-1.42,.56Zm-1.61,18.89v-16.36h3.19v16.36h-3.19Z"/><path class="cls-3" d="M207.63,509.4c-1.58,0-2.95-.36-4.09-1.08-1.14-.72-2.01-1.72-2.63-2.99-.61-1.27-.92-2.73-.92-4.37s.31-3.13,.94-4.4c.62-1.28,1.51-2.27,2.64-2.99,1.14-.72,2.48-1.08,4.02-1.08,1.24,0,2.35,.23,3.32,.69,.97,.46,1.76,1.1,2.36,1.92,.6,.82,.96,1.79,1.07,2.89h-3.1c-.17-.77-.56-1.43-1.17-1.98-.61-.55-1.42-.83-2.43-.83-.89,0-1.66,.23-2.33,.7-.66,.47-1.18,1.13-1.55,1.98-.37,.86-.55,1.87-.55,3.03s.18,2.22,.54,3.09c.36,.87,.88,1.54,1.54,2.01,.66,.48,1.45,.71,2.35,.71,.6,0,1.15-.11,1.65-.33,.49-.22,.91-.54,1.25-.96,.34-.42,.57-.92,.71-1.51h3.1c-.11,1.06-.46,2-1.03,2.83s-1.34,1.48-2.31,1.96c-.96,.48-2.09,.71-3.38,.71Z"/><path class="cls-3" d="M225.41,492.71v2.56h-8.94v-2.56h8.94Zm-6.54-3.92h3.19v15.48c0,.62,.09,1.08,.28,1.39s.42,.52,.72,.63c.29,.11,.62,.17,.96,.17,.26,0,.48-.02,.67-.05,.19-.04,.34-.06,.45-.08l.58,2.63c-.18,.07-.45,.14-.79,.22s-.77,.12-1.28,.12c-.84,.01-1.62-.13-2.34-.45-.72-.31-1.31-.79-1.76-1.45-.45-.65-.67-1.47-.67-2.46v-16.14Z"/><path class="cls-3" d="M230.53,490.18c-.55,0-1.03-.19-1.42-.56-.39-.37-.59-.82-.59-1.34s.2-.98,.59-1.35c.39-.37,.87-.56,1.42-.56s1.03,.19,1.42,.56c.39,.37,.59,.82,.59,1.34s-.2,.97-.59,1.35c-.39,.37-.87,.56-1.42,.56Zm-1.61,18.89v-16.36h3.19v16.36h-3.19Z"/><path class="cls-3" d="M243.28,509.4c-1.53,0-2.87-.35-4.02-1.05s-2.03-1.69-2.66-2.95c-.63-1.26-.95-2.74-.95-4.43s.32-3.18,.95-4.45c.63-1.27,1.52-2.26,2.66-2.96s2.48-1.05,4.02-1.05,2.87,.35,4.02,1.05c1.14,.7,2.03,1.69,2.66,2.96,.63,1.27,.95,2.76,.95,4.45s-.32,3.17-.95,4.43c-.63,1.26-1.52,2.25-2.66,2.95-1.14,.7-2.48,1.05-4.02,1.05Zm.01-2.67c.99,0,1.82-.26,2.47-.79s1.14-1.23,1.45-2.1c.32-.87,.47-1.84,.47-2.89s-.16-2-.47-2.88c-.32-.88-.8-1.58-1.45-2.12-.65-.53-1.48-.8-2.47-.8s-1.83,.27-2.49,.8c-.66,.53-1.14,1.24-1.46,2.12-.32,.88-.47,1.84-.47,2.88s.16,2.01,.47,2.89c.32,.87,.8,1.57,1.46,2.1,.66,.53,1.49,.79,2.49,.79Z"/><path class="cls-3" d="M257.64,499.36v9.72h-3.19v-16.36h3.06v2.66h.2c.38-.87,.97-1.56,1.77-2.09,.81-.53,1.82-.79,3.05-.79,1.11,0,2.09,.23,2.93,.7,.84,.47,1.49,1.16,1.95,2.07s.69,2.05,.69,3.4v10.41h-3.19v-10.02c0-1.19-.31-2.12-.93-2.79-.62-.67-1.47-1.01-2.55-1.01-.74,0-1.39,.16-1.97,.48-.57,.32-1.02,.79-1.35,1.4s-.5,1.35-.5,2.22Z"/><path class="cls-3" d="M285.09,509.43c-1.04,0-1.97-.19-2.81-.58-.84-.39-1.5-.95-1.99-1.69-.49-.74-.73-1.64-.73-2.72,0-.92,.18-1.68,.53-2.28,.35-.6,.83-1.07,1.44-1.42,.6-.35,1.28-.61,2.02-.79,.75-.18,1.51-.31,2.28-.41,.98-.11,1.78-.21,2.39-.28,.61-.07,1.05-.2,1.33-.37s.42-.45,.42-.83v-.07c0-.93-.26-1.65-.78-2.16-.52-.51-1.3-.77-2.33-.77s-1.92,.24-2.53,.71c-.61,.47-1.04,1-1.27,1.57l-2.99-.68c.36-.99,.88-1.8,1.56-2.41s1.48-1.06,2.37-1.34c.9-.28,1.84-.42,2.82-.42,.65,0,1.35,.08,2.08,.23,.74,.15,1.42,.43,2.07,.84,.64,.4,1.17,.98,1.58,1.73,.41,.75,.62,1.72,.62,2.91v10.87h-3.11v-2.24h-.13c-.21,.41-.52,.82-.93,1.21-.41,.4-.94,.73-1.59,.99-.65,.26-1.42,.39-2.32,.39Zm.69-2.56c.88,0,1.64-.17,2.26-.52,.63-.35,1.11-.8,1.44-1.37,.33-.57,.5-1.17,.5-1.82v-2.11c-.11,.11-.33,.22-.66,.31-.32,.1-.69,.18-1.1,.25-.41,.07-.81,.13-1.2,.18-.39,.05-.72,.1-.98,.13-.62,.08-1.18,.21-1.69,.39s-.91,.45-1.21,.79c-.3,.34-.45,.8-.45,1.37,0,.79,.29,1.38,.87,1.79s1.32,.6,2.23,.6Z"/><path class="cls-3" d="M300.59,499.36v9.72h-3.19v-16.36h3.06v2.66h.2c.38-.87,.97-1.56,1.77-2.09,.81-.53,1.82-.79,3.05-.79,1.11,0,2.09,.23,2.93,.7,.84,.47,1.49,1.16,1.95,2.07s.69,2.05,.69,3.4v10.41h-3.19v-10.02c0-1.19-.31-2.12-.93-2.79-.62-.67-1.47-1.01-2.55-1.01-.74,0-1.39,.16-1.97,.48-.57,.32-1.02,.79-1.35,1.4s-.5,1.35-.5,2.22Z"/><path class="cls-3" d="M321.45,509.39c-1.32,0-2.5-.34-3.53-1.02-1.03-.68-1.84-1.65-2.43-2.91s-.88-2.78-.88-4.54,.3-3.28,.89-4.54c.59-1.26,1.41-2.22,2.44-2.89,1.04-.67,2.21-1,3.53-1,1.02,0,1.83,.17,2.46,.51,.62,.34,1.1,.73,1.45,1.18,.34,.45,.61,.84,.8,1.18h.19v-8.11h3.19v21.82h-3.11v-2.55h-.27c-.19,.35-.47,.75-.83,1.19-.36,.45-.85,.84-1.48,1.17s-1.43,.5-2.43,.5Zm.7-2.72c.92,0,1.69-.24,2.33-.73,.64-.49,1.12-1.16,1.45-2.03,.33-.87,.5-1.88,.5-3.03s-.16-2.13-.49-2.98c-.33-.85-.81-1.52-1.44-1.99-.63-.48-1.41-.71-2.34-.71s-1.76,.25-2.4,.75c-.64,.5-1.12,1.18-1.44,2.04s-.49,1.83-.49,2.91,.16,2.08,.49,2.95c.33,.87,.81,1.56,1.45,2.07s1.44,.76,2.38,.76Z"/><path class="cls-3" d="M345.22,499.36v9.72h-3.19v-21.82h3.14v8.12h.2c.38-.88,.97-1.58,1.76-2.1s1.82-.78,3.09-.78c1.12,0,2.1,.23,2.95,.69s1.5,1.15,1.96,2.06c.47,.91,.7,2.05,.7,3.41v10.41h-3.19v-10.02c0-1.2-.31-2.13-.93-2.8s-1.48-1-2.58-1c-.75,0-1.43,.16-2.02,.48-.59,.32-1.06,.79-1.4,1.4-.34,.61-.51,1.35-.51,2.22Z"/><path class="cls-3" d="M366.99,509.4c-1.53,0-2.87-.35-4.02-1.05s-2.03-1.69-2.66-2.95c-.63-1.26-.95-2.74-.95-4.43s.32-3.18,.95-4.45c.63-1.27,1.52-2.26,2.66-2.96s2.48-1.05,4.02-1.05,2.87,.35,4.02,1.05c1.14,.7,2.03,1.69,2.66,2.96,.63,1.27,.95,2.76,.95,4.45s-.32,3.17-.95,4.43c-.63,1.26-1.52,2.25-2.66,2.95-1.14,.7-2.48,1.05-4.02,1.05Zm.01-2.67c.99,0,1.82-.26,2.47-.79s1.14-1.23,1.45-2.1c.32-.87,.47-1.84,.47-2.89s-.16-2-.47-2.88c-.32-.88-.8-1.58-1.45-2.12-.65-.53-1.48-.8-2.47-.8s-1.83,.27-2.49,.8c-.66,.53-1.14,1.24-1.46,2.12-.32,.88-.47,1.84-.47,2.88s.16,2.01,.47,2.89c.32,.87,.8,1.57,1.46,2.1,.66,.53,1.49,.79,2.49,.79Z"/><path class="cls-3" d="M381.21,509.07l-4.81-16.36h3.29l3.21,12.02h.16l3.22-12.02h3.29l3.2,11.96h.16l3.18-11.96h3.29l-4.8,16.36h-3.25l-3.32-11.81h-.25l-3.32,11.81h-3.24Z"/><path class="cls-3" d="M410.36,509.07v-16.36h3.06v2.66h.2c.34-.9,.9-1.61,1.67-2.11,.77-.51,1.7-.76,2.78-.76s2.01,.26,2.75,.77c.74,.51,1.29,1.21,1.65,2.11h.17c.39-.87,1.01-1.57,1.86-2.09,.85-.52,1.87-.78,3.05-.78,1.48,0,2.7,.46,3.64,1.4,.94,.93,1.41,2.33,1.41,4.21v10.97h-3.19v-10.67c0-1.11-.3-1.91-.91-2.41s-1.33-.75-2.16-.75c-1.04,0-1.84,.32-2.42,.95s-.86,1.45-.86,2.44v10.43h-3.17v-10.88c0-.89-.28-1.6-.83-2.14-.55-.54-1.27-.81-2.16-.81-.6,0-1.16,.16-1.67,.47-.51,.32-.92,.75-1.23,1.32-.31,.56-.46,1.21-.46,1.95v10.09h-3.19Z"/><path class="cls-3" d="M441.63,509.43c-1.04,0-1.97-.19-2.81-.58-.84-.39-1.5-.95-1.99-1.69-.49-.74-.73-1.64-.73-2.72,0-.92,.18-1.68,.53-2.28,.35-.6,.83-1.07,1.44-1.42,.6-.35,1.28-.61,2.02-.79,.75-.18,1.51-.31,2.28-.41,.98-.11,1.78-.21,2.39-.28,.61-.07,1.05-.2,1.33-.37s.42-.45,.42-.83v-.07c0-.93-.26-1.65-.78-2.16-.52-.51-1.3-.77-2.33-.77s-1.92,.24-2.53,.71c-.61,.47-1.04,1-1.27,1.57l-2.99-.68c.36-.99,.88-1.8,1.56-2.41s1.48-1.06,2.37-1.34c.9-.28,1.84-.42,2.82-.42,.65,0,1.35,.08,2.08,.23,.74,.15,1.42,.43,2.07,.84,.64,.4,1.17,.98,1.58,1.73,.41,.75,.62,1.72,.62,2.91v10.87h-3.11v-2.24h-.13c-.21,.41-.52,.82-.93,1.21-.41,.4-.94,.73-1.59,.99-.65,.26-1.42,.39-2.32,.39Zm.69-2.56c.88,0,1.64-.17,2.26-.52,.63-.35,1.11-.8,1.44-1.37,.33-.57,.5-1.17,.5-1.82v-2.11c-.11,.11-.33,.22-.66,.31-.32,.1-.69,.18-1.1,.25-.41,.07-.81,.13-1.2,.18-.39,.05-.72,.1-.98,.13-.62,.08-1.18,.21-1.69,.39s-.91,.45-1.21,.79c-.3,.34-.45,.8-.45,1.37,0,.79,.29,1.38,.87,1.79s1.32,.6,2.23,.6Z"/><path class="cls-3" d="M457.13,499.36v9.72h-3.19v-16.36h3.06v2.66h.2c.38-.87,.97-1.56,1.77-2.09,.81-.53,1.82-.79,3.05-.79,1.11,0,2.09,.23,2.93,.7,.84,.47,1.49,1.16,1.95,2.07s.69,2.05,.69,3.4v10.41h-3.19v-10.02c0-1.19-.31-2.12-.93-2.79-.62-.67-1.47-1.01-2.55-1.01-.74,0-1.39,.16-1.97,.48-.57,.32-1.02,.79-1.35,1.4s-.5,1.35-.5,2.22Z"/><path class="cls-3" d="M473.28,515.21c-.48,0-.91-.04-1.3-.11-.39-.07-.68-.15-.87-.24l.77-2.61c.58,.16,1.1,.22,1.55,.2,.46-.02,.86-.19,1.21-.51s.66-.84,.93-1.57l.39-1.09-5.99-16.58h3.41l4.14,12.7h.17l4.14-12.7h3.42l-6.74,18.55c-.31,.85-.71,1.57-1.19,2.17-.48,.59-1.06,1.04-1.73,1.34-.67,.3-1.44,.45-2.32,.45Z"/><path class="cls-3" d="M496.46,509.07v-21.82h3.18v8.11h.19c.18-.34,.45-.73,.8-1.18,.35-.45,.83-.84,1.45-1.18,.62-.34,1.43-.51,2.45-.51,1.32,0,2.5,.33,3.54,1,1.04,.67,1.85,1.63,2.45,2.89,.59,1.26,.89,2.77,.89,4.54s-.29,3.28-.88,4.54c-.59,1.26-1.4,2.23-2.43,2.91-1.03,.68-2.21,1.02-3.53,1.02-.99,0-1.81-.17-2.43-.5-.63-.33-1.12-.72-1.48-1.17-.36-.45-.63-.85-.82-1.19h-.27v2.55h-3.11Zm3.12-8.18c0,1.15,.17,2.16,.5,3.03,.33,.87,.82,1.54,1.45,2.03,.63,.49,1.41,.73,2.32,.73s1.75-.25,2.39-.76c.64-.51,1.12-1.2,1.45-2.07,.33-.87,.5-1.86,.5-2.95s-.16-2.05-.48-2.91-.81-1.54-1.45-2.04c-.64-.5-1.44-.75-2.4-.75s-1.7,.24-2.34,.71c-.64,.48-1.12,1.14-1.44,1.99-.33,.85-.49,1.85-.49,2.98Z"/><path class="cls-3" d="M516.58,490.18c-.55,0-1.03-.19-1.42-.56-.39-.37-.59-.82-.59-1.34s.2-.98,.59-1.35c.39-.37,.87-.56,1.42-.56s1.03,.19,1.42,.56c.39,.37,.59,.82,.59,1.34s-.2,.97-.59,1.35c-.39,.37-.87,.56-1.42,.56Zm-1.61,18.89v-16.36h3.19v16.36h-3.19Z"/><path class="cls-3" d="M528.57,509.39c-1.32,0-2.5-.34-3.53-1.02-1.03-.68-1.84-1.65-2.43-2.91s-.88-2.78-.88-4.54,.3-3.28,.89-4.54c.59-1.26,1.41-2.22,2.44-2.89,1.04-.67,2.21-1,3.53-1,1.02,0,1.83,.17,2.46,.51,.62,.34,1.1,.73,1.45,1.18,.34,.45,.61,.84,.8,1.18h.19v-8.11h3.19v21.82h-3.11v-2.55h-.27c-.19,.35-.47,.75-.83,1.19-.36,.45-.85,.84-1.48,1.17s-1.43,.5-2.43,.5Zm.7-2.72c.92,0,1.69-.24,2.33-.73,.64-.49,1.12-1.16,1.45-2.03,.33-.87,.5-1.88,.5-3.03s-.16-2.13-.49-2.98c-.33-.85-.81-1.52-1.44-1.99-.63-.48-1.41-.71-2.34-.71s-1.76,.25-2.4,.75c-.64,.5-1.12,1.18-1.44,2.04s-.49,1.83-.49,2.91,.16,2.08,.49,2.95c.33,.87,.81,1.56,1.45,2.07s1.44,.76,2.38,.76Z"/><path class="cls-3" d="M553.48,496.7l-2.89,.51c-.12-.37-.31-.72-.57-1.05-.26-.33-.61-.61-1.05-.82-.44-.21-.99-.32-1.65-.32-.9,0-1.66,.2-2.26,.6-.6,.4-.91,.92-.91,1.55,0,.55,.2,.99,.61,1.32,.41,.33,1.06,.61,1.96,.82l2.6,.6c1.5,.35,2.63,.88,3.37,1.61,.74,.72,1.11,1.67,1.11,2.82,0,.98-.28,1.85-.85,2.62s-1.35,1.36-2.35,1.79c-1,.43-2.17,.65-3.49,.65-1.83,0-3.33-.39-4.48-1.18-1.16-.79-1.87-1.9-2.13-3.35l3.08-.47c.19,.8,.59,1.41,1.18,1.82,.6,.41,1.37,.61,2.33,.61,1.04,0,1.88-.22,2.5-.66,.62-.44,.94-.97,.94-1.6,0-.51-.19-.94-.57-1.29-.38-.35-.96-.61-1.74-.79l-2.77-.61c-1.53-.35-2.66-.9-3.38-1.66-.73-.76-1.09-1.72-1.09-2.89,0-.97,.27-1.81,.81-2.54s1.29-1.29,2.24-1.7c.95-.41,2.04-.61,3.27-.61,1.77,0,3.16,.38,4.18,1.14,1.02,.76,1.69,1.79,2.01,3.06Z"/><path class="cls-3" d="M567.25,515.21c-.48,0-.91-.04-1.3-.11-.39-.07-.68-.15-.87-.24l.77-2.61c.58,.16,1.1,.22,1.55,.2,.46-.02,.86-.19,1.21-.51s.66-.84,.93-1.57l.39-1.09-5.99-16.58h3.41l4.14,12.7h.17l4.14-12.7h3.42l-6.74,18.55c-.31,.85-.71,1.57-1.19,2.17-.48,.59-1.06,1.04-1.73,1.34-.67,.3-1.44,.45-2.32,.45Z"/><path class="cls-3" d="M588.55,509.4c-1.53,0-2.87-.35-4.02-1.05s-2.03-1.69-2.66-2.95c-.63-1.26-.95-2.74-.95-4.43s.32-3.18,.95-4.45c.63-1.27,1.52-2.26,2.66-2.96s2.48-1.05,4.02-1.05,2.87,.35,4.02,1.05c1.14,.7,2.03,1.69,2.66,2.96,.63,1.27,.95,2.76,.95,4.45s-.32,3.17-.95,4.43c-.63,1.26-1.52,2.25-2.66,2.95-1.14,.7-2.48,1.05-4.02,1.05Zm.01-2.67c.99,0,1.82-.26,2.47-.79s1.14-1.23,1.45-2.1c.32-.87,.47-1.84,.47-2.89s-.16-2-.47-2.88c-.32-.88-.8-1.58-1.45-2.12-.65-.53-1.48-.8-2.47-.8s-1.83,.27-2.49,.8c-.66,.53-1.14,1.24-1.46,2.12-.32,.88-.47,1.84-.47,2.88s.16,2.01,.47,2.89c.32,.87,.8,1.57,1.46,2.1,.66,.53,1.49,.79,2.49,.79Z"/><path class="cls-3" d="M610.09,502.29v-9.58h3.2v16.36h-3.13v-2.83h-.17c-.38,.87-.98,1.6-1.81,2.18-.83,.58-1.86,.87-3.08,.87-1.05,0-1.98-.23-2.79-.7-.81-.46-1.44-1.16-1.9-2.07s-.69-2.05-.69-3.4v-10.41h3.19v10.02c0,1.12,.31,2,.93,2.66,.62,.66,1.42,.99,2.41,.99,.6,0,1.19-.15,1.78-.45,.59-.3,1.09-.75,1.48-1.35,.39-.6,.59-1.37,.58-2.3Z"/><path class="cls-3" d="M619.98,487.25v7.77h-2.64v-7.77h2.64Z"/><path class="cls-3" d="M630.2,509.39c-1.32,0-2.5-.34-3.53-1.02-1.03-.68-1.84-1.65-2.43-2.91s-.88-2.78-.88-4.54,.3-3.28,.89-4.54c.59-1.26,1.41-2.22,2.44-2.89,1.04-.67,2.21-1,3.53-1,1.02,0,1.83,.17,2.46,.51,.62,.34,1.1,.73,1.45,1.18,.34,.45,.61,.84,.8,1.18h.19v-8.11h3.19v21.82h-3.11v-2.55h-.27c-.19,.35-.47,.75-.83,1.19-.36,.45-.85,.84-1.48,1.17s-1.43,.5-2.43,.5Zm.7-2.72c.92,0,1.69-.24,2.33-.73,.64-.49,1.12-1.16,1.45-2.03,.33-.87,.5-1.88,.5-3.03s-.16-2.13-.49-2.98c-.33-.85-.81-1.52-1.44-1.99-.63-.48-1.41-.71-2.34-.71s-1.76,.25-2.4,.75c-.64,.5-1.12,1.18-1.44,2.04s-.49,1.83-.49,2.91,.16,2.08,.49,2.95c.33,.87,.81,1.56,1.45,2.07s1.44,.76,2.38,.76Z"/><path class="cls-3" d="M653.98,487.25v21.82h-3.19v-21.82h3.19Z"/><path class="cls-3" d="M659.87,490.18c-.55,0-1.03-.19-1.42-.56-.39-.37-.59-.82-.59-1.34s.2-.98,.59-1.35c.39-.37,.87-.56,1.42-.56s1.03,.19,1.42,.56c.39,.37,.59,.82,.59,1.34s-.2,.97-.59,1.35c-.39,.37-.87,.56-1.42,.56Zm-1.61,18.89v-16.36h3.19v16.36h-3.19Z"/><path class="cls-3" d="M665.73,509.07v-21.82h3.19v21.82h-3.19Zm2.93-5.55l-.02-3.89h.55l6.52-6.92h3.81l-7.44,7.88h-.5l-2.93,2.93Zm7.4,5.55l-5.86-7.78,2.19-2.23,7.57,10h-3.91Z"/><path class="cls-3" d="M688.8,509.4c-1.61,0-3-.35-4.16-1.04-1.16-.69-2.06-1.67-2.69-2.93-.63-1.26-.94-2.74-.94-4.44s.31-3.15,.94-4.43c.63-1.28,1.51-2.28,2.64-2.99,1.13-.72,2.46-1.08,3.98-1.08,.92,0,1.82,.15,2.69,.46,.87,.31,1.64,.78,2.33,1.44,.69,.65,1.23,1.5,1.63,2.54,.4,1.04,.6,2.3,.6,3.79v1.13h-13.01v-2.39h9.89c0-.84-.17-1.58-.51-2.23-.34-.65-.82-1.16-1.43-1.54-.61-.38-1.33-.56-2.16-.56-.89,0-1.67,.22-2.34,.66s-1.18,1-1.53,1.71c-.36,.7-.54,1.46-.54,2.27v1.86c0,1.09,.19,2.02,.58,2.79,.39,.77,.93,1.35,1.62,1.75,.7,.4,1.51,.6,2.44,.6,.6,0,1.15-.09,1.65-.26,.5-.17,.93-.44,1.29-.78s.64-.78,.83-1.29l3.01,.54c-.24,.89-.67,1.66-1.29,2.33-.62,.66-1.4,1.18-2.33,1.54-.93,.37-2,.55-3.19,.55Z"/><path class="cls-3" d="M714.95,492.71v2.56h-8.94v-2.56h8.94Zm-6.54-3.92h3.19v15.48c0,.62,.09,1.08,.28,1.39s.42,.52,.72,.63c.29,.11,.62,.17,.96,.17,.26,0,.48-.02,.67-.05,.19-.04,.34-.06,.45-.08l.58,2.63c-.18,.07-.45,.14-.79,.22s-.77,.12-1.28,.12c-.84,.01-1.62-.13-2.34-.45-.72-.31-1.31-.79-1.76-1.45-.45-.65-.67-1.47-.67-2.46v-16.14Z"/><path class="cls-3" d="M725.19,509.4c-1.53,0-2.87-.35-4.02-1.05s-2.03-1.69-2.66-2.95c-.63-1.26-.95-2.74-.95-4.43s.32-3.18,.95-4.45c.63-1.27,1.52-2.26,2.66-2.96s2.48-1.05,4.02-1.05,2.87,.35,4.02,1.05c1.14,.7,2.03,1.69,2.66,2.96,.63,1.27,.95,2.76,.95,4.45s-.32,3.17-.95,4.43c-.63,1.26-1.52,2.25-2.66,2.95-1.14,.7-2.48,1.05-4.02,1.05Zm.01-2.67c.99,0,1.82-.26,2.47-.79s1.14-1.23,1.45-2.1c.32-.87,.47-1.84,.47-2.89s-.16-2-.47-2.88c-.32-.88-.8-1.58-1.45-2.12-.65-.53-1.48-.8-2.47-.8s-1.83,.27-2.49,.8c-.66,.53-1.14,1.24-1.46,2.12-.32,.88-.47,1.84-.47,2.88s.16,2.01,.47,2.89c.32,.87,.8,1.57,1.46,2.1,.66,.53,1.49,.79,2.49,.79Z"/><path class="cls-3" d="M744.31,509.07v-16.36h3.06v2.66h.2c.34-.9,.9-1.61,1.67-2.11,.77-.51,1.7-.76,2.78-.76s2.01,.26,2.75,.77c.74,.51,1.29,1.21,1.65,2.11h.17c.39-.87,1.01-1.57,1.86-2.09,.85-.52,1.87-.78,3.05-.78,1.48,0,2.7,.46,3.64,1.4,.94,.93,1.41,2.33,1.41,4.21v10.97h-3.19v-10.67c0-1.11-.3-1.91-.91-2.41s-1.33-.75-2.16-.75c-1.04,0-1.84,.32-2.42,.95s-.86,1.45-.86,2.44v10.43h-3.17v-10.88c0-.89-.28-1.6-.83-2.14-.55-.54-1.27-.81-2.16-.81-.6,0-1.16,.16-1.67,.47-.51,.32-.92,.75-1.23,1.32-.31,.56-.46,1.21-.46,1.95v10.09h-3.19Z"/><path class="cls-3" d="M775.58,509.43c-1.04,0-1.97-.19-2.81-.58-.84-.39-1.5-.95-1.99-1.69-.49-.74-.73-1.64-.73-2.72,0-.92,.18-1.68,.53-2.28,.35-.6,.83-1.07,1.44-1.42,.6-.35,1.28-.61,2.02-.79,.75-.18,1.51-.31,2.28-.41,.98-.11,1.78-.21,2.39-.28,.61-.07,1.05-.2,1.33-.37s.42-.45,.42-.83v-.07c0-.93-.26-1.65-.78-2.16-.52-.51-1.3-.77-2.33-.77s-1.92,.24-2.53,.71c-.61,.47-1.04,1-1.27,1.57l-2.99-.68c.36-.99,.88-1.8,1.56-2.41s1.48-1.06,2.37-1.34c.9-.28,1.84-.42,2.82-.42,.65,0,1.35,.08,2.08,.23,.74,.15,1.42,.43,2.07,.84,.64,.4,1.17,.98,1.58,1.73,.41,.75,.62,1.72,.62,2.91v10.87h-3.11v-2.24h-.13c-.21,.41-.52,.82-.93,1.21-.41,.4-.94,.73-1.59,.99-.65,.26-1.42,.39-2.32,.39Zm.69-2.56c.88,0,1.64-.17,2.26-.52,.63-.35,1.11-.8,1.44-1.37,.33-.57,.5-1.17,.5-1.82v-2.11c-.11,.11-.33,.22-.66,.31-.32,.1-.69,.18-1.1,.25-.41,.07-.81,.13-1.2,.18-.39,.05-.72,.1-.98,.13-.62,.08-1.18,.21-1.69,.39s-.91,.45-1.21,.79c-.3,.34-.45,.8-.45,1.37,0,.79,.29,1.38,.87,1.79s1.32,.6,2.23,.6Z"/><path class="cls-3" d="M787.9,509.07v-21.82h3.19v21.82h-3.19Zm2.93-5.55l-.02-3.89h.55l6.52-6.92h3.81l-7.44,7.88h-.5l-2.93,2.93Zm7.4,5.55l-5.86-7.78,2.19-2.23,7.57,10h-3.91Z"/><path class="cls-3" d="M810.96,509.4c-1.61,0-3-.35-4.16-1.04-1.16-.69-2.06-1.67-2.69-2.93-.63-1.26-.94-2.74-.94-4.44s.31-3.15,.94-4.43c.63-1.28,1.51-2.28,2.64-2.99,1.13-.72,2.46-1.08,3.98-1.08,.92,0,1.82,.15,2.69,.46,.87,.31,1.64,.78,2.33,1.44,.69,.65,1.23,1.5,1.63,2.54,.4,1.04,.6,2.3,.6,3.79v1.13h-13.01v-2.39h9.89c0-.84-.17-1.58-.51-2.23-.34-.65-.82-1.16-1.43-1.54-.61-.38-1.33-.56-2.16-.56-.89,0-1.67,.22-2.34,.66s-1.18,1-1.53,1.71c-.36,.7-.54,1.46-.54,2.27v1.86c0,1.09,.19,2.02,.58,2.79,.39,.77,.93,1.35,1.62,1.75,.7,.4,1.51,.6,2.44,.6,.6,0,1.15-.09,1.65-.26,.5-.17,.93-.44,1.29-.78s.64-.78,.83-1.29l3.01,.54c-.24,.89-.67,1.66-1.29,2.33-.62,.66-1.4,1.18-2.33,1.54-.93,.37-2,.55-3.19,.55Z"/><path class="cls-3" d="M823.63,509.28c-.58,0-1.08-.21-1.5-.62-.42-.42-.63-.92-.63-1.51s.21-1.08,.63-1.5c.42-.42,.92-.62,1.5-.62s1.08,.21,1.5,.62,.63,.91,.63,1.5c0,.39-.1,.75-.29,1.07s-.45,.58-.77,.77c-.32,.19-.67,.29-1.07,.29Z"/></g></g></g></svg>