<?xml version="1.0" encoding="UTF-8"?><svg id="Layer_2" xmlns="http://www.w3.org/2000/svg" viewBox="0 0 900 600"><defs><style>.cls-1{fill:#fff;}.cls-2{fill:#a0a7a7;}.cls-3{fill:#acff00;}.cls-4{fill:#0c1615;}.cls-5{stroke-width:.5px;}.cls-5,.cls-6{fill:none;stroke:#000;}.cls-7{fill:#a1a7a7;stroke:#0c1615;}</style></defs><g id="Layer_1-2"><g><g><rect x=".5" y=".5" width="899" height="599"/><path d="M899,1V599H1V1H899m1-1H0V600H900V0h0Z"/></g><g><path class="cls-1" d="M81.23,349.57v4.14h-10.17v27.36h-4.5v-27.36h-10.17v-4.14h24.84Z"/><path class="cls-1" d="M97.16,381.07v-3.73h-.63c-1.04,2.07-3.06,4.09-7.42,4.09-4.63,0-8.59-3.06-8.59-9.13v-13.27h4.23v12.91c0,3.83,2.07,5.8,5.67,5.8,4.09,0,6.66-2.61,6.66-7.2v-11.52h4.23v22.05h-4.14Z"/><path class="cls-1" d="M111.74,359.02v3.73h.63c1.04-2.07,3.06-4.09,7.42-4.09,4.63,0,8.59,3.06,8.59,9.13v13.27h-4.23v-12.91c0-3.83-2.07-5.8-5.67-5.8-4.09,0-6.66,2.61-6.66,7.2v11.52h-4.23v-22.05h4.14Z"/><path class="cls-1" d="M143.96,358.3c6.48,0,10.8,4.77,10.8,11.16v2.12h-17.37c.27,3.96,3.06,6.43,7.02,6.43,3.24,0,5.13-1.62,6.3-3.96l3.55,2.03c-1.67,2.7-4.5,5.62-9.76,5.62-6.84,0-11.52-5.17-11.52-11.83s4.59-11.56,10.98-11.56Zm6.39,9.86c-.09-3.78-2.52-6.17-6.39-6.17s-6.25,2.25-6.57,6.17h12.96Z"/><path class="cls-1" d="M177.53,349.57v31.5h-4.5v-31.5h4.5Z"/><path class="cls-1" d="M188.06,359.02v3.73h.63c1.04-2.07,3.06-4.09,7.42-4.09,4.63,0,8.59,3.06,8.59,9.13v13.27h-4.23v-12.91c0-3.83-2.07-5.8-5.67-5.8-4.09,0-6.66,2.61-6.66,7.2v11.52h-4.23v-22.05h4.14Z"/><path class="cls-1" d="M62.16,453.07l-6.05-21.82h3.46l4.25,16.9h.2l4.42-16.9h3.43l4.42,16.91h.2l4.24-16.91h3.47l-6.06,21.82h-3.31l-4.59-16.34h-.17l-4.59,16.34h-3.32Z"/><path class="cls-1" d="M90.12,453.43c-1.04,0-1.97-.19-2.81-.58s-1.5-.95-1.99-1.69c-.49-.74-.73-1.64-.73-2.72,0-.92,.18-1.68,.53-2.28,.35-.6,.83-1.07,1.44-1.42,.6-.35,1.28-.61,2.02-.79,.75-.18,1.51-.31,2.28-.4,.98-.11,1.78-.21,2.39-.28,.61-.08,1.05-.2,1.33-.37,.28-.17,.42-.45,.42-.83v-.07c0-.93-.26-1.65-.78-2.16-.52-.51-1.3-.77-2.33-.77s-1.92,.24-2.53,.71-1.04,1-1.27,1.57l-2.99-.68c.36-.99,.88-1.8,1.56-2.41s1.48-1.06,2.37-1.34c.9-.28,1.84-.42,2.82-.42,.65,0,1.35,.08,2.08,.23s1.42,.43,2.07,.84c.64,.41,1.17,.98,1.58,1.73,.41,.75,.62,1.72,.62,2.91v10.87h-3.11v-2.24h-.13c-.21,.41-.52,.82-.93,1.21-.41,.4-.94,.73-1.59,.99-.65,.26-1.42,.39-2.32,.39Zm.69-2.56c.88,0,1.64-.17,2.26-.52,.63-.35,1.11-.8,1.44-1.37s.5-1.17,.5-1.82v-2.11c-.11,.11-.33,.22-.66,.31s-.69,.18-1.1,.25-.81,.13-1.2,.18c-.39,.05-.72,.1-.98,.13-.62,.08-1.18,.21-1.69,.39-.51,.19-.91,.45-1.21,.79-.3,.34-.45,.8-.45,1.37,0,.79,.29,1.38,.87,1.78,.58,.4,1.32,.6,2.23,.6Z"/><path class="cls-1" d="M110.08,436.71v2.56h-8.94v-2.56h8.94Zm-6.54-3.92h3.19v15.48c0,.62,.09,1.08,.28,1.39s.42,.52,.72,.63c.29,.11,.62,.16,.96,.16,.26,0,.48-.02,.67-.05,.19-.04,.34-.06,.45-.09l.58,2.63c-.18,.07-.45,.14-.79,.22-.34,.08-.77,.12-1.28,.12-.84,.01-1.62-.13-2.34-.45-.72-.31-1.31-.79-1.76-1.45-.45-.65-.67-1.47-.67-2.46v-16.14Z"/><path class="cls-1" d="M120.32,453.4c-1.58,0-2.95-.36-4.09-1.08-1.14-.72-2.01-1.72-2.63-2.99-.61-1.27-.92-2.73-.92-4.37s.31-3.13,.94-4.4c.62-1.28,1.51-2.27,2.64-2.99,1.14-.72,2.48-1.08,4.02-1.08,1.24,0,2.35,.23,3.32,.69,.97,.46,1.76,1.1,2.36,1.92,.6,.82,.96,1.79,1.07,2.89h-3.1c-.17-.77-.56-1.43-1.17-1.98-.61-.55-1.42-.83-2.43-.83-.89,0-1.66,.23-2.33,.7-.66,.47-1.18,1.13-1.55,1.98s-.55,1.87-.55,3.03,.18,2.22,.54,3.09c.36,.87,.88,1.54,1.54,2.01,.66,.47,1.45,.71,2.35,.71,.6,0,1.15-.11,1.65-.34,.49-.22,.91-.54,1.25-.96,.34-.42,.57-.92,.71-1.51h3.1c-.11,1.06-.46,2-1.03,2.83s-1.34,1.48-2.31,1.96c-.96,.47-2.09,.71-3.38,.71Z"/><path class="cls-1" d="M133.64,443.36v9.72h-3.19v-21.82h3.14v8.12h.2c.38-.88,.97-1.58,1.76-2.1s1.82-.78,3.09-.78c1.12,0,2.1,.23,2.95,.69,.84,.46,1.5,1.15,1.96,2.06,.47,.91,.7,2.05,.7,3.41v10.41h-3.19v-10.03c0-1.2-.31-2.13-.93-2.8s-1.48-1-2.58-1c-.75,0-1.43,.16-2.02,.48-.59,.32-1.06,.79-1.4,1.4-.34,.62-.51,1.36-.51,2.22Z"/><path class="cls-1" d="M164.1,436.71v2.56h-8.94v-2.56h8.94Zm-6.54-3.92h3.19v15.48c0,.62,.09,1.08,.28,1.39s.42,.52,.72,.63c.29,.11,.62,.16,.96,.16,.26,0,.48-.02,.67-.05,.19-.04,.34-.06,.45-.09l.58,2.63c-.18,.07-.45,.14-.79,.22-.34,.08-.77,.12-1.28,.12-.84,.01-1.62-.13-2.34-.45-.72-.31-1.31-.79-1.76-1.45-.45-.65-.67-1.47-.67-2.46v-16.14Z"/><path class="cls-1" d="M171.14,443.36v9.72h-3.19v-21.82h3.14v8.12h.2c.38-.88,.97-1.58,1.76-2.1s1.82-.78,3.09-.78c1.12,0,2.1,.23,2.95,.69,.84,.46,1.5,1.15,1.96,2.06,.47,.91,.7,2.05,.7,3.41v10.41h-3.19v-10.03c0-1.2-.31-2.13-.93-2.8s-1.48-1-2.58-1c-.75,0-1.43,.16-2.02,.48-.59,.32-1.06,.79-1.4,1.4-.34,.62-.51,1.36-.51,2.22Z"/><path class="cls-1" d="M193.07,453.4c-1.61,0-3-.35-4.16-1.04-1.16-.69-2.06-1.67-2.69-2.93-.63-1.26-.94-2.74-.94-4.44s.31-3.15,.94-4.43c.63-1.28,1.51-2.28,2.64-2.99,1.13-.72,2.46-1.08,3.98-1.08,.92,0,1.82,.15,2.69,.46,.87,.31,1.64,.79,2.33,1.44,.69,.65,1.23,1.5,1.63,2.54,.4,1.04,.6,2.3,.6,3.79v1.13h-13.01v-2.39h9.89c0-.84-.17-1.58-.51-2.23-.34-.65-.82-1.16-1.43-1.54-.61-.38-1.33-.56-2.16-.56-.89,0-1.67,.22-2.34,.66s-1.18,1-1.53,1.7c-.36,.7-.54,1.46-.54,2.28v1.86c0,1.09,.19,2.03,.58,2.79,.39,.77,.93,1.35,1.62,1.75,.7,.4,1.51,.6,2.44,.6,.6,0,1.15-.09,1.65-.26s.93-.43,1.29-.78c.36-.35,.64-.78,.83-1.29l3.01,.54c-.24,.89-.67,1.66-1.29,2.33-.62,.66-1.4,1.18-2.33,1.54-.93,.37-2,.55-3.19,.55Z"/><path class="cls-1" d="M214.77,431.25v21.82h-3.19v-21.82h3.19Z"/><path class="cls-1" d="M220.66,434.18c-.55,0-1.03-.19-1.42-.56-.39-.37-.59-.82-.59-1.34s.2-.97,.59-1.35c.39-.37,.87-.56,1.42-.56s1.03,.19,1.42,.56c.39,.37,.59,.82,.59,1.34s-.2,.97-.59,1.35c-.39,.37-.87,.56-1.42,.56Zm-1.61,18.89v-16.36h3.19v16.36h-3.19Z"/><path class="cls-1" d="M240.52,436.71l-5.93,16.36h-3.41l-5.94-16.36h3.42l4.14,12.59h.17l4.13-12.59h3.42Z"/><path class="cls-1" d="M249.99,453.4c-1.61,0-3-.35-4.16-1.04-1.16-.69-2.06-1.67-2.69-2.93-.63-1.26-.94-2.74-.94-4.44s.31-3.15,.94-4.43c.63-1.28,1.51-2.28,2.64-2.99,1.13-.72,2.46-1.08,3.98-1.08,.92,0,1.82,.15,2.69,.46,.87,.31,1.64,.79,2.33,1.44,.69,.65,1.23,1.5,1.63,2.54,.4,1.04,.6,2.3,.6,3.79v1.13h-13.01v-2.39h9.89c0-.84-.17-1.58-.51-2.23-.34-.65-.82-1.16-1.43-1.54-.61-.38-1.33-.56-2.16-.56-.89,0-1.67,.22-2.34,.66s-1.18,1-1.53,1.7c-.36,.7-.54,1.46-.54,2.28v1.86c0,1.09,.19,2.03,.58,2.79,.39,.77,.93,1.35,1.62,1.75,.7,.4,1.51,.6,2.44,.6,.6,0,1.15-.09,1.65-.26s.93-.43,1.29-.78c.36-.35,.64-.78,.83-1.29l3.01,.54c-.24,.89-.67,1.66-1.29,2.33-.62,.66-1.4,1.18-2.33,1.54-.93,.37-2,.55-3.19,.55Z"/><path class="cls-1" d="M268.51,453.07v-16.36h3.06v2.66h.2c.34-.9,.9-1.61,1.67-2.11,.77-.51,1.7-.76,2.78-.76s2.01,.26,2.75,.77,1.29,1.21,1.65,2.11h.17c.39-.87,1.01-1.57,1.86-2.09,.85-.52,1.87-.78,3.05-.78,1.48,0,2.7,.46,3.64,1.39,.94,.93,1.41,2.33,1.41,4.21v10.97h-3.19v-10.67c0-1.11-.3-1.91-.91-2.41-.6-.5-1.33-.75-2.16-.75-1.04,0-1.84,.32-2.42,.95-.58,.64-.86,1.45-.86,2.45v10.43h-3.17v-10.88c0-.89-.28-1.6-.83-2.14-.55-.54-1.27-.81-2.16-.81-.6,0-1.16,.16-1.67,.47-.51,.32-.92,.75-1.23,1.31-.31,.56-.46,1.21-.46,1.95v10.09h-3.19Z"/><path class="cls-1" d="M299.77,453.43c-1.04,0-1.97-.19-2.81-.58s-1.5-.95-1.99-1.69c-.49-.74-.73-1.64-.73-2.72,0-.92,.18-1.68,.53-2.28,.35-.6,.83-1.07,1.44-1.42,.6-.35,1.28-.61,2.02-.79,.75-.18,1.51-.31,2.28-.4,.98-.11,1.78-.21,2.39-.28,.61-.08,1.05-.2,1.33-.37,.28-.17,.42-.45,.42-.83v-.07c0-.93-.26-1.65-.78-2.16-.52-.51-1.3-.77-2.33-.77s-1.92,.24-2.53,.71-1.04,1-1.27,1.57l-2.99-.68c.36-.99,.88-1.8,1.56-2.41s1.48-1.06,2.37-1.34c.9-.28,1.84-.42,2.82-.42,.65,0,1.35,.08,2.08,.23s1.42,.43,2.07,.84c.64,.41,1.17,.98,1.58,1.73,.41,.75,.62,1.72,.62,2.91v10.87h-3.11v-2.24h-.13c-.21,.41-.52,.82-.93,1.21-.41,.4-.94,.73-1.59,.99-.65,.26-1.42,.39-2.32,.39Zm.69-2.56c.88,0,1.64-.17,2.26-.52,.63-.35,1.11-.8,1.44-1.37s.5-1.17,.5-1.82v-2.11c-.11,.11-.33,.22-.66,.31s-.69,.18-1.1,.25-.81,.13-1.2,.18c-.39,.05-.72,.1-.98,.13-.62,.08-1.18,.21-1.69,.39-.51,.19-.91,.45-1.21,.79-.3,.34-.45,.8-.45,1.37,0,.79,.29,1.38,.87,1.78,.58,.4,1.32,.6,2.23,.6Z"/><path class="cls-1" d="M312.09,453.07v-16.36h3.08v2.6h.17c.3-.88,.83-1.58,1.58-2.08,.76-.51,1.61-.76,2.57-.76,.2,0,.43,0,.71,.02,.27,.01,.49,.03,.64,.05v3.05c-.13-.04-.36-.08-.68-.12-.33-.05-.65-.07-.98-.07-.75,0-1.42,.16-2.01,.47s-1.05,.75-1.39,1.31-.51,1.19-.51,1.9v9.99h-3.19Z"/><path class="cls-1" d="M323.62,453.07v-21.82h3.19v21.82h-3.19Zm2.93-5.55l-.02-3.89h.55l6.52-6.92h3.81l-7.44,7.88h-.5l-2.93,2.93Zm7.4,5.55l-5.86-7.78,2.19-2.23,7.57,10h-3.91Z"/><path class="cls-1" d="M346.68,453.4c-1.61,0-3-.35-4.16-1.04-1.16-.69-2.06-1.67-2.69-2.93-.63-1.26-.94-2.74-.94-4.44s.31-3.15,.94-4.43c.63-1.28,1.51-2.28,2.64-2.99,1.13-.72,2.46-1.08,3.98-1.08,.92,0,1.82,.15,2.69,.46,.87,.31,1.64,.79,2.33,1.44,.69,.65,1.23,1.5,1.63,2.54,.4,1.04,.6,2.3,.6,3.79v1.13h-13.01v-2.39h9.89c0-.84-.17-1.58-.51-2.23-.34-.65-.82-1.16-1.43-1.54-.61-.38-1.33-.56-2.16-.56-.89,0-1.67,.22-2.34,.66s-1.18,1-1.53,1.7c-.36,.7-.54,1.46-.54,2.28v1.86c0,1.09,.19,2.03,.58,2.79,.39,.77,.93,1.35,1.62,1.75,.7,.4,1.51,.6,2.44,.6,.6,0,1.15-.09,1.65-.26s.93-.43,1.29-.78c.36-.35,.64-.78,.83-1.29l3.01,.54c-.24,.89-.67,1.66-1.29,2.33-.62,.66-1.4,1.18-2.33,1.54-.93,.37-2,.55-3.19,.55Z"/><path class="cls-1" d="M364.89,436.71v2.56h-8.94v-2.56h8.94Zm-6.54-3.92h3.19v15.48c0,.62,.09,1.08,.28,1.39s.42,.52,.72,.63c.29,.11,.62,.16,.96,.16,.26,0,.48-.02,.67-.05,.19-.04,.34-.06,.45-.09l.58,2.63c-.18,.07-.45,.14-.79,.22-.34,.08-.77,.12-1.28,.12-.84,.01-1.62-.13-2.34-.45-.72-.31-1.31-.79-1.76-1.45-.45-.65-.67-1.47-.67-2.46v-16.14Z"/><path class="cls-1" d="M384.14,436.71v2.56h-9.25v-2.56h9.25Zm-6.71,16.36v-18.26c0-1.02,.22-1.87,.67-2.55s1.04-1.19,1.78-1.52c.74-.34,1.54-.51,2.41-.51,.64,0,1.19,.05,1.64,.15s.79,.2,1.01,.28l-.75,2.58c-.15-.04-.34-.09-.58-.15s-.52-.09-.85-.09c-.77,0-1.33,.19-1.66,.57-.33,.38-.5,.94-.5,1.66v17.83h-3.18Z"/><path class="cls-1" d="M393.66,453.4c-1.53,0-2.87-.35-4.02-1.05s-2.03-1.69-2.66-2.95c-.63-1.26-.95-2.74-.95-4.43s.32-3.18,.95-4.45,1.52-2.26,2.66-2.96,2.48-1.05,4.02-1.05,2.87,.35,4.02,1.05c1.14,.7,2.03,1.69,2.66,2.96s.95,2.76,.95,4.45-.32,3.17-.95,4.43c-.63,1.26-1.52,2.25-2.66,2.95-1.14,.7-2.48,1.05-4.02,1.05Zm.01-2.67c.99,0,1.82-.26,2.47-.79,.65-.53,1.14-1.22,1.45-2.1,.32-.87,.47-1.84,.47-2.89s-.16-2.01-.47-2.88c-.32-.88-.8-1.58-1.45-2.11s-1.48-.8-2.47-.8-1.83,.27-2.49,.8c-.66,.53-1.14,1.24-1.46,2.11s-.47,1.84-.47,2.88,.16,2.01,.47,2.89c.32,.87,.8,1.57,1.46,2.1,.66,.53,1.49,.79,2.49,.79Z"/><path class="cls-1" d="M404.84,453.07v-16.36h3.08v2.6h.17c.3-.88,.83-1.58,1.58-2.08,.76-.51,1.61-.76,2.57-.76,.2,0,.43,0,.71,.02,.27,.01,.49,.03,.64,.05v3.05c-.13-.04-.36-.08-.68-.12-.33-.05-.65-.07-.98-.07-.75,0-1.42,.16-2.01,.47s-1.05,.75-1.39,1.31-.51,1.19-.51,1.9v9.99h-3.19Z"/><path class="cls-1" d="M424.31,459.21v-22.5h3.11v2.65h.27c.18-.34,.45-.73,.8-1.18,.35-.45,.83-.84,1.45-1.18,.62-.34,1.43-.51,2.45-.51,1.32,0,2.5,.33,3.54,1,1.04,.67,1.85,1.63,2.44,2.89,.59,1.26,.89,2.77,.89,4.54s-.29,3.28-.88,4.54c-.59,1.26-1.4,2.23-2.43,2.91-1.03,.68-2.21,1.02-3.53,1.02-1,0-1.81-.17-2.43-.5-.63-.33-1.12-.72-1.48-1.17-.36-.45-.63-.84-.82-1.19h-.19v8.68h-3.19Zm3.12-14.32c0,1.15,.17,2.16,.5,3.03,.33,.87,.82,1.54,1.45,2.03,.63,.49,1.41,.73,2.32,.73s1.75-.25,2.39-.76c.64-.51,1.12-1.2,1.45-2.07,.33-.87,.5-1.86,.5-2.95s-.16-2.05-.49-2.91-.81-1.54-1.45-2.04c-.64-.5-1.44-.75-2.4-.75s-1.7,.24-2.34,.71c-.64,.47-1.12,1.14-1.44,1.99-.33,.85-.49,1.85-.49,2.98Z"/><path class="cls-1" d="M442.83,453.07v-16.36h3.08v2.6h.17c.3-.88,.83-1.58,1.58-2.08,.76-.51,1.61-.76,2.57-.76,.2,0,.43,0,.71,.02,.27,.01,.49,.03,.64,.05v3.05c-.13-.04-.36-.08-.68-.12-.33-.05-.65-.07-.98-.07-.75,0-1.42,.16-2.01,.47s-1.05,.75-1.39,1.31-.51,1.19-.51,1.9v9.99h-3.19Z"/><path class="cls-1" d="M455.96,434.18c-.55,0-1.03-.19-1.42-.56-.39-.37-.59-.82-.59-1.34s.2-.97,.59-1.35c.39-.37,.87-.56,1.42-.56s1.03,.19,1.42,.56c.39,.37,.59,.82,.59,1.34s-.2,.97-.59,1.35c-.39,.37-.87,.56-1.42,.56Zm-1.61,18.89v-16.36h3.19v16.36h-3.19Z"/><path class="cls-1" d="M468.72,453.4c-1.58,0-2.95-.36-4.09-1.08-1.14-.72-2.01-1.72-2.63-2.99-.61-1.27-.92-2.73-.92-4.37s.31-3.13,.94-4.4c.62-1.28,1.51-2.27,2.64-2.99,1.14-.72,2.48-1.08,4.02-1.08,1.24,0,2.35,.23,3.32,.69,.97,.46,1.76,1.1,2.36,1.92,.6,.82,.96,1.79,1.07,2.89h-3.1c-.17-.77-.56-1.43-1.17-1.98-.61-.55-1.42-.83-2.43-.83-.89,0-1.66,.23-2.33,.7-.66,.47-1.18,1.13-1.55,1.98s-.55,1.87-.55,3.03,.18,2.22,.54,3.09c.36,.87,.88,1.54,1.54,2.01,.66,.47,1.45,.71,2.35,.71,.6,0,1.15-.11,1.65-.34,.49-.22,.91-.54,1.25-.96,.34-.42,.57-.92,.71-1.51h3.1c-.11,1.06-.46,2-1.03,2.83s-1.34,1.48-2.31,1.96c-.96,.47-2.09,.71-3.38,.71Z"/><path class="cls-1" d="M485.91,453.4c-1.61,0-3-.35-4.16-1.04-1.16-.69-2.06-1.67-2.69-2.93-.63-1.26-.94-2.74-.94-4.44s.31-3.15,.94-4.43c.63-1.28,1.51-2.28,2.64-2.99,1.13-.72,2.46-1.08,3.98-1.08,.92,0,1.82,.15,2.69,.46,.87,.31,1.64,.79,2.33,1.44,.69,.65,1.23,1.5,1.63,2.54,.4,1.04,.6,2.3,.6,3.79v1.13h-13.01v-2.39h9.89c0-.84-.17-1.58-.51-2.23-.34-.65-.82-1.16-1.43-1.54-.61-.38-1.33-.56-2.16-.56-.89,0-1.67,.22-2.34,.66s-1.18,1-1.53,1.7c-.36,.7-.54,1.46-.54,2.28v1.86c0,1.09,.19,2.03,.58,2.79,.39,.77,.93,1.35,1.62,1.75,.7,.4,1.51,.6,2.44,.6,.6,0,1.15-.09,1.65-.26s.93-.43,1.29-.78c.36-.35,.64-.78,.83-1.29l3.01,.54c-.24,.89-.67,1.66-1.29,2.33-.62,.66-1.4,1.18-2.33,1.54-.93,.37-2,.55-3.19,.55Z"/><path class="cls-1" d="M514.79,446.29v-9.58h3.2v16.36h-3.13v-2.83h-.17c-.38,.87-.98,1.6-1.81,2.18s-1.86,.87-3.08,.87c-1.05,0-1.98-.23-2.79-.7-.81-.46-1.44-1.16-1.9-2.07s-.69-2.05-.69-3.4v-10.41h3.19v10.02c0,1.12,.31,2,.93,2.66,.62,.66,1.42,.99,2.41,.99,.6,0,1.19-.15,1.78-.45,.59-.3,1.09-.75,1.48-1.35,.39-.6,.59-1.37,.58-2.3Z"/><path class="cls-1" d="M522.26,459.21v-22.5h3.11v2.65h.27c.18-.34,.45-.73,.8-1.18,.35-.45,.83-.84,1.45-1.18,.62-.34,1.43-.51,2.45-.51,1.32,0,2.5,.33,3.54,1,1.04,.67,1.85,1.63,2.44,2.89,.59,1.26,.89,2.77,.89,4.54s-.29,3.28-.88,4.54c-.59,1.26-1.4,2.23-2.43,2.91-1.03,.68-2.21,1.02-3.53,1.02-1,0-1.81-.17-2.43-.5-.63-.33-1.12-.72-1.48-1.17-.36-.45-.63-.84-.82-1.19h-.19v8.68h-3.19Zm3.12-14.32c0,1.15,.17,2.16,.5,3.03,.33,.87,.82,1.54,1.45,2.03,.63,.49,1.41,.73,2.32,.73s1.75-.25,2.39-.76c.64-.51,1.12-1.2,1.45-2.07,.33-.87,.5-1.86,.5-2.95s-.16-2.05-.49-2.91-.81-1.54-1.45-2.04c-.64-.5-1.44-.75-2.4-.75s-1.7,.24-2.34,.71c-.64,.47-1.12,1.14-1.44,1.99-.33,.85-.49,1.85-.49,2.98Z"/><path class="cls-1" d="M546.9,453.39c-1.32,0-2.5-.34-3.53-1.02-1.03-.68-1.84-1.65-2.43-2.91-.59-1.26-.88-2.78-.88-4.54s.3-3.28,.89-4.54c.59-1.26,1.41-2.22,2.44-2.89s2.21-1,3.53-1c1.02,0,1.83,.17,2.46,.51,.62,.34,1.1,.73,1.45,1.18,.34,.45,.61,.84,.8,1.18h.19v-8.11h3.19v21.82h-3.11v-2.55h-.27c-.19,.35-.47,.75-.83,1.19-.36,.45-.85,.84-1.48,1.17-.62,.33-1.43,.5-2.43,.5Zm.7-2.72c.92,0,1.69-.24,2.33-.73s1.12-1.16,1.45-2.03c.33-.87,.5-1.88,.5-3.03s-.16-2.13-.49-2.98c-.33-.85-.81-1.52-1.44-1.99-.63-.48-1.41-.71-2.34-.71s-1.76,.25-2.4,.75c-.64,.5-1.12,1.18-1.44,2.04s-.49,1.83-.49,2.91,.16,2.08,.49,2.95c.33,.87,.81,1.56,1.45,2.07s1.44,.76,2.38,.76Z"/><path class="cls-1" d="M564.31,453.43c-1.04,0-1.97-.19-2.81-.58s-1.5-.95-1.99-1.69c-.49-.74-.73-1.64-.73-2.72,0-.92,.18-1.68,.53-2.28,.35-.6,.83-1.07,1.44-1.42,.6-.35,1.28-.61,2.02-.79,.75-.18,1.51-.31,2.28-.4,.98-.11,1.78-.21,2.39-.28,.61-.08,1.05-.2,1.33-.37,.28-.17,.42-.45,.42-.83v-.07c0-.93-.26-1.65-.78-2.16-.52-.51-1.3-.77-2.33-.77s-1.92,.24-2.53,.71-1.04,1-1.27,1.57l-2.99-.68c.36-.99,.88-1.8,1.56-2.41s1.48-1.06,2.37-1.34c.9-.28,1.84-.42,2.82-.42,.65,0,1.35,.08,2.08,.23s1.42,.43,2.07,.84c.64,.41,1.17,.98,1.58,1.73,.41,.75,.62,1.72,.62,2.91v10.87h-3.11v-2.24h-.13c-.21,.41-.52,.82-.93,1.21-.41,.4-.94,.73-1.59,.99-.65,.26-1.42,.39-2.32,.39Zm.69-2.56c.88,0,1.64-.17,2.26-.52,.63-.35,1.11-.8,1.44-1.37s.5-1.17,.5-1.82v-2.11c-.11,.11-.33,.22-.66,.31s-.69,.18-1.1,.25-.81,.13-1.2,.18c-.39,.05-.72,.1-.98,.13-.62,.08-1.18,.21-1.69,.39-.51,.19-.91,.45-1.21,.79-.3,.34-.45,.8-.45,1.37,0,.79,.29,1.38,.87,1.78,.58,.4,1.32,.6,2.23,.6Z"/><path class="cls-1" d="M584.26,436.71v2.56h-8.94v-2.56h8.94Zm-6.54-3.92h3.19v15.48c0,.62,.09,1.08,.28,1.39s.42,.52,.72,.63c.29,.11,.62,.16,.96,.16,.26,0,.48-.02,.67-.05,.19-.04,.34-.06,.45-.09l.58,2.63c-.18,.07-.45,.14-.79,.22-.34,.08-.77,.12-1.28,.12-.84,.01-1.62-.13-2.34-.45-.72-.31-1.31-.79-1.76-1.45-.45-.65-.67-1.47-.67-2.46v-16.14Z"/><path class="cls-1" d="M594.66,453.4c-1.61,0-3-.35-4.16-1.04-1.16-.69-2.06-1.67-2.69-2.93-.63-1.26-.94-2.74-.94-4.44s.31-3.15,.94-4.43c.63-1.28,1.51-2.28,2.64-2.99,1.13-.72,2.46-1.08,3.98-1.08,.92,0,1.82,.15,2.69,.46,.87,.31,1.64,.79,2.33,1.44,.69,.65,1.23,1.5,1.63,2.54,.4,1.04,.6,2.3,.6,3.79v1.13h-13.01v-2.39h9.89c0-.84-.17-1.58-.51-2.23-.34-.65-.82-1.16-1.43-1.54-.61-.38-1.33-.56-2.16-.56-.89,0-1.67,.22-2.34,.66s-1.18,1-1.53,1.7c-.36,.7-.54,1.46-.54,2.28v1.86c0,1.09,.19,2.03,.58,2.79,.39,.77,.93,1.35,1.62,1.75,.7,.4,1.51,.6,2.44,.6,.6,0,1.15-.09,1.65-.26s.93-.43,1.29-.78c.36-.35,.64-.78,.83-1.29l3.01,.54c-.24,.89-.67,1.66-1.29,2.33-.62,.66-1.4,1.18-2.33,1.54-.93,.37-2,.55-3.19,.55Z"/><path class="cls-1" d="M617.49,440.7l-2.89,.51c-.12-.37-.31-.72-.57-1.05s-.61-.61-1.05-.82c-.44-.21-.99-.32-1.65-.32-.9,0-1.66,.2-2.26,.6-.6,.4-.91,.92-.91,1.55,0,.55,.2,.99,.61,1.32,.41,.33,1.06,.61,1.96,.82l2.6,.6c1.5,.35,2.63,.88,3.37,1.61,.74,.72,1.11,1.67,1.11,2.82,0,.98-.28,1.85-.85,2.62-.56,.76-1.35,1.36-2.35,1.79-1,.43-2.17,.65-3.49,.65-1.83,0-3.33-.39-4.48-1.18-1.16-.78-1.87-1.9-2.13-3.35l3.08-.47c.19,.8,.59,1.41,1.18,1.82,.6,.41,1.37,.61,2.33,.61,1.04,0,1.88-.22,2.5-.66,.62-.44,.94-.97,.94-1.6,0-.51-.19-.94-.57-1.29-.38-.35-.96-.61-1.74-.79l-2.77-.61c-1.53-.35-2.66-.9-3.38-1.66-.73-.76-1.09-1.72-1.09-2.89,0-.97,.27-1.81,.81-2.54,.54-.72,1.29-1.29,2.24-1.7,.95-.41,2.04-.61,3.27-.61,1.77,0,3.16,.38,4.18,1.14s1.69,1.79,2.01,3.06Z"/><path class="cls-1" d="M634.02,453.43c-1.04,0-1.97-.19-2.81-.58s-1.5-.95-1.99-1.69c-.49-.74-.73-1.64-.73-2.72,0-.92,.18-1.68,.53-2.28,.35-.6,.83-1.07,1.44-1.42,.6-.35,1.28-.61,2.02-.79,.75-.18,1.51-.31,2.28-.4,.98-.11,1.78-.21,2.39-.28,.61-.08,1.05-.2,1.33-.37,.28-.17,.42-.45,.42-.83v-.07c0-.93-.26-1.65-.78-2.16-.52-.51-1.3-.77-2.33-.77s-1.92,.24-2.53,.71-1.04,1-1.27,1.57l-2.99-.68c.36-.99,.88-1.8,1.56-2.41s1.48-1.06,2.37-1.34c.9-.28,1.84-.42,2.82-.42,.65,0,1.35,.08,2.08,.23s1.42,.43,2.07,.84c.64,.41,1.17,.98,1.58,1.73,.41,.75,.62,1.72,.62,2.91v10.87h-3.11v-2.24h-.13c-.21,.41-.52,.82-.93,1.21-.41,.4-.94,.73-1.59,.99-.65,.26-1.42,.39-2.32,.39Zm.69-2.56c.88,0,1.64-.17,2.26-.52,.63-.35,1.11-.8,1.44-1.37s.5-1.17,.5-1.82v-2.11c-.11,.11-.33,.22-.66,.31s-.69,.18-1.1,.25-.81,.13-1.2,.18c-.39,.05-.72,.1-.98,.13-.62,.08-1.18,.21-1.69,.39-.51,.19-.91,.45-1.21,.79-.3,.34-.45,.8-.45,1.37,0,.79,.29,1.38,.87,1.78,.58,.4,1.32,.6,2.23,.6Z"/><path class="cls-1" d="M649.52,443.36v9.72h-3.19v-16.36h3.06v2.66h.2c.38-.87,.97-1.56,1.77-2.09,.81-.53,1.82-.79,3.05-.79,1.11,0,2.09,.23,2.93,.7,.84,.46,1.49,1.16,1.95,2.07s.69,2.05,.69,3.4v10.41h-3.19v-10.03c0-1.19-.31-2.11-.93-2.79-.62-.67-1.47-1.01-2.55-1.01-.74,0-1.39,.16-1.97,.48-.57,.32-1.02,.79-1.35,1.4-.33,.62-.5,1.36-.5,2.22Z"/><path class="cls-1" d="M670.38,453.39c-1.32,0-2.5-.34-3.53-1.02-1.03-.68-1.84-1.65-2.43-2.91-.59-1.26-.88-2.78-.88-4.54s.3-3.28,.89-4.54c.59-1.26,1.41-2.22,2.44-2.89s2.21-1,3.53-1c1.02,0,1.83,.17,2.46,.51,.62,.34,1.1,.73,1.45,1.18,.34,.45,.61,.84,.8,1.18h.19v-8.11h3.19v21.82h-3.11v-2.55h-.27c-.19,.35-.47,.75-.83,1.19-.36,.45-.85,.84-1.48,1.17-.62,.33-1.43,.5-2.43,.5Zm.7-2.72c.92,0,1.69-.24,2.33-.73s1.12-1.16,1.45-2.03c.33-.87,.5-1.88,.5-3.03s-.16-2.13-.49-2.98c-.33-.85-.81-1.52-1.44-1.99-.63-.48-1.41-.71-2.34-.71s-1.76,.25-2.4,.75c-.64,.5-1.12,1.18-1.44,2.04s-.49,1.83-.49,2.91,.16,2.08,.49,2.95c.33,.87,.81,1.56,1.45,2.07s1.44,.76,2.38,.76Z"/><path class="cls-1" d="M694.15,443.36v9.72h-3.19v-16.36h3.06v2.66h.2c.38-.87,.97-1.56,1.77-2.09,.81-.53,1.82-.79,3.05-.79,1.11,0,2.09,.23,2.93,.7,.84,.46,1.49,1.16,1.95,2.07s.69,2.05,.69,3.4v10.41h-3.19v-10.03c0-1.19-.31-2.11-.93-2.79-.62-.67-1.47-1.01-2.55-1.01-.74,0-1.39,.16-1.97,.48-.57,.32-1.02,.79-1.35,1.4-.33,.62-.5,1.36-.5,2.22Z"/><path class="cls-1" d="M715.94,453.4c-1.61,0-3-.35-4.16-1.04-1.16-.69-2.06-1.67-2.69-2.93-.63-1.26-.94-2.74-.94-4.44s.31-3.15,.94-4.43c.63-1.28,1.51-2.28,2.64-2.99,1.13-.72,2.46-1.08,3.98-1.08,.92,0,1.82,.15,2.69,.46,.87,.31,1.64,.79,2.33,1.44,.69,.65,1.23,1.5,1.63,2.54,.4,1.04,.6,2.3,.6,3.79v1.13h-13.01v-2.39h9.89c0-.84-.17-1.58-.51-2.23-.34-.65-.82-1.16-1.43-1.54-.61-.38-1.33-.56-2.16-.56-.89,0-1.67,.22-2.34,.66s-1.18,1-1.53,1.7c-.36,.7-.54,1.46-.54,2.28v1.86c0,1.09,.19,2.03,.58,2.79,.39,.77,.93,1.35,1.62,1.75,.7,.4,1.51,.6,2.44,.6,.6,0,1.15-.09,1.65-.26s.93-.43,1.29-.78c.36-.35,.64-.78,.83-1.29l3.01,.54c-.24,.89-.67,1.66-1.29,2.33-.62,.66-1.4,1.18-2.33,1.54-.93,.37-2,.55-3.19,.55Z"/><path class="cls-1" d="M730.01,453.07l-4.81-16.36h3.29l3.21,12.02h.16l3.22-12.02h3.29l3.2,11.96h.16l3.18-11.96h3.29l-4.8,16.36h-3.25l-3.32-11.81h-.25l-3.32,11.81h-3.24Z"/><path class="cls-1" d="M763.48,440.7l-2.89,.51c-.12-.37-.31-.72-.57-1.05s-.61-.61-1.05-.82c-.44-.21-.99-.32-1.65-.32-.9,0-1.66,.2-2.26,.6-.6,.4-.91,.92-.91,1.55,0,.55,.2,.99,.61,1.32,.41,.33,1.06,.61,1.96,.82l2.6,.6c1.5,.35,2.63,.88,3.37,1.61,.74,.72,1.11,1.67,1.11,2.82,0,.98-.28,1.85-.85,2.62-.56,.76-1.35,1.36-2.35,1.79-1,.43-2.17,.65-3.49,.65-1.83,0-3.33-.39-4.48-1.18-1.16-.78-1.87-1.9-2.13-3.35l3.08-.47c.19,.8,.59,1.41,1.18,1.82,.6,.41,1.37,.61,2.33,.61,1.04,0,1.88-.22,2.5-.66,.62-.44,.94-.97,.94-1.6,0-.51-.19-.94-.57-1.29-.38-.35-.96-.61-1.74-.79l-2.77-.61c-1.53-.35-2.66-.9-3.38-1.66-.73-.76-1.09-1.72-1.09-2.89,0-.97,.27-1.81,.81-2.54,.54-.72,1.29-1.29,2.24-1.7,.95-.41,2.04-.61,3.27-.61,1.77,0,3.16,.38,4.18,1.14s1.69,1.79,2.01,3.06Z"/><path class="cls-1" d="M769.39,453.28c-.58,0-1.08-.21-1.5-.62-.42-.42-.63-.92-.63-1.51s.21-1.08,.63-1.5c.42-.41,.92-.62,1.5-.62s1.08,.21,1.5,.62c.42,.42,.63,.92,.63,1.5,0,.39-.1,.75-.29,1.07s-.45,.58-.77,.77c-.32,.19-.67,.29-1.07,.29Z"/><path class="cls-1" d="M781.96,431.25h3.74l5.7,9.92h.23l5.7-9.92h3.74l-7.92,13.25v8.57h-3.28v-8.57l-7.92-13.25Z"/><path class="cls-1" d="M808.16,453.4c-1.53,0-2.87-.35-4.02-1.05s-2.03-1.69-2.66-2.95c-.63-1.26-.95-2.74-.95-4.43s.32-3.18,.95-4.45,1.52-2.26,2.66-2.96,2.48-1.05,4.02-1.05,2.87,.35,4.02,1.05c1.14,.7,2.03,1.69,2.66,2.96s.95,2.76,.95,4.45-.32,3.17-.95,4.43c-.63,1.26-1.52,2.25-2.66,2.95-1.14,.7-2.48,1.05-4.02,1.05Zm.01-2.67c.99,0,1.82-.26,2.47-.79,.65-.53,1.14-1.22,1.45-2.1,.32-.87,.47-1.84,.47-2.89s-.16-2.01-.47-2.88c-.32-.88-.8-1.58-1.45-2.11s-1.48-.8-2.47-.8-1.83,.27-2.49,.8c-.66,.53-1.14,1.24-1.46,2.11s-.47,1.84-.47,2.88,.16,2.01,.47,2.89c.32,.87,.8,1.57,1.46,2.1,.66,.53,1.49,.79,2.49,.79Z"/><path class="cls-1" d="M829.7,446.29v-9.58h3.2v16.36h-3.13v-2.83h-.17c-.38,.87-.98,1.6-1.81,2.18s-1.86,.87-3.08,.87c-1.05,0-1.98-.23-2.79-.7-.81-.46-1.44-1.16-1.9-2.07s-.69-2.05-.69-3.4v-10.41h3.19v10.02c0,1.12,.31,2,.93,2.66,.62,.66,1.42,.99,2.41,.99,.6,0,1.19-.15,1.78-.45,.59-.3,1.09-.75,1.48-1.35,.39-.6,.59-1.37,.58-2.3Z"/><path class="cls-1" d="M64.52,489.4c-1.58,0-2.95-.36-4.09-1.08-1.14-.72-2.01-1.72-2.63-2.99-.61-1.27-.92-2.73-.92-4.37s.31-3.13,.94-4.4c.62-1.28,1.51-2.27,2.64-2.99,1.14-.72,2.48-1.08,4.02-1.08,1.24,0,2.35,.23,3.32,.69,.97,.46,1.76,1.1,2.36,1.92,.6,.82,.96,1.79,1.07,2.89h-3.1c-.17-.77-.56-1.43-1.17-1.98-.61-.55-1.42-.83-2.43-.83-.89,0-1.66,.23-2.33,.7-.66,.47-1.18,1.13-1.55,1.98s-.55,1.87-.55,3.03,.18,2.22,.54,3.09c.36,.87,.88,1.54,1.54,2.01,.66,.47,1.45,.71,2.35,.71,.6,0,1.15-.11,1.65-.34,.49-.22,.91-.54,1.25-.96,.34-.42,.57-.92,.71-1.51h3.1c-.11,1.06-.46,2-1.03,2.83s-1.34,1.48-2.31,1.96c-.96,.47-2.09,.71-3.38,.71Z"/><path class="cls-1" d="M79.43,489.43c-1.04,0-1.97-.19-2.81-.58s-1.5-.95-1.99-1.69c-.49-.74-.73-1.64-.73-2.72,0-.92,.18-1.68,.53-2.28,.35-.6,.83-1.07,1.44-1.42,.6-.35,1.28-.61,2.02-.79,.75-.18,1.51-.31,2.28-.4,.98-.11,1.78-.21,2.39-.28,.61-.08,1.05-.2,1.33-.37,.28-.17,.42-.45,.42-.83v-.07c0-.93-.26-1.65-.78-2.16-.52-.51-1.3-.77-2.33-.77s-1.92,.24-2.53,.71-1.04,1-1.27,1.57l-2.99-.68c.36-.99,.88-1.8,1.56-2.41s1.48-1.06,2.37-1.34c.9-.28,1.84-.42,2.82-.42,.65,0,1.35,.08,2.08,.23s1.42,.43,2.07,.84c.64,.41,1.17,.98,1.58,1.73,.41,.75,.62,1.72,.62,2.91v10.87h-3.11v-2.24h-.13c-.21,.41-.52,.82-.93,1.21-.41,.4-.94,.73-1.59,.99-.65,.26-1.42,.39-2.32,.39Zm.69-2.56c.88,0,1.64-.17,2.26-.52,.63-.35,1.11-.8,1.44-1.37s.5-1.17,.5-1.82v-2.11c-.11,.11-.33,.22-.66,.31s-.69,.18-1.1,.25-.81,.13-1.2,.18c-.39,.05-.72,.1-.98,.13-.62,.08-1.18,.21-1.69,.39-.51,.19-.91,.45-1.21,.79-.3,.34-.45,.8-.45,1.37,0,.79,.29,1.38,.87,1.78,.58,.4,1.32,.6,2.23,.6Z"/><path class="cls-1" d="M94.93,479.36v9.72h-3.19v-16.36h3.06v2.66h.2c.38-.87,.97-1.56,1.77-2.09,.81-.53,1.82-.79,3.05-.79,1.11,0,2.09,.23,2.93,.7,.84,.46,1.49,1.16,1.95,2.07s.69,2.05,.69,3.4v10.41h-3.19v-10.03c0-1.19-.31-2.11-.93-2.79-.62-.67-1.47-1.01-2.55-1.01-.74,0-1.39,.16-1.97,.48-.57,.32-1.02,.79-1.35,1.4-.33,.62-.5,1.36-.5,2.22Z"/><path class="cls-1" d="M122.37,489.43c-1.04,0-1.97-.19-2.81-.58s-1.5-.95-1.99-1.69c-.49-.74-.73-1.64-.73-2.72,0-.92,.18-1.68,.53-2.28,.35-.6,.83-1.07,1.44-1.42,.6-.35,1.28-.61,2.02-.79,.75-.18,1.51-.31,2.28-.4,.98-.11,1.78-.21,2.39-.28,.61-.08,1.05-.2,1.33-.37,.28-.17,.42-.45,.42-.83v-.07c0-.93-.26-1.65-.78-2.16-.52-.51-1.3-.77-2.33-.77s-1.92,.24-2.53,.71-1.04,1-1.27,1.57l-2.99-.68c.36-.99,.88-1.8,1.56-2.41s1.48-1.06,2.37-1.34c.9-.28,1.84-.42,2.82-.42,.65,0,1.35,.08,2.08,.23s1.42,.43,2.07,.84c.64,.41,1.17,.98,1.58,1.73,.41,.75,.62,1.72,.62,2.91v10.87h-3.11v-2.24h-.13c-.21,.41-.52,.82-.93,1.21-.41,.4-.94,.73-1.59,.99-.65,.26-1.42,.39-2.32,.39Zm.69-2.56c.88,0,1.64-.17,2.26-.52,.63-.35,1.11-.8,1.44-1.37s.5-1.17,.5-1.82v-2.11c-.11,.11-.33,.22-.66,.31s-.69,.18-1.1,.25-.81,.13-1.2,.18c-.39,.05-.72,.1-.98,.13-.62,.08-1.18,.21-1.69,.39-.51,.19-.91,.45-1.21,.79-.3,.34-.45,.8-.45,1.37,0,.79,.29,1.38,.87,1.78,.58,.4,1.32,.6,2.23,.6Z"/><path class="cls-1" d="M137.87,467.25v21.82h-3.19v-21.82h3.19Z"/><path class="cls-1" d="M154.42,476.7l-2.89,.51c-.12-.37-.31-.72-.57-1.05s-.61-.61-1.05-.82c-.44-.21-.99-.32-1.65-.32-.9,0-1.66,.2-2.26,.6-.6,.4-.91,.92-.91,1.55,0,.55,.2,.99,.61,1.32,.41,.33,1.06,.61,1.96,.82l2.6,.6c1.5,.35,2.63,.88,3.37,1.61,.74,.72,1.11,1.67,1.11,2.82,0,.98-.28,1.85-.85,2.62-.56,.76-1.35,1.36-2.35,1.79-1,.43-2.17,.65-3.49,.65-1.83,0-3.33-.39-4.48-1.18-1.16-.78-1.87-1.9-2.13-3.35l3.08-.47c.19,.8,.59,1.41,1.18,1.82,.6,.41,1.37,.61,2.33,.61,1.04,0,1.88-.22,2.5-.66,.62-.44,.94-.97,.94-1.6,0-.51-.19-.94-.57-1.29-.38-.35-.96-.61-1.74-.79l-2.77-.61c-1.53-.35-2.66-.9-3.38-1.66-.73-.76-1.09-1.72-1.09-2.89,0-.97,.27-1.81,.81-2.54,.54-.72,1.29-1.29,2.24-1.7,.95-.41,2.04-.61,3.27-.61,1.77,0,3.16,.38,4.18,1.14s1.69,1.79,2.01,3.06Z"/><path class="cls-1" d="M165.12,489.4c-1.53,0-2.87-.35-4.02-1.05s-2.03-1.69-2.66-2.95c-.63-1.26-.95-2.74-.95-4.43s.32-3.18,.95-4.45,1.52-2.26,2.66-2.96,2.48-1.05,4.02-1.05,2.87,.35,4.02,1.05c1.14,.7,2.03,1.69,2.66,2.96s.95,2.76,.95,4.45-.32,3.17-.95,4.43c-.63,1.26-1.52,2.25-2.66,2.95-1.14,.7-2.48,1.05-4.02,1.05Zm.01-2.67c.99,0,1.82-.26,2.47-.79,.65-.53,1.14-1.22,1.45-2.1,.32-.87,.47-1.84,.47-2.89s-.16-2.01-.47-2.88c-.32-.88-.8-1.58-1.45-2.11s-1.48-.8-2.47-.8-1.83,.27-2.49,.8c-.66,.53-1.14,1.24-1.46,2.11s-.47,1.84-.47,2.88,.16,2.01,.47,2.89c.32,.87,.8,1.57,1.46,2.1,.66,.53,1.49,.79,2.49,.79Z"/><path class="cls-1" d="M184.25,495.21v-22.5h3.11v2.65h.27c.18-.34,.45-.73,.8-1.18,.35-.45,.83-.84,1.45-1.18,.62-.34,1.43-.51,2.45-.51,1.32,0,2.5,.33,3.54,1,1.04,.67,1.85,1.63,2.44,2.89,.59,1.26,.89,2.77,.89,4.54s-.29,3.28-.88,4.54c-.59,1.26-1.4,2.23-2.43,2.91-1.03,.68-2.21,1.02-3.53,1.02-1,0-1.81-.17-2.43-.5-.63-.33-1.12-.72-1.48-1.17-.36-.45-.63-.84-.82-1.19h-.19v8.68h-3.19Zm3.12-14.32c0,1.15,.17,2.16,.5,3.03,.33,.87,.82,1.54,1.45,2.03,.63,.49,1.41,.73,2.32,.73s1.75-.25,2.39-.76c.64-.51,1.12-1.2,1.45-2.07,.33-.87,.5-1.86,.5-2.95s-.16-2.05-.49-2.91-.81-1.54-1.45-2.04c-.64-.5-1.44-.75-2.4-.75s-1.7,.24-2.34,.71c-.64,.47-1.12,1.14-1.44,1.99-.33,.85-.49,1.85-.49,2.98Z"/><path class="cls-1" d="M205.95,467.25v21.82h-3.19v-21.82h3.19Z"/><path class="cls-1" d="M214.99,489.43c-1.04,0-1.97-.19-2.81-.58s-1.5-.95-1.99-1.69c-.49-.74-.73-1.64-.73-2.72,0-.92,.18-1.68,.53-2.28,.35-.6,.83-1.07,1.44-1.42,.6-.35,1.28-.61,2.02-.79,.75-.18,1.51-.31,2.28-.4,.98-.11,1.78-.21,2.39-.28,.61-.08,1.05-.2,1.33-.37,.28-.17,.42-.45,.42-.83v-.07c0-.93-.26-1.65-.78-2.16-.52-.51-1.3-.77-2.33-.77s-1.92,.24-2.53,.71-1.04,1-1.27,1.57l-2.99-.68c.36-.99,.88-1.8,1.56-2.41s1.48-1.06,2.37-1.34c.9-.28,1.84-.42,2.82-.42,.65,0,1.35,.08,2.08,.23s1.42,.43,2.07,.84c.64,.41,1.17,.98,1.58,1.73,.41,.75,.62,1.72,.62,2.91v10.87h-3.11v-2.24h-.13c-.21,.41-.52,.82-.93,1.21-.41,.4-.94,.73-1.59,.99-.65,.26-1.42,.39-2.32,.39Zm.69-2.56c.88,0,1.64-.17,2.26-.52,.63-.35,1.11-.8,1.44-1.37s.5-1.17,.5-1.82v-2.11c-.11,.11-.33,.22-.66,.31s-.69,.18-1.1,.25-.81,.13-1.2,.18c-.39,.05-.72,.1-.98,.13-.62,.08-1.18,.21-1.69,.39-.51,.19-.91,.45-1.21,.79-.3,.34-.45,.8-.45,1.37,0,.79,.29,1.38,.87,1.78,.58,.4,1.32,.6,2.23,.6Z"/><path class="cls-1" d="M234.2,489.4c-1.58,0-2.95-.36-4.09-1.08-1.14-.72-2.01-1.72-2.63-2.99-.61-1.27-.92-2.73-.92-4.37s.31-3.13,.94-4.4c.62-1.28,1.51-2.27,2.64-2.99,1.14-.72,2.48-1.08,4.02-1.08,1.24,0,2.35,.23,3.32,.69,.97,.46,1.76,1.1,2.36,1.92,.6,.82,.96,1.79,1.07,2.89h-3.1c-.17-.77-.56-1.43-1.17-1.98-.61-.55-1.42-.83-2.43-.83-.89,0-1.66,.23-2.33,.7-.66,.47-1.18,1.13-1.55,1.98s-.55,1.87-.55,3.03,.18,2.22,.54,3.09c.36,.87,.88,1.54,1.54,2.01,.66,.47,1.45,.71,2.35,.71,.6,0,1.15-.11,1.65-.34,.49-.22,.91-.54,1.25-.96,.34-.42,.57-.92,.71-1.51h3.1c-.11,1.06-.46,2-1.03,2.83s-1.34,1.48-2.31,1.96c-.96,.47-2.09,.71-3.38,.71Z"/><path class="cls-1" d="M251.4,489.4c-1.61,0-3-.35-4.16-1.04-1.16-.69-2.06-1.67-2.69-2.93-.63-1.26-.94-2.74-.94-4.44s.31-3.15,.94-4.43c.63-1.28,1.51-2.28,2.64-2.99,1.13-.72,2.46-1.08,3.98-1.08,.92,0,1.82,.15,2.69,.46,.87,.31,1.64,.79,2.33,1.44,.69,.65,1.23,1.5,1.63,2.54,.4,1.04,.6,2.3,.6,3.79v1.13h-13.01v-2.39h9.89c0-.84-.17-1.58-.51-2.23-.34-.65-.82-1.16-1.43-1.54-.61-.38-1.33-.56-2.16-.56-.89,0-1.67,.22-2.34,.66s-1.18,1-1.53,1.7c-.36,.7-.54,1.46-.54,2.28v1.86c0,1.09,.19,2.03,.58,2.79,.39,.77,.93,1.35,1.62,1.75,.7,.4,1.51,.6,2.44,.6,.6,0,1.15-.09,1.65-.26s.93-.43,1.29-.78c.36-.35,.64-.78,.83-1.29l3.01,.54c-.24,.89-.67,1.66-1.29,2.33-.62,.66-1.4,1.18-2.33,1.54-.93,.37-2,.55-3.19,.55Z"/><path class="cls-1" d="M273.1,479.36v9.72h-3.19v-16.36h3.06v2.66h.2c.38-.87,.97-1.56,1.77-2.09,.81-.53,1.82-.79,3.05-.79,1.11,0,2.09,.23,2.93,.7,.84,.46,1.49,1.16,1.95,2.07s.69,2.05,.69,3.4v10.41h-3.19v-10.03c0-1.19-.31-2.11-.93-2.79-.62-.67-1.47-1.01-2.55-1.01-.74,0-1.39,.16-1.97,.48-.57,.32-1.02,.79-1.35,1.4-.33,.62-.5,1.36-.5,2.22Z"/><path class="cls-1" d="M294.88,489.4c-1.61,0-3-.35-4.16-1.04-1.16-.69-2.06-1.67-2.69-2.93-.63-1.26-.94-2.74-.94-4.44s.31-3.15,.94-4.43c.63-1.28,1.51-2.28,2.64-2.99,1.13-.72,2.46-1.08,3.98-1.08,.92,0,1.82,.15,2.69,.46,.87,.31,1.64,.79,2.33,1.44,.69,.65,1.23,1.5,1.63,2.54,.4,1.04,.6,2.3,.6,3.79v1.13h-13.01v-2.39h9.89c0-.84-.17-1.58-.51-2.23-.34-.65-.82-1.16-1.43-1.54-.61-.38-1.33-.56-2.16-.56-.89,0-1.67,.22-2.34,.66s-1.18,1-1.53,1.7c-.36,.7-.54,1.46-.54,2.28v1.86c0,1.09,.19,2.03,.58,2.79,.39,.77,.93,1.35,1.62,1.75,.7,.4,1.51,.6,2.44,.6,.6,0,1.15-.09,1.65-.26s.93-.43,1.29-.78c.36-.35,.64-.78,.83-1.29l3.01,.54c-.24,.89-.67,1.66-1.29,2.33-.62,.66-1.4,1.18-2.33,1.54-.93,.37-2,.55-3.19,.55Z"/><path class="cls-1" d="M308.96,489.07l-4.81-16.36h3.29l3.21,12.02h.16l3.22-12.02h3.29l3.2,11.96h.16l3.18-11.96h3.29l-4.8,16.36h-3.25l-3.32-11.81h-.25l-3.32,11.81h-3.24Z"/><path class="cls-1" d="M338.36,489.07v-21.82h3.18v8.11h.19c.18-.34,.45-.73,.8-1.18,.35-.45,.83-.84,1.45-1.18,.62-.34,1.43-.51,2.45-.51,1.32,0,2.5,.33,3.54,1,1.04,.67,1.85,1.63,2.45,2.89,.59,1.26,.89,2.77,.89,4.54s-.29,3.28-.88,4.54c-.59,1.26-1.4,2.23-2.43,2.91-1.03,.68-2.21,1.02-3.53,1.02-.99,0-1.81-.17-2.43-.5-.63-.33-1.12-.72-1.48-1.17-.36-.45-.63-.84-.82-1.19h-.27v2.55h-3.11Zm3.12-8.18c0,1.15,.17,2.16,.5,3.03,.33,.87,.82,1.54,1.45,2.03s1.41,.73,2.32,.73,1.75-.25,2.39-.76c.64-.51,1.12-1.2,1.45-2.07,.33-.87,.5-1.86,.5-2.95s-.16-2.05-.48-2.91-.81-1.54-1.45-2.04c-.64-.5-1.44-.75-2.4-.75s-1.7,.24-2.34,.71c-.64,.47-1.12,1.14-1.44,1.99-.33,.85-.49,1.85-.49,2.98Z"/><path class="cls-1" d="M358.48,470.18c-.55,0-1.03-.19-1.42-.56-.39-.37-.59-.82-.59-1.34s.2-.97,.59-1.35c.39-.37,.87-.56,1.42-.56s1.03,.19,1.42,.56c.39,.37,.59,.82,.59,1.34s-.2,.97-.59,1.35c-.39,.37-.87,.56-1.42,.56Zm-1.61,18.89v-16.36h3.19v16.36h-3.19Z"/><path class="cls-1" d="M370.47,489.39c-1.32,0-2.5-.34-3.53-1.02-1.03-.68-1.84-1.65-2.43-2.91-.59-1.26-.88-2.78-.88-4.54s.3-3.28,.89-4.54c.59-1.26,1.41-2.22,2.44-2.89s2.21-1,3.53-1c1.02,0,1.83,.17,2.46,.51,.62,.34,1.1,.73,1.45,1.18,.34,.45,.61,.84,.8,1.18h.19v-8.11h3.19v21.82h-3.11v-2.55h-.27c-.19,.35-.47,.75-.83,1.19-.36,.45-.85,.84-1.48,1.17-.62,.33-1.43,.5-2.43,.5Zm.7-2.72c.92,0,1.69-.24,2.33-.73s1.12-1.16,1.45-2.03c.33-.87,.5-1.88,.5-3.03s-.16-2.13-.49-2.98c-.33-.85-.81-1.52-1.44-1.99-.63-.48-1.41-.71-2.34-.71s-1.76,.25-2.4,.75c-.64,.5-1.12,1.18-1.44,2.04s-.49,1.83-.49,2.91,.16,2.08,.49,2.95c.33,.87,.81,1.56,1.45,2.07s1.44,.76,2.38,.76Z"/><path class="cls-1" d="M395.38,476.7l-2.89,.51c-.12-.37-.31-.72-.57-1.05s-.61-.61-1.05-.82c-.44-.21-.99-.32-1.65-.32-.9,0-1.66,.2-2.26,.6-.6,.4-.91,.92-.91,1.55,0,.55,.2,.99,.61,1.32,.41,.33,1.06,.61,1.96,.82l2.6,.6c1.5,.35,2.63,.88,3.37,1.61,.74,.72,1.11,1.67,1.11,2.82,0,.98-.28,1.85-.85,2.62-.56,.76-1.35,1.36-2.35,1.79-1,.43-2.17,.65-3.49,.65-1.83,0-3.33-.39-4.48-1.18-1.16-.78-1.87-1.9-2.13-3.35l3.08-.47c.19,.8,.59,1.41,1.18,1.82,.6,.41,1.37,.61,2.33,.61,1.04,0,1.88-.22,2.5-.66,.62-.44,.94-.97,.94-1.6,0-.51-.19-.94-.57-1.29-.38-.35-.96-.61-1.74-.79l-2.77-.61c-1.53-.35-2.66-.9-3.38-1.66-.73-.76-1.09-1.72-1.09-2.89,0-.97,.27-1.81,.81-2.54,.54-.72,1.29-1.29,2.24-1.7,.95-.41,2.04-.61,3.27-.61,1.77,0,3.16,.38,4.18,1.14s1.69,1.79,2.01,3.06Z"/><path class="cls-1" d="M414.03,489.4c-1.53,0-2.87-.35-4.02-1.05s-2.03-1.69-2.66-2.95c-.63-1.26-.95-2.74-.95-4.43s.32-3.18,.95-4.45,1.52-2.26,2.66-2.96,2.48-1.05,4.02-1.05,2.87,.35,4.02,1.05c1.14,.7,2.03,1.69,2.66,2.96s.95,2.76,.95,4.45-.32,3.17-.95,4.43c-.63,1.26-1.52,2.25-2.66,2.95-1.14,.7-2.48,1.05-4.02,1.05Zm.01-2.67c.99,0,1.82-.26,2.47-.79,.65-.53,1.14-1.22,1.45-2.1,.32-.87,.47-1.84,.47-2.89s-.16-2.01-.47-2.88c-.32-.88-.8-1.58-1.45-2.11s-1.48-.8-2.47-.8-1.83,.27-2.49,.8c-.66,.53-1.14,1.24-1.46,2.11s-.47,1.84-.47,2.88,.16,2.01,.47,2.89c.32,.87,.8,1.57,1.46,2.1,.66,.53,1.49,.79,2.49,.79Z"/><path class="cls-1" d="M425.21,489.07v-16.36h3.08v2.6h.17c.3-.88,.83-1.58,1.58-2.08,.76-.51,1.61-.76,2.57-.76,.2,0,.43,0,.71,.02,.27,.01,.49,.03,.64,.05v3.05c-.13-.04-.36-.08-.68-.12-.33-.05-.65-.07-.98-.07-.75,0-1.42,.16-2.01,.47s-1.05,.75-1.39,1.31-.51,1.19-.51,1.9v9.99h-3.19Z"/><path class="cls-1" d="M456.94,476.7l-2.89,.51c-.12-.37-.31-.72-.57-1.05s-.61-.61-1.05-.82c-.44-.21-.99-.32-1.65-.32-.9,0-1.66,.2-2.26,.6-.6,.4-.91,.92-.91,1.55,0,.55,.2,.99,.61,1.32,.41,.33,1.06,.61,1.96,.82l2.6,.6c1.5,.35,2.63,.88,3.37,1.61,.74,.72,1.11,1.67,1.11,2.82,0,.98-.28,1.85-.85,2.62-.56,.76-1.35,1.36-2.35,1.79-1,.43-2.17,.65-3.49,.65-1.83,0-3.33-.39-4.48-1.18-1.16-.78-1.87-1.9-2.13-3.35l3.08-.47c.19,.8,.59,1.41,1.18,1.82,.6,.41,1.37,.61,2.33,.61,1.04,0,1.88-.22,2.5-.66,.62-.44,.94-.97,.94-1.6,0-.51-.19-.94-.57-1.29-.38-.35-.96-.61-1.74-.79l-2.77-.61c-1.53-.35-2.66-.9-3.38-1.66-.73-.76-1.09-1.72-1.09-2.89,0-.97,.27-1.81,.81-2.54,.54-.72,1.29-1.29,2.24-1.7,.95-.41,2.04-.61,3.27-.61,1.77,0,3.16,.38,4.18,1.14s1.69,1.79,2.01,3.06Z"/><path class="cls-1" d="M467.81,489.4c-1.61,0-3-.35-4.16-1.04-1.16-.69-2.06-1.67-2.69-2.93-.63-1.26-.94-2.74-.94-4.44s.31-3.15,.94-4.43c.63-1.28,1.51-2.28,2.64-2.99,1.13-.72,2.46-1.08,3.98-1.08,.92,0,1.82,.15,2.69,.46,.87,.31,1.64,.79,2.33,1.44,.69,.65,1.23,1.5,1.63,2.54,.4,1.04,.6,2.3,.6,3.79v1.13h-13.01v-2.39h9.89c0-.84-.17-1.58-.51-2.23-.34-.65-.82-1.16-1.43-1.54-.61-.38-1.33-.56-2.16-.56-.89,0-1.67,.22-2.34,.66s-1.18,1-1.53,1.7c-.36,.7-.54,1.46-.54,2.28v1.86c0,1.09,.19,2.03,.58,2.79,.39,.77,.93,1.35,1.62,1.75,.7,.4,1.51,.6,2.44,.6,.6,0,1.15-.09,1.65-.26s.93-.43,1.29-.78c.36-.35,.64-.78,.83-1.29l3.01,.54c-.24,.89-.67,1.66-1.29,2.33-.62,.66-1.4,1.18-2.33,1.54-.93,.37-2,.55-3.19,.55Z"/><path class="cls-1" d="M481.56,467.25v21.82h-3.19v-21.82h3.19Z"/><path class="cls-1" d="M489.03,467.25v21.82h-3.19v-21.82h3.19Z"/><path class="cls-1" d="M503.27,495.21c-.48,0-.91-.04-1.3-.11s-.68-.15-.87-.24l.77-2.61c.58,.16,1.1,.22,1.55,.2,.46-.02,.86-.19,1.21-.51,.35-.32,.66-.84,.93-1.57l.39-1.09-5.99-16.58h3.41l4.14,12.7h.17l4.14-12.7h3.42l-6.74,18.55c-.31,.85-.71,1.58-1.19,2.17-.48,.59-1.06,1.04-1.73,1.34-.67,.3-1.44,.45-2.32,.45Z"/><path class="cls-1" d="M524.57,489.4c-1.53,0-2.87-.35-4.02-1.05s-2.03-1.69-2.66-2.95c-.63-1.26-.95-2.74-.95-4.43s.32-3.18,.95-4.45,1.52-2.26,2.66-2.96,2.48-1.05,4.02-1.05,2.87,.35,4.02,1.05c1.14,.7,2.03,1.69,2.66,2.96s.95,2.76,.95,4.45-.32,3.17-.95,4.43c-.63,1.26-1.52,2.25-2.66,2.95-1.14,.7-2.48,1.05-4.02,1.05Zm.01-2.67c.99,0,1.82-.26,2.47-.79,.65-.53,1.14-1.22,1.45-2.1,.32-.87,.47-1.84,.47-2.89s-.16-2.01-.47-2.88c-.32-.88-.8-1.58-1.45-2.11s-1.48-.8-2.47-.8-1.83,.27-2.49,.8c-.66,.53-1.14,1.24-1.46,2.11s-.47,1.84-.47,2.88,.16,2.01,.47,2.89c.32,.87,.8,1.57,1.46,2.1,.66,.53,1.49,.79,2.49,.79Z"/><path class="cls-1" d="M546.11,482.29v-9.58h3.2v16.36h-3.13v-2.83h-.17c-.38,.87-.98,1.6-1.81,2.18s-1.86,.87-3.08,.87c-1.05,0-1.98-.23-2.79-.7-.81-.46-1.44-1.16-1.9-2.07s-.69-2.05-.69-3.4v-10.41h3.19v10.02c0,1.12,.31,2,.93,2.66,.62,.66,1.42,.99,2.41,.99,.6,0,1.19-.15,1.78-.45,.59-.3,1.09-.75,1.48-1.35,.39-.6,.59-1.37,.58-2.3Z"/><path class="cls-1" d="M553.58,489.07v-16.36h3.08v2.6h.17c.3-.88,.83-1.58,1.58-2.08,.76-.51,1.61-.76,2.57-.76,.2,0,.43,0,.71,.02,.27,.01,.49,.03,.64,.05v3.05c-.13-.04-.36-.08-.68-.12-.33-.05-.65-.07-.98-.07-.75,0-1.42,.16-2.01,.47s-1.05,.75-1.39,1.31-.51,1.19-.51,1.9v9.99h-3.19Z"/><path class="cls-1" d="M579.95,489.4c-1.58,0-2.95-.36-4.09-1.08-1.14-.72-2.01-1.72-2.63-2.99-.61-1.27-.92-2.73-.92-4.37s.31-3.13,.94-4.4c.62-1.28,1.51-2.27,2.64-2.99,1.14-.72,2.48-1.08,4.02-1.08,1.24,0,2.35,.23,3.32,.69,.97,.46,1.76,1.1,2.36,1.92,.6,.82,.96,1.79,1.07,2.89h-3.1c-.17-.77-.56-1.43-1.17-1.98-.61-.55-1.42-.83-2.43-.83-.89,0-1.66,.23-2.33,.7-.66,.47-1.18,1.13-1.55,1.98s-.55,1.87-.55,3.03,.18,2.22,.54,3.09c.36,.87,.88,1.54,1.54,2.01,.66,.47,1.45,.71,2.35,.71,.6,0,1.15-.11,1.65-.34,.49-.22,.91-.54,1.25-.96,.34-.42,.57-.92,.71-1.51h3.1c-.11,1.06-.46,2-1.03,2.83s-1.34,1.48-2.31,1.96c-.96,.47-2.09,.71-3.38,.71Z"/><path class="cls-1" d="M600.46,482.29v-9.58h3.2v16.36h-3.13v-2.83h-.17c-.38,.87-.98,1.6-1.81,2.18s-1.86,.87-3.08,.87c-1.05,0-1.98-.23-2.79-.7-.81-.46-1.44-1.16-1.9-2.07s-.69-2.05-.69-3.4v-10.41h3.19v10.02c0,1.12,.31,2,.93,2.66,.62,.66,1.42,.99,2.41,.99,.6,0,1.19-.15,1.78-.45,.59-.3,1.09-.75,1.48-1.35,.39-.6,.59-1.37,.58-2.3Z"/><path class="cls-1" d="M607.92,489.07v-16.36h3.08v2.6h.17c.3-.88,.83-1.58,1.58-2.08,.76-.51,1.61-.76,2.57-.76,.2,0,.43,0,.71,.02,.27,.01,.49,.03,.64,.05v3.05c-.13-.04-.36-.08-.68-.12-.33-.05-.65-.07-.98-.07-.75,0-1.42,.16-2.01,.47s-1.05,.75-1.39,1.31-.51,1.19-.51,1.9v9.99h-3.19Z"/><path class="cls-1" d="M619.45,489.07v-16.36h3.08v2.6h.17c.3-.88,.83-1.58,1.58-2.08,.76-.51,1.61-.76,2.57-.76,.2,0,.43,0,.71,.02,.27,.01,.49,.03,.64,.05v3.05c-.13-.04-.36-.08-.68-.12-.33-.05-.65-.07-.98-.07-.75,0-1.42,.16-2.01,.47s-1.05,.75-1.39,1.31-.51,1.19-.51,1.9v9.99h-3.19Z"/><path class="cls-1" d="M637.44,489.4c-1.61,0-3-.35-4.16-1.04-1.16-.69-2.06-1.67-2.69-2.93-.63-1.26-.94-2.74-.94-4.44s.31-3.15,.94-4.43c.63-1.28,1.51-2.28,2.64-2.99,1.13-.72,2.46-1.08,3.98-1.08,.92,0,1.82,.15,2.69,.46,.87,.31,1.64,.79,2.33,1.44,.69,.65,1.23,1.5,1.63,2.54,.4,1.04,.6,2.3,.6,3.79v1.13h-13.01v-2.39h9.89c0-.84-.17-1.58-.51-2.23-.34-.65-.82-1.16-1.43-1.54-.61-.38-1.33-.56-2.16-.56-.89,0-1.67,.22-2.34,.66s-1.18,1-1.53,1.7c-.36,.7-.54,1.46-.54,2.28v1.86c0,1.09,.19,2.03,.58,2.79,.39,.77,.93,1.35,1.62,1.75,.7,.4,1.51,.6,2.44,.6,.6,0,1.15-.09,1.65-.26s.93-.43,1.29-.78c.36-.35,.64-.78,.83-1.29l3.01,.54c-.24,.89-.67,1.66-1.29,2.33-.62,.66-1.4,1.18-2.33,1.54-.93,.37-2,.55-3.19,.55Z"/><path class="cls-1" d="M651.19,479.36v9.72h-3.19v-16.36h3.06v2.66h.2c.38-.87,.97-1.56,1.77-2.09,.81-.53,1.82-.79,3.05-.79,1.11,0,2.09,.23,2.93,.7,.84,.46,1.49,1.16,1.95,2.07s.69,2.05,.69,3.4v10.41h-3.19v-10.03c0-1.19-.31-2.11-.93-2.79-.62-.67-1.47-1.01-2.55-1.01-.74,0-1.39,.16-1.97,.48-.57,.32-1.02,.79-1.35,1.4-.33,.62-.5,1.36-.5,2.22Z"/><path class="cls-1" d="M673.56,472.71v2.56h-8.94v-2.56h8.94Zm-6.54-3.92h3.19v15.48c0,.62,.09,1.08,.28,1.39s.42,.52,.72,.63c.29,.11,.62,.16,.96,.16,.26,0,.48-.02,.67-.05,.19-.04,.34-.06,.45-.09l.58,2.63c-.18,.07-.45,.14-.79,.22-.34,.08-.77,.12-1.28,.12-.84,.01-1.62-.13-2.34-.45-.72-.31-1.31-.79-1.76-1.45-.45-.65-.67-1.47-.67-2.46v-16.14Z"/><path class="cls-1" d="M685.28,489.07v-21.82h3.18v8.11h.19c.18-.34,.45-.73,.8-1.18,.35-.45,.83-.84,1.45-1.18,.62-.34,1.43-.51,2.45-.51,1.32,0,2.5,.33,3.54,1,1.04,.67,1.85,1.63,2.45,2.89,.59,1.26,.89,2.77,.89,4.54s-.29,3.28-.88,4.54c-.59,1.26-1.4,2.23-2.43,2.91-1.03,.68-2.21,1.02-3.53,1.02-.99,0-1.81-.17-2.43-.5-.63-.33-1.12-.72-1.48-1.17-.36-.45-.63-.84-.82-1.19h-.27v2.55h-3.11Zm3.12-8.18c0,1.15,.17,2.16,.5,3.03,.33,.87,.82,1.54,1.45,2.03s1.41,.73,2.32,.73,1.75-.25,2.39-.76c.64-.51,1.12-1.2,1.45-2.07,.33-.87,.5-1.86,.5-2.95s-.16-2.05-.48-2.91-.81-1.54-1.45-2.04c-.64-.5-1.44-.75-2.4-.75s-1.7,.24-2.34,.71c-.64,.47-1.12,1.14-1.44,1.99-.33,.85-.49,1.85-.49,2.98Z"/><path class="cls-1" d="M710.85,489.4c-1.61,0-3-.35-4.16-1.04-1.16-.69-2.06-1.67-2.69-2.93-.63-1.26-.94-2.74-.94-4.44s.31-3.15,.94-4.43c.63-1.28,1.51-2.28,2.64-2.99,1.13-.72,2.46-1.08,3.98-1.08,.92,0,1.82,.15,2.69,.46,.87,.31,1.64,.79,2.33,1.44,.69,.65,1.23,1.5,1.63,2.54,.4,1.04,.6,2.3,.6,3.79v1.13h-13.01v-2.39h9.89c0-.84-.17-1.58-.51-2.23-.34-.65-.82-1.16-1.43-1.54-.61-.38-1.33-.56-2.16-.56-.89,0-1.67,.22-2.34,.66s-1.18,1-1.53,1.7c-.36,.7-.54,1.46-.54,2.28v1.86c0,1.09,.19,2.03,.58,2.79,.39,.77,.93,1.35,1.62,1.75,.7,.4,1.51,.6,2.44,.6,.6,0,1.15-.09,1.65-.26s.93-.43,1.29-.78c.36-.35,.64-.78,.83-1.29l3.01,.54c-.24,.89-.67,1.66-1.29,2.33-.62,.66-1.4,1.18-2.33,1.54-.93,.37-2,.55-3.19,.55Z"/><path class="cls-1" d="M729.2,472.71v2.56h-9.25v-2.56h9.25Zm-6.71,16.36v-18.26c0-1.02,.22-1.87,.67-2.55s1.04-1.19,1.78-1.52c.74-.34,1.54-.51,2.41-.51,.64,0,1.19,.05,1.64,.15s.79,.2,1.01,.28l-.75,2.58c-.15-.04-.34-.09-.58-.15s-.52-.09-.85-.09c-.77,0-1.33,.19-1.66,.57-.33,.38-.5,.94-.5,1.66v17.83h-3.18Z"/><path class="cls-1" d="M738.73,489.4c-1.53,0-2.87-.35-4.02-1.05s-2.03-1.69-2.66-2.95c-.63-1.26-.95-2.74-.95-4.43s.32-3.18,.95-4.45,1.52-2.26,2.66-2.96,2.48-1.05,4.02-1.05,2.87,.35,4.02,1.05c1.14,.7,2.03,1.69,2.66,2.96s.95,2.76,.95,4.45-.32,3.17-.95,4.43c-.63,1.26-1.52,2.25-2.66,2.95-1.14,.7-2.48,1.05-4.02,1.05Zm.01-2.67c.99,0,1.82-.26,2.47-.79,.65-.53,1.14-1.22,1.45-2.1,.32-.87,.47-1.84,.47-2.89s-.16-2.01-.47-2.88c-.32-.88-.8-1.58-1.45-2.11s-1.48-.8-2.47-.8-1.83,.27-2.49,.8c-.66,.53-1.14,1.24-1.46,2.11s-.47,1.84-.47,2.88,.16,2.01,.47,2.89c.32,.87,.8,1.57,1.46,2.1,.66,.53,1.49,.79,2.49,.79Z"/><path class="cls-1" d="M749.9,489.07v-16.36h3.08v2.6h.17c.3-.88,.83-1.58,1.58-2.08,.76-.51,1.61-.76,2.57-.76,.2,0,.43,0,.71,.02,.27,.01,.49,.03,.64,.05v3.05c-.13-.04-.36-.08-.68-.12-.33-.05-.65-.07-.98-.07-.75,0-1.42,.16-2.01,.47s-1.05,.75-1.39,1.31-.51,1.19-.51,1.9v9.99h-3.19Z"/><path class="cls-1" d="M767.89,489.4c-1.61,0-3-.35-4.16-1.04-1.16-.69-2.06-1.67-2.69-2.93-.63-1.26-.94-2.74-.94-4.44s.31-3.15,.94-4.43c.63-1.28,1.51-2.28,2.64-2.99,1.13-.72,2.46-1.08,3.98-1.08,.92,0,1.82,.15,2.69,.46,.87,.31,1.64,.79,2.33,1.44,.69,.65,1.23,1.5,1.63,2.54,.4,1.04,.6,2.3,.6,3.79v1.13h-13.01v-2.39h9.89c0-.84-.17-1.58-.51-2.23-.34-.65-.82-1.16-1.43-1.54-.61-.38-1.33-.56-2.16-.56-.89,0-1.67,.22-2.34,.66s-1.18,1-1.53,1.7c-.36,.7-.54,1.46-.54,2.28v1.86c0,1.09,.19,2.03,.58,2.79,.39,.77,.93,1.35,1.62,1.75,.7,.4,1.51,.6,2.44,.6,.6,0,1.15-.09,1.65-.26s.93-.43,1.29-.78c.36-.35,.64-.78,.83-1.29l3.01,.54c-.24,.89-.67,1.66-1.29,2.33-.62,.66-1.4,1.18-2.33,1.54-.93,.37-2,.55-3.19,.55Z"/><path class="cls-1" d="M794.04,472.71v2.56h-8.94v-2.56h8.94Zm-6.54-3.92h3.19v15.48c0,.62,.09,1.08,.28,1.39s.42,.52,.72,.63c.29,.11,.62,.16,.96,.16,.26,0,.48-.02,.67-.05,.19-.04,.34-.06,.45-.09l.58,2.63c-.18,.07-.45,.14-.79,.22-.34,.08-.77,.12-1.28,.12-.84,.01-1.62-.13-2.34-.45-.72-.31-1.31-.79-1.76-1.45-.45-.65-.67-1.47-.67-2.46v-16.14Z"/><path class="cls-1" d="M801.08,479.36v9.72h-3.19v-21.82h3.14v8.12h.2c.38-.88,.97-1.58,1.76-2.1s1.82-.78,3.09-.78c1.12,0,2.1,.23,2.95,.69,.84,.46,1.5,1.15,1.96,2.06,.47,.91,.7,2.05,.7,3.41v10.41h-3.19v-10.03c0-1.2-.31-2.13-.93-2.8s-1.48-1-2.58-1c-.75,0-1.43,.16-2.02,.48-.59,.32-1.06,.79-1.4,1.4-.34,.62-.51,1.36-.51,2.22Z"/><path class="cls-1" d="M823.01,489.4c-1.61,0-3-.35-4.16-1.04-1.16-.69-2.06-1.67-2.69-2.93-.63-1.26-.94-2.74-.94-4.44s.31-3.15,.94-4.43c.63-1.28,1.51-2.28,2.64-2.99,1.13-.72,2.46-1.08,3.98-1.08,.92,0,1.82,.15,2.69,.46,.87,.31,1.64,.79,2.33,1.44,.69,.65,1.23,1.5,1.63,2.54,.4,1.04,.6,2.3,.6,3.79v1.13h-13.01v-2.39h9.89c0-.84-.17-1.58-.51-2.23-.34-.65-.82-1.16-1.43-1.54-.61-.38-1.33-.56-2.16-.56-.89,0-1.67,.22-2.34,.66s-1.18,1-1.53,1.7c-.36,.7-.54,1.46-.54,2.28v1.86c0,1.09,.19,2.03,.58,2.79,.39,.77,.93,1.35,1.62,1.75,.7,.4,1.51,.6,2.44,.6,.6,0,1.15-.09,1.65-.26s.93-.43,1.29-.78c.36-.35,.64-.78,.83-1.29l3.01,.54c-.24,.89-.67,1.66-1.29,2.33-.62,.66-1.4,1.18-2.33,1.54-.93,.37-2,.55-3.19,.55Z"/><path class="cls-1" d="M57.63,525.07v-16.36h3.06v2.66h.2c.34-.9,.9-1.61,1.67-2.11,.77-.51,1.7-.76,2.78-.76s2.01,.26,2.75,.77,1.29,1.21,1.65,2.11h.17c.39-.87,1.01-1.57,1.86-2.09,.85-.52,1.87-.78,3.05-.78,1.48,0,2.7,.46,3.64,1.39,.94,.93,1.41,2.33,1.41,4.21v10.97h-3.19v-10.67c0-1.11-.3-1.91-.91-2.41-.6-.5-1.33-.75-2.16-.75-1.04,0-1.84,.32-2.42,.95-.58,.64-.86,1.45-.86,2.45v10.43h-3.17v-10.88c0-.89-.28-1.6-.83-2.14-.55-.54-1.27-.81-2.16-.81-.6,0-1.16,.16-1.67,.47-.51,.32-.92,.75-1.23,1.31-.31,.56-.46,1.21-.46,1.95v10.09h-3.19Z"/><path class="cls-1" d="M88.9,525.43c-1.04,0-1.97-.19-2.81-.58s-1.5-.95-1.99-1.69c-.49-.74-.73-1.64-.73-2.72,0-.92,.18-1.68,.53-2.28,.35-.6,.83-1.07,1.44-1.42,.6-.35,1.28-.61,2.02-.79,.75-.18,1.51-.31,2.28-.4,.98-.11,1.78-.21,2.39-.28,.61-.08,1.05-.2,1.33-.37,.28-.17,.42-.45,.42-.83v-.07c0-.93-.26-1.65-.78-2.16-.52-.51-1.3-.77-2.33-.77s-1.92,.24-2.53,.71-1.04,1-1.27,1.57l-2.99-.68c.36-.99,.88-1.8,1.56-2.41s1.48-1.06,2.37-1.34c.9-.28,1.84-.42,2.82-.42,.65,0,1.35,.08,2.08,.23s1.42,.43,2.07,.84c.64,.41,1.17,.98,1.58,1.73,.41,.75,.62,1.72,.62,2.91v10.87h-3.11v-2.24h-.13c-.21,.41-.52,.82-.93,1.21-.41,.4-.94,.73-1.59,.99-.65,.26-1.42,.39-2.32,.39Zm.69-2.56c.88,0,1.64-.17,2.26-.52,.63-.35,1.11-.8,1.44-1.37s.5-1.17,.5-1.82v-2.11c-.11,.11-.33,.22-.66,.31s-.69,.18-1.1,.25-.81,.13-1.2,.18c-.39,.05-.72,.1-.98,.13-.62,.08-1.18,.21-1.69,.39-.51,.19-.91,.45-1.21,.79-.3,.34-.45,.8-.45,1.37,0,.79,.29,1.38,.87,1.78,.58,.4,1.32,.6,2.23,.6Z"/><path class="cls-1" d="M101.21,525.07v-16.36h3.08v2.6h.17c.3-.88,.83-1.58,1.58-2.08,.76-.51,1.61-.76,2.57-.76,.2,0,.43,0,.71,.02,.27,.01,.49,.03,.64,.05v3.05c-.13-.04-.36-.08-.68-.12-.33-.05-.65-.07-.98-.07-.75,0-1.42,.16-2.01,.47s-1.05,.75-1.39,1.31-.51,1.19-.51,1.9v9.99h-3.19Z"/><path class="cls-1" d="M112.74,525.07v-21.82h3.19v21.82h-3.19Zm2.93-5.55l-.02-3.89h.55l6.52-6.92h3.81l-7.44,7.88h-.5l-2.93,2.93Zm7.4,5.55l-5.86-7.78,2.19-2.23,7.57,10h-3.91Z"/><path class="cls-1" d="M135.81,525.4c-1.61,0-3-.35-4.16-1.04-1.16-.69-2.06-1.67-2.69-2.93-.63-1.26-.94-2.74-.94-4.44s.31-3.15,.94-4.43c.63-1.28,1.51-2.28,2.64-2.99,1.13-.72,2.46-1.08,3.98-1.08,.92,0,1.82,.15,2.69,.46,.87,.31,1.64,.79,2.33,1.44,.69,.65,1.23,1.5,1.63,2.54,.4,1.04,.6,2.3,.6,3.79v1.13h-13.01v-2.39h9.89c0-.84-.17-1.58-.51-2.23-.34-.65-.82-1.16-1.43-1.54-.61-.38-1.33-.56-2.16-.56-.89,0-1.67,.22-2.34,.66s-1.18,1-1.53,1.7c-.36,.7-.54,1.46-.54,2.28v1.86c0,1.09,.19,2.03,.58,2.79,.39,.77,.93,1.35,1.62,1.75,.7,.4,1.51,.6,2.44,.6,.6,0,1.15-.09,1.65-.26s.93-.43,1.29-.78c.36-.35,.64-.78,.83-1.29l3.01,.54c-.24,.89-.67,1.66-1.29,2.33-.62,.66-1.4,1.18-2.33,1.54-.93,.37-2,.55-3.19,.55Z"/><path class="cls-1" d="M154.01,508.71v2.56h-8.94v-2.56h8.94Zm-6.54-3.92h3.19v15.48c0,.62,.09,1.08,.28,1.39s.42,.52,.72,.63c.29,.11,.62,.16,.96,.16,.26,0,.48-.02,.67-.05,.19-.04,.34-.06,.45-.09l.58,2.63c-.18,.07-.45,.14-.79,.22-.34,.08-.77,.12-1.28,.12-.84,.01-1.62-.13-2.34-.45-.72-.31-1.31-.79-1.76-1.45-.45-.65-.67-1.47-.67-2.46v-16.14Z"/><path class="cls-1" d="M172.37,525.4c-1.58,0-2.95-.36-4.09-1.08-1.14-.72-2.01-1.72-2.63-2.99-.61-1.27-.92-2.73-.92-4.37s.31-3.13,.94-4.4c.62-1.28,1.51-2.27,2.64-2.99,1.14-.72,2.48-1.08,4.02-1.08,1.24,0,2.35,.23,3.32,.69,.97,.46,1.76,1.1,2.36,1.92,.6,.82,.96,1.79,1.07,2.89h-3.1c-.17-.77-.56-1.43-1.17-1.98-.61-.55-1.42-.83-2.43-.83-.89,0-1.66,.23-2.33,.7-.66,.47-1.18,1.13-1.55,1.98s-.55,1.87-.55,3.03,.18,2.22,.54,3.09c.36,.87,.88,1.54,1.54,2.01,.66,.47,1.45,.71,2.35,.71,.6,0,1.15-.11,1.65-.34,.49-.22,.91-.54,1.25-.96,.34-.42,.57-.92,.71-1.51h3.1c-.11,1.06-.46,2-1.03,2.83s-1.34,1.48-2.31,1.96c-.96,.47-2.09,.71-3.38,.71Z"/><path class="cls-1" d="M185.7,503.25v21.82h-3.19v-21.82h3.19Z"/><path class="cls-1" d="M196.87,525.4c-1.53,0-2.87-.35-4.02-1.05s-2.03-1.69-2.66-2.95c-.63-1.26-.95-2.74-.95-4.43s.32-3.18,.95-4.45,1.52-2.26,2.66-2.96,2.48-1.05,4.02-1.05,2.87,.35,4.02,1.05c1.14,.7,2.03,1.69,2.66,2.96s.95,2.76,.95,4.45-.32,3.17-.95,4.43c-.63,1.26-1.52,2.25-2.66,2.95-1.14,.7-2.48,1.05-4.02,1.05Zm.01-2.67c.99,0,1.82-.26,2.47-.79,.65-.53,1.14-1.22,1.45-2.1,.32-.87,.47-1.84,.47-2.89s-.16-2.01-.47-2.88c-.32-.88-.8-1.58-1.45-2.11s-1.48-.8-2.47-.8-1.83,.27-2.49,.8c-.66,.53-1.14,1.24-1.46,2.11s-.47,1.84-.47,2.88,.16,2.01,.47,2.89c.32,.87,.8,1.57,1.46,2.1,.66,.53,1.49,.79,2.49,.79Z"/><path class="cls-1" d="M220.31,512.7l-2.89,.51c-.12-.37-.31-.72-.57-1.05s-.61-.61-1.05-.82c-.44-.21-.99-.32-1.65-.32-.9,0-1.66,.2-2.26,.6-.6,.4-.91,.92-.91,1.55,0,.55,.2,.99,.61,1.32,.41,.33,1.06,.61,1.96,.82l2.6,.6c1.5,.35,2.63,.88,3.37,1.61,.74,.72,1.11,1.67,1.11,2.82,0,.98-.28,1.85-.85,2.62-.56,.76-1.35,1.36-2.35,1.79-1,.43-2.17,.65-3.49,.65-1.83,0-3.33-.39-4.48-1.18-1.16-.78-1.87-1.9-2.13-3.35l3.08-.47c.19,.8,.59,1.41,1.18,1.82,.6,.41,1.37,.61,2.33,.61,1.04,0,1.88-.22,2.5-.66,.62-.44,.94-.97,.94-1.6,0-.51-.19-.94-.57-1.29-.38-.35-.96-.61-1.74-.79l-2.77-.61c-1.53-.35-2.66-.9-3.38-1.66-.73-.76-1.09-1.72-1.09-2.89,0-.97,.27-1.81,.81-2.54,.54-.72,1.29-1.29,2.24-1.7,.95-.41,2.04-.61,3.27-.61,1.77,0,3.16,.38,4.18,1.14s1.69,1.79,2.01,3.06Z"/><path class="cls-1" d="M231.18,525.4c-1.61,0-3-.35-4.16-1.04-1.16-.69-2.06-1.67-2.69-2.93-.63-1.26-.94-2.74-.94-4.44s.31-3.15,.94-4.43c.63-1.28,1.51-2.28,2.64-2.99,1.13-.72,2.46-1.08,3.98-1.08,.92,0,1.82,.15,2.69,.46,.87,.31,1.64,.79,2.33,1.44,.69,.65,1.23,1.5,1.63,2.54,.4,1.04,.6,2.3,.6,3.79v1.13h-13.01v-2.39h9.89c0-.84-.17-1.58-.51-2.23-.34-.65-.82-1.16-1.43-1.54-.61-.38-1.33-.56-2.16-.56-.89,0-1.67,.22-2.34,.66s-1.18,1-1.53,1.7c-.36,.7-.54,1.46-.54,2.28v1.86c0,1.09,.19,2.03,.58,2.79,.39,.77,.93,1.35,1.62,1.75,.7,.4,1.51,.6,2.44,.6,.6,0,1.15-.09,1.65-.26s.93-.43,1.29-.78c.36-.35,.64-.78,.83-1.29l3.01,.54c-.24,.89-.67,1.66-1.29,2.33-.62,.66-1.4,1.18-2.33,1.54-.93,.37-2,.55-3.19,.55Z"/><path class="cls-1" d="M254.01,512.7l-2.89,.51c-.12-.37-.31-.72-.57-1.05s-.61-.61-1.05-.82c-.44-.21-.99-.32-1.65-.32-.9,0-1.66,.2-2.26,.6-.6,.4-.91,.92-.91,1.55,0,.55,.2,.99,.61,1.32,.41,.33,1.06,.61,1.96,.82l2.6,.6c1.5,.35,2.63,.88,3.37,1.61,.74,.72,1.11,1.67,1.11,2.82,0,.98-.28,1.85-.85,2.62-.56,.76-1.35,1.36-2.35,1.79-1,.43-2.17,.65-3.49,.65-1.83,0-3.33-.39-4.48-1.18-1.16-.78-1.87-1.9-2.13-3.35l3.08-.47c.19,.8,.59,1.41,1.18,1.82,.6,.41,1.37,.61,2.33,.61,1.04,0,1.88-.22,2.5-.66,.62-.44,.94-.97,.94-1.6,0-.51-.19-.94-.57-1.29-.38-.35-.96-.61-1.74-.79l-2.77-.61c-1.53-.35-2.66-.9-3.38-1.66-.73-.76-1.09-1.72-1.09-2.89,0-.97,.27-1.81,.81-2.54,.54-.72,1.29-1.29,2.24-1.7,.95-.41,2.04-.61,3.27-.61,1.77,0,3.16,.38,4.18,1.14s1.69,1.79,2.01,3.06Z"/><path class="cls-1" d="M259.92,525.28c-.58,0-1.08-.21-1.5-.62-.42-.42-.63-.92-.63-1.51s.21-1.08,.63-1.5c.42-.41,.92-.62,1.5-.62s1.08,.21,1.5,.62c.42,.42,.63,.92,.63,1.5,0,.39-.1,.75-.29,1.07s-.45,.58-.77,.77c-.32,.19-.67,.29-1.07,.29Z"/></g><path class="cls-3" d="M331.08,346.65c0-1.39,1.2-2.51,2.69-2.51s2.69,1.13,2.69,2.51v46.1c0,1.39-1.2,2.51-2.69,2.51s-2.69-1.13-2.69-2.51v-46.1Z"/><g><path d="M309.77,342.76c.29,1.8,2.09,2.84,3.56,3.91l2.4,1.74V212.72c0-1.54,1.04-2.89,2.52-3.25l31.66-7.73-4.53-2.92-33.21,6.96c-1.53,.32-2.63,1.69-2.63,3.27v129.9c0,.8,0,2.43,.22,3.8Z"/><path class="cls-6" d="M313.97,345.79c-.21-.16-.42-.3-.62-.44-.55-.39-1.06-.74-1.5-1.16-.58-.54-.91-1.04-1-1.61-.2-1.27-.21-2.82-.21-3.63V209.05c0-1.08,.75-2,1.77-2.22l32.77-6.87,2.06,1.33-29.23,7.14c-1.97,.48-3.34,2.26-3.34,4.29v133.57l-.69-.5Z"/></g><path class="cls-3" d="M331.08,160.97c0-1.39,1.2-2.51,2.69-2.51s2.69,1.13,2.69,2.51v46.1c0,1.39-1.2,2.51-2.69,2.51s-2.69-1.13-2.69-2.51v-46.1Z"/><g><path class="cls-2" d="M314.93,211.69c0-1.56,1.07-2.91,2.58-3.24l31.12-6.86c2.04-.45,3.97,1.13,3.97,3.24v136.22c0,1.63-1.16,3.01-2.75,3.28l-31.12,5.14c-1.99,.33-3.8-1.23-3.8-3.28V211.69Z"/><path class="cls-5" d="M315.47,211.69c0-1.31,.9-2.44,2.16-2.72l31.12-6.86c1.7-.37,3.32,.94,3.32,2.72v136.22c0,1.37-.98,2.53-2.3,2.74l-31.12,5.14c-1.66,.27-3.18-1.02-3.18-2.75V211.69Z"/></g><path class="cls-3" d="M464.54,257.19c0-1.39,1.2-2.51,2.69-2.51s2.69,1.13,2.69,2.51v46.1c0,1.39-1.2,2.51-2.69,2.51s-2.69-1.13-2.69-2.51v-46.1Z"/><g><path d="M443.23,253.3c.29,1.8,2.09,2.84,3.56,3.91l2.4,1.74V123.27c0-1.54,1.04-2.89,2.52-3.25l31.66-7.73-4.53-2.92-33.21,6.96c-1.53,.32-2.63,1.69-2.63,3.27V249.5c0,.8,0,2.43,.22,3.8Z"/><path class="cls-6" d="M447.43,256.34c-.21-.16-.42-.3-.62-.44-.55-.39-1.06-.75-1.5-1.16-.58-.54-.91-1.04-1-1.61-.2-1.27-.21-2.82-.21-3.63V119.6c0-1.08,.75-2,1.77-2.22l32.77-6.87,2.06,1.33-29.23,7.14c-1.97,.48-3.34,2.26-3.34,4.29v133.57l-.69-.5Z"/></g><path class="cls-3" d="M464.54,71.51c0-1.39,1.2-2.51,2.69-2.51s2.69,1.13,2.69,2.51v46.1c0,1.39-1.2,2.51-2.69,2.51s-2.69-1.13-2.69-2.51v-46.1Z"/><g><path class="cls-3" d="M448.4,122.23c0-1.56,1.07-2.91,2.58-3.24l31.12-6.86c2.04-.45,3.97,1.13,3.97,3.24V251.6c0,1.63-1.16,3.01-2.75,3.28l-31.12,5.14c-1.99,.33-3.8-1.23-3.8-3.28V122.23Z"/><path class="cls-5" d="M448.93,122.23c0-1.31,.9-2.44,2.16-2.72l31.12-6.86c1.7-.37,3.32,.94,3.32,2.72V251.6c0,1.37-.98,2.53-2.3,2.75l-31.12,5.14c-1.66,.27-3.18-1.02-3.18-2.75V122.23Z"/></g><path class="cls-3" d="M397.81,299.66c0-1.39,1.2-2.51,2.69-2.51s2.69,1.13,2.69,2.51v46.1c0,1.39-1.2,2.51-2.69,2.51s-2.69-1.13-2.69-2.51v-46.1Z"/><g><path d="M376.5,295.77c.29,1.8,2.09,2.84,3.56,3.91l2.4,1.74V165.73c0-1.54,1.04-2.88,2.52-3.25l31.66-7.73-4.53-2.92-33.21,6.96c-1.53,.32-2.63,1.69-2.63,3.27v129.9c0,.8,0,2.43,.22,3.8Z"/><path class="cls-6" d="M380.7,298.8c-.21-.15-.42-.3-.62-.44-.55-.39-1.06-.74-1.5-1.16-.58-.54-.91-1.04-1-1.61-.2-1.27-.21-2.82-.21-3.63V162.06c0-1.08,.75-2,1.77-2.22l32.77-6.87,2.06,1.33-29.23,7.14c-1.97,.48-3.34,2.26-3.34,4.29v133.57l-.69-.5Z"/></g><path class="cls-3" d="M397.81,113.98c0-1.39,1.2-2.51,2.69-2.51s2.69,1.13,2.69,2.51v46.1c0,1.39-1.2,2.51-2.69,2.51s-2.69-1.13-2.69-2.51v-46.1Z"/><g><path class="cls-2" d="M381.66,164.7c0-1.56,1.07-2.91,2.58-3.24l31.12-6.86c2.04-.45,3.97,1.13,3.97,3.24v136.22c0,1.63-1.16,3.01-2.75,3.28l-31.12,5.14c-1.99,.33-3.8-1.23-3.8-3.28V164.7Z"/><path class="cls-5" d="M382.2,164.7c0-1.31,.9-2.44,2.16-2.72l31.12-6.86c1.7-.37,3.32,.94,3.32,2.72v136.22c0,1.37-.98,2.53-2.3,2.74l-31.12,5.14c-1.66,.27-3.18-1.02-3.18-2.75V164.7Z"/></g><rect class="cls-7" x="509.89" y="140.59" width="197" height="182" rx="39.5" ry="39.5"/><path class="cls-4" d="M543.35,211.53c-1.69,0-3.18-.3-4.48-.9-1.3-.6-2.33-1.47-3.07-2.62-.73-1.17-1.09-2.59-1.09-4.26v-.8h3.42v.8c0,1.58,.47,2.76,1.41,3.55,.96,.79,2.23,1.18,3.81,1.18s2.81-.33,3.62-.99c.81-.68,1.22-1.56,1.22-2.62,0-.7-.19-1.28-.58-1.73-.38-.45-.93-.8-1.63-1.06-.7-.28-1.55-.53-2.53-.77l-1.18-.29c-1.43-.34-2.68-.76-3.74-1.25-1.05-.51-1.86-1.18-2.43-2.02s-.86-1.9-.86-3.2,.32-2.45,.96-3.39c.66-.94,1.57-1.66,2.72-2.18,1.15-.51,2.51-.77,4.06-.77s2.94,.27,4.16,.8c1.24,.53,2.21,1.32,2.91,2.37,.7,1.05,1.06,2.36,1.06,3.94v1.15h-3.42v-1.15c0-.96-.2-1.74-.61-2.34-.38-.6-.93-1.03-1.63-1.31-.7-.28-1.53-.42-2.46-.42-1.37,0-2.43,.29-3.2,.86-.75,.55-1.12,1.33-1.12,2.34,0,.68,.16,1.25,.48,1.7,.34,.43,.83,.78,1.47,1.06,.64,.28,1.44,.52,2.4,.74l1.18,.29c1.45,.32,2.73,.74,3.84,1.25,1.11,.49,1.98,1.16,2.62,2.02,.64,.85,.96,1.95,.96,3.3s-.34,2.52-1.02,3.52c-.66,1-1.61,1.79-2.85,2.37-1.24,.55-2.7,.83-4.38,.83Zm17.9-.45c-.96,0-1.73-.29-2.3-.86-.55-.58-.83-1.34-.83-2.3v-9.82h-4.35v-2.78h4.35v-5.22h3.3v5.22h4.7v2.78h-4.7v9.25c0,.64,.3,.96,.9,.96h3.3v2.78h-4.35Zm15.41,.45c-1.6,0-3-.33-4.19-.99-1.19-.68-2.13-1.63-2.82-2.85-.66-1.24-.99-2.67-.99-4.29v-.38c0-1.64,.33-3.07,.99-4.29,.66-1.24,1.58-2.19,2.75-2.85,1.19-.68,2.57-1.02,4.13-1.02s2.84,.34,3.97,1.02c1.15,.66,2.05,1.59,2.69,2.78,.64,1.19,.96,2.59,.96,4.19v1.25h-12.13c.04,1.39,.5,2.5,1.38,3.33,.9,.81,2.01,1.22,3.33,1.22,1.24,0,2.17-.28,2.78-.83,.64-.55,1.13-1.19,1.47-1.92l2.72,1.41c-.3,.6-.74,1.23-1.31,1.89-.55,.66-1.29,1.22-2.21,1.66-.92,.45-2.09,.67-3.52,.67Zm-4.61-9.95h8.74c-.09-1.19-.51-2.12-1.28-2.78-.77-.68-1.77-1.02-3.01-1.02s-2.25,.34-3.04,1.02c-.77,.66-1.24,1.59-1.41,2.78Zm16.06,15.9v-22.18h3.23v2.27h.51c.41-.7,1.01-1.33,1.82-1.89,.83-.55,2.02-.83,3.55-.83,1.32,0,2.53,.32,3.62,.96,1.11,.64,1.99,1.57,2.66,2.78,.68,1.19,1.02,2.65,1.02,4.35v.48c0,1.71-.33,3.17-.99,4.38-.66,1.19-1.55,2.11-2.66,2.75-1.11,.64-2.33,.96-3.65,.96-1.02,0-1.89-.13-2.59-.38-.7-.26-1.27-.58-1.7-.96-.43-.41-.77-.82-1.02-1.25h-.51v8.54h-3.3Zm8.16-8.83c1.45,0,2.63-.46,3.55-1.38,.92-.92,1.38-2.23,1.38-3.94v-.29c0-1.69-.47-2.99-1.41-3.9-.92-.92-2.09-1.38-3.52-1.38s-2.58,.46-3.52,1.38c-.92,.92-1.38,2.22-1.38,3.9v.29c0,1.71,.46,3.02,1.38,3.94,.94,.92,2.11,1.38,3.52,1.38Zm19.6,2.43v-2.53c0-1.56,.27-2.84,.8-3.84,.53-1,1.29-1.81,2.27-2.43,1-.64,2.21-1.17,3.62-1.6l1.95-.61c.87-.28,1.62-.62,2.24-1.02,.64-.41,1.13-.91,1.47-1.5,.34-.62,.51-1.33,.51-2.14v-.13c0-1.26-.43-2.24-1.28-2.94-.85-.73-1.97-1.09-3.36-1.09s-2.59,.38-3.49,1.15c-.88,.77-1.31,1.9-1.31,3.39v.51h-3.33v-.48c0-1.62,.35-2.99,1.06-4.1,.7-1.13,1.67-1.99,2.91-2.59,1.24-.6,2.62-.9,4.16-.9s2.9,.29,4.1,.86c1.22,.58,2.17,1.39,2.85,2.43,.7,1.05,1.06,2.27,1.06,3.68v.29c0,1.45-.29,2.66-.86,3.62-.57,.96-1.38,1.75-2.4,2.37-1,.62-2.17,1.14-3.49,1.57l-1.89,.58c-1,.3-1.81,.63-2.43,.99-.6,.34-1.05,.76-1.34,1.25-.28,.49-.42,1.12-.42,1.89v.32h12.64v3.01h-16.03Z"/><path class="cls-3" d="M637.87,211.53c-.75,0-1.38-.25-1.89-.74-.49-.49-.74-1.12-.74-1.89s.24-1.39,.74-1.86c.51-.49,1.14-.74,1.89-.74s1.36,.25,1.86,.74c.51,.49,.77,1.11,.77,1.86s-.26,1.4-.77,1.89c-.49,.49-1.11,.74-1.86,.74Z"/><path class="cls-4" d="M537.77,256.09h-3.14v-10.18h3.28c.99,0,1.83,.2,2.54,.61,.7,.4,1.24,.99,1.62,1.75,.37,.75,.56,1.66,.56,2.71s-.19,1.97-.57,2.74c-.38,.76-.93,1.35-1.65,1.76-.72,.41-1.6,.61-2.63,.61Zm-1.91-1.09h1.83c.84,0,1.54-.16,2.09-.49,.55-.32,.97-.79,1.24-1.39,.27-.6,.41-1.31,.41-2.14s-.13-1.53-.4-2.12c-.27-.6-.67-1.05-1.2-1.37-.53-.32-1.2-.48-1.99-.48h-1.97v7.99Zm11.87,1.25c-.74,0-1.37-.16-1.9-.49-.53-.33-.94-.79-1.23-1.37-.29-.59-.43-1.28-.43-2.06s.14-1.47,.43-2.07c.29-.6,.69-1.07,1.2-1.4,.52-.34,1.12-.51,1.81-.51,.4,0,.79,.07,1.18,.2,.39,.13,.74,.35,1.06,.65,.32,.29,.57,.69,.76,1.17,.19,.49,.28,1.09,.28,1.8v.5h-5.89v-1.01h4.69c0-.43-.09-.82-.26-1.15-.17-.34-.41-.61-.73-.8-.31-.2-.68-.29-1.1-.29-.47,0-.87,.12-1.21,.35-.34,.23-.6,.53-.78,.89-.18,.37-.27,.76-.27,1.18v.68c0,.58,.1,1.07,.3,1.47,.2,.4,.48,.7,.84,.91,.36,.21,.77,.31,1.25,.31,.31,0,.59-.04,.84-.13,.25-.09,.47-.22,.65-.4,.18-.18,.32-.4,.42-.67l1.13,.32c-.12,.38-.32,.72-.6,1.01-.28,.29-.63,.51-1.04,.68-.41,.16-.88,.24-1.4,.24Zm8.05,0c-.72,0-1.33-.17-1.85-.51-.52-.34-.91-.8-1.19-1.4-.28-.59-.42-1.27-.42-2.03s.14-1.46,.43-2.05c.29-.6,.69-1.06,1.2-1.4,.52-.34,1.12-.51,1.81-.51,.54,0,1.02,.1,1.45,.3,.43,.2,.78,.48,1.06,.84,.28,.36,.45,.77,.51,1.25h-1.17c-.09-.35-.29-.66-.6-.93-.3-.27-.72-.41-1.23-.41-.46,0-.86,.12-1.2,.36-.34,.24-.61,.57-.8,1-.19,.43-.28,.93-.28,1.51s.09,1.1,.28,1.54c.19,.44,.45,.78,.8,1.02,.34,.24,.75,.36,1.21,.36,.3,0,.58-.05,.83-.16,.25-.11,.46-.26,.63-.46,.17-.2,.29-.44,.37-.72h1.17c-.07,.45-.23,.86-.49,1.22-.26,.36-.6,.64-1.03,.86-.42,.21-.92,.31-1.48,.31Zm4.72-.16v-7.64h1.17v7.64h-1.17Zm.6-8.91c-.23,0-.43-.08-.59-.23-.16-.16-.24-.34-.24-.56s.08-.41,.24-.56c.17-.16,.36-.23,.59-.23s.42,.08,.59,.23c.17,.15,.25,.34,.25,.56s-.08,.41-.25,.56c-.16,.16-.36,.23-.59,.23Zm5.61,9.07c-.64,0-1.2-.16-1.69-.48-.49-.33-.87-.78-1.14-1.37-.28-.59-.41-1.29-.41-2.1s.14-1.5,.41-2.09c.28-.59,.66-1.05,1.15-1.37,.49-.32,1.06-.48,1.7-.48,.5,0,.89,.08,1.18,.25,.29,.16,.51,.35,.67,.56,.16,.21,.28,.37,.36,.51h.1v-3.76h1.17v10.18h-1.13v-1.17h-.14c-.09,.14-.21,.31-.37,.53-.16,.21-.39,.4-.68,.56-.3,.16-.69,.24-1.18,.24Zm.16-1.05c.47,0,.87-.12,1.19-.37,.32-.25,.57-.59,.74-1.03,.17-.44,.25-.95,.25-1.53s-.08-1.07-.25-1.5c-.17-.43-.41-.76-.74-1-.32-.24-.73-.36-1.2-.36s-.91,.13-1.24,.38c-.33,.25-.58,.6-.74,1.03-.16,.43-.24,.91-.24,1.45s.08,1.04,.25,1.48c.17,.44,.42,.79,.75,1.05,.33,.26,.74,.39,1.23,.39Zm8.85,1.05c-.74,0-1.37-.16-1.9-.49-.53-.33-.94-.79-1.23-1.37-.28-.59-.43-1.28-.43-2.06s.14-1.47,.43-2.07c.29-.6,.69-1.07,1.2-1.4,.52-.34,1.12-.51,1.81-.51,.4,0,.79,.07,1.18,.2,.39,.13,.74,.35,1.06,.65,.32,.29,.57,.69,.76,1.17,.19,.49,.28,1.09,.28,1.8v.5h-5.89v-1.01h4.69c0-.43-.09-.82-.26-1.15-.17-.34-.41-.61-.73-.8-.31-.2-.68-.29-1.1-.29-.47,0-.87,.12-1.21,.35-.34,.23-.6,.53-.78,.89-.18,.37-.27,.76-.27,1.18v.68c0,.58,.1,1.07,.3,1.47,.2,.4,.48,.7,.84,.91,.36,.21,.77,.31,1.25,.31,.31,0,.59-.04,.84-.13,.25-.09,.47-.22,.65-.4,.18-.18,.32-.4,.42-.67l1.13,.32c-.12,.38-.32,.72-.6,1.01-.28,.29-.63,.51-1.04,.68-.41,.16-.88,.24-1.4,.24Zm10.61-.16l-2.33-7.64h1.23l1.65,5.85h.08l1.63-5.85h1.25l1.61,5.83h.08l1.65-5.83h1.23l-2.33,7.64h-1.15l-1.67-5.87h-.12l-1.67,5.87h-1.15Zm10.82-4.59v4.59h-1.17v-10.18h1.17v3.74h.1c.18-.39,.45-.71,.81-.94,.36-.23,.84-.35,1.44-.35,.52,0,.98,.11,1.37,.31,.39,.21,.69,.52,.91,.95,.22,.42,.33,.96,.33,1.62v4.85h-1.17v-4.77c0-.61-.16-1.07-.47-1.41-.31-.33-.74-.5-1.3-.5-.38,0-.73,.08-1.03,.24-.3,.16-.54,.4-.72,.71-.17,.31-.26,.69-.26,1.13Zm10.3,4.75c-.74,0-1.37-.16-1.9-.49-.53-.33-.94-.79-1.23-1.37-.28-.59-.43-1.28-.43-2.06s.14-1.47,.43-2.07c.29-.6,.69-1.07,1.2-1.4,.52-.34,1.12-.51,1.81-.51,.4,0,.79,.07,1.18,.2,.39,.13,.74,.35,1.06,.65,.32,.29,.57,.69,.76,1.17,.19,.49,.28,1.09,.28,1.8v.5h-5.89v-1.01h4.69c0-.43-.09-.82-.26-1.15-.17-.34-.41-.61-.73-.8-.31-.2-.68-.29-1.1-.29-.47,0-.87,.12-1.21,.35-.34,.23-.6,.53-.78,.89-.18,.37-.27,.76-.27,1.18v.68c0,.58,.1,1.07,.3,1.47,.2,.4,.48,.7,.84,.91,.36,.21,.77,.31,1.25,.31,.31,0,.59-.04,.84-.13,.25-.09,.47-.22,.65-.4,.18-.18,.32-.4,.42-.67l1.13,.32c-.12,.38-.32,.72-.6,1.01-.28,.29-.63,.51-1.04,.68-.41,.16-.88,.24-1.4,.24Zm8.27-7.79v.99h-3.96v-.99h3.96Zm-2.8-1.83h1.17v7.28c0,.33,.05,.58,.14,.75,.1,.16,.23,.27,.38,.33,.16,.05,.32,.08,.49,.08,.13,0,.24,0,.32-.02,.08-.02,.15-.03,.2-.04l.24,1.05c-.08,.03-.19,.06-.33,.09-.14,.03-.32,.05-.54,.05-.33,0-.66-.07-.97-.21-.31-.14-.58-.36-.78-.65-.21-.29-.31-.66-.31-1.1v-7.6Zm5.91,4.87v4.59h-1.17v-10.18h1.17v3.74h.1c.18-.39,.45-.71,.81-.94,.36-.23,.84-.35,1.44-.35,.52,0,.98,.11,1.37,.31,.39,.21,.69,.52,.91,.95,.22,.42,.33,.96,.33,1.62v4.85h-1.17v-4.77c0-.61-.16-1.07-.47-1.41-.31-.33-.74-.5-1.3-.5-.38,0-.73,.08-1.03,.24-.3,.16-.54,.4-.72,.71-.17,.31-.26,.69-.26,1.13Zm10.3,4.75c-.74,0-1.37-.16-1.9-.49-.53-.33-.94-.79-1.23-1.37-.29-.59-.43-1.28-.43-2.06s.14-1.47,.43-2.07c.29-.6,.69-1.07,1.2-1.4,.52-.34,1.12-.51,1.81-.51,.4,0,.79,.07,1.18,.2,.39,.13,.74,.35,1.06,.65,.32,.29,.57,.69,.76,1.17,.19,.49,.28,1.09,.28,1.8v.5h-5.89v-1.01h4.69c0-.43-.09-.82-.26-1.15-.17-.34-.41-.61-.73-.8-.31-.2-.68-.29-1.1-.29-.47,0-.87,.12-1.21,.35-.34,.23-.6,.53-.78,.89-.18,.37-.27,.76-.27,1.18v.68c0,.58,.1,1.07,.3,1.47,.2,.4,.48,.7,.84,.91,.36,.21,.77,.31,1.25,.31,.31,0,.59-.04,.83-.13,.25-.09,.47-.22,.65-.4,.18-.18,.32-.4,.42-.67l1.13,.32c-.12,.38-.32,.72-.6,1.01-.28,.29-.63,.51-1.04,.68-.42,.16-.88,.24-1.4,.24Zm4.95-.16v-7.64h1.13v1.15h.08c.14-.38,.39-.68,.75-.92,.37-.24,.78-.35,1.23-.35,.09,0,.19,0,.32,0,.13,0,.23,0,.29,.01v1.19s-.13-.02-.27-.04c-.14-.02-.29-.04-.44-.04-.37,0-.7,.08-1,.23-.29,.15-.52,.36-.69,.64-.17,.27-.25,.57-.25,.92v4.83h-1.17Zm9.9,2.86c-.2,0-.38-.02-.53-.05-.16-.03-.26-.06-.32-.09l.3-1.03c.29,.07,.54,.1,.76,.08,.22-.02,.41-.12,.58-.29,.17-.17,.33-.45,.47-.84l.22-.6-2.82-7.68h1.27l2.11,6.08h.08l2.11-6.08h1.27l-3.24,8.75c-.15,.39-.33,.72-.54,.98-.22,.26-.47,.46-.75,.58-.28,.13-.6,.19-.95,.19Zm9.87-2.71c-.69,0-1.29-.16-1.82-.49-.52-.33-.92-.79-1.21-1.38-.29-.59-.43-1.28-.43-2.07s.14-1.49,.43-2.08c.29-.59,.7-1.05,1.21-1.38,.52-.33,1.12-.49,1.82-.49s1.29,.16,1.81,.49c.52,.33,.92,.79,1.21,1.38,.29,.59,.44,1.29,.44,2.08s-.15,1.48-.44,2.07c-.29,.59-.69,1.05-1.21,1.38-.52,.33-1.12,.49-1.81,.49Zm0-1.05c.52,0,.95-.13,1.29-.4,.34-.27,.59-.62,.75-1.06,.16-.44,.24-.91,.24-1.42s-.08-.99-.24-1.43-.41-.8-.75-1.07c-.34-.27-.77-.41-1.29-.41s-.96,.14-1.29,.41c-.34,.27-.59,.63-.75,1.07-.16,.44-.24,.92-.24,1.43s.08,.98,.24,1.42c.16,.44,.41,.79,.75,1.06,.34,.27,.77,.4,1.29,.4Zm10.06-2.23v-4.51h1.17v7.64h-1.17v-1.29h-.08c-.18,.39-.46,.72-.83,.99-.38,.27-.86,.4-1.43,.4-.48,0-.9-.1-1.27-.31-.37-.21-.66-.53-.88-.95-.21-.43-.32-.97-.32-1.62v-4.85h1.17v4.77c0,.56,.16,1,.47,1.33,.31,.33,.72,.5,1.2,.5,.29,0,.59-.08,.89-.22,.3-.15,.56-.38,.76-.69,.21-.31,.31-.7,.31-1.18Zm-126.11,17.49v.99h-3.96v-.99h3.96Zm-2.8-1.83h1.17v7.28c0,.33,.05,.58,.14,.75,.1,.16,.23,.27,.38,.33,.16,.05,.32,.08,.49,.08,.13,0,.24,0,.32-.02,.08-.02,.15-.03,.2-.04l.24,1.05c-.08,.03-.19,.06-.33,.09-.14,.03-.32,.05-.54,.05-.33,0-.66-.07-.97-.21-.31-.14-.58-.36-.79-.65-.21-.29-.31-.66-.31-1.1v-7.6Zm5.91,4.87v4.59h-1.17v-10.18h1.17v3.74h.1c.18-.4,.45-.71,.81-.94,.36-.24,.84-.35,1.44-.35,.52,0,.98,.1,1.37,.31,.39,.21,.69,.52,.91,.95,.22,.42,.33,.96,.33,1.62v4.85h-1.17v-4.77c0-.61-.16-1.08-.47-1.41-.31-.33-.74-.5-1.3-.5-.38,0-.73,.08-1.03,.24-.3,.16-.54,.4-.72,.71-.17,.31-.26,.69-.26,1.13Zm7.1,4.59v-7.64h1.17v7.64h-1.17Zm.6-8.91c-.23,0-.43-.08-.59-.23-.16-.16-.24-.34-.24-.56s.08-.41,.24-.56c.17-.16,.36-.23,.59-.23s.42,.08,.59,.23c.17,.15,.25,.34,.25,.56s-.08,.41-.25,.56c-.16,.16-.36,.23-.59,.23Zm3.9,4.32v4.59h-1.17v-7.64h1.13v1.19h.1c.18-.39,.45-.7,.82-.94,.36-.24,.84-.36,1.41-.36,.52,0,.97,.11,1.36,.32,.39,.21,.69,.53,.9,.96,.22,.42,.32,.96,.32,1.61v4.85h-1.17v-4.77c0-.6-.16-1.07-.47-1.4-.31-.34-.74-.51-1.28-.51-.37,0-.71,.08-1,.24-.29,.16-.52,.4-.69,.71-.17,.31-.25,.69-.25,1.13Zm8.11,1.81l-.02-1.45h.24l3.34-3.4h1.45l-3.56,3.6h-.1l-1.35,1.25Zm-1.09,2.78v-10.18h1.17v10.18h-1.17Zm4.85,0l-2.98-3.78,.84-.82,3.64,4.59h-1.49Zm6.7,0v-7.64h1.17v7.64h-1.17Zm.6-8.91c-.23,0-.43-.08-.59-.23-.16-.16-.24-.34-.24-.56s.08-.41,.24-.56c.17-.16,.36-.23,.59-.23s.42,.08,.59,.23c.17,.15,.25,.34,.25,.56s-.08,.41-.25,.56c-.16,.16-.36,.23-.59,.23Zm6.05,1.27v.99h-3.96v-.99h3.96Zm-2.8-1.83h1.17v7.28c0,.33,.05,.58,.14,.75,.1,.16,.23,.27,.38,.33,.16,.05,.32,.08,.49,.08,.13,0,.24,0,.32-.02,.08-.02,.15-.03,.2-.04l.24,1.05c-.08,.03-.19,.06-.33,.09-.14,.03-.32,.05-.54,.05-.33,0-.66-.07-.97-.21-.31-.14-.58-.36-.79-.65-.21-.29-.31-.66-.31-1.1v-7.6Zm11.59,12.49c-.57,0-1.05-.07-1.46-.22-.41-.14-.75-.33-1.02-.57-.27-.23-.48-.48-.64-.75l.93-.66c.11,.14,.24,.3,.4,.48,.16,.18,.38,.34,.67,.47,.29,.14,.66,.2,1.12,.2,.62,0,1.13-.15,1.53-.45,.4-.3,.6-.76,.6-1.4v-1.55h-.1c-.09,.14-.21,.31-.37,.52-.16,.2-.38,.38-.68,.54-.29,.16-.69,.23-1.18,.23-.62,0-1.17-.15-1.66-.44-.49-.29-.87-.72-1.16-1.27-.28-.56-.42-1.23-.42-2.03s.14-1.46,.41-2.04c.28-.58,.66-1.03,1.15-1.35,.49-.32,1.06-.48,1.7-.48,.5,0,.89,.08,1.18,.25,.29,.16,.52,.35,.68,.56,.16,.2,.28,.37,.37,.51h.12v-1.21h1.13v7.85c0,.66-.15,1.19-.45,1.6-.29,.41-.69,.72-1.19,.91-.5,.2-1.05,.29-1.66,.29Zm-.04-4.2c.47,0,.87-.11,1.19-.32,.32-.22,.57-.53,.74-.93,.17-.4,.25-.89,.25-1.45s-.08-1.04-.25-1.46c-.17-.42-.41-.75-.74-.99-.32-.24-.73-.36-1.2-.36s-.91,.13-1.24,.38c-.33,.25-.57,.59-.74,1.01-.16,.42-.24,.89-.24,1.41s.08,1,.25,1.41c.17,.4,.42,.72,.75,.95,.33,.23,.74,.34,1.23,.34Zm8.59,1.33c-.69,0-1.29-.16-1.81-.49-.52-.33-.92-.79-1.21-1.38-.29-.59-.43-1.28-.43-2.07s.14-1.49,.43-2.08c.29-.59,.7-1.05,1.21-1.38,.52-.33,1.13-.49,1.81-.49s1.29,.16,1.81,.49c.52,.33,.92,.79,1.21,1.38,.29,.59,.44,1.29,.44,2.08s-.15,1.48-.44,2.07c-.29,.59-.69,1.05-1.21,1.38-.52,.33-1.12,.49-1.81,.49Zm0-1.05c.52,0,.95-.13,1.29-.4,.34-.27,.59-.62,.75-1.06,.16-.44,.24-.91,.24-1.42s-.08-.99-.24-1.43c-.16-.44-.41-.8-.75-1.07-.34-.27-.77-.41-1.29-.41s-.95,.14-1.29,.41c-.34,.27-.59,.63-.75,1.07-.16,.44-.24,.92-.24,1.43s.08,.98,.24,1.42c.16,.44,.41,.79,.75,1.06,.34,.27,.77,.4,1.29,.4Zm14-2.23v-4.51h1.17v7.64h-1.17v-1.29h-.08c-.18,.39-.46,.72-.84,.99-.38,.27-.86,.4-1.43,.4-.48,0-.9-.1-1.27-.31-.37-.21-.66-.53-.88-.95-.21-.43-.32-.97-.32-1.62v-4.85h1.17v4.77c0,.56,.16,1,.47,1.33,.31,.33,.72,.5,1.2,.5,.29,0,.59-.07,.89-.22,.31-.15,.56-.38,.77-.69,.21-.31,.31-.7,.31-1.18Zm3.32,5.99v-10.5h1.13v1.21h.14c.09-.13,.21-.3,.36-.51,.16-.21,.38-.4,.67-.56,.29-.17,.69-.25,1.18-.25,.64,0,1.21,.16,1.7,.48,.49,.32,.87,.78,1.15,1.37s.41,1.29,.41,2.09-.14,1.51-.41,2.1c-.28,.59-.66,1.05-1.14,1.37-.49,.32-1.05,.48-1.69,.48-.49,0-.88-.08-1.18-.24-.29-.16-.52-.35-.68-.56-.16-.21-.28-.39-.37-.53h-.1v4.04h-1.17Zm1.15-6.68c0,.58,.08,1.08,.25,1.53,.17,.44,.42,.78,.74,1.03,.32,.24,.72,.37,1.19,.37s.9-.13,1.23-.39c.33-.26,.58-.61,.75-1.05,.17-.44,.25-.94,.25-1.48s-.08-1.02-.25-1.45c-.16-.43-.41-.78-.74-1.03-.33-.26-.74-.38-1.24-.38s-.88,.12-1.2,.36c-.32,.24-.57,.57-.74,1-.17,.43-.25,.93-.25,1.5Zm14.42,3.98c-.69,0-1.29-.16-1.81-.49-.52-.33-.92-.79-1.21-1.38-.29-.59-.43-1.28-.43-2.07s.15-1.49,.43-2.08c.29-.59,.7-1.05,1.21-1.38,.52-.33,1.12-.49,1.81-.49s1.29,.16,1.81,.49c.52,.33,.92,.79,1.21,1.38,.29,.59,.44,1.29,.44,2.08s-.15,1.48-.44,2.07c-.29,.59-.69,1.05-1.21,1.38-.52,.33-1.12,.49-1.81,.49Zm0-1.05c.52,0,.95-.13,1.29-.4,.34-.27,.59-.62,.75-1.06,.16-.44,.24-.91,.24-1.42s-.08-.99-.24-1.43c-.16-.44-.41-.8-.75-1.07-.34-.27-.77-.41-1.29-.41s-.95,.14-1.29,.41c-.34,.27-.59,.63-.75,1.07-.16,.44-.24,.92-.24,1.43s.08,.98,.24,1.42c.16,.44,.41,.79,.75,1.06,.34,.27,.77,.4,1.29,.4Zm5.25,.9v-7.64h1.13v1.15h.08c.14-.38,.39-.68,.76-.92,.36-.24,.78-.35,1.23-.35,.09,0,.19,0,.32,0,.13,0,.23,0,.29,.02v1.19s-.13-.02-.27-.04c-.14-.02-.29-.03-.44-.03-.37,0-.7,.08-.99,.23-.29,.15-.52,.36-.69,.64-.17,.27-.25,.57-.25,.92v4.83h-1.17Zm12.03,.16c-.64,0-1.2-.16-1.69-.48-.49-.32-.87-.78-1.14-1.37-.27-.59-.41-1.29-.41-2.1s.14-1.5,.41-2.09c.28-.59,.66-1.05,1.15-1.37,.49-.32,1.06-.48,1.7-.48,.5,0,.89,.08,1.18,.25,.29,.16,.51,.35,.67,.56,.16,.2,.28,.37,.36,.51h.1v-3.76h1.17v10.18h-1.13v-1.17h-.14c-.09,.14-.21,.32-.37,.53-.16,.21-.39,.4-.68,.56-.29,.16-.69,.24-1.18,.24Zm.16-1.05c.47,0,.87-.12,1.19-.37,.32-.25,.57-.59,.74-1.03,.17-.44,.25-.95,.25-1.53s-.08-1.07-.25-1.5c-.17-.43-.41-.76-.74-1-.32-.24-.73-.36-1.2-.36s-.91,.13-1.24,.38c-.33,.25-.57,.6-.74,1.03-.16,.43-.24,.92-.24,1.45s.08,1.04,.25,1.48c.17,.44,.42,.79,.75,1.05,.33,.26,.74,.39,1.23,.39Zm8.76,1.05c-.69,0-1.29-.16-1.82-.49-.52-.33-.92-.79-1.21-1.38-.29-.59-.43-1.28-.43-2.07s.14-1.49,.43-2.08c.29-.59,.7-1.05,1.21-1.38,.52-.33,1.12-.49,1.82-.49s1.29,.16,1.81,.49c.52,.33,.92,.79,1.21,1.38,.29,.59,.44,1.29,.44,2.08s-.15,1.48-.44,2.07c-.29,.59-.69,1.05-1.21,1.38-.52,.33-1.12,.49-1.81,.49Zm0-1.05c.52,0,.95-.13,1.29-.4,.34-.27,.59-.62,.75-1.06,.16-.44,.24-.91,.24-1.42s-.08-.99-.24-1.43c-.16-.44-.41-.8-.75-1.07-.34-.27-.77-.41-1.29-.41s-.96,.14-1.29,.41-.59,.63-.75,1.07c-.16,.44-.24,.92-.24,1.43s.08,.98,.24,1.42c.16,.44,.41,.79,.75,1.06,.34,.27,.77,.4,1.29,.4Zm6.72,.9l-2.33-7.64h1.23l1.65,5.85h.08l1.63-5.85h1.25l1.61,5.83h.08l1.65-5.83h1.23l-2.33,7.64h-1.15l-1.67-5.87h-.12l-1.67,5.87h-1.15Zm10.82-4.59v4.59h-1.17v-7.64h1.13v1.19h.1c.18-.39,.45-.7,.82-.94,.36-.24,.84-.36,1.41-.36,.52,0,.97,.11,1.36,.32,.39,.21,.69,.53,.9,.96,.22,.42,.32,.96,.32,1.61v4.85h-1.17v-4.77c0-.6-.16-1.07-.47-1.4-.31-.34-.74-.51-1.28-.51-.38,0-.71,.08-1.01,.24-.29,.16-.52,.4-.69,.71-.17,.31-.25,.69-.25,1.13Z"/></g></g></svg>