<?xml version="1.0" encoding="UTF-8"?><svg id="Layer_2" xmlns="http://www.w3.org/2000/svg" xmlns:xlink="http://www.w3.org/1999/xlink" viewBox="0 0 900 600"><defs><style>.cls-1{fill:none;}.cls-2{clip-path:url(#clippath);}.cls-3{fill:#fff;}.cls-4,.cls-5{fill:#acff00;}.cls-6,.cls-7{fill:#0c1615;}.cls-8{fill:#a1a7a7;}.cls-8,.cls-5{stroke:#0c1615;}.cls-7{fill-rule:evenodd;}.cls-5{stroke-width:.5px;}</style><clipPath id="clippath"><polygon class="cls-1" points="489.48 119.36 536.72 110.55 554.08 150.39 506.85 159.2 489.48 119.36"/></clipPath></defs><g id="Layer_1-2"><g><g><rect x=".5" y=".5" width="899" height="599"/><path d="M899,1V599H1V1H899m1-1H0V600H900V0h0Z"/></g><g><path class="cls-3" d="M69.98,339.94c7.56,0,11.79,4.59,11.79,11.34v.81h-4.5v-.63c0-4.37-2.25-7.38-7.29-7.38s-7.83,3.06-7.83,8.55v7.38c0,5.49,2.79,8.55,7.83,8.55s7.29-2.97,7.29-7.38v-.63h4.5v.63c0,7.02-4.23,11.52-11.79,11.52s-12.33-4.68-12.33-12.87v-7.02c0-8.19,4.59-12.87,12.33-12.87Z"/><path class="cls-3" d="M96.57,349.39c5.94,0,9.76,3.46,9.76,8.78v13.9h-4.14v-3.46h-.63c-.95,1.98-3.24,4.09-7.78,4.09-4.95,0-8.15-2.7-8.15-6.66s2.75-6.17,8.42-6.71l8.14-.77v-.58c0-3.02-2.11-4.82-5.71-4.82s-5.71,1.75-6.75,4.32l-3.65-1.66c1.58-3.42,5.08-6.44,10.48-6.44Zm-2.07,19.8c5.17,0,7.69-3.1,7.69-6.93v-.36l-7.69,.72c-2.57,.22-4.59,.99-4.59,3.24,0,2.07,1.67,3.33,4.59,3.33Z"/><path class="cls-3" d="M120.33,349.39c4.5,0,7.47,1.76,10.93,5.62l-3.15,2.25c-2.43-3.15-5.08-4.37-7.7-4.37-2.47,0-4.32,1.08-4.32,2.97,0,2.16,2.16,2.38,4.54,2.74l1.84,.27c5,.72,8.91,1.93,8.91,6.52s-4.05,7.29-9.72,7.29c-6.25,0-9.76-3.69-11.47-6.93l3.78-2.02c1.4,3.33,4.23,5.35,7.83,5.35,3.15,0,5.4-1.4,5.4-3.56,0-2.29-2.83-2.47-5.22-2.83l-1.84-.27c-4.95-.72-8.23-2.34-8.23-6.53s3.91-6.53,8.41-6.53Z"/><path class="cls-3" d="M140.31,340.57v13.18h.54c1.04-2.07,3.06-4.09,7.42-4.09,4.63,0,8.59,3.06,8.59,9.13v13.27h-4.23v-12.91c0-3.83-2.07-5.8-5.67-5.8-4.09,0-6.66,2.61-6.66,7.2v11.52h-4.23v-31.5h4.23Z"/><path class="cls-3" d="M187.65,339.94c7.47,0,12.24,4.77,12.24,12.87v7.02c0,8.1-4.59,12.87-12.24,12.87s-12.24-4.77-12.24-12.87v-7.02c0-8.1,4.59-12.87,12.24-12.87Zm-7.74,19.98c0,5.58,2.52,8.64,7.74,8.64s7.74-3.06,7.74-8.64v-7.2c0-5.58-2.52-8.64-7.74-8.64s-7.74,3.06-7.74,8.64v7.2Z"/><path class="cls-3" d="M221.58,372.07v-3.73h-.63c-1.04,2.07-3.06,4.09-7.42,4.09-4.63,0-8.59-3.06-8.59-9.13v-13.27h4.23v12.91c0,3.83,2.07,5.8,5.67,5.8,4.09,0,6.66-2.61,6.66-7.2v-11.52h4.23v22.05h-4.14Z"/><path class="cls-3" d="M235.62,350.02v-7.65h4.23v7.65h6.48v3.69h-6.48v13.41c0,.9,.36,1.26,1.17,1.26h4.05v3.69h-5.76c-2.16,0-3.69-1.53-3.69-3.78v-14.58h-6.12v-3.69h6.12Z"/><path class="cls-3" d="M56.2,422.25h3.74l5.7,9.92h.23l5.7-9.92h3.74l-7.92,13.25v8.57h-3.28v-8.57l-7.92-13.25Z"/><path class="cls-3" d="M82.4,444.4c-1.53,0-2.87-.35-4.02-1.05s-2.03-1.69-2.66-2.95c-.63-1.26-.95-2.74-.95-4.43s.32-3.18,.95-4.45,1.52-2.26,2.66-2.96,2.48-1.05,4.02-1.05,2.87,.35,4.02,1.05c1.14,.7,2.03,1.69,2.66,2.96s.95,2.76,.95,4.45-.32,3.17-.95,4.43c-.63,1.26-1.52,2.25-2.66,2.95-1.14,.7-2.48,1.05-4.02,1.05Zm.01-2.67c.99,0,1.82-.26,2.47-.79,.65-.53,1.14-1.22,1.45-2.1,.32-.87,.47-1.84,.47-2.89s-.16-2.01-.47-2.88c-.32-.88-.8-1.58-1.45-2.11s-1.48-.8-2.47-.8-1.83,.27-2.49,.8c-.66,.53-1.14,1.24-1.46,2.11s-.47,1.84-.47,2.88,.16,2.01,.47,2.89c.32,.87,.8,1.57,1.46,2.1,.66,.53,1.49,.79,2.49,.79Z"/><path class="cls-3" d="M103.94,437.29v-9.58h3.2v16.36h-3.13v-2.83h-.17c-.38,.87-.98,1.6-1.81,2.18s-1.86,.87-3.08,.87c-1.05,0-1.98-.23-2.79-.7-.81-.46-1.44-1.16-1.9-2.07s-.69-2.05-.69-3.4v-10.41h3.19v10.02c0,1.12,.31,2,.93,2.66,.62,.66,1.42,.99,2.41,.99,.6,0,1.19-.15,1.78-.45,.59-.3,1.09-.75,1.48-1.35,.39-.6,.59-1.37,.58-2.3Z"/><path class="cls-3" d="M122.9,444.07l-4.81-16.36h3.29l3.21,12.02h.16l3.22-12.02h3.29l3.2,11.96h.16l3.18-11.96h3.29l-4.8,16.36h-3.25l-3.32-11.81h-.25l-3.32,11.81h-3.24Z"/><path class="cls-3" d="M145.71,425.18c-.55,0-1.03-.19-1.42-.56-.39-.37-.59-.82-.59-1.34s.2-.97,.59-1.35c.39-.37,.87-.56,1.42-.56s1.03,.19,1.42,.56c.39,.37,.59,.82,.59,1.34s-.2,.97-.59,1.35c-.39,.37-.87,.56-1.42,.56Zm-1.61,18.89v-16.36h3.19v16.36h-3.19Z"/><path class="cls-3" d="M154.76,422.25v21.82h-3.19v-21.82h3.19Z"/><path class="cls-3" d="M162.23,422.25v21.82h-3.19v-21.82h3.19Z"/><path class="cls-3" d="M181.51,444.4c-1.61,0-3-.35-4.16-1.04-1.16-.69-2.06-1.67-2.69-2.93-.63-1.26-.94-2.74-.94-4.44s.31-3.15,.94-4.43c.63-1.28,1.51-2.28,2.64-2.99,1.13-.72,2.46-1.08,3.98-1.08,.92,0,1.82,.15,2.69,.46,.87,.31,1.64,.79,2.33,1.44,.69,.65,1.23,1.5,1.63,2.54,.4,1.04,.6,2.3,.6,3.79v1.13h-13.01v-2.39h9.89c0-.84-.17-1.58-.51-2.23-.34-.65-.82-1.16-1.43-1.54-.61-.38-1.33-.56-2.16-.56-.89,0-1.67,.22-2.34,.66s-1.18,1-1.53,1.7c-.36,.7-.54,1.46-.54,2.28v1.86c0,1.09,.19,2.03,.58,2.79,.39,.77,.93,1.35,1.62,1.75,.7,.4,1.51,.6,2.44,.6,.6,0,1.15-.09,1.65-.26s.93-.43,1.29-.78c.36-.35,.64-.78,.83-1.29l3.01,.54c-.24,.89-.67,1.66-1.29,2.33-.62,.66-1.4,1.18-2.33,1.54-.93,.37-2,.55-3.19,.55Z"/><path class="cls-3" d="M196.84,444.43c-1.04,0-1.97-.19-2.81-.58s-1.5-.95-1.99-1.69c-.49-.74-.73-1.64-.73-2.72,0-.92,.18-1.68,.53-2.28,.35-.6,.83-1.07,1.44-1.42,.6-.35,1.28-.61,2.02-.79,.75-.18,1.51-.31,2.28-.4,.98-.11,1.78-.21,2.39-.28,.61-.08,1.05-.2,1.33-.37,.28-.17,.42-.45,.42-.83v-.07c0-.93-.26-1.65-.78-2.16-.52-.51-1.3-.77-2.33-.77s-1.92,.24-2.53,.71-1.04,1-1.27,1.57l-2.99-.68c.36-.99,.88-1.8,1.56-2.41s1.48-1.06,2.37-1.34c.9-.28,1.84-.42,2.82-.42,.65,0,1.35,.08,2.08,.23s1.42,.43,2.07,.84c.64,.41,1.17,.98,1.58,1.73,.41,.75,.62,1.72,.62,2.91v10.87h-3.11v-2.24h-.13c-.21,.41-.52,.82-.93,1.21-.41,.4-.94,.73-1.59,.99-.65,.26-1.42,.39-2.32,.39Zm.69-2.56c.88,0,1.64-.17,2.26-.52,.63-.35,1.11-.8,1.44-1.37s.5-1.17,.5-1.82v-2.11c-.11,.11-.33,.22-.66,.31s-.69,.18-1.1,.25-.81,.13-1.2,.18c-.39,.05-.72,.1-.98,.13-.62,.08-1.18,.21-1.69,.39-.51,.19-.91,.45-1.21,.79-.3,.34-.45,.8-.45,1.37,0,.79,.29,1.38,.87,1.78,.58,.4,1.32,.6,2.23,.6Z"/><path class="cls-3" d="M209.15,444.07v-16.36h3.08v2.6h.17c.3-.88,.83-1.58,1.58-2.08,.76-.51,1.61-.76,2.57-.76,.2,0,.43,0,.71,.02,.27,.01,.49,.03,.64,.05v3.05c-.13-.04-.36-.08-.68-.12-.33-.05-.65-.07-.98-.07-.75,0-1.42,.16-2.01,.47s-1.05,.75-1.39,1.31-.51,1.19-.51,1.9v9.99h-3.19Z"/><path class="cls-3" d="M223.87,434.36v9.72h-3.19v-16.36h3.06v2.66h.2c.38-.87,.97-1.56,1.77-2.09,.81-.53,1.82-.79,3.05-.79,1.11,0,2.09,.23,2.93,.7,.84,.46,1.49,1.16,1.95,2.07s.69,2.05,.69,3.4v10.41h-3.19v-10.03c0-1.19-.31-2.11-.93-2.79-.62-.67-1.47-1.01-2.55-1.01-.74,0-1.39,.16-1.97,.48-.57,.32-1.02,.79-1.35,1.4-.33,.62-.5,1.36-.5,2.22Z"/><path class="cls-3" d="M258.7,427.99c-.11-1.01-.58-1.79-1.41-2.35s-1.86-.84-3.11-.84c-.9,0-1.67,.14-2.32,.42-.65,.28-1.16,.66-1.52,1.15-.36,.49-.54,1.04-.54,1.66,0,.52,.12,.97,.37,1.34,.25,.38,.57,.69,.97,.94s.83,.46,1.29,.63c.46,.17,.91,.3,1.33,.41l2.13,.55c.7,.17,1.41,.4,2.14,.69,.73,.29,1.41,.67,2.03,1.15s1.13,1.07,1.52,1.77c.39,.7,.58,1.54,.58,2.53,0,1.24-.32,2.33-.95,3.29s-1.56,1.71-2.76,2.27c-1.2,.55-2.66,.83-4.36,.83s-3.05-.26-4.24-.78c-1.19-.52-2.13-1.25-2.8-2.21s-1.05-2.09-1.12-3.4h3.3c.06,.79,.32,1.44,.77,1.96,.45,.52,1.03,.91,1.74,1.16,.71,.25,1.48,.38,2.33,.38,.93,0,1.76-.15,2.49-.44,.73-.29,1.3-.71,1.72-1.24,.42-.53,.63-1.15,.63-1.86,0-.65-.18-1.17-.55-1.59-.37-.41-.86-.75-1.48-1.02s-1.32-.51-2.1-.71l-2.58-.7c-1.75-.48-3.13-1.17-4.15-2.1-1.02-.92-1.53-2.14-1.53-3.66,0-1.26,.34-2.36,1.02-3.29s1.61-1.67,2.77-2.19c1.16-.52,2.48-.78,3.94-.78s2.78,.26,3.92,.78,2.03,1.23,2.68,2.14c.65,.91,.99,1.95,1.02,3.12h-3.17Zm-5.46,18.81v-27.27h1.75v27.27h-1.75Z"/><path class="cls-3" d="M274.09,422.25v21.82h-3.3v-18.52h-.13l-5.22,3.41v-3.15l5.44-3.56h3.21Z"/><path class="cls-3" d="M295.77,427.71v2.56h-9.25v-2.56h9.25Zm-6.71,16.36v-18.26c0-1.02,.22-1.87,.67-2.55s1.04-1.19,1.78-1.52c.74-.34,1.54-.51,2.41-.51,.64,0,1.19,.05,1.64,.15s.79,.2,1.01,.28l-.75,2.58c-.15-.04-.34-.09-.58-.15s-.52-.09-.85-.09c-.77,0-1.33,.19-1.66,.57-.33,.38-.5,.94-.5,1.66v17.83h-3.18Z"/><path class="cls-3" d="M305.29,444.4c-1.53,0-2.87-.35-4.02-1.05s-2.03-1.69-2.66-2.95c-.63-1.26-.95-2.74-.95-4.43s.32-3.18,.95-4.45,1.52-2.26,2.66-2.96,2.48-1.05,4.02-1.05,2.87,.35,4.02,1.05c1.14,.7,2.03,1.69,2.66,2.96s.95,2.76,.95,4.45-.32,3.17-.95,4.43c-.63,1.26-1.52,2.25-2.66,2.95-1.14,.7-2.48,1.05-4.02,1.05Zm.01-2.67c.99,0,1.82-.26,2.47-.79,.65-.53,1.14-1.22,1.45-2.1,.32-.87,.47-1.84,.47-2.89s-.16-2.01-.47-2.88c-.32-.88-.8-1.58-1.45-2.11s-1.48-.8-2.47-.8-1.83,.27-2.49,.8c-.66,.53-1.14,1.24-1.46,2.11s-.47,1.84-.47,2.88,.16,2.01,.47,2.89c.32,.87,.8,1.57,1.46,2.1,.66,.53,1.49,.79,2.49,.79Z"/><path class="cls-3" d="M316.47,444.07v-16.36h3.08v2.6h.17c.3-.88,.83-1.58,1.58-2.08,.76-.51,1.61-.76,2.57-.76,.2,0,.43,0,.71,.02,.27,.01,.49,.03,.64,.05v3.05c-.13-.04-.36-.08-.68-.12-.33-.05-.65-.07-.98-.07-.75,0-1.42,.16-2.01,.47s-1.05,.75-1.39,1.31-.51,1.19-.51,1.9v9.99h-3.19Z"/><path class="cls-3" d="M342.99,444.4c-1.61,0-3-.35-4.16-1.04-1.16-.69-2.06-1.67-2.69-2.93-.63-1.26-.94-2.74-.94-4.44s.31-3.15,.94-4.43c.63-1.28,1.51-2.28,2.64-2.99,1.13-.72,2.46-1.08,3.98-1.08,.92,0,1.82,.15,2.69,.46,.87,.31,1.64,.79,2.33,1.44,.69,.65,1.23,1.5,1.63,2.54,.4,1.04,.6,2.3,.6,3.79v1.13h-13.01v-2.39h9.89c0-.84-.17-1.58-.51-2.23-.34-.65-.82-1.16-1.43-1.54-.61-.38-1.33-.56-2.16-.56-.89,0-1.67,.22-2.34,.66s-1.18,1-1.53,1.7c-.36,.7-.54,1.46-.54,2.28v1.86c0,1.09,.19,2.03,.58,2.79,.39,.77,.93,1.35,1.62,1.75,.7,.4,1.51,.6,2.44,.6,.6,0,1.15-.09,1.65-.26s.93-.43,1.29-.78c.36-.35,.64-.78,.83-1.29l3.01,.54c-.24,.89-.67,1.66-1.29,2.33-.62,.66-1.4,1.18-2.33,1.54-.93,.37-2,.55-3.19,.55Z"/><path class="cls-3" d="M367.07,427.71l-5.93,16.36h-3.41l-5.94-16.36h3.42l4.14,12.59h.17l4.13-12.59h3.42Z"/><path class="cls-3" d="M376.54,444.4c-1.61,0-3-.35-4.16-1.04-1.16-.69-2.06-1.67-2.69-2.93-.63-1.26-.94-2.74-.94-4.44s.31-3.15,.94-4.43c.63-1.28,1.51-2.28,2.64-2.99,1.13-.72,2.46-1.08,3.98-1.08,.92,0,1.82,.15,2.69,.46,.87,.31,1.64,.79,2.33,1.44,.69,.65,1.23,1.5,1.63,2.54,.4,1.04,.6,2.3,.6,3.79v1.13h-13.01v-2.39h9.89c0-.84-.17-1.58-.51-2.23-.34-.65-.82-1.16-1.43-1.54-.61-.38-1.33-.56-2.16-.56-.89,0-1.67,.22-2.34,.66s-1.18,1-1.53,1.7c-.36,.7-.54,1.46-.54,2.28v1.86c0,1.09,.19,2.03,.58,2.79,.39,.77,.93,1.35,1.62,1.75,.7,.4,1.51,.6,2.44,.6,.6,0,1.15-.09,1.65-.26s.93-.43,1.29-.78c.36-.35,.64-.78,.83-1.29l3.01,.54c-.24,.89-.67,1.66-1.29,2.33-.62,.66-1.4,1.18-2.33,1.54-.93,.37-2,.55-3.19,.55Z"/><path class="cls-3" d="M387.11,444.07v-16.36h3.08v2.6h.17c.3-.88,.83-1.58,1.58-2.08,.76-.51,1.61-.76,2.57-.76,.2,0,.43,0,.71,.02,.27,.01,.49,.03,.64,.05v3.05c-.13-.04-.36-.08-.68-.12-.33-.05-.65-.07-.98-.07-.75,0-1.42,.16-2.01,.47s-1.05,.75-1.39,1.31-.51,1.19-.51,1.9v9.99h-3.19Z"/><path class="cls-3" d="M401.16,450.21c-.48,0-.91-.04-1.3-.11s-.68-.15-.87-.24l.77-2.61c.58,.16,1.1,.22,1.55,.2,.46-.02,.86-.19,1.21-.51,.35-.32,.66-.84,.93-1.57l.39-1.09-5.99-16.58h3.41l4.14,12.7h.17l4.14-12.7h3.42l-6.74,18.55c-.31,.85-.71,1.58-1.19,2.17-.48,.59-1.06,1.04-1.73,1.34-.67,.3-1.44,.45-2.32,.45Z"/><path class="cls-3" d="M424.09,450.21v-22.5h3.11v2.65h.27c.18-.34,.45-.73,.8-1.18,.35-.45,.83-.84,1.45-1.18,.62-.34,1.43-.51,2.45-.51,1.32,0,2.5,.33,3.54,1,1.04,.67,1.85,1.63,2.44,2.89,.59,1.26,.89,2.77,.89,4.54s-.29,3.28-.88,4.54c-.59,1.26-1.4,2.23-2.43,2.91-1.03,.68-2.21,1.02-3.53,1.02-1,0-1.81-.17-2.43-.5-.63-.33-1.12-.72-1.48-1.17-.36-.45-.63-.84-.82-1.19h-.19v8.68h-3.19Zm3.12-14.32c0,1.15,.17,2.16,.5,3.03,.33,.87,.82,1.54,1.45,2.03,.63,.49,1.41,.73,2.32,.73s1.75-.25,2.39-.76c.64-.51,1.12-1.2,1.45-2.07,.33-.87,.5-1.86,.5-2.95s-.16-2.05-.49-2.91-.81-1.54-1.45-2.04c-.64-.5-1.44-.75-2.4-.75s-1.7,.24-2.34,.71c-.64,.47-1.12,1.14-1.44,1.99-.33,.85-.49,1.85-.49,2.98Z"/><path class="cls-3" d="M442.6,444.07v-16.36h3.08v2.6h.17c.3-.88,.83-1.58,1.58-2.08,.76-.51,1.61-.76,2.57-.76,.2,0,.43,0,.71,.02,.27,.01,.49,.03,.64,.05v3.05c-.13-.04-.36-.08-.68-.12-.33-.05-.65-.07-.98-.07-.75,0-1.42,.16-2.01,.47s-1.05,.75-1.39,1.31-.51,1.19-.51,1.9v9.99h-3.19Z"/><path class="cls-3" d="M460.59,444.4c-1.61,0-3-.35-4.16-1.04-1.16-.69-2.06-1.67-2.69-2.93-.63-1.26-.94-2.74-.94-4.44s.31-3.15,.94-4.43c.63-1.28,1.51-2.28,2.64-2.99,1.13-.72,2.46-1.08,3.98-1.08,.92,0,1.82,.15,2.69,.46,.87,.31,1.64,.79,2.33,1.44,.69,.65,1.23,1.5,1.63,2.54,.4,1.04,.6,2.3,.6,3.79v1.13h-13.01v-2.39h9.89c0-.84-.17-1.58-.51-2.23-.34-.65-.82-1.16-1.43-1.54-.61-.38-1.33-.56-2.16-.56-.89,0-1.67,.22-2.34,.66s-1.18,1-1.53,1.7c-.36,.7-.54,1.46-.54,2.28v1.86c0,1.09,.19,2.03,.58,2.79,.39,.77,.93,1.35,1.62,1.75,.7,.4,1.51,.6,2.44,.6,.6,0,1.15-.09,1.65-.26s.93-.43,1.29-.78c.36-.35,.64-.78,.83-1.29l3.01,.54c-.24,.89-.67,1.66-1.29,2.33-.62,.66-1.4,1.18-2.33,1.54-.93,.37-2,.55-3.19,.55Z"/><path class="cls-3" d="M477.28,444.39c-1.32,0-2.5-.34-3.53-1.02-1.03-.68-1.84-1.65-2.43-2.91-.59-1.26-.88-2.78-.88-4.54s.3-3.28,.89-4.54c.59-1.26,1.41-2.22,2.44-2.89s2.21-1,3.53-1c1.02,0,1.83,.17,2.46,.51,.62,.34,1.1,.73,1.45,1.18,.34,.45,.61,.84,.8,1.18h.19v-8.11h3.19v21.82h-3.11v-2.55h-.27c-.19,.35-.47,.75-.83,1.19-.36,.45-.85,.84-1.48,1.17-.62,.33-1.43,.5-2.43,.5Zm.7-2.72c.92,0,1.69-.24,2.33-.73s1.12-1.16,1.45-2.03c.33-.87,.5-1.88,.5-3.03s-.16-2.13-.49-2.98c-.33-.85-.81-1.52-1.44-1.99-.63-.48-1.41-.71-2.34-.71s-1.76,.25-2.4,.75c-.64,.5-1.12,1.18-1.44,2.04s-.49,1.83-.49,2.91,.16,2.08,.49,2.95c.33,.87,.81,1.56,1.45,2.07s1.44,.76,2.38,.76Z"/><path class="cls-3" d="M491.54,425.18c-.55,0-1.03-.19-1.42-.56-.39-.37-.59-.82-.59-1.34s.2-.97,.59-1.35c.39-.37,.87-.56,1.42-.56s1.03,.19,1.42,.56c.39,.37,.59,.82,.59,1.34s-.2,.97-.59,1.35c-.39,.37-.87,.56-1.42,.56Zm-1.61,18.89v-16.36h3.19v16.36h-3.19Z"/><path class="cls-3" d="M504.29,444.4c-1.58,0-2.95-.36-4.09-1.08-1.14-.72-2.01-1.72-2.63-2.99-.61-1.27-.92-2.73-.92-4.37s.31-3.13,.94-4.4c.62-1.28,1.51-2.27,2.64-2.99,1.14-.72,2.48-1.08,4.02-1.08,1.24,0,2.35,.23,3.32,.69,.97,.46,1.76,1.1,2.36,1.92,.6,.82,.96,1.79,1.07,2.89h-3.1c-.17-.77-.56-1.43-1.17-1.98-.61-.55-1.42-.83-2.43-.83-.89,0-1.66,.23-2.33,.7-.66,.47-1.18,1.13-1.55,1.98s-.55,1.87-.55,3.03,.18,2.22,.54,3.09c.36,.87,.88,1.54,1.54,2.01,.66,.47,1.45,.71,2.35,.71,.6,0,1.15-.11,1.65-.34,.49-.22,.91-.54,1.25-.96,.34-.42,.57-.92,.71-1.51h3.1c-.11,1.06-.46,2-1.03,2.83s-1.34,1.48-2.31,1.96c-.96,.47-2.09,.71-3.38,.71Z"/><path class="cls-3" d="M522.07,427.71v2.56h-8.94v-2.56h8.94Zm-6.54-3.92h3.19v15.48c0,.62,.09,1.08,.28,1.39s.42,.52,.72,.63c.29,.11,.62,.16,.96,.16,.26,0,.48-.02,.67-.05,.19-.04,.34-.06,.45-.09l.58,2.63c-.18,.07-.45,.14-.79,.22-.34,.08-.77,.12-1.28,.12-.84,.01-1.62-.13-2.34-.45-.72-.31-1.31-.79-1.76-1.45-.45-.65-.67-1.47-.67-2.46v-16.14Z"/><path class="cls-3" d="M527.19,425.18c-.55,0-1.03-.19-1.42-.56-.39-.37-.59-.82-.59-1.34s.2-.97,.59-1.35c.39-.37,.87-.56,1.42-.56s1.03,.19,1.42,.56c.39,.37,.59,.82,.59,1.34s-.2,.97-.59,1.35c-.39,.37-.87,.56-1.42,.56Zm-1.61,18.89v-16.36h3.19v16.36h-3.19Z"/><path class="cls-3" d="M539.94,444.4c-1.53,0-2.87-.35-4.02-1.05s-2.03-1.69-2.66-2.95c-.63-1.26-.95-2.74-.95-4.43s.32-3.18,.95-4.45,1.52-2.26,2.66-2.96,2.48-1.05,4.02-1.05,2.87,.35,4.02,1.05c1.14,.7,2.03,1.69,2.66,2.96s.95,2.76,.95,4.45-.32,3.17-.95,4.43c-.63,1.26-1.52,2.25-2.66,2.95-1.14,.7-2.48,1.05-4.02,1.05Zm.01-2.67c.99,0,1.82-.26,2.47-.79,.65-.53,1.14-1.22,1.45-2.1,.32-.87,.47-1.84,.47-2.89s-.16-2.01-.47-2.88c-.32-.88-.8-1.58-1.45-2.11s-1.48-.8-2.47-.8-1.83,.27-2.49,.8c-.66,.53-1.14,1.24-1.46,2.11s-.47,1.84-.47,2.88,.16,2.01,.47,2.89c.32,.87,.8,1.57,1.46,2.1,.66,.53,1.49,.79,2.49,.79Z"/><path class="cls-3" d="M554.31,434.36v9.72h-3.19v-16.36h3.06v2.66h.2c.38-.87,.97-1.56,1.77-2.09,.81-.53,1.82-.79,3.05-.79,1.11,0,2.09,.23,2.93,.7,.84,.46,1.49,1.16,1.95,2.07s.69,2.05,.69,3.4v10.41h-3.19v-10.03c0-1.19-.31-2.11-.93-2.79-.62-.67-1.47-1.01-2.55-1.01-.74,0-1.39,.16-1.97,.48-.57,.32-1.02,.79-1.35,1.4-.33,.62-.5,1.36-.5,2.22Z"/><path class="cls-3" d="M579,450.21c-.48,0-.91-.04-1.3-.11s-.68-.15-.87-.24l.77-2.61c.58,.16,1.1,.22,1.55,.2,.46-.02,.86-.19,1.21-.51,.35-.32,.66-.84,.93-1.57l.39-1.09-5.99-16.58h3.41l4.14,12.7h.17l4.14-12.7h3.42l-6.74,18.55c-.31,.85-.71,1.58-1.19,2.17-.48,.59-1.06,1.04-1.73,1.34-.67,.3-1.44,.45-2.32,.45Z"/><path class="cls-3" d="M600.3,444.4c-1.53,0-2.87-.35-4.02-1.05s-2.03-1.69-2.66-2.95c-.63-1.26-.95-2.74-.95-4.43s.32-3.18,.95-4.45,1.52-2.26,2.66-2.96,2.48-1.05,4.02-1.05,2.87,.35,4.02,1.05c1.14,.7,2.03,1.69,2.66,2.96s.95,2.76,.95,4.45-.32,3.17-.95,4.43c-.63,1.26-1.52,2.25-2.66,2.95-1.14,.7-2.48,1.05-4.02,1.05Zm.01-2.67c.99,0,1.82-.26,2.47-.79,.65-.53,1.14-1.22,1.45-2.1,.32-.87,.47-1.84,.47-2.89s-.16-2.01-.47-2.88c-.32-.88-.8-1.58-1.45-2.11s-1.48-.8-2.47-.8-1.83,.27-2.49,.8c-.66,.53-1.14,1.24-1.46,2.11s-.47,1.84-.47,2.88,.16,2.01,.47,2.89c.32,.87,.8,1.57,1.46,2.1,.66,.53,1.49,.79,2.49,.79Z"/><path class="cls-3" d="M621.84,437.29v-9.58h3.2v16.36h-3.13v-2.83h-.17c-.38,.87-.98,1.6-1.81,2.18s-1.86,.87-3.08,.87c-1.05,0-1.98-.23-2.79-.7-.81-.46-1.44-1.16-1.9-2.07s-.69-2.05-.69-3.4v-10.41h3.19v10.02c0,1.12,.31,2,.93,2.66,.62,.66,1.42,.99,2.41,.99,.6,0,1.19-.15,1.78-.45,.59-.3,1.09-.75,1.48-1.35,.39-.6,.59-1.37,.58-2.3Z"/><path class="cls-3" d="M644.11,450.55c-1.3,0-2.42-.17-3.35-.51-.93-.34-1.7-.79-2.29-1.35-.59-.56-1.03-1.18-1.32-1.84l2.74-1.13c.19,.31,.45,.64,.77,1s.76,.65,1.32,.9c.56,.25,1.28,.37,2.16,.37,1.21,0,2.21-.29,2.99-.88,.79-.59,1.18-1.52,1.18-2.8v-3.22h-.2c-.19,.35-.47,.73-.83,1.16-.36,.43-.85,.8-1.48,1.11s-1.44,.47-2.44,.47c-1.29,0-2.46-.3-3.49-.91s-1.85-1.51-2.45-2.7c-.6-1.19-.9-2.65-.9-4.39s.3-3.23,.89-4.47c.59-1.24,1.41-2.2,2.44-2.86s2.21-1,3.53-1c1.02,0,1.84,.17,2.46,.51,.62,.34,1.11,.73,1.46,1.18,.35,.45,.62,.84,.82,1.18h.23v-2.65h3.12v16.73c0,1.41-.33,2.56-.98,3.46-.65,.9-1.54,1.57-2.65,2-1.11,.43-2.36,.65-3.76,.65Zm-.03-9.36c.92,0,1.69-.21,2.33-.64s1.12-1.05,1.45-1.85c.33-.81,.5-1.77,.5-2.9s-.16-2.07-.49-2.91c-.33-.84-.81-1.49-1.44-1.96-.63-.47-1.41-.71-2.34-.71s-1.76,.25-2.4,.74c-.64,.49-1.12,1.16-1.44,2.01s-.49,1.79-.49,2.83,.16,2.01,.49,2.82c.33,.81,.81,1.44,1.45,1.9,.64,.45,1.44,.68,2.38,.68Z"/><path class="cls-3" d="M662.82,444.4c-1.61,0-3-.35-4.16-1.04-1.16-.69-2.06-1.67-2.69-2.93-.63-1.26-.94-2.74-.94-4.44s.31-3.15,.94-4.43c.63-1.28,1.51-2.28,2.64-2.99,1.13-.72,2.46-1.08,3.98-1.08,.92,0,1.82,.15,2.69,.46,.87,.31,1.64,.79,2.33,1.44,.69,.65,1.23,1.5,1.63,2.54,.4,1.04,.6,2.3,.6,3.79v1.13h-13.01v-2.39h9.89c0-.84-.17-1.58-.51-2.23-.34-.65-.82-1.16-1.43-1.54-.61-.38-1.33-.56-2.16-.56-.89,0-1.67,.22-2.34,.66s-1.18,1-1.53,1.7c-.36,.7-.54,1.46-.54,2.28v1.86c0,1.09,.19,2.03,.58,2.79,.39,.77,.93,1.35,1.62,1.75,.7,.4,1.51,.6,2.44,.6,.6,0,1.15-.09,1.65-.26s.93-.43,1.29-.78c.36-.35,.64-.78,.83-1.29l3.01,.54c-.24,.89-.67,1.66-1.29,2.33-.62,.66-1.4,1.18-2.33,1.54-.93,.37-2,.55-3.19,.55Z"/><path class="cls-3" d="M681.03,427.71v2.56h-8.94v-2.56h8.94Zm-6.54-3.92h3.19v15.48c0,.62,.09,1.08,.28,1.39s.42,.52,.72,.63c.29,.11,.62,.16,.96,.16,.26,0,.48-.02,.67-.05,.19-.04,.34-.06,.45-.09l.58,2.63c-.18,.07-.45,.14-.79,.22-.34,.08-.77,.12-1.28,.12-.84,.01-1.62-.13-2.34-.45-.72-.31-1.31-.79-1.76-1.45-.45-.65-.67-1.47-.67-2.46v-16.14Z"/><path class="cls-3" d="M699.38,444.4c-1.58,0-2.95-.36-4.09-1.08-1.14-.72-2.01-1.72-2.63-2.99-.61-1.27-.92-2.73-.92-4.37s.31-3.13,.94-4.4c.62-1.28,1.51-2.27,2.64-2.99,1.14-.72,2.48-1.08,4.02-1.08,1.24,0,2.35,.23,3.32,.69,.97,.46,1.76,1.1,2.36,1.92,.6,.82,.96,1.79,1.07,2.89h-3.1c-.17-.77-.56-1.43-1.17-1.98-.61-.55-1.42-.83-2.43-.83-.89,0-1.66,.23-2.33,.7-.66,.47-1.18,1.13-1.55,1.98s-.55,1.87-.55,3.03,.18,2.22,.54,3.09c.36,.87,.88,1.54,1.54,2.01,.66,.47,1.45,.71,2.35,.71,.6,0,1.15-.11,1.65-.34,.49-.22,.91-.54,1.25-.96,.34-.42,.57-.92,.71-1.51h3.1c-.11,1.06-.46,2-1.03,2.83s-1.34,1.48-2.31,1.96c-.96,.47-2.09,.71-3.38,.71Z"/><path class="cls-3" d="M716.42,444.4c-1.53,0-2.87-.35-4.02-1.05s-2.03-1.69-2.66-2.95c-.63-1.26-.95-2.74-.95-4.43s.32-3.18,.95-4.45,1.52-2.26,2.66-2.96,2.48-1.05,4.02-1.05,2.87,.35,4.02,1.05c1.14,.7,2.03,1.69,2.66,2.96s.95,2.76,.95,4.45-.32,3.17-.95,4.43c-.63,1.26-1.52,2.25-2.66,2.95-1.14,.7-2.48,1.05-4.02,1.05Zm.01-2.67c.99,0,1.82-.26,2.47-.79,.65-.53,1.14-1.22,1.45-2.1,.32-.87,.47-1.84,.47-2.89s-.16-2.01-.47-2.88c-.32-.88-.8-1.58-1.45-2.11s-1.48-.8-2.47-.8-1.83,.27-2.49,.8c-.66,.53-1.14,1.24-1.46,2.11s-.47,1.84-.47,2.88,.16,2.01,.47,2.89c.32,.87,.8,1.57,1.46,2.1,.66,.53,1.49,.79,2.49,.79Z"/><path class="cls-3" d="M727.59,444.07v-16.36h3.08v2.6h.17c.3-.88,.83-1.58,1.58-2.08,.76-.51,1.61-.76,2.57-.76,.2,0,.43,0,.71,.02,.27,.01,.49,.03,.64,.05v3.05c-.13-.04-.36-.08-.68-.12-.33-.05-.65-.07-.98-.07-.75,0-1.42,.16-2.01,.47s-1.05,.75-1.39,1.31-.51,1.19-.51,1.9v9.99h-3.19Z"/><path class="cls-3" d="M739.12,444.07v-16.36h3.08v2.6h.17c.3-.88,.83-1.58,1.58-2.08,.76-.51,1.61-.76,2.57-.76,.2,0,.43,0,.71,.02,.27,.01,.49,.03,.64,.05v3.05c-.13-.04-.36-.08-.68-.12-.33-.05-.65-.07-.98-.07-.75,0-1.42,.16-2.01,.47s-1.05,.75-1.39,1.31-.51,1.19-.51,1.9v9.99h-3.19Z"/><path class="cls-3" d="M757.11,444.4c-1.61,0-3-.35-4.16-1.04-1.16-.69-2.06-1.67-2.69-2.93-.63-1.26-.94-2.74-.94-4.44s.31-3.15,.94-4.43c.63-1.28,1.51-2.28,2.64-2.99,1.13-.72,2.46-1.08,3.98-1.08,.92,0,1.82,.15,2.69,.46,.87,.31,1.64,.79,2.33,1.44,.69,.65,1.23,1.5,1.63,2.54,.4,1.04,.6,2.3,.6,3.79v1.13h-13.01v-2.39h9.89c0-.84-.17-1.58-.51-2.23-.34-.65-.82-1.16-1.43-1.54-.61-.38-1.33-.56-2.16-.56-.89,0-1.67,.22-2.34,.66s-1.18,1-1.53,1.7c-.36,.7-.54,1.46-.54,2.28v1.86c0,1.09,.19,2.03,.58,2.79,.39,.77,.93,1.35,1.62,1.75,.7,.4,1.51,.6,2.44,.6,.6,0,1.15-.09,1.65-.26s.93-.43,1.29-.78c.36-.35,.64-.78,.83-1.29l3.01,.54c-.24,.89-.67,1.66-1.29,2.33-.62,.66-1.4,1.18-2.33,1.54-.93,.37-2,.55-3.19,.55Z"/><path class="cls-3" d="M774.57,444.4c-1.58,0-2.95-.36-4.09-1.08-1.14-.72-2.01-1.72-2.63-2.99-.61-1.27-.92-2.73-.92-4.37s.31-3.13,.94-4.4c.62-1.28,1.51-2.27,2.64-2.99,1.14-.72,2.48-1.08,4.02-1.08,1.24,0,2.35,.23,3.32,.69,.97,.46,1.76,1.1,2.36,1.92,.6,.82,.96,1.79,1.07,2.89h-3.1c-.17-.77-.56-1.43-1.17-1.98-.61-.55-1.42-.83-2.43-.83-.89,0-1.66,.23-2.33,.7-.66,.47-1.18,1.13-1.55,1.98s-.55,1.87-.55,3.03,.18,2.22,.54,3.09c.36,.87,.88,1.54,1.54,2.01,.66,.47,1.45,.71,2.35,.71,.6,0,1.15-.11,1.65-.34,.49-.22,.91-.54,1.25-.96,.34-.42,.57-.92,.71-1.51h3.1c-.11,1.06-.46,2-1.03,2.83s-1.34,1.48-2.31,1.96c-.96,.47-2.09,.71-3.38,.71Z"/><path class="cls-3" d="M792.35,427.71v2.56h-8.94v-2.56h8.94Zm-6.54-3.92h3.19v15.48c0,.62,.09,1.08,.28,1.39s.42,.52,.72,.63c.29,.11,.62,.16,.96,.16,.26,0,.48-.02,.67-.05,.19-.04,.34-.06,.45-.09l.58,2.63c-.18,.07-.45,.14-.79,.22-.34,.08-.77,.12-1.28,.12-.84,.01-1.62-.13-2.34-.45-.72-.31-1.31-.79-1.76-1.45-.45-.65-.67-1.47-.67-2.46v-16.14Z"/><path class="cls-3" d="M797.96,444.28c-.58,0-1.08-.21-1.5-.62-.42-.42-.63-.92-.63-1.51s.21-1.08,.63-1.5c.42-.41,.92-.62,1.5-.62s1.08,.21,1.5,.62c.42,.42,.63,.92,.63,1.5,0,.39-.1,.75-.29,1.07s-.45,.58-.77,.77c-.32,.19-.67,.29-1.07,.29Z"/><path class="cls-3" d="M64.95,480.07h-7.06v-21.82h7.29c2.14,0,3.97,.44,5.51,1.3,1.53,.87,2.71,2.12,3.53,3.74s1.23,3.57,1.23,5.83-.41,4.23-1.24,5.86c-.83,1.63-2.02,2.89-3.58,3.77-1.56,.88-3.45,1.32-5.67,1.32Zm-3.77-2.88h3.59c1.66,0,3.04-.31,4.14-.94,1.1-.63,1.92-1.54,2.47-2.74,.55-1.2,.82-2.66,.82-4.38s-.27-3.16-.81-4.36c-.54-1.19-1.35-2.1-2.42-2.72-1.07-.62-2.4-.93-4-.93h-3.79v16.06Z"/><path class="cls-3" d="M86.17,480.4c-1.53,0-2.87-.35-4.02-1.05s-2.03-1.69-2.66-2.95c-.63-1.26-.95-2.74-.95-4.43s.32-3.18,.95-4.45,1.52-2.26,2.66-2.96,2.48-1.05,4.02-1.05,2.87,.35,4.02,1.05c1.14,.7,2.03,1.69,2.66,2.96s.95,2.76,.95,4.45-.32,3.17-.95,4.43c-.63,1.26-1.52,2.25-2.66,2.95-1.14,.7-2.48,1.05-4.02,1.05Zm.01-2.67c.99,0,1.82-.26,2.47-.79,.65-.53,1.14-1.22,1.45-2.1,.32-.87,.47-1.84,.47-2.89s-.16-2.01-.47-2.88c-.32-.88-.8-1.58-1.45-2.11s-1.48-.8-2.47-.8-1.83,.27-2.49,.8c-.66,.53-1.14,1.24-1.46,2.11s-.47,1.84-.47,2.88,.16,2.01,.47,2.89c.32,.87,.8,1.57,1.46,2.1,.66,.53,1.49,.79,2.49,.79Z"/><path class="cls-3" d="M100.53,470.36v9.72h-3.19v-16.36h3.06v2.66h.2c.38-.87,.97-1.56,1.77-2.09,.81-.53,1.82-.79,3.05-.79,1.11,0,2.09,.23,2.93,.7,.84,.46,1.49,1.16,1.95,2.07s.69,2.05,.69,3.4v10.41h-3.19v-10.03c0-1.19-.31-2.11-.93-2.79-.62-.67-1.47-1.01-2.55-1.01-.74,0-1.39,.16-1.97,.48-.57,.32-1.02,.79-1.35,1.4-.33,.62-.5,1.36-.5,2.22Z"/><path class="cls-3" d="M118,458.25v2.04c0,.6-.11,1.24-.33,1.9s-.54,1.3-.94,1.91c-.4,.61-.88,1.14-1.43,1.58l-1.58-1.13c.42-.61,.78-1.26,1.09-1.95s.46-1.45,.46-2.28v-2.08h2.73Z"/><path class="cls-3" d="M129.35,463.71v2.56h-8.94v-2.56h8.94Zm-6.54-3.92h3.19v15.48c0,.62,.09,1.08,.28,1.39s.42,.52,.72,.63c.29,.11,.62,.16,.96,.16,.26,0,.48-.02,.67-.05,.19-.04,.34-.06,.45-.09l.58,2.63c-.18,.07-.45,.14-.79,.22-.34,.08-.77,.12-1.28,.12-.84,.01-1.62-.13-2.34-.45-.72-.31-1.31-.79-1.76-1.45-.45-.65-.67-1.47-.67-2.46v-16.14Z"/><path class="cls-3" d="M148.6,463.71v2.56h-9.25v-2.56h9.25Zm-6.71,16.36v-18.26c0-1.02,.22-1.87,.67-2.55s1.04-1.19,1.78-1.52c.74-.34,1.54-.51,2.41-.51,.64,0,1.19,.05,1.64,.15s.79,.2,1.01,.28l-.75,2.58c-.15-.04-.34-.09-.58-.15s-.52-.09-.85-.09c-.77,0-1.33,.19-1.66,.57-.33,.38-.5,.94-.5,1.66v17.83h-3.18Z"/><path class="cls-3" d="M158.12,480.4c-1.53,0-2.87-.35-4.02-1.05s-2.03-1.69-2.66-2.95c-.63-1.26-.95-2.74-.95-4.43s.32-3.18,.95-4.45,1.52-2.26,2.66-2.96,2.48-1.05,4.02-1.05,2.87,.35,4.02,1.05c1.14,.7,2.03,1.69,2.66,2.96s.95,2.76,.95,4.45-.32,3.17-.95,4.43c-.63,1.26-1.52,2.25-2.66,2.95-1.14,.7-2.48,1.05-4.02,1.05Zm.01-2.67c.99,0,1.82-.26,2.47-.79,.65-.53,1.14-1.22,1.45-2.1,.32-.87,.47-1.84,.47-2.89s-.16-2.01-.47-2.88c-.32-.88-.8-1.58-1.45-2.11s-1.48-.8-2.47-.8-1.83,.27-2.49,.8c-.66,.53-1.14,1.24-1.46,2.11s-.47,1.84-.47,2.88,.16,2.01,.47,2.89c.32,.87,.8,1.57,1.46,2.1,.66,.53,1.49,.79,2.49,.79Z"/><path class="cls-3" d="M169.3,480.07v-16.36h3.08v2.6h.17c.3-.88,.83-1.58,1.58-2.08,.76-.51,1.61-.76,2.57-.76,.2,0,.43,0,.71,.02,.27,.01,.49,.03,.64,.05v3.05c-.13-.04-.36-.08-.68-.12-.33-.05-.65-.07-.98-.07-.75,0-1.42,.16-2.01,.47s-1.05,.75-1.39,1.31-.51,1.19-.51,1.9v9.99h-3.19Z"/><path class="cls-3" d="M187.09,486.55c-1.3,0-2.42-.17-3.35-.51-.93-.34-1.7-.79-2.29-1.35-.59-.56-1.03-1.18-1.32-1.84l2.74-1.13c.19,.31,.45,.64,.77,1s.76,.65,1.32,.9c.56,.25,1.28,.37,2.16,.37,1.21,0,2.21-.29,2.99-.88,.79-.59,1.18-1.52,1.18-2.8v-3.22h-.2c-.19,.35-.47,.73-.83,1.16-.36,.43-.85,.8-1.48,1.11s-1.44,.47-2.44,.47c-1.29,0-2.46-.3-3.49-.91s-1.85-1.51-2.45-2.7c-.6-1.19-.9-2.65-.9-4.39s.3-3.23,.89-4.47c.59-1.24,1.41-2.2,2.44-2.86s2.21-1,3.53-1c1.02,0,1.84,.17,2.46,.51,.62,.34,1.11,.73,1.46,1.18,.35,.45,.62,.84,.82,1.18h.23v-2.65h3.12v16.73c0,1.41-.33,2.56-.98,3.46-.65,.9-1.54,1.57-2.65,2-1.11,.43-2.36,.65-3.76,.65Zm-.03-9.36c.92,0,1.69-.21,2.33-.64s1.12-1.05,1.45-1.85c.33-.81,.5-1.77,.5-2.9s-.16-2.07-.49-2.91c-.33-.84-.81-1.49-1.44-1.96-.63-.47-1.41-.71-2.34-.71s-1.76,.25-2.4,.74c-.64,.49-1.12,1.16-1.44,2.01s-.49,1.79-.49,2.83,.16,2.01,.49,2.82c.33,.81,.81,1.44,1.45,1.9,.64,.45,1.44,.68,2.38,.68Z"/><path class="cls-3" d="M205.8,480.4c-1.61,0-3-.35-4.16-1.04-1.16-.69-2.06-1.67-2.69-2.93-.63-1.26-.94-2.74-.94-4.44s.31-3.15,.94-4.43c.63-1.28,1.51-2.28,2.64-2.99,1.13-.72,2.46-1.08,3.98-1.08,.92,0,1.82,.15,2.69,.46,.87,.31,1.64,.79,2.33,1.44,.69,.65,1.23,1.5,1.63,2.54,.4,1.04,.6,2.3,.6,3.79v1.13h-13.01v-2.39h9.89c0-.84-.17-1.58-.51-2.23-.34-.65-.82-1.16-1.43-1.54-.61-.38-1.33-.56-2.16-.56-.89,0-1.67,.22-2.34,.66s-1.18,1-1.53,1.7c-.36,.7-.54,1.46-.54,2.28v1.86c0,1.09,.19,2.03,.58,2.79,.39,.77,.93,1.35,1.62,1.75,.7,.4,1.51,.6,2.44,.6,.6,0,1.15-.09,1.65-.26s.93-.43,1.29-.78c.36-.35,.64-.78,.83-1.29l3.01,.54c-.24,.89-.67,1.66-1.29,2.33-.62,.66-1.4,1.18-2.33,1.54-.93,.37-2,.55-3.19,.55Z"/><path class="cls-3" d="M224.01,463.71v2.56h-8.94v-2.56h8.94Zm-6.54-3.92h3.19v15.48c0,.62,.09,1.08,.28,1.39s.42,.52,.72,.63c.29,.11,.62,.16,.96,.16,.26,0,.48-.02,.67-.05,.19-.04,.34-.06,.45-.09l.58,2.63c-.18,.07-.45,.14-.79,.22-.34,.08-.77,.12-1.28,.12-.84,.01-1.62-.13-2.34-.45-.72-.31-1.31-.79-1.76-1.45-.45-.65-.67-1.47-.67-2.46v-16.14Z"/><path class="cls-3" d="M243.11,463.71v2.56h-8.94v-2.56h8.94Zm-6.54-3.92h3.19v15.48c0,.62,.09,1.08,.28,1.39s.42,.52,.72,.63c.29,.11,.62,.16,.96,.16,.26,0,.48-.02,.67-.05,.19-.04,.34-.06,.45-.09l.58,2.63c-.18,.07-.45,.14-.79,.22-.34,.08-.77,.12-1.28,.12-.84,.01-1.62-.13-2.34-.45-.72-.31-1.31-.79-1.76-1.45-.45-.65-.67-1.47-.67-2.46v-16.14Z"/><path class="cls-3" d="M253.35,480.4c-1.53,0-2.87-.35-4.02-1.05s-2.03-1.69-2.66-2.95c-.63-1.26-.95-2.74-.95-4.43s.32-3.18,.95-4.45,1.52-2.26,2.66-2.96,2.48-1.05,4.02-1.05,2.87,.35,4.02,1.05c1.14,.7,2.03,1.69,2.66,2.96s.95,2.76,.95,4.45-.32,3.17-.95,4.43c-.63,1.26-1.52,2.25-2.66,2.95-1.14,.7-2.48,1.05-4.02,1.05Zm.01-2.67c.99,0,1.82-.26,2.47-.79,.65-.53,1.14-1.22,1.45-2.1,.32-.87,.47-1.84,.47-2.89s-.16-2.01-.47-2.88c-.32-.88-.8-1.58-1.45-2.11s-1.48-.8-2.47-.8-1.83,.27-2.49,.8c-.66,.53-1.14,1.24-1.46,2.11s-.47,1.84-.47,2.88,.16,2.01,.47,2.89c.32,.87,.8,1.57,1.46,2.1,.66,.53,1.49,.79,2.49,.79Z"/><path class="cls-3" d="M275.66,470.36v9.72h-3.19v-21.82h3.14v8.12h.2c.38-.88,.97-1.58,1.76-2.1s1.82-.78,3.09-.78c1.12,0,2.1,.23,2.95,.69,.84,.46,1.5,1.15,1.96,2.06,.47,.91,.7,2.05,.7,3.41v10.41h-3.19v-10.03c0-1.2-.31-2.13-.93-2.8s-1.48-1-2.58-1c-.75,0-1.43,.16-2.02,.48-.59,.32-1.06,.79-1.4,1.4-.34,.62-.51,1.36-.51,2.22Z"/><path class="cls-3" d="M297.42,480.4c-1.53,0-2.87-.35-4.02-1.05s-2.03-1.69-2.66-2.95c-.63-1.26-.95-2.74-.95-4.43s.32-3.18,.95-4.45,1.52-2.26,2.66-2.96,2.48-1.05,4.02-1.05,2.87,.35,4.02,1.05c1.14,.7,2.03,1.69,2.66,2.96s.95,2.76,.95,4.45-.32,3.17-.95,4.43c-.63,1.26-1.52,2.25-2.66,2.95-1.14,.7-2.48,1.05-4.02,1.05Zm.01-2.67c.99,0,1.82-.26,2.47-.79,.65-.53,1.14-1.22,1.45-2.1,.32-.87,.47-1.84,.47-2.89s-.16-2.01-.47-2.88c-.32-.88-.8-1.58-1.45-2.11s-1.48-.8-2.47-.8-1.83,.27-2.49,.8c-.66,.53-1.14,1.24-1.46,2.11s-.47,1.84-.47,2.88,.16,2.01,.47,2.89c.32,.87,.8,1.57,1.46,2.1,.66,.53,1.49,.79,2.49,.79Z"/><path class="cls-3" d="M308.6,486.21v-22.5h3.11v2.65h.27c.18-.34,.45-.73,.8-1.18,.35-.45,.83-.84,1.45-1.18,.62-.34,1.43-.51,2.45-.51,1.32,0,2.5,.33,3.54,1,1.04,.67,1.85,1.63,2.44,2.89,.59,1.26,.89,2.77,.89,4.54s-.29,3.28-.88,4.54c-.59,1.26-1.4,2.23-2.43,2.91-1.03,.68-2.21,1.02-3.53,1.02-1,0-1.81-.17-2.43-.5-.63-.33-1.12-.72-1.48-1.17-.36-.45-.63-.84-.82-1.19h-.19v8.68h-3.19Zm3.12-14.32c0,1.15,.17,2.16,.5,3.03,.33,.87,.82,1.54,1.45,2.03,.63,.49,1.41,.73,2.32,.73s1.75-.25,2.39-.76c.64-.51,1.12-1.2,1.45-2.07,.33-.87,.5-1.86,.5-2.95s-.16-2.05-.49-2.91-.81-1.54-1.45-2.04c-.64-.5-1.44-.75-2.4-.75s-1.7,.24-2.34,.71c-.64,.47-1.12,1.14-1.44,1.99-.33,.85-.49,1.85-.49,2.98Z"/><path class="cls-3" d="M341.95,480.4c-1.53,0-2.87-.35-4.02-1.05s-2.03-1.69-2.66-2.95c-.63-1.26-.95-2.74-.95-4.43s.32-3.18,.95-4.45,1.52-2.26,2.66-2.96,2.48-1.05,4.02-1.05,2.87,.35,4.02,1.05c1.14,.7,2.03,1.69,2.66,2.96s.95,2.76,.95,4.45-.32,3.17-.95,4.43c-.63,1.26-1.52,2.25-2.66,2.95-1.14,.7-2.48,1.05-4.02,1.05Zm.01-2.67c.99,0,1.82-.26,2.47-.79,.65-.53,1.14-1.22,1.45-2.1,.32-.87,.47-1.84,.47-2.89s-.16-2.01-.47-2.88c-.32-.88-.8-1.58-1.45-2.11s-1.48-.8-2.47-.8-1.83,.27-2.49,.8c-.66,.53-1.14,1.24-1.46,2.11s-.47,1.84-.47,2.88,.16,2.01,.47,2.89c.32,.87,.8,1.57,1.46,2.1,.66,.53,1.49,.79,2.49,.79Z"/><path class="cls-3" d="M356.31,470.36v9.72h-3.19v-16.36h3.06v2.66h.2c.38-.87,.97-1.56,1.77-2.09,.81-.53,1.82-.79,3.05-.79,1.11,0,2.09,.23,2.93,.7,.84,.46,1.49,1.16,1.95,2.07s.69,2.05,.69,3.4v10.41h-3.19v-10.03c0-1.19-.31-2.11-.93-2.79-.62-.67-1.47-1.01-2.55-1.01-.74,0-1.39,.16-1.97,.48-.57,.32-1.02,.79-1.35,1.4-.33,.62-.5,1.36-.5,2.22Z"/><path class="cls-3" d="M386.63,463.71v2.56h-8.94v-2.56h8.94Zm-6.54-3.92h3.19v15.48c0,.62,.09,1.08,.28,1.39s.42,.52,.72,.63c.29,.11,.62,.16,.96,.16,.26,0,.48-.02,.67-.05,.19-.04,.34-.06,.45-.09l.58,2.63c-.18,.07-.45,.14-.79,.22-.34,.08-.77,.12-1.28,.12-.84,.01-1.62-.13-2.34-.45-.72-.31-1.31-.79-1.76-1.45-.45-.65-.67-1.47-.67-2.46v-16.14Z"/><path class="cls-3" d="M393.67,470.36v9.72h-3.19v-21.82h3.14v8.12h.2c.38-.88,.97-1.58,1.76-2.1s1.82-.78,3.09-.78c1.12,0,2.1,.23,2.95,.69,.84,.46,1.5,1.15,1.96,2.06,.47,.91,.7,2.05,.7,3.41v10.41h-3.19v-10.03c0-1.2-.31-2.13-.93-2.8s-1.48-1-2.58-1c-.75,0-1.43,.16-2.02,.48-.59,.32-1.06,.79-1.4,1.4-.34,.62-.51,1.36-.51,2.22Z"/><path class="cls-3" d="M415.6,480.4c-1.61,0-3-.35-4.16-1.04-1.16-.69-2.06-1.67-2.69-2.93-.63-1.26-.94-2.74-.94-4.44s.31-3.15,.94-4.43c.63-1.28,1.51-2.28,2.64-2.99,1.13-.72,2.46-1.08,3.98-1.08,.92,0,1.82,.15,2.69,.46,.87,.31,1.64,.79,2.33,1.44,.69,.65,1.23,1.5,1.63,2.54,.4,1.04,.6,2.3,.6,3.79v1.13h-13.01v-2.39h9.89c0-.84-.17-1.58-.51-2.23-.34-.65-.82-1.16-1.43-1.54-.61-.38-1.33-.56-2.16-.56-.89,0-1.67,.22-2.34,.66s-1.18,1-1.53,1.7c-.36,.7-.54,1.46-.54,2.28v1.86c0,1.09,.19,2.03,.58,2.79,.39,.77,.93,1.35,1.62,1.75,.7,.4,1.51,.6,2.44,.6,.6,0,1.15-.09,1.65-.26s.93-.43,1.29-.78c.36-.35,.64-.78,.83-1.29l3.01,.54c-.24,.89-.67,1.66-1.29,2.33-.62,.66-1.4,1.18-2.33,1.54-.93,.37-2,.55-3.19,.55Z"/><path class="cls-3" d="M446.38,467.7l-2.89,.51c-.12-.37-.31-.72-.57-1.05s-.61-.61-1.05-.82c-.44-.21-.99-.32-1.65-.32-.9,0-1.66,.2-2.26,.6-.6,.4-.91,.92-.91,1.55,0,.55,.2,.99,.61,1.32,.41,.33,1.06,.61,1.96,.82l2.6,.6c1.5,.35,2.63,.88,3.37,1.61,.74,.72,1.11,1.67,1.11,2.82,0,.98-.28,1.85-.85,2.62-.56,.76-1.35,1.36-2.35,1.79-1,.43-2.17,.65-3.49,.65-1.83,0-3.33-.39-4.48-1.18-1.16-.78-1.87-1.9-2.13-3.35l3.08-.47c.19,.8,.59,1.41,1.18,1.82,.6,.41,1.37,.61,2.33,.61,1.04,0,1.88-.22,2.5-.66,.62-.44,.94-.97,.94-1.6,0-.51-.19-.94-.57-1.29-.38-.35-.96-.61-1.74-.79l-2.77-.61c-1.53-.35-2.66-.9-3.38-1.66-.73-.76-1.09-1.72-1.09-2.89,0-.97,.27-1.81,.81-2.54,.54-.72,1.29-1.29,2.24-1.7,.95-.41,2.04-.61,3.27-.61,1.77,0,3.16,.38,4.18,1.14s1.69,1.79,2.01,3.06Z"/><path class="cls-3" d="M457.08,480.4c-1.53,0-2.87-.35-4.02-1.05s-2.03-1.69-2.66-2.95c-.63-1.26-.95-2.74-.95-4.43s.32-3.18,.95-4.45,1.52-2.26,2.66-2.96,2.48-1.05,4.02-1.05,2.87,.35,4.02,1.05c1.14,.7,2.03,1.69,2.66,2.96s.95,2.76,.95,4.45-.32,3.17-.95,4.43c-.63,1.26-1.52,2.25-2.66,2.95-1.14,.7-2.48,1.05-4.02,1.05Zm.01-2.67c.99,0,1.82-.26,2.47-.79,.65-.53,1.14-1.22,1.45-2.1,.32-.87,.47-1.84,.47-2.89s-.16-2.01-.47-2.88c-.32-.88-.8-1.58-1.45-2.11s-1.48-.8-2.47-.8-1.83,.27-2.49,.8c-.66,.53-1.14,1.24-1.46,2.11s-.47,1.84-.47,2.88,.16,2.01,.47,2.89c.32,.87,.8,1.57,1.46,2.1,.66,.53,1.49,.79,2.49,.79Z"/><path class="cls-3" d="M475.15,480.4c-1.58,0-2.95-.36-4.09-1.08-1.14-.72-2.01-1.72-2.63-2.99-.61-1.27-.92-2.73-.92-4.37s.31-3.13,.94-4.4c.62-1.28,1.51-2.27,2.64-2.99,1.14-.72,2.48-1.08,4.02-1.08,1.24,0,2.35,.23,3.32,.69,.97,.46,1.76,1.1,2.36,1.92,.6,.82,.96,1.79,1.07,2.89h-3.1c-.17-.77-.56-1.43-1.17-1.98-.61-.55-1.42-.83-2.43-.83-.89,0-1.66,.23-2.33,.7-.66,.47-1.18,1.13-1.55,1.98s-.55,1.87-.55,3.03,.18,2.22,.54,3.09c.36,.87,.88,1.54,1.54,2.01,.66,.47,1.45,.71,2.35,.71,.6,0,1.15-.11,1.65-.34,.49-.22,.91-.54,1.25-.96,.34-.42,.57-.92,.71-1.51h3.1c-.11,1.06-.46,2-1.03,2.83s-1.34,1.48-2.31,1.96c-.96,.47-2.09,.71-3.38,.71Z"/><path class="cls-3" d="M486.9,461.18c-.55,0-1.03-.19-1.42-.56-.39-.37-.59-.82-.59-1.34s.2-.97,.59-1.35c.39-.37,.87-.56,1.42-.56s1.03,.19,1.42,.56c.39,.37,.59,.82,.59,1.34s-.2,.97-.59,1.35c-.39,.37-.87,.56-1.42,.56Zm-1.61,18.89v-16.36h3.19v16.36h-3.19Z"/><path class="cls-3" d="M497.52,480.43c-1.04,0-1.97-.19-2.81-.58s-1.5-.95-1.99-1.69c-.49-.74-.73-1.64-.73-2.72,0-.92,.18-1.68,.53-2.28,.35-.6,.83-1.07,1.44-1.42,.6-.35,1.28-.61,2.02-.79,.75-.18,1.51-.31,2.28-.4,.98-.11,1.78-.21,2.39-.28,.61-.08,1.05-.2,1.33-.37,.28-.17,.42-.45,.42-.83v-.07c0-.93-.26-1.65-.78-2.16-.52-.51-1.3-.77-2.33-.77s-1.92,.24-2.53,.71-1.04,1-1.27,1.57l-2.99-.68c.36-.99,.88-1.8,1.56-2.41s1.48-1.06,2.37-1.34c.9-.28,1.84-.42,2.82-.42,.65,0,1.35,.08,2.08,.23s1.42,.43,2.07,.84c.64,.41,1.17,.98,1.58,1.73,.41,.75,.62,1.72,.62,2.91v10.87h-3.11v-2.24h-.13c-.21,.41-.52,.82-.93,1.21-.41,.4-.94,.73-1.59,.99-.65,.26-1.42,.39-2.32,.39Zm.69-2.56c.88,0,1.64-.17,2.26-.52,.63-.35,1.11-.8,1.44-1.37s.5-1.17,.5-1.82v-2.11c-.11,.11-.33,.22-.66,.31s-.69,.18-1.1,.25-.81,.13-1.2,.18c-.39,.05-.72,.1-.98,.13-.62,.08-1.18,.21-1.69,.39-.51,.19-.91,.45-1.21,.79-.3,.34-.45,.8-.45,1.37,0,.79,.29,1.38,.87,1.78,.58,.4,1.32,.6,2.23,.6Z"/><path class="cls-3" d="M513.02,458.25v21.82h-3.19v-21.82h3.19Z"/><path class="cls-3" d="M529.57,467.7l-2.89,.51c-.12-.37-.31-.72-.57-1.05s-.61-.61-1.05-.82c-.44-.21-.99-.32-1.65-.32-.9,0-1.66,.2-2.26,.6-.6,.4-.91,.92-.91,1.55,0,.55,.2,.99,.61,1.32,.41,.33,1.06,.61,1.96,.82l2.6,.6c1.5,.35,2.63,.88,3.37,1.61,.74,.72,1.11,1.67,1.11,2.82,0,.98-.28,1.85-.85,2.62-.56,.76-1.35,1.36-2.35,1.79-1,.43-2.17,.65-3.49,.65-1.83,0-3.33-.39-4.48-1.18-1.16-.78-1.87-1.9-2.13-3.35l3.08-.47c.19,.8,.59,1.41,1.18,1.82,.6,.41,1.37,.61,2.33,.61,1.04,0,1.88-.22,2.5-.66,.62-.44,.94-.97,.94-1.6,0-.51-.19-.94-.57-1.29-.38-.35-.96-.61-1.74-.79l-2.77-.61c-1.53-.35-2.66-.9-3.38-1.66-.73-.76-1.09-1.72-1.09-2.89,0-.97,.27-1.81,.81-2.54,.54-.72,1.29-1.29,2.24-1.7,.95-.41,2.04-.61,3.27-.61,1.77,0,3.16,.38,4.18,1.14s1.69,1.79,2.01,3.06Z"/><path class="cls-3" d="M546.09,480.43c-1.04,0-1.97-.19-2.81-.58s-1.5-.95-1.99-1.69c-.49-.74-.73-1.64-.73-2.72,0-.92,.18-1.68,.53-2.28,.35-.6,.83-1.07,1.44-1.42,.6-.35,1.28-.61,2.02-.79,.75-.18,1.51-.31,2.28-.4,.98-.11,1.78-.21,2.39-.28,.61-.08,1.05-.2,1.33-.37,.28-.17,.42-.45,.42-.83v-.07c0-.93-.26-1.65-.78-2.16-.52-.51-1.3-.77-2.33-.77s-1.92,.24-2.53,.71-1.04,1-1.27,1.57l-2.99-.68c.36-.99,.88-1.8,1.56-2.41s1.48-1.06,2.37-1.34c.9-.28,1.84-.42,2.82-.42,.65,0,1.35,.08,2.08,.23s1.42,.43,2.07,.84c.64,.41,1.17,.98,1.58,1.73,.41,.75,.62,1.72,.62,2.91v10.87h-3.11v-2.24h-.13c-.21,.41-.52,.82-.93,1.21-.41,.4-.94,.73-1.59,.99-.65,.26-1.42,.39-2.32,.39Zm.69-2.56c.88,0,1.64-.17,2.26-.52,.63-.35,1.11-.8,1.44-1.37s.5-1.17,.5-1.82v-2.11c-.11,.11-.33,.22-.66,.31s-.69,.18-1.1,.25-.81,.13-1.2,.18c-.39,.05-.72,.1-.98,.13-.62,.08-1.18,.21-1.69,.39-.51,.19-.91,.45-1.21,.79-.3,.34-.45,.8-.45,1.37,0,.79,.29,1.38,.87,1.78,.58,.4,1.32,.6,2.23,.6Z"/><path class="cls-3" d="M561.59,470.36v9.72h-3.19v-16.36h3.06v2.66h.2c.38-.87,.97-1.56,1.77-2.09,.81-.53,1.82-.79,3.05-.79,1.11,0,2.09,.23,2.93,.7,.84,.46,1.49,1.16,1.95,2.07s.69,2.05,.69,3.4v10.41h-3.19v-10.03c0-1.19-.31-2.11-.93-2.79-.62-.67-1.47-1.01-2.55-1.01-.74,0-1.39,.16-1.97,.48-.57,.32-1.02,.79-1.35,1.4-.33,.62-.5,1.36-.5,2.22Z"/><path class="cls-3" d="M582.45,480.39c-1.32,0-2.5-.34-3.53-1.02-1.03-.68-1.84-1.65-2.43-2.91-.59-1.26-.88-2.78-.88-4.54s.3-3.28,.89-4.54c.59-1.26,1.41-2.22,2.44-2.89s2.21-1,3.53-1c1.02,0,1.83,.17,2.46,.51,.62,.34,1.1,.73,1.45,1.18,.34,.45,.61,.84,.8,1.18h.19v-8.11h3.19v21.82h-3.11v-2.55h-.27c-.19,.35-.47,.75-.83,1.19-.36,.45-.85,.84-1.48,1.17-.62,.33-1.43,.5-2.43,.5Zm.7-2.72c.92,0,1.69-.24,2.33-.73s1.12-1.16,1.45-2.03c.33-.87,.5-1.88,.5-3.03s-.16-2.13-.49-2.98c-.33-.85-.81-1.52-1.44-1.99-.63-.48-1.41-.71-2.34-.71s-1.76,.25-2.4,.75c-.64,.5-1.12,1.18-1.44,2.04s-.49,1.83-.49,2.91,.16,2.08,.49,2.95c.33,.87,.81,1.56,1.45,2.07s1.44,.76,2.38,.76Z"/><path class="cls-3" d="M606.23,458.25v21.82h-3.19v-21.82h3.19Z"/><path class="cls-3" d="M617.56,480.4c-1.61,0-3-.35-4.16-1.04-1.16-.69-2.06-1.67-2.69-2.93-.63-1.26-.94-2.74-.94-4.44s.31-3.15,.94-4.43c.63-1.28,1.51-2.28,2.64-2.99,1.13-.72,2.46-1.08,3.98-1.08,.92,0,1.82,.15,2.69,.46,.87,.31,1.64,.79,2.33,1.44,.69,.65,1.23,1.5,1.63,2.54,.4,1.04,.6,2.3,.6,3.79v1.13h-13.01v-2.39h9.89c0-.84-.17-1.58-.51-2.23-.34-.65-.82-1.16-1.43-1.54-.61-.38-1.33-.56-2.16-.56-.89,0-1.67,.22-2.34,.66s-1.18,1-1.53,1.7c-.36,.7-.54,1.46-.54,2.28v1.86c0,1.09,.19,2.03,.58,2.79,.39,.77,.93,1.35,1.62,1.75,.7,.4,1.51,.6,2.44,.6,.6,0,1.15-.09,1.65-.26s.93-.43,1.29-.78c.36-.35,.64-.78,.83-1.29l3.01,.54c-.24,.89-.67,1.66-1.29,2.33-.62,.66-1.4,1.18-2.33,1.54-.93,.37-2,.55-3.19,.55Z"/><path class="cls-3" d="M635.77,463.71v2.56h-8.94v-2.56h8.94Zm-6.54-3.92h3.19v15.48c0,.62,.09,1.08,.28,1.39s.42,.52,.72,.63c.29,.11,.62,.16,.96,.16,.26,0,.48-.02,.67-.05,.19-.04,.34-.06,.45-.09l.58,2.63c-.18,.07-.45,.14-.79,.22-.34,.08-.77,.12-1.28,.12-.84,.01-1.62-.13-2.34-.45-.72-.31-1.31-.79-1.76-1.45-.45-.65-.67-1.47-.67-2.46v-16.14Z"/><path class="cls-3" d="M649.25,486.21c-.48,0-.91-.04-1.3-.11s-.68-.15-.87-.24l.77-2.61c.58,.16,1.1,.22,1.55,.2,.46-.02,.86-.19,1.21-.51,.35-.32,.66-.84,.93-1.57l.39-1.09-5.99-16.58h3.41l4.14,12.7h.17l4.14-12.7h3.42l-6.74,18.55c-.31,.85-.71,1.58-1.19,2.17-.48,.59-1.06,1.04-1.73,1.34-.67,.3-1.44,.45-2.32,.45Z"/><path class="cls-3" d="M670.54,480.4c-1.53,0-2.87-.35-4.02-1.05s-2.03-1.69-2.66-2.95c-.63-1.26-.95-2.74-.95-4.43s.32-3.18,.95-4.45,1.52-2.26,2.66-2.96,2.48-1.05,4.02-1.05,2.87,.35,4.02,1.05c1.14,.7,2.03,1.69,2.66,2.96s.95,2.76,.95,4.45-.32,3.17-.95,4.43c-.63,1.26-1.52,2.25-2.66,2.95-1.14,.7-2.48,1.05-4.02,1.05Zm.01-2.67c.99,0,1.82-.26,2.47-.79,.65-.53,1.14-1.22,1.45-2.1,.32-.87,.47-1.84,.47-2.89s-.16-2.01-.47-2.88c-.32-.88-.8-1.58-1.45-2.11s-1.48-.8-2.47-.8-1.83,.27-2.49,.8c-.66,.53-1.14,1.24-1.46,2.11s-.47,1.84-.47,2.88,.16,2.01,.47,2.89c.32,.87,.8,1.57,1.46,2.1,.66,.53,1.49,.79,2.49,.79Z"/><path class="cls-3" d="M692.09,473.29v-9.58h3.2v16.36h-3.13v-2.83h-.17c-.38,.87-.98,1.6-1.81,2.18s-1.86,.87-3.08,.87c-1.05,0-1.98-.23-2.79-.7-.81-.46-1.44-1.16-1.9-2.07s-.69-2.05-.69-3.4v-10.41h3.19v10.02c0,1.12,.31,2,.93,2.66,.62,.66,1.42,.99,2.41,.99,.6,0,1.19-.15,1.78-.45,.59-.3,1.09-.75,1.48-1.35,.39-.6,.59-1.37,.58-2.3Z"/><path class="cls-3" d="M699.55,480.07v-16.36h3.08v2.6h.17c.3-.88,.83-1.58,1.58-2.08,.76-.51,1.61-.76,2.57-.76,.2,0,.43,0,.71,.02,.27,.01,.49,.03,.64,.05v3.05c-.13-.04-.36-.08-.68-.12-.33-.05-.65-.07-.98-.07-.75,0-1.42,.16-2.01,.47s-1.05,.75-1.39,1.31-.51,1.19-.51,1.9v9.99h-3.19Z"/><path class="cls-3" d="M722.21,470.36v9.72h-3.19v-21.82h3.14v8.12h.2c.38-.88,.97-1.58,1.76-2.1s1.82-.78,3.09-.78c1.12,0,2.1,.23,2.95,.69,.84,.46,1.5,1.15,1.96,2.06,.47,.91,.7,2.05,.7,3.41v10.41h-3.19v-10.03c0-1.2-.31-2.13-.93-2.8s-1.48-1-2.58-1c-.75,0-1.43,.16-2.02,.48-.59,.32-1.06,.79-1.4,1.4-.34,.62-.51,1.36-.51,2.22Z"/><path class="cls-3" d="M743.98,480.4c-1.53,0-2.87-.35-4.02-1.05s-2.03-1.69-2.66-2.95c-.63-1.26-.95-2.74-.95-4.43s.32-3.18,.95-4.45,1.52-2.26,2.66-2.96,2.48-1.05,4.02-1.05,2.87,.35,4.02,1.05c1.14,.7,2.03,1.69,2.66,2.96s.95,2.76,.95,4.45-.32,3.17-.95,4.43c-.63,1.26-1.52,2.25-2.66,2.95-1.14,.7-2.48,1.05-4.02,1.05Zm.01-2.67c.99,0,1.82-.26,2.47-.79,.65-.53,1.14-1.22,1.45-2.1,.32-.87,.47-1.84,.47-2.89s-.16-2.01-.47-2.88c-.32-.88-.8-1.58-1.45-2.11s-1.48-.8-2.47-.8-1.83,.27-2.49,.8c-.66,.53-1.14,1.24-1.46,2.11s-.47,1.84-.47,2.88,.16,2.01,.47,2.89c.32,.87,.8,1.57,1.46,2.1,.66,.53,1.49,.79,2.49,.79Z"/><path class="cls-3" d="M755.16,480.07v-16.36h3.06v2.66h.2c.34-.9,.9-1.61,1.67-2.11,.77-.51,1.7-.76,2.78-.76s2.01,.26,2.75,.77,1.29,1.21,1.65,2.11h.17c.39-.87,1.01-1.57,1.86-2.09,.85-.52,1.87-.78,3.05-.78,1.48,0,2.7,.46,3.64,1.39,.94,.93,1.41,2.33,1.41,4.21v10.97h-3.19v-10.67c0-1.11-.3-1.91-.91-2.41-.6-.5-1.33-.75-2.16-.75-1.04,0-1.84,.32-2.42,.95-.58,.64-.86,1.45-.86,2.45v10.43h-3.17v-10.88c0-.89-.28-1.6-.83-2.14-.55-.54-1.27-.81-2.16-.81-.6,0-1.16,.16-1.67,.47-.51,.32-.92,.75-1.23,1.31-.31,.56-.46,1.21-.46,1.95v10.09h-3.19Z"/><path class="cls-3" d="M783.27,461.18c-.55,0-1.03-.19-1.42-.56-.39-.37-.59-.82-.59-1.34s.2-.97,.59-1.35c.39-.37,.87-.56,1.42-.56s1.03,.19,1.42,.56c.39,.37,.59,.82,.59,1.34s-.2,.97-.59,1.35c-.39,.37-.87,.56-1.42,.56Zm-1.61,18.89v-16.36h3.19v16.36h-3.19Z"/><path class="cls-3" d="M796.18,480.4c-1.61,0-3-.35-4.16-1.04-1.16-.69-2.06-1.67-2.69-2.93-.63-1.26-.94-2.74-.94-4.44s.31-3.15,.94-4.43c.63-1.28,1.51-2.28,2.64-2.99,1.13-.72,2.46-1.08,3.98-1.08,.92,0,1.82,.15,2.69,.46,.87,.31,1.64,.79,2.33,1.44,.69,.65,1.23,1.5,1.63,2.54,.4,1.04,.6,2.3,.6,3.79v1.13h-13.01v-2.39h9.89c0-.84-.17-1.58-.51-2.23-.34-.65-.82-1.16-1.43-1.54-.61-.38-1.33-.56-2.16-.56-.89,0-1.67,.22-2.34,.66s-1.18,1-1.53,1.7c-.36,.7-.54,1.46-.54,2.28v1.86c0,1.09,.19,2.03,.58,2.79,.39,.77,.93,1.35,1.62,1.75,.7,.4,1.51,.6,2.44,.6,.6,0,1.15-.09,1.65-.26s.93-.43,1.29-.78c.36-.35,.64-.78,.83-1.29l3.01,.54c-.24,.89-.67,1.66-1.29,2.33-.62,.66-1.4,1.18-2.33,1.54-.93,.37-2,.55-3.19,.55Z"/><path class="cls-3" d="M819.01,467.7l-2.89,.51c-.12-.37-.31-.72-.57-1.05s-.61-.61-1.05-.82c-.44-.21-.99-.32-1.65-.32-.9,0-1.66,.2-2.26,.6-.6,.4-.91,.92-.91,1.55,0,.55,.2,.99,.61,1.32,.41,.33,1.06,.61,1.96,.82l2.6,.6c1.5,.35,2.63,.88,3.37,1.61,.74,.72,1.11,1.67,1.11,2.82,0,.98-.28,1.85-.85,2.62-.56,.76-1.35,1.36-2.35,1.79-1,.43-2.17,.65-3.49,.65-1.83,0-3.33-.39-4.48-1.18-1.16-.78-1.87-1.9-2.13-3.35l3.08-.47c.19,.8,.59,1.41,1.18,1.82,.6,.41,1.37,.61,2.33,.61,1.04,0,1.88-.22,2.5-.66,.62-.44,.94-.97,.94-1.6,0-.51-.19-.94-.57-1.29-.38-.35-.96-.61-1.74-.79l-2.77-.61c-1.53-.35-2.66-.9-3.38-1.66-.73-.76-1.09-1.72-1.09-2.89,0-.97,.27-1.81,.81-2.54,.54-.72,1.29-1.29,2.24-1.7,.95-.41,2.04-.61,3.27-.61,1.77,0,3.16,.38,4.18,1.14s1.69,1.79,2.01,3.06Z"/><path class="cls-3" d="M57.63,516.07v-21.82h3.19v21.82h-3.19Zm2.93-5.55l-.02-3.89h.55l6.52-6.92h3.81l-7.44,7.88h-.5l-2.93,2.93Zm7.4,5.55l-5.86-7.78,2.19-2.23,7.57,10h-3.91Z"/><path class="cls-3" d="M77.51,506.36v9.72h-3.19v-16.36h3.06v2.66h.2c.38-.87,.97-1.56,1.77-2.09,.81-.53,1.82-.79,3.05-.79,1.11,0,2.09,.23,2.93,.7,.84,.46,1.49,1.16,1.95,2.07s.69,2.05,.69,3.4v10.41h-3.19v-10.03c0-1.19-.31-2.11-.93-2.79-.62-.67-1.47-1.01-2.55-1.01-.74,0-1.39,.16-1.97,.48-.57,.32-1.02,.79-1.35,1.4-.33,.62-.5,1.36-.5,2.22Z"/><path class="cls-3" d="M99.14,516.4c-1.53,0-2.87-.35-4.02-1.05s-2.03-1.69-2.66-2.95c-.63-1.26-.95-2.74-.95-4.43s.32-3.18,.95-4.45,1.52-2.26,2.66-2.96,2.48-1.05,4.02-1.05,2.87,.35,4.02,1.05c1.14,.7,2.03,1.69,2.66,2.96s.95,2.76,.95,4.45-.32,3.17-.95,4.43c-.63,1.26-1.52,2.25-2.66,2.95-1.14,.7-2.48,1.05-4.02,1.05Zm.01-2.67c.99,0,1.82-.26,2.47-.79,.65-.53,1.14-1.22,1.45-2.1,.32-.87,.47-1.84,.47-2.89s-.16-2.01-.47-2.88c-.32-.88-.8-1.58-1.45-2.11s-1.48-.8-2.47-.8-1.83,.27-2.49,.8c-.66,.53-1.14,1.24-1.46,2.11s-.47,1.84-.47,2.88,.16,2.01,.47,2.89c.32,.87,.8,1.57,1.46,2.1,.66,.53,1.49,.79,2.49,.79Z"/><path class="cls-3" d="M113.36,516.07l-4.81-16.36h3.29l3.21,12.02h.16l3.22-12.02h3.29l3.2,11.96h.16l3.18-11.96h3.29l-4.8,16.36h-3.25l-3.32-11.81h-.25l-3.32,11.81h-3.24Z"/><path class="cls-3" d="M146.05,516.07l-4.81-16.36h3.29l3.21,12.02h.16l3.22-12.02h3.29l3.2,11.96h.16l3.18-11.96h3.29l-4.8,16.36h-3.25l-3.32-11.81h-.25l-3.32,11.81h-3.24Z"/><path class="cls-3" d="M170.44,506.36v9.72h-3.19v-21.82h3.14v8.12h.2c.38-.88,.97-1.58,1.76-2.1s1.82-.78,3.09-.78c1.12,0,2.1,.23,2.95,.69,.84,.46,1.5,1.15,1.96,2.06,.47,.91,.7,2.05,.7,3.41v10.41h-3.19v-10.03c0-1.2-.31-2.13-.93-2.8s-1.48-1-2.58-1c-.75,0-1.43,.16-2.02,.48-.59,.32-1.06,.79-1.4,1.4-.34,.62-.51,1.36-.51,2.22Z"/><path class="cls-3" d="M190.08,516.43c-1.04,0-1.97-.19-2.81-.58s-1.5-.95-1.99-1.69c-.49-.74-.73-1.64-.73-2.72,0-.92,.18-1.68,.53-2.28,.35-.6,.83-1.07,1.44-1.42,.6-.35,1.28-.61,2.02-.79,.75-.18,1.51-.31,2.28-.4,.98-.11,1.78-.21,2.39-.28,.61-.08,1.05-.2,1.33-.37,.28-.17,.42-.45,.42-.83v-.07c0-.93-.26-1.65-.78-2.16-.52-.51-1.3-.77-2.33-.77s-1.92,.24-2.53,.71-1.04,1-1.27,1.57l-2.99-.68c.36-.99,.88-1.8,1.56-2.41s1.48-1.06,2.37-1.34c.9-.28,1.84-.42,2.82-.42,.65,0,1.35,.08,2.08,.23s1.42,.43,2.07,.84c.64,.41,1.17,.98,1.58,1.73,.41,.75,.62,1.72,.62,2.91v10.87h-3.11v-2.24h-.13c-.21,.41-.52,.82-.93,1.21-.41,.4-.94,.73-1.59,.99-.65,.26-1.42,.39-2.32,.39Zm.69-2.56c.88,0,1.64-.17,2.26-.52,.63-.35,1.11-.8,1.44-1.37s.5-1.17,.5-1.82v-2.11c-.11,.11-.33,.22-.66,.31s-.69,.18-1.1,.25-.81,.13-1.2,.18c-.39,.05-.72,.1-.98,.13-.62,.08-1.18,.21-1.69,.39-.51,.19-.91,.45-1.21,.79-.3,.34-.45,.8-.45,1.37,0,.79,.29,1.38,.87,1.78,.58,.4,1.32,.6,2.23,.6Z"/><path class="cls-3" d="M210.03,499.71v2.56h-8.94v-2.56h8.94Zm-6.54-3.92h3.19v15.48c0,.62,.09,1.08,.28,1.39s.42,.52,.72,.63c.29,.11,.62,.16,.96,.16,.26,0,.48-.02,.67-.05,.19-.04,.34-.06,.45-.09l.58,2.63c-.18,.07-.45,.14-.79,.22-.34,.08-.77,.12-1.28,.12-.84,.01-1.62-.13-2.34-.45-.72-.31-1.31-.79-1.76-1.45-.45-.65-.67-1.47-.67-2.46v-16.14Z"/><path class="cls-3" d="M217.09,494.25v2.04c0,.6-.11,1.24-.33,1.9s-.54,1.3-.94,1.91c-.4,.61-.88,1.14-1.43,1.58l-1.58-1.13c.42-.61,.78-1.26,1.09-1.95s.46-1.45,.46-2.28v-2.08h2.73Z"/><path class="cls-3" d="M230.38,503.7l-2.89,.51c-.12-.37-.31-.72-.57-1.05s-.61-.61-1.05-.82c-.44-.21-.99-.32-1.65-.32-.9,0-1.66,.2-2.26,.6-.6,.4-.91,.92-.91,1.55,0,.55,.2,.99,.61,1.32,.41,.33,1.06,.61,1.96,.82l2.6,.6c1.5,.35,2.63,.88,3.37,1.61,.74,.72,1.11,1.67,1.11,2.82,0,.98-.28,1.85-.85,2.62-.56,.76-1.35,1.36-2.35,1.79-1,.43-2.17,.65-3.49,.65-1.83,0-3.33-.39-4.48-1.18-1.16-.78-1.87-1.9-2.13-3.35l3.08-.47c.19,.8,.59,1.41,1.18,1.82,.6,.41,1.37,.61,2.33,.61,1.04,0,1.88-.22,2.5-.66,.62-.44,.94-.97,.94-1.6,0-.51-.19-.94-.57-1.29-.38-.35-.96-.61-1.74-.79l-2.77-.61c-1.53-.35-2.66-.9-3.38-1.66-.73-.76-1.09-1.72-1.09-2.89,0-.97,.27-1.81,.81-2.54,.54-.72,1.29-1.29,2.24-1.7,.95-.41,2.04-.61,3.27-.61,1.77,0,3.16,.38,4.18,1.14s1.69,1.79,2.01,3.06Z"/><path class="cls-3" d="M252.5,509.29v-9.58h3.2v16.36h-3.13v-2.83h-.17c-.38,.87-.98,1.6-1.81,2.18s-1.86,.87-3.08,.87c-1.05,0-1.98-.23-2.79-.7-.81-.46-1.44-1.16-1.9-2.07s-.69-2.05-.69-3.4v-10.41h3.19v10.02c0,1.12,.31,2,.93,2.66,.62,.66,1.42,.99,2.41,.99,.6,0,1.19-.15,1.78-.45,.59-.3,1.09-.75,1.48-1.35,.39-.6,.59-1.37,.58-2.3Z"/><path class="cls-3" d="M259.97,522.21v-22.5h3.11v2.65h.27c.18-.34,.45-.73,.8-1.18,.35-.45,.83-.84,1.45-1.18,.62-.34,1.43-.51,2.45-.51,1.32,0,2.5,.33,3.54,1,1.04,.67,1.85,1.63,2.44,2.89,.59,1.26,.89,2.77,.89,4.54s-.29,3.28-.88,4.54c-.59,1.26-1.4,2.23-2.43,2.91-1.03,.68-2.21,1.02-3.53,1.02-1,0-1.81-.17-2.43-.5-.63-.33-1.12-.72-1.48-1.17-.36-.45-.63-.84-.82-1.19h-.19v8.68h-3.19Zm3.12-14.32c0,1.15,.17,2.16,.5,3.03,.33,.87,.82,1.54,1.45,2.03,.63,.49,1.41,.73,2.32,.73s1.75-.25,2.39-.76c.64-.51,1.12-1.2,1.45-2.07,.33-.87,.5-1.86,.5-2.95s-.16-2.05-.49-2.91-.81-1.54-1.45-2.04c-.64-.5-1.44-.75-2.4-.75s-1.7,.24-2.34,.71c-.64,.47-1.12,1.14-1.44,1.99-.33,.85-.49,1.85-.49,2.98Z"/><path class="cls-3" d="M280.59,516.28c-.58,0-1.08-.21-1.5-.62-.42-.42-.63-.92-.63-1.51s.21-1.08,.63-1.5c.42-.41,.92-.62,1.5-.62s1.08,.21,1.5,.62c.42,.42,.63,.92,.63,1.5,0,.39-.1,.75-.29,1.07s-.45,.58-.77,.77c-.32,.19-.67,.29-1.07,.29Z"/></g><g><path class="cls-8" d="M462.24,340.5h-118c-21.82,0-39.5-17.68-39.5-39.5v-103c0-21.82,17.68-39.5,39.5-39.5h118c21.82,0,39.5,17.68,39.5,39.5v103c0,21.82-17.68,39.5-39.5,39.5Z"/><path class="cls-6" d="M330.19,243.45c-1.69,0-3.18-.3-4.48-.9-1.3-.6-2.33-1.47-3.07-2.62-.73-1.17-1.09-2.59-1.09-4.26v-.8h3.42v.8c0,1.58,.47,2.76,1.41,3.55,.96,.79,2.23,1.18,3.81,1.18s2.81-.33,3.62-.99c.81-.68,1.22-1.56,1.22-2.62,0-.7-.19-1.28-.58-1.73-.38-.45-.93-.8-1.63-1.06-.7-.28-1.55-.53-2.53-.77l-1.18-.29c-1.43-.34-2.68-.76-3.74-1.25-1.05-.51-1.86-1.18-2.43-2.02s-.86-1.9-.86-3.2,.32-2.45,.96-3.39c.66-.94,1.57-1.66,2.72-2.18,1.15-.51,2.51-.77,4.06-.77s2.94,.27,4.16,.8c1.24,.53,2.21,1.32,2.91,2.37,.7,1.05,1.06,2.36,1.06,3.94v1.15h-3.42v-1.15c0-.96-.2-1.74-.61-2.34-.38-.6-.93-1.03-1.63-1.31-.7-.28-1.53-.42-2.46-.42-1.37,0-2.43,.29-3.2,.86-.75,.55-1.12,1.33-1.12,2.34,0,.68,.16,1.25,.48,1.7,.34,.43,.83,.78,1.47,1.06,.64,.28,1.44,.52,2.4,.74l1.18,.29c1.45,.32,2.73,.74,3.84,1.25,1.11,.49,1.98,1.16,2.62,2.02,.64,.85,.96,1.95,.96,3.3s-.34,2.52-1.02,3.52c-.66,1-1.61,1.79-2.85,2.37-1.24,.55-2.7,.83-4.38,.83Zm17.9-.45c-.96,0-1.73-.29-2.3-.86-.55-.58-.83-1.34-.83-2.3v-9.82h-4.35v-2.78h4.35v-5.22h3.3v5.22h4.7v2.78h-4.7v9.25c0,.64,.3,.96,.9,.96h3.3v2.78h-4.35Zm15.41,.45c-1.6,0-3-.33-4.19-.99-1.19-.68-2.13-1.63-2.82-2.85-.66-1.24-.99-2.67-.99-4.29v-.38c0-1.64,.33-3.07,.99-4.29,.66-1.24,1.58-2.19,2.75-2.85,1.19-.68,2.57-1.02,4.13-1.02s2.84,.34,3.97,1.02c1.15,.66,2.05,1.59,2.69,2.78,.64,1.19,.96,2.59,.96,4.19v1.25h-12.13c.04,1.39,.5,2.5,1.38,3.33,.9,.81,2.01,1.22,3.33,1.22,1.24,0,2.17-.28,2.78-.83,.64-.55,1.13-1.19,1.47-1.92l2.72,1.41c-.3,.6-.74,1.23-1.31,1.89-.55,.66-1.29,1.22-2.21,1.66-.92,.45-2.09,.67-3.52,.67Zm-4.61-9.95h8.74c-.09-1.19-.51-2.12-1.28-2.78-.77-.68-1.77-1.02-3.01-1.02s-2.25,.34-3.04,1.02c-.77,.66-1.24,1.59-1.41,2.78Zm16.06,15.9v-22.18h3.23v2.27h.51c.41-.7,1.01-1.33,1.82-1.89,.83-.55,2.02-.83,3.55-.83,1.32,0,2.53,.32,3.62,.96,1.11,.64,1.99,1.57,2.66,2.78,.68,1.19,1.02,2.65,1.02,4.35v.48c0,1.71-.33,3.17-.99,4.38-.66,1.19-1.55,2.11-2.66,2.75-1.11,.64-2.33,.96-3.65,.96-1.02,0-1.89-.13-2.59-.38-.7-.26-1.27-.58-1.7-.96-.43-.41-.77-.82-1.02-1.25h-.51v8.54h-3.3Zm8.16-8.83c1.45,0,2.63-.46,3.55-1.38,.92-.92,1.38-2.23,1.38-3.94v-.29c0-1.69-.47-2.99-1.41-3.9-.92-.92-2.09-1.38-3.52-1.38s-2.58,.46-3.52,1.38c-.92,.92-1.38,2.22-1.38,3.9v.29c0,1.71,.46,3.02,1.38,3.94,.94,.92,2.11,1.38,3.52,1.38Zm27.79,2.88c-1.64,0-3.1-.3-4.38-.9-1.28-.6-2.28-1.46-3.01-2.59-.7-1.13-1.06-2.47-1.06-4.03v-.58h3.36v.51c0,1.41,.46,2.53,1.38,3.36,.94,.81,2.18,1.22,3.71,1.22s2.73-.38,3.58-1.15c.85-.77,1.28-1.74,1.28-2.91v-.29c0-.83-.2-1.5-.61-2.02-.41-.51-.95-.89-1.63-1.12-.68-.26-1.45-.38-2.3-.38h-4.06v-3.87l7.87-4.64v-.45h-12.03v-3.01h15.68v4.54l-7.52,4.48v.45h1.38c1.13,0,2.2,.21,3.2,.64,1,.43,1.81,1.08,2.43,1.95,.64,.87,.96,1.98,.96,3.33v.38c0,1.43-.34,2.68-1.02,3.74-.68,1.05-1.64,1.87-2.88,2.46-1.24,.58-2.68,.86-4.32,.86Z"/><path class="cls-4" d="M424,243.45c-.75,0-1.38-.25-1.89-.74-.49-.49-.74-1.12-.74-1.89s.24-1.39,.74-1.86c.51-.49,1.14-.74,1.89-.74s1.37,.25,1.86,.74c.51,.49,.77,1.11,.77,1.86s-.26,1.4-.77,1.89c-.49,.49-1.11,.74-1.86,.74Z"/><path class="cls-6" d="M329.67,278h-1.23c-.07-.36-.2-.67-.38-.93-.18-.27-.4-.49-.66-.68-.26-.18-.54-.32-.85-.42-.31-.09-.64-.14-.97-.14-.62,0-1.17,.16-1.68,.47-.5,.31-.89,.77-1.19,1.38-.29,.61-.44,1.35-.44,2.23s.15,1.63,.44,2.23c.3,.61,.69,1.07,1.19,1.38,.5,.31,1.06,.47,1.68,.47,.34,0,.66-.05,.97-.14,.31-.09,.59-.23,.85-.41,.26-.19,.48-.41,.66-.68,.18-.27,.31-.58,.38-.93h1.23c-.09,.52-.26,.99-.51,1.4-.25,.41-.55,.76-.91,1.05-.36,.29-.77,.5-1.23,.65-.45,.15-.93,.22-1.45,.22-.87,0-1.64-.21-2.32-.64-.68-.42-1.21-1.03-1.6-1.81s-.58-1.71-.58-2.78,.19-2,.58-2.78,.92-1.39,1.6-1.81c.68-.42,1.45-.64,2.32-.64,.51,0,1,.07,1.45,.22,.45,.15,.86,.37,1.23,.66,.36,.29,.67,.63,.91,1.04,.25,.41,.41,.87,.51,1.4Zm4.08,7.18c-.48,0-.92-.09-1.32-.27-.39-.19-.71-.45-.94-.8-.23-.35-.35-.78-.35-1.27,0-.44,.09-.79,.26-1.06,.17-.28,.4-.49,.69-.65,.29-.16,.61-.27,.95-.35,.35-.08,.7-.14,1.06-.19,.46-.06,.84-.1,1.13-.13,.29-.03,.5-.09,.64-.16,.14-.08,.2-.21,.2-.4v-.04c0-.49-.13-.87-.4-1.14-.27-.27-.67-.41-1.21-.41s-1,.12-1.32,.37c-.32,.25-.54,.51-.67,.79l-1.11-.4c.2-.46,.46-.83,.8-1.08,.33-.26,.7-.44,1.09-.55,.4-.11,.79-.16,1.17-.16,.25,0,.53,.03,.85,.09,.32,.06,.63,.17,.93,.35,.3,.18,.55,.45,.75,.81,.2,.36,.3,.85,.3,1.45v5.03h-1.17v-1.03h-.06c-.08,.17-.21,.34-.4,.53-.19,.19-.43,.35-.74,.48-.31,.13-.68,.2-1.13,.2Zm.18-1.05c.46,0,.86-.09,1.17-.27,.32-.18,.56-.42,.73-.71,.17-.29,.25-.59,.25-.91v-1.07c-.05,.06-.16,.11-.33,.16-.17,.05-.36,.09-.58,.12-.22,.03-.43,.06-.63,.09-.2,.02-.37,.04-.49,.06-.31,.04-.59,.11-.86,.19-.26,.09-.47,.22-.64,.39-.16,.17-.24,.41-.24,.71,0,.41,.15,.72,.45,.93,.3,.21,.69,.31,1.16,.31Zm10.87-5.05l-1.05,.3c-.07-.18-.16-.35-.29-.51-.13-.17-.3-.31-.52-.42-.22-.11-.5-.16-.84-.16-.47,0-.86,.11-1.17,.32-.31,.21-.46,.48-.46,.81,0,.29,.11,.52,.32,.69,.21,.17,.54,.31,.99,.42l1.13,.28c.68,.17,1.19,.42,1.53,.76,.33,.34,.5,.77,.5,1.31,0,.44-.13,.83-.38,1.17-.25,.35-.6,.62-1.04,.82-.45,.2-.97,.3-1.56,.3-.78,0-1.42-.17-1.93-.51-.51-.34-.83-.83-.97-1.48l1.11-.28c.11,.41,.31,.72,.6,.93,.3,.21,.69,.31,1.17,.31,.55,0,.98-.12,1.3-.35,.32-.24,.49-.52,.49-.85,0-.26-.09-.49-.28-.67-.19-.18-.47-.32-.86-.41l-1.27-.3c-.7-.17-1.21-.42-1.54-.77-.32-.35-.49-.79-.49-1.32,0-.43,.12-.81,.36-1.14,.25-.33,.58-.59,1-.78,.42-.19,.9-.28,1.44-.28,.76,0,1.35,.17,1.78,.5,.43,.33,.74,.77,.92,1.31Zm3.08,1.33v4.59h-1.17v-10.18h1.17v3.74h.1c.18-.39,.45-.71,.81-.94,.36-.23,.84-.35,1.44-.35,.52,0,.98,.11,1.37,.31,.39,.21,.69,.52,.91,.95,.22,.42,.33,.96,.33,1.62v4.85h-1.17v-4.77c0-.61-.16-1.07-.47-1.41-.31-.33-.74-.5-1.3-.5-.38,0-.73,.08-1.03,.24-.3,.16-.54,.4-.72,.71-.17,.31-.26,.69-.26,1.13Zm11.04,4.59v-7.64h1.17v7.64h-1.17Zm.6-8.91c-.23,0-.43-.08-.59-.23-.16-.16-.24-.34-.24-.56s.08-.41,.24-.56c.17-.16,.36-.23,.59-.23s.42,.08,.59,.23c.17,.15,.25,.34,.25,.56s-.08,.41-.25,.56c-.16,.16-.36,.23-.59,.23Zm3.9,4.31v4.59h-1.17v-7.64h1.13v1.19h.1c.18-.39,.45-.7,.82-.93,.36-.24,.84-.36,1.41-.36,.52,0,.97,.11,1.36,.32,.39,.21,.69,.53,.9,.96,.22,.42,.32,.96,.32,1.61v4.85h-1.17v-4.77c0-.6-.16-1.07-.47-1.4-.31-.34-.74-.51-1.28-.51-.37,0-.71,.08-1,.24-.29,.16-.52,.4-.69,.71-.17,.31-.25,.69-.25,1.13Zm10.95,4.59v-7.64h1.17v7.64h-1.17Zm.6-8.91c-.23,0-.43-.08-.59-.23-.16-.16-.24-.34-.24-.56s.08-.41,.24-.56c.17-.16,.36-.23,.59-.23s.42,.08,.59,.23c.17,.15,.25,.34,.25,.56s-.08,.41-.25,.56c-.16,.16-.36,.23-.59,.23Zm6.13,1.27v.99h-4.12v-.99h4.12Zm-2.88,7.64v-8.69c0-.44,.1-.8,.31-1.09,.21-.29,.47-.51,.8-.66,.33-.15,.67-.22,1.04-.22,.29,0,.52,.02,.71,.07,.18,.05,.32,.09,.41,.13l-.34,1.01c-.06-.02-.14-.04-.25-.08-.1-.03-.24-.04-.41-.04-.39,0-.67,.1-.84,.29-.17,.2-.25,.48-.25,.86v8.41h-1.17Zm9.22,2.86c-.2,0-.38-.02-.53-.05-.16-.03-.26-.06-.32-.09l.3-1.03c.29,.07,.54,.1,.76,.08,.22-.02,.41-.12,.58-.29,.17-.17,.33-.45,.47-.84l.22-.6-2.82-7.68h1.27l2.11,6.08h.08l2.11-6.08h1.27l-3.24,8.75c-.15,.39-.33,.72-.54,.98-.22,.26-.47,.46-.75,.58-.28,.13-.6,.19-.95,.19Zm9.87-2.71c-.69,0-1.29-.16-1.81-.49-.52-.33-.92-.79-1.21-1.38-.29-.59-.43-1.28-.43-2.07s.14-1.49,.43-2.08c.29-.59,.7-1.05,1.21-1.38,.52-.33,1.13-.49,1.81-.49s1.29,.16,1.81,.49c.52,.33,.92,.79,1.21,1.38,.29,.59,.44,1.29,.44,2.08s-.15,1.48-.44,2.07c-.29,.59-.69,1.05-1.21,1.38-.52,.33-1.12,.49-1.81,.49Zm0-1.05c.52,0,.96-.13,1.29-.4,.34-.27,.59-.62,.75-1.06,.16-.44,.24-.91,.24-1.42s-.08-.99-.24-1.43c-.16-.44-.41-.8-.75-1.07-.34-.27-.77-.41-1.29-.41s-.95,.14-1.29,.41c-.34,.27-.59,.63-.75,1.07s-.24,.92-.24,1.43,.08,.98,.24,1.42c.16,.44,.41,.79,.75,1.06,.34,.27,.77,.4,1.29,.4Zm10.06-2.23v-4.51h1.17v7.64h-1.17v-1.29h-.08c-.18,.39-.46,.72-.83,.99-.38,.27-.85,.4-1.43,.4-.48,0-.9-.1-1.27-.31-.37-.21-.66-.53-.88-.95-.21-.43-.32-.97-.32-1.62v-4.85h1.17v4.77c0,.56,.16,1,.47,1.33,.31,.33,.72,.5,1.2,.5,.29,0,.59-.08,.89-.22,.31-.15,.56-.38,.77-.69,.21-.31,.31-.7,.31-1.18Zm8.99,3.12l-2.33-7.64h1.23l1.65,5.85h.08l1.63-5.85h1.25l1.61,5.83h.08l1.65-5.83h1.23l-2.33,7.64h-1.15l-1.67-5.87h-.12l-1.67,5.87h-1.15Zm12.59,.16c-.74,0-1.37-.16-1.9-.49-.53-.33-.94-.79-1.23-1.37-.29-.59-.43-1.28-.43-2.06s.14-1.47,.43-2.07c.29-.6,.69-1.07,1.2-1.4,.52-.34,1.12-.51,1.81-.51,.4,0,.79,.07,1.18,.2,.39,.13,.74,.35,1.06,.65,.32,.29,.57,.69,.76,1.17,.19,.49,.28,1.09,.28,1.8v.5h-5.89v-1.01h4.69c0-.43-.09-.82-.26-1.15-.17-.34-.41-.61-.73-.8-.31-.2-.68-.29-1.1-.29-.47,0-.87,.12-1.21,.35-.34,.23-.6,.53-.78,.89-.18,.37-.27,.76-.27,1.18v.68c0,.58,.1,1.07,.3,1.47,.2,.4,.48,.7,.84,.91,.36,.21,.77,.31,1.25,.31,.31,0,.59-.04,.83-.13,.25-.09,.47-.22,.65-.4,.18-.18,.32-.4,.42-.67l1.13,.32c-.12,.38-.32,.72-.6,1.01-.28,.29-.63,.51-1.04,.68-.42,.16-.88,.24-1.4,.24Zm4.95-.16v-7.64h1.13v1.15h.08c.14-.38,.39-.68,.76-.92,.37-.24,.78-.35,1.23-.35,.09,0,.19,0,.32,0,.13,0,.23,0,.29,.01v1.19s-.13-.02-.27-.04c-.14-.02-.29-.04-.44-.04-.37,0-.7,.08-.99,.23-.29,.15-.52,.36-.69,.64-.16,.27-.25,.57-.25,.92v4.83h-1.17Zm8.18,.16c-.74,0-1.37-.16-1.9-.49-.53-.33-.94-.79-1.23-1.37-.29-.59-.43-1.28-.43-2.06s.14-1.47,.43-2.07c.29-.6,.69-1.07,1.2-1.4,.52-.34,1.12-.51,1.81-.51,.4,0,.79,.07,1.18,.2,.39,.13,.74,.35,1.06,.65,.32,.29,.57,.69,.76,1.17,.19,.49,.28,1.09,.28,1.8v.5h-5.89v-1.01h4.69c0-.43-.09-.82-.26-1.15-.17-.34-.41-.61-.73-.8-.31-.2-.68-.29-1.1-.29-.47,0-.87,.12-1.21,.35-.34,.23-.6,.53-.78,.89-.18,.37-.27,.76-.27,1.18v.68c0,.58,.1,1.07,.3,1.47,.2,.4,.48,.7,.84,.91,.36,.21,.77,.31,1.25,.31,.31,0,.59-.04,.83-.13,.25-.09,.47-.22,.65-.4,.18-.18,.32-.4,.42-.67l1.13,.32c-.12,.38-.32,.72-.6,1.01-.28,.29-.63,.51-1.04,.68-.42,.16-.88,.24-1.4,.24Zm-117.64,22c-.72,0-1.33-.17-1.85-.51-.52-.34-.91-.8-1.19-1.4-.28-.59-.42-1.27-.42-2.03s.14-1.46,.43-2.05c.29-.6,.69-1.06,1.2-1.4,.52-.34,1.12-.51,1.81-.51,.54,0,1.02,.1,1.45,.3,.43,.2,.78,.48,1.06,.84,.28,.36,.45,.78,.51,1.25h-1.17c-.09-.35-.29-.66-.6-.93-.3-.27-.72-.41-1.23-.41-.46,0-.86,.12-1.2,.36-.34,.24-.61,.57-.8,1-.19,.43-.28,.93-.28,1.51s.09,1.1,.28,1.54c.19,.44,.45,.78,.8,1.02,.34,.24,.75,.36,1.21,.36,.31,0,.58-.05,.83-.16s.46-.26,.63-.46c.17-.2,.3-.44,.37-.72h1.17c-.07,.45-.23,.86-.49,1.22-.26,.36-.6,.64-1.03,.85-.42,.21-.92,.31-1.48,.31Zm7.82,0c-.69,0-1.29-.16-1.81-.49-.52-.33-.92-.79-1.21-1.38-.29-.59-.43-1.28-.43-2.07s.14-1.49,.43-2.08c.29-.59,.7-1.05,1.21-1.38,.52-.33,1.13-.49,1.81-.49s1.29,.16,1.81,.49c.52,.33,.92,.79,1.21,1.38,.29,.59,.44,1.29,.44,2.08s-.15,1.48-.44,2.07c-.29,.59-.69,1.05-1.21,1.38-.52,.33-1.12,.49-1.81,.49Zm0-1.05c.52,0,.95-.13,1.29-.4,.34-.27,.59-.62,.75-1.06,.16-.44,.24-.91,.24-1.42s-.08-.99-.24-1.43c-.16-.44-.41-.8-.75-1.07-.34-.27-.77-.41-1.29-.41s-.95,.14-1.29,.41c-.34,.27-.59,.63-.75,1.07-.16,.44-.24,.92-.24,1.43s.08,.98,.24,1.42c.16,.44,.41,.79,.75,1.06,.34,.27,.77,.4,1.29,.4Zm5.25,.9v-7.64h1.13v1.15h.08c.14-.38,.39-.68,.76-.92,.36-.24,.78-.35,1.23-.35,.09,0,.19,0,.32,0,.13,0,.23,0,.29,.02v1.19s-.13-.02-.27-.04c-.14-.02-.29-.03-.44-.03-.37,0-.7,.08-.99,.23-.29,.15-.52,.36-.69,.64-.17,.27-.25,.57-.25,.92v4.83h-1.17Zm5.21,0v-7.64h1.13v1.15h.08c.14-.38,.39-.68,.76-.92,.36-.24,.78-.35,1.23-.35,.09,0,.19,0,.32,0,.13,0,.23,0,.29,.02v1.19s-.13-.02-.27-.04c-.14-.02-.29-.03-.44-.03-.37,0-.7,.08-.99,.23-.29,.15-.52,.36-.69,.64-.17,.27-.25,.57-.25,.92v4.83h-1.17Zm8.18,.16c-.74,0-1.37-.16-1.9-.49-.53-.33-.94-.79-1.23-1.37-.28-.59-.43-1.28-.43-2.06s.14-1.47,.43-2.07c.29-.6,.69-1.07,1.2-1.4,.52-.34,1.12-.51,1.81-.51,.4,0,.79,.07,1.18,.2,.39,.13,.74,.35,1.06,.65,.32,.3,.57,.69,.76,1.17,.19,.49,.28,1.09,.28,1.8v.5h-5.89v-1.01h4.69c0-.43-.09-.82-.26-1.15-.17-.34-.41-.6-.73-.8-.31-.2-.68-.29-1.1-.29-.47,0-.87,.12-1.21,.35-.34,.23-.6,.53-.78,.9-.18,.37-.27,.76-.27,1.18v.68c0,.58,.1,1.07,.3,1.47,.2,.4,.48,.7,.84,.91,.36,.21,.77,.31,1.25,.31,.31,0,.59-.04,.84-.13,.25-.09,.47-.22,.65-.4,.18-.18,.32-.4,.42-.67l1.13,.32c-.12,.39-.32,.72-.6,1.01-.28,.29-.63,.51-1.04,.68-.41,.16-.88,.24-1.4,.24Zm8.05,0c-.72,0-1.33-.17-1.85-.51-.52-.34-.91-.8-1.19-1.4s-.42-1.27-.42-2.03,.14-1.46,.43-2.05c.29-.6,.69-1.06,1.2-1.4,.52-.34,1.12-.51,1.81-.51,.54,0,1.02,.1,1.45,.3,.43,.2,.78,.48,1.06,.84s.45,.78,.51,1.25h-1.17c-.09-.35-.29-.66-.6-.93-.3-.27-.72-.41-1.23-.41-.46,0-.86,.12-1.2,.36-.34,.24-.61,.57-.8,1-.19,.43-.28,.93-.28,1.51s.09,1.1,.28,1.54c.19,.44,.45,.78,.8,1.02,.34,.24,.75,.36,1.21,.36,.31,0,.58-.05,.83-.16s.46-.26,.63-.46c.17-.2,.29-.44,.37-.72h1.17c-.07,.45-.23,.86-.49,1.22-.26,.36-.6,.64-1.03,.85-.42,.21-.92,.31-1.48,.31Zm8.04-7.79v.99h-3.96v-.99h3.96Zm-2.8-1.83h1.17v7.28c0,.33,.05,.58,.14,.75,.1,.16,.23,.27,.38,.33,.16,.05,.32,.08,.49,.08,.13,0,.24,0,.32-.02,.08-.02,.15-.03,.2-.04l.24,1.05c-.08,.03-.19,.06-.33,.09-.14,.03-.32,.05-.54,.05-.33,0-.66-.07-.97-.21-.31-.14-.58-.36-.79-.65-.21-.29-.31-.66-.31-1.1v-7.6Zm6.32,8.07l-.08,.54c-.06,.38-.14,.78-.26,1.21-.11,.43-.23,.84-.35,1.22-.12,.38-.22,.68-.3,.91h-.89c.04-.21,.1-.49,.17-.84,.07-.35,.14-.74,.21-1.17,.07-.43,.13-.87,.18-1.31l.06-.56h1.27Zm8.36,1.57c-.48,0-.92-.09-1.32-.27-.39-.19-.71-.45-.94-.8-.23-.35-.35-.77-.35-1.27,0-.44,.09-.79,.26-1.06,.17-.28,.4-.49,.69-.65,.29-.16,.61-.27,.95-.35,.35-.08,.7-.14,1.06-.19,.46-.06,.84-.1,1.13-.13,.29-.03,.5-.09,.64-.16,.14-.08,.2-.21,.2-.4v-.04c0-.49-.13-.87-.4-1.14-.27-.27-.67-.41-1.21-.41s-1,.12-1.32,.37c-.32,.24-.54,.51-.67,.79l-1.11-.4c.2-.46,.46-.82,.8-1.08,.33-.26,.7-.44,1.09-.55,.4-.11,.79-.16,1.17-.16,.25,0,.53,.03,.85,.09,.32,.06,.63,.17,.93,.35,.3,.18,.55,.45,.75,.81,.2,.36,.3,.85,.3,1.45v5.03h-1.17v-1.03h-.06c-.08,.17-.21,.34-.4,.53s-.43,.35-.74,.48c-.31,.13-.68,.2-1.13,.2Zm.18-1.05c.46,0,.86-.09,1.17-.27,.32-.18,.56-.42,.73-.71,.17-.29,.25-.59,.25-.91v-1.07c-.05,.06-.16,.11-.33,.16-.17,.05-.36,.09-.58,.12-.22,.03-.43,.06-.63,.09-.2,.02-.37,.04-.49,.06-.3,.04-.59,.1-.86,.19-.26,.09-.47,.22-.64,.39-.16,.17-.24,.41-.24,.71,0,.41,.15,.72,.45,.93,.3,.21,.69,.31,1.16,.31Zm6.64-3.72v4.59h-1.17v-7.64h1.13v1.19h.1c.18-.39,.45-.7,.82-.94,.36-.24,.84-.36,1.41-.36,.52,0,.97,.11,1.36,.32,.39,.21,.69,.53,.9,.96,.22,.42,.32,.96,.32,1.61v4.85h-1.17v-4.77c0-.6-.16-1.07-.47-1.4-.31-.34-.74-.51-1.28-.51-.37,0-.71,.08-1,.24-.29,.16-.52,.4-.69,.71-.17,.31-.25,.69-.25,1.13Zm9.9,4.75c-.64,0-1.2-.16-1.69-.48-.49-.32-.87-.78-1.14-1.37-.28-.59-.41-1.29-.41-2.1s.14-1.5,.41-2.09,.66-1.05,1.15-1.37c.49-.32,1.06-.48,1.7-.48,.5,0,.89,.08,1.18,.25,.29,.16,.51,.35,.67,.56,.16,.2,.28,.37,.36,.51h.1v-3.76h1.17v10.18h-1.13v-1.17h-.14c-.09,.14-.21,.32-.37,.53-.16,.21-.39,.4-.68,.56-.29,.16-.69,.24-1.18,.24Zm.16-1.05c.47,0,.87-.12,1.19-.37,.32-.25,.57-.59,.74-1.03,.17-.44,.25-.95,.25-1.53s-.08-1.07-.25-1.5c-.17-.43-.41-.76-.74-1-.32-.24-.73-.36-1.2-.36s-.91,.13-1.24,.38c-.33,.25-.58,.6-.74,1.03-.16,.43-.24,.92-.24,1.45s.08,1.04,.25,1.48c.17,.44,.42,.79,.75,1.05,.33,.26,.74,.39,1.23,.39Zm12.91-6.74v.99h-3.96v-.99h3.96Zm-2.8-1.83h1.17v7.28c0,.33,.05,.58,.14,.75,.1,.16,.23,.27,.38,.33,.15,.05,.32,.08,.49,.08,.13,0,.24,0,.32-.02,.08-.02,.15-.03,.2-.04l.24,1.05c-.08,.03-.19,.06-.33,.09-.14,.03-.32,.05-.54,.05-.33,0-.66-.07-.97-.21-.31-.14-.58-.36-.79-.65-.21-.29-.31-.66-.31-1.1v-7.6Zm4.57,9.47v-7.64h1.13v1.15h.08c.14-.38,.39-.68,.76-.92,.36-.24,.78-.35,1.23-.35,.09,0,.19,0,.32,0,.13,0,.23,0,.29,.02v1.19s-.13-.02-.27-.04c-.14-.02-.29-.03-.44-.03-.37,0-.7,.08-.99,.23-.29,.15-.52,.36-.69,.64-.17,.27-.25,.57-.25,.92v4.83h-1.17Zm6.2,2.86c-.2,0-.38-.02-.53-.05-.16-.03-.26-.06-.32-.09l.3-1.03c.28,.07,.54,.1,.76,.08,.22-.02,.41-.12,.58-.29,.17-.17,.33-.45,.47-.84l.22-.6-2.82-7.68h1.27l2.11,6.09h.08l2.11-6.09h1.27l-3.24,8.75c-.14,.39-.33,.72-.54,.98-.21,.26-.46,.46-.75,.58-.28,.13-.6,.19-.95,.19Zm13.22-2.68c-.48,0-.92-.09-1.32-.27-.4-.19-.71-.45-.94-.8-.23-.35-.35-.77-.35-1.27,0-.44,.09-.79,.26-1.06,.17-.28,.4-.49,.69-.65,.29-.16,.61-.27,.95-.35,.35-.08,.7-.14,1.06-.19,.46-.06,.84-.1,1.13-.13,.29-.03,.5-.09,.64-.16,.14-.08,.2-.21,.2-.4v-.04c0-.49-.13-.87-.4-1.14-.26-.27-.67-.41-1.21-.41s-1,.12-1.32,.37c-.32,.24-.54,.51-.67,.79l-1.11-.4c.2-.46,.46-.82,.79-1.08,.34-.26,.7-.44,1.09-.55,.4-.11,.79-.16,1.17-.16,.25,0,.53,.03,.85,.09,.32,.06,.63,.17,.93,.35,.3,.18,.55,.45,.75,.81,.2,.36,.3,.85,.3,1.45v5.03h-1.17v-1.03h-.06c-.08,.17-.21,.34-.4,.53-.19,.19-.43,.35-.74,.48-.31,.13-.68,.2-1.13,.2Zm.18-1.05c.46,0,.85-.09,1.17-.27,.32-.18,.56-.42,.73-.71,.17-.29,.25-.59,.25-.91v-1.07c-.05,.06-.16,.11-.33,.16-.17,.05-.36,.09-.58,.12-.21,.03-.43,.06-.63,.09-.2,.02-.37,.04-.49,.06-.3,.04-.59,.1-.86,.19-.26,.09-.47,.22-.64,.39-.16,.17-.24,.41-.24,.71,0,.41,.15,.72,.45,.93,.31,.21,.69,.31,1.16,.31Zm8.54,3.9c-.57,0-1.05-.07-1.46-.22-.41-.14-.75-.33-1.02-.57-.27-.23-.48-.48-.64-.75l.93-.66c.11,.14,.24,.3,.4,.48,.16,.18,.39,.34,.67,.47,.29,.14,.66,.2,1.12,.2,.62,0,1.12-.15,1.53-.45s.6-.76,.6-1.4v-1.55h-.1c-.09,.14-.21,.31-.37,.52-.16,.2-.38,.38-.68,.54-.29,.16-.69,.23-1.18,.23-.62,0-1.17-.15-1.66-.44-.49-.29-.87-.72-1.16-1.27-.28-.56-.42-1.23-.42-2.03s.14-1.46,.41-2.04c.27-.58,.66-1.03,1.15-1.35,.49-.32,1.06-.48,1.7-.48,.5,0,.89,.08,1.18,.25,.29,.16,.52,.35,.68,.56,.16,.2,.28,.37,.37,.51h.12v-1.21h1.13v7.85c0,.66-.15,1.19-.45,1.6-.29,.41-.69,.72-1.19,.91-.5,.2-1.05,.29-1.66,.29Zm-.04-4.2c.47,0,.87-.11,1.19-.32,.32-.22,.57-.53,.74-.93,.17-.4,.25-.89,.25-1.45s-.08-1.04-.25-1.46c-.17-.42-.41-.75-.74-.99-.32-.24-.72-.36-1.2-.36s-.91,.13-1.24,.38c-.33,.25-.57,.59-.74,1.01-.16,.42-.24,.89-.24,1.41s.08,1,.25,1.41c.17,.4,.42,.72,.75,.95,.33,.23,.74,.34,1.23,.34Zm7.74,1.35c-.48,0-.92-.09-1.32-.27-.4-.19-.71-.45-.94-.8-.23-.35-.35-.77-.35-1.27,0-.44,.09-.79,.26-1.06,.17-.28,.4-.49,.69-.65,.29-.16,.61-.27,.95-.35,.35-.08,.7-.14,1.06-.19,.46-.06,.84-.1,1.13-.13,.29-.03,.5-.09,.64-.16,.14-.08,.2-.21,.2-.4v-.04c0-.49-.13-.87-.4-1.14-.26-.27-.67-.41-1.21-.41s-1,.12-1.32,.37c-.32,.24-.54,.51-.67,.79l-1.11-.4c.2-.46,.46-.82,.79-1.08,.34-.26,.7-.44,1.09-.55,.4-.11,.79-.16,1.17-.16,.25,0,.53,.03,.85,.09,.32,.06,.63,.17,.93,.35,.3,.18,.55,.45,.75,.81,.2,.36,.3,.85,.3,1.45v5.03h-1.17v-1.03h-.06c-.08,.17-.21,.34-.4,.53-.18,.19-.43,.35-.74,.48-.31,.13-.68,.2-1.13,.2Zm.18-1.05c.46,0,.85-.09,1.17-.27,.32-.18,.56-.42,.73-.71,.17-.29,.25-.59,.25-.91v-1.07c-.05,.06-.16,.11-.33,.16-.17,.05-.36,.09-.58,.12-.21,.03-.43,.06-.63,.09-.2,.02-.37,.04-.49,.06-.31,.04-.59,.1-.86,.19-.26,.09-.47,.22-.64,.39-.16,.17-.24,.41-.24,.71,0,.41,.15,.72,.45,.93,.31,.21,.69,.31,1.16,.31Zm5.46,.88v-7.64h1.17v7.64h-1.17Zm.6-8.91c-.23,0-.43-.08-.59-.23-.16-.16-.24-.34-.24-.56s.08-.41,.24-.56c.16-.16,.36-.23,.59-.23s.42,.08,.59,.23c.17,.15,.25,.34,.25,.56s-.08,.41-.25,.56c-.16,.16-.36,.23-.59,.23Zm3.9,4.32v4.59h-1.17v-7.64h1.13v1.19h.1c.18-.39,.45-.7,.81-.94,.37-.24,.84-.36,1.41-.36,.52,0,.97,.11,1.36,.32,.39,.21,.69,.53,.9,.96,.22,.42,.32,.96,.32,1.61v4.85h-1.17v-4.77c0-.6-.16-1.07-.47-1.4-.31-.34-.74-.51-1.28-.51-.38,0-.71,.08-1,.24-.29,.16-.52,.4-.69,.71-.17,.31-.25,.69-.25,1.13Z"/></g><g><path class="cls-5" d="M605.04,240.53c0,13.28-8.92,25.39-23.53,34.21-14.6,8.81-34.8,14.28-57.15,14.28s-42.55-5.47-57.15-14.28c-14.61-8.82-23.53-20.93-23.53-34.21s8.92-25.39,23.53-34.21c14.6-8.81,34.8-14.28,57.15-14.28s42.55,5.47,57.15,14.28c14.61,8.82,23.53,20.93,23.53,34.21Z"/><path class="cls-5" d="M605.04,224.19c0,13.28-8.92,25.39-23.53,34.21-14.6,8.81-34.8,14.28-57.15,14.28s-42.55-5.47-57.15-14.28c-14.61-8.82-23.53-20.93-23.53-34.21s8.92-25.39,23.53-34.21c14.6-8.81,34.8-14.28,57.15-14.28s42.55,5.47,57.15,14.28c14.61,8.82,23.53,20.93,23.53,34.21Z"/><path class="cls-5" d="M600.41,207.85c0,13.28-8.92,25.39-23.53,34.21-14.6,8.81-34.8,14.28-57.15,14.28s-42.55-5.47-57.15-14.28c-14.61-8.82-23.53-20.93-23.53-34.21s8.92-25.39,23.53-34.21c14.6-8.81,34.8-14.28,57.15-14.28s42.55,5.47,57.15,14.28c14.61,8.82,23.53,20.93,23.53,34.21Z"/><path class="cls-5" d="M605.04,191.51c0,13.28-8.92,25.39-23.53,34.21-14.6,8.81-34.8,14.28-57.15,14.28s-42.55-5.47-57.15-14.28c-14.61-8.82-23.53-20.93-23.53-34.21s8.92-25.39,23.53-34.21c14.6-8.81,34.8-14.28,57.15-14.28s42.55,5.47,57.15,14.28c14.61,8.82,23.53,20.93,23.53,34.21Z"/><path class="cls-5" d="M612.76,175.17c0,13.28-8.92,25.39-23.53,34.21-14.6,8.81-34.8,14.28-57.15,14.28s-42.55-5.47-57.15-14.28c-14.61-8.82-23.53-20.93-23.53-34.21s8.92-25.39,23.53-34.21c14.6-8.81,34.8-14.28,57.15-14.28s42.55,5.47,57.15,14.28c14.61,8.82,23.53,20.93,23.53,34.21Z"/><path class="cls-5" d="M605.04,158.83c0,13.28-8.92,25.39-23.53,34.21-14.6,8.81-34.8,14.28-57.15,14.28s-42.55-5.47-57.15-14.28c-14.61-8.82-23.53-20.93-23.53-34.21s8.92-25.39,23.53-34.21c14.6-8.81,34.8-14.28,57.15-14.28s42.55,5.47,57.15,14.28c14.61,8.82,23.53,20.93,23.53,34.21Z"/><path class="cls-5" d="M605.04,142.49c0,13.28-8.92,25.39-23.53,34.21-14.6,8.81-34.8,14.28-57.15,14.28s-42.55-5.47-57.15-14.28c-14.61-8.82-23.53-20.93-23.53-34.21s8.92-25.39,23.53-34.21c14.6-8.81,34.8-14.28,57.15-14.28s42.55,5.47,57.15,14.28c14.61,8.82,23.53,20.93,23.53,34.21Z"/><g class="cls-2"><g><path class="cls-6" d="M533.27,137.5l16.77,7.81c3.55,1.66,4.6,4.97,.97,5.65l-6.83,1.27c-1.08,.2-2.27,.03-3.32-.5l-13-6.42c-.64-.32-1.4-.17-1.69,.31l-5.94,9.95c-.47,.79-1.34,1.35-2.41,1.55l-6.94,1.29c-3.6,.67-7.03-2.74-5.39-5.38l7.31-11.84c.47-.77,0-1.79-1.01-2.26l-14.27-6.5c-3.61-1.62-3.51-5.79,.14-6.47l6.27-1.17c1.05-.2,2.21-.03,3.23,.46l12.76,6.06,13.35,6.17Z"/><path class="cls-7" d="M523.61,125.61l15.04-2.8c1.74,4-.27,7.88-4.5,8.67-4.23,.79-9.07-1.81-10.81-5.81h.01c-1.25-2.87-.48-4.48,.48-6.51,.74-1.57,1.61-3.38,1.74-6.21,.02-.41,.6-.53,.95-.19,2.39,2.28,4.52,3.48,6.36,4.51,2.48,1.38,4.43,2.47,5.76,5.53l-15.04,2.82Z"/></g></g></g></g></g></svg>