<svg width="20" height="20" viewBox="0 0 20 20" fill="none" xmlns="http://www.w3.org/2000/svg">
<path d="M9.99975 7.49995V10.8333M9.99975 14.1666H10.0081M8.84585 3.24305L1.99178 15.0819C1.61161 15.7386 1.42153 16.0669 1.44962 16.3364C1.47412 16.5714 1.59727 16.785 1.7884 16.924C2.00753 17.0833 2.38691 17.0833 3.14568 17.0833H16.8538C17.6126 17.0833 17.992 17.0833 18.2111 16.924C18.4022 16.785 18.5254 16.5714 18.5499 16.3364C18.578 16.0669 18.3879 15.7386 18.0077 15.0819L11.1537 3.24305C10.7748 2.58875 10.5854 2.26159 10.3383 2.15172C10.1228 2.05587 9.87672 2.05587 9.66117 2.15172C9.41406 2.26159 9.22466 2.58875 8.84585 3.24305Z" stroke="#FF9900" stroke-width="1.66667" stroke-linecap="round" stroke-linejoin="round"/>
</svg>
