<?xml version="1.0" encoding="iso-8859-1"?>
<!-- Generator: Adobe Illustrator 19.0.0, SVG Export Plug-In . SVG Version: 6.00 Build 0)  -->
<svg version="1.1" id="Layer_1" xmlns="http://www.w3.org/2000/svg" xmlns:xlink="http://www.w3.org/1999/xlink" x="0px" y="0px"
	 viewBox="0 0 425 425" style="enable-background:new 0 0 425 425;"   xml:space="preserve">
<g>
	<path d="M293.333,45V20h-30v25H161.667V20h-30v25H0v360h316.213L425,296.213V45H293.333z M131.667,75v25h30V75h101.667v20h30V75
		H395v50H30V75H131.667z M30,155h365v120H295v100H30V155z M373.787,305L325,353.787V305H373.787z"/>
	<rect  fill="#ACFF00" stroke="black" stroke-width="15" x="97.5" y="285" width="50" height="50"/>
	<rect  fill="#ACFF00" stroke="black" stroke-width="15" x="187.5" y="285" width="50" height="50"/>
	<rect  fill="#ACFF00" stroke="black" stroke-width="15" x="187.5" y="195" width="50" height="50"/>
	<rect  fill="#ACFF00" stroke="black" stroke-width="15" x="277.5" y="195" width="50" height="50"/>
	<rect  fill="#ACFF00" stroke="black" stroke-width="15" x="97.5" y="195" width="50" height="50"/>
</g>
</svg>
