<svg width="24" height="24" viewBox="0 0 24 24" fill="none" xmlns="http://www.w3.org/2000/svg">
                                <path d="M13.9699 8.08008C13.8299 8.38008 13.4999 8.56008 13.1699 8.50008C12.3899 8.36008 11.5999 8.36007 10.8199 8.48007C10.4899 8.54007 10.1699 8.37008 10.0299 8.08008C9.65984 8.15008 9.08983 8.33008 8.48983 8.75008C8.23983 9.27008 7.40985 11.1401 7.34985 13.4001C7.55985 13.6401 8.08985 14.1401 9.09985 14.2601L9.72985 13.5301C9.91985 13.3101 10.2099 13.2201 10.4899 13.2901C11.5399 13.5601 12.6199 13.5501 13.6299 13.2701C13.9399 13.1801 14.2699 13.3001 14.4499 13.5701L14.9199 14.2601C15.8999 14.1201 16.4299 13.6401 16.6499 13.3901C16.5899 11.1301 15.7399 9.26008 15.4799 8.75008C14.8999 8.34008 14.3499 8.16008 13.9699 8.08008ZM10.3999 12.1801C9.83983 12.1801 9.37984 11.7201 9.37984 11.1601C9.37984 10.5901 9.83983 10.1301 10.3999 10.1301C10.9699 10.1301 11.4299 10.5901 11.4299 11.1601C11.4299 11.7201 10.9699 12.1801 10.3999 12.1801ZM13.4899 12.1801C12.9199 12.1801 12.4599 11.7201 12.4599 11.1601C12.4599 10.5901 12.9199 10.1301 13.4899 10.1301C14.0599 10.1301 14.5199 10.5901 14.5199 11.1601C14.5199 11.7201 14.0599 12.1801 13.4899 12.1801Z" fill="#0C1615" />
                                <path d="M18.2399 2.00098H5.75989C4.16989 2.00098 2.87988 3.29098 2.87988 4.88098V17.661C2.87988 19.191 4.05989 20.391 5.56989 20.391H17.5299C17.9799 20.801 18.2699 21.061 18.9999 21.691C19.2399 21.891 19.5299 22.001 19.8299 22.001C20.0099 22.001 20.1999 21.961 20.3699 21.881C20.8299 21.671 21.1199 21.231 21.1199 20.721V4.88098C21.1199 3.29098 19.8299 2.00098 18.2399 2.00098ZM14.5699 15.791C14.5699 15.791 14.5599 15.791 14.5499 15.791C14.2999 15.791 14.0699 15.671 13.9299 15.461L13.4999 14.841C12.5499 15.031 11.5499 15.041 10.5699 14.841L9.98987 15.531C9.83987 15.701 9.60989 15.791 9.38989 15.791C6.93989 15.701 5.98989 14.071 5.94989 14.001C5.87989 13.891 5.84989 13.761 5.84989 13.631C5.84989 10.481 7.17987 7.99098 7.23987 7.89098C7.28987 7.80098 7.35989 7.71097 7.44989 7.65097C8.97989 6.49097 10.4699 6.52098 10.5199 6.52098C10.7999 6.53098 11.0399 6.69097 11.1699 6.93097C11.7099 6.88097 12.2499 6.88098 12.7899 6.94098C12.9199 6.69098 13.1599 6.53098 13.4399 6.52098C13.4899 6.52098 14.9899 6.49097 16.5199 7.65097C16.5999 7.71097 16.6699 7.79098 16.7199 7.88098C16.7799 7.99099 18.1499 10.471 18.1499 13.631C18.1499 13.771 18.1199 13.901 18.0499 14.021C18.0099 14.081 17.0099 15.711 14.5699 15.791Z" fill="#0C1615" />
                            </svg>