 <svg width="24" height="24" viewBox="0 0 24 24" fill="none" xmlns="http://www.w3.org/2000/svg">
                                <path d="M17.46 3.5399C14.2 1.4799 9.80997 1.4799 6.53997 3.5299C3.27997 5.58989 1.37997 9.5399 1.81997 13.3699C2.25997 17.2099 5.00997 20.6299 8.64997 21.8899C8.87997 21.9699 9.07997 21.9999 9.24997 21.9999C9.61997 21.9999 9.86997 21.8499 10.03 21.6899C10.39 21.3499 10.39 20.8899 10.39 20.6899L10.4 19.9799C10.4 19.4599 10.4 18.9399 10.39 18.4199L10.38 17.5699L10.42 17.1899C10.47 16.8399 10.62 16.4999 10.85 16.2199C11.04 15.9799 11.07 15.6499 10.92 15.3799C10.78 15.1099 10.49 14.9699 10.17 14.9999C9.00997 15.1499 7.73997 14.5299 7.11997 13.5199C6.49997 12.4999 6.53997 11.1099 7.24997 10.0899C7.33997 9.94989 7.46997 9.76989 7.52997 9.51989C7.60997 9.19989 7.54997 8.9199 7.49997 8.6599C7.42997 8.2899 7.43997 7.8999 7.52997 7.5099C7.79997 7.5999 8.06997 7.70989 8.30997 7.84989L8.48997 7.94989C8.76997 8.11989 9.11997 8.3299 9.55997 8.3999C9.96997 8.4699 10.36 8.3899 10.67 8.3299L10.79 8.2999C11.58 8.1499 12.42 8.1399 13.21 8.2899L13.35 8.3199C13.76 8.3999 14.28 8.4999 14.81 8.3299C15.09 8.2399 15.32 8.0999 15.5 7.9799L15.61 7.9099C15.9 7.7299 16.2 7.5899 16.54 7.4999C16.61 7.8199 16.63 8.1699 16.56 8.5699C16.52 8.7599 16.47 9.0299 16.52 9.3199C16.58 9.6699 16.76 9.9399 16.95 10.2099C17.6 11.1999 17.61 12.5799 16.98 13.5799C16.34 14.5699 15.08 15.1499 13.92 14.9799C13.61 14.9299 13.32 15.0799 13.17 15.3399C13.01 15.5999 13.03 15.9299 13.21 16.1699C13.55 16.6199 13.71 17.2699 13.7 18.1699C13.7 18.4499 13.68 18.7399 13.67 19.0199C13.63 19.6099 13.6 20.2099 13.67 20.8399C13.69 21.0199 13.75 21.5399 14.23 21.8299C14.69 22.1199 15.17 21.9499 15.35 21.8899C17.77 21.0499 19.86 19.2199 21.1 16.8599C21.68 15.7499 22.04 14.5799 22.18 13.3799C22.62 9.53989 20.72 5.5899 17.46 3.5399Z" fill="#0C1615" />
                            </svg>