<svg width="24" height="32" viewBox="0 0 27 37" fill="none" xmlns="http://www.w3.org/2000/svg">
<mask id="path-1-inside-1_1004_7775" fill="white">
<path fill-rule="evenodd" clip-rule="evenodd" d="M5.30524 11.4371C2.35352 14.8416 0 17.5561 0 23.2848L0.0361183 23.2848C0.0892638 30.7547 5.98841 36.7983 13.2518 36.7983C20.5233 36.7983 26.4275 30.7412 26.4677 23.2597L26.4712 23.2597C26.4712 17.1577 24.1106 14.4731 21.1122 11.0631C18.883 8.5279 16.3013 5.59174 14.075 0.552163C13.753 -0.200573 12.7411 -0.175482 12.4191 0.577255C10.2319 5.75481 7.58945 8.80255 5.30524 11.4371Z"/>
</mask>
<path fill-rule="evenodd" clip-rule="evenodd" d="M5.30524 11.4371C2.35352 14.8416 0 17.5561 0 23.2848L0.0361183 23.2848C0.0892638 30.7547 5.98841 36.7983 13.2518 36.7983C20.5233 36.7983 26.4275 30.7412 26.4677 23.2597L26.4712 23.2597C26.4712 17.1577 24.1106 14.4731 21.1122 11.0631C18.883 8.5279 16.3013 5.59174 14.075 0.552163C13.753 -0.200573 12.7411 -0.175482 12.4191 0.577255C10.2319 5.75481 7.58945 8.80255 5.30524 11.4371Z" fill="url(#paint0_linear_1004_7775)"/>
<path d="M0 23.2848H-1V24.2858L0.00095055 24.2848L0 23.2848ZM5.30524 11.4371L6.0608 12.0922L6.0608 12.0922L5.30524 11.4371ZM0.0361183 23.2848L1.03609 23.2777L1.02902 22.2838L0.0351678 22.2848L0.0361183 23.2848ZM26.4677 23.2597L26.4666 22.2597L25.473 22.2608L25.4677 23.2544L26.4677 23.2597ZM26.4712 23.2597L26.4723 24.2597L27.4712 24.2586V23.2597H26.4712ZM21.1122 11.0631L20.3613 11.7235L20.3613 11.7235L21.1122 11.0631ZM14.075 0.552163L13.1555 0.945466L13.1603 0.956246L14.075 0.552163ZM12.4191 0.577255L11.4997 0.183975L11.498 0.188108L12.4191 0.577255ZM1 23.2848C1 20.573 1.55328 18.6233 2.43078 16.9548C3.32506 15.2545 4.57065 13.8109 6.0608 12.0922L4.54969 10.782C3.08811 12.4678 1.68108 14.0837 0.660667 16.0239C-0.376526 17.996 -1 20.2679 -1 23.2848H1ZM0.0351678 22.2848L-0.00095055 22.2848L0.00095055 24.2848L0.0370689 24.2848L0.0351678 22.2848ZM13.2518 35.7983C6.56587 35.7983 1.08553 30.2265 1.03609 23.2777L-0.963856 23.2919C-0.907003 31.283 5.41094 37.7983 13.2518 37.7983V35.7983ZM25.4677 23.2544C25.4304 30.214 19.9452 35.7983 13.2518 35.7983V37.7983C21.1015 37.7983 27.4247 31.2684 27.4676 23.2651L25.4677 23.2544ZM26.4701 22.2597L26.4666 22.2597L26.4688 24.2597L26.4723 24.2597L26.4701 22.2597ZM20.3613 11.7235C21.8748 13.4448 23.1291 14.8788 24.0284 16.6124C24.9117 18.3152 25.4712 20.3512 25.4712 23.2597H27.4712C27.4712 20.0663 26.8503 17.7089 25.8038 15.6914C24.7732 13.7048 23.348 12.0914 21.8632 10.4028L20.3613 11.7235ZM13.1603 0.956246C15.4514 6.14264 18.1192 9.17365 20.3613 11.7235L21.8632 10.4028C19.6468 7.88216 17.1512 5.04085 14.9897 0.148081L13.1603 0.956246ZM13.3386 0.97053C13.3434 0.95915 13.3409 0.970173 13.3218 0.982872C13.3058 0.99348 13.2866 0.999591 13.2659 0.99998C13.2449 1.00037 13.2181 0.994807 13.1915 0.978031C13.1612 0.958887 13.1528 0.93882 13.1556 0.945439L14.9944 0.158888C14.3015 -1.4612 12.1425 -1.31886 11.4997 0.183979L13.3386 0.97053ZM6.0608 12.0922C8.35711 9.44368 11.0884 6.29705 13.3403 0.966402L11.498 0.188108C9.3754 5.21257 6.8218 8.16142 4.54969 10.782L6.0608 12.0922Z" fill="#0C1615" mask="url(#path-1-inside-1_1004_7775)"/>
<defs>
<linearGradient id="paint0_linear_1004_7775" x1="12.4402" y1="1.25694" x2="15.8079" y2="41.8203" gradientUnits="userSpaceOnUse">
<stop stop-color="#ACFF00"/>
<stop offset="1" stop-color="#D4FF78" stop-opacity="0"/>
</linearGradient>
</defs>
</svg>
