<?xml version="1.0" encoding="utf-8"?>
<!-- Svg Vector Icons : http://www.onlinewebfonts.com/icon -->
<!DOCTYPE svg PUBLIC "-//W3C//DTD SVG 1.1//EN" "http://www.w3.org/Graphics/SVG/1.1/DTD/svg11.dtd">
<svg version="1.1" xmlns="http://www.w3.org/2000/svg" xmlns:xlink="http://www.w3.org/1999/xlink" x="0px" y="0px" viewBox="0 0 1000 1000" enable-background="new 0 0 1000 1000" xml:space="preserve">
<metadata> Svg Vector Icons : http://www.onlinewebfonts.com/icon </metadata>
<g><g transform="translate(0.000000,266.000000) scale(0.100000,-0.100000)"><path d="M3263.6,186.5c-96.5-50.2-173.7-173.7-173.7-277.9c0-38.6,71.4-235.5,175.6-484.4c158.3-380.2,171.8-420.8,140.9-438.1c-17.4-9.6-162.1-104.2-318.5-208.4c-202.7-133.2-299.2-187.2-324.2-177.6c-100.4,30.9-299.2,314.6-426.5,608c-34.7,79.1-79.1,167.9-98.4,194.9c-48.2,69.5-148.6,113.9-256.7,113.9c-79.1,0-113.9-19.3-362.9-185.3c-306.9-208.4-357.1-247-374.4-303c-5.8-19.3-36.7-59.8-65.6-88.8c-75.3-69.5-393.7-799-378.3-862.7c5.8-25.1,32.8-67.5,56-96.5l46.3-52.1l-36.7-194.9C781.6-2741.4,650.3-2973,470.8-2973c-84.9,0-177.6-84.9-247-225.8c-46.3-94.6-56-138.9-59.8-276c-3.9-90.7-19.3-243.2-34.7-337.8c-38.6-220-38.6-403.4-1.9-513.4c65.6-185.3,229.7-345.5,420.8-411.1c67.6-23.2,368.6-50.2,1094.4-98.4c1001.7-67.6,1005.6-67.6,2418.4-67.6h1412.8l102.3,67.6l102.3,69.5l111.9-69.5l113.9-71.4l629.2,21.2c347.4,11.6,681.3,21.2,743.1,21.2c106.2,0,119.6,5.8,220,88.8l106.2,86.9l119.7-61.8l117.7-61.8l167.9,44.4c276,73.3,656.2,208.4,885.9,318.5c627.3,297.2,980.5,669.7,1005.6,1057.7c9.6,164.1-67.5,582.9-131.2,706.4c-48.3,98.4-152.5,202.7-247,250.9c-40.5,21.2-376.4,100.4-748.9,175.6c-951.5,194.9-1663.7,389.9-2076.8,565.5l-324.2,137v73.3c0,48.3-13.5,86.9-38.6,111.9c-50.2,50.2-156.3,50.2-202.7,0c-44.4-48.3-59.8-48.3-177.6,1.9c-86.9,34.7-94.6,44.4-86.9,94.6c5.8,40.5-5.8,69.5-40.5,104.2c-61.8,61.8-142.8,65.6-214.2,9.6l-50.2-38.6l-115.8,52.1c-100.4,44.4-115.8,57.9-115.8,104.2c0,29-15.4,73.3-36.7,98.4c-44.4,56-156.3,59.8-212.3,9.6c-38.6-34.7-42.5-34.7-164.1,17.4c-108.1,46.3-123.5,57.9-108.1,88.8c71.4,131.2-98.4,270.2-223.9,183.4c-36.7-25.1-54-5.8-316.5,351.3L3987.4,84.2l-260.6,73.3C3421.9,242.4,3375.6,246.3,3263.6,186.5z M3628.4-128.1l185.3-50.2l160.2-222c88.8-119.7,164.1-229.7,167.9-243.2c5.8-13.5-69.5-54.1-198.8-106.2c-113.9-44.4-214.2-83-223.9-86.9c-15.4-3.9-318.5,689-320.4,735.4C3398.7-68.3,3418-70.2,3628.4-128.1z M2281.2-1326.7c152.5-227.7,366.7-391.8,513.4-391.8c90.7,0,133.2,21.2,335.8,164.1c100.4,71.4,274.1,185.3,387.9,252.8c218.1,131.2,571.3,306.9,586.7,291.4c3.9-3.9-23.2-32.8-63.7-63.7c-119.7-90.7-140.9-119.7-140.9-191.1c0-86.9,56-144.8,140.9-144.8c48.3,0,106.2,34.7,272.1,166l210.4,167.9l137-57.9c90.7-38.6,135.1-67.5,129.3-84.9c-3.9-15.4-11.6-57.9-17.4-96.5c-5.8-57.9,1.9-77.2,44.4-111.9c75.3-57.9,133.2-50.2,220,27l75.3,69.5l110-48.3c106.2-48.3,108.1-50.2,79.1-92.6c-44.4-63.7-38.6-144.8,17.4-198.8c67.5-69.5,131.2-61.8,231.6,30.9l86.9,81.1l83-34.7c108.1-48.3,123.5-61.8,94.6-90.7c-36.7-36.7-27-135.1,19.3-183.4c59.8-65.6,142.8-57.9,235.5,21.2l77.2,63.7l347.4-154.4c297.2-131.3,432.3-175.6,909.1-306.9c308.8-84.9,806.8-204.6,1107.9-266.3c301.1-61.8,550.1-117.7,553.9-121.6c27-27-625.3-135.1-1119.4-185.3c-316.5-32.8-347.4-40.5-391.8-84.9c-54-52.1-65.6-166-23.2-218.1c13.5-15.4,214.2-169.8,447.8-339.7c380.2-279.9,418.8-314.6,378.3-328.1c-34.8-13.5-52.1-7.7-75.3,19.3c-15.4,21.2-640.8,360.9-1389.6,756.6c-748.9,393.7-1366.5,723.8-1376.1,731.5c-7.7,7.7,0,42.5,17.4,77.2c52.1,106.2,9.6,250.9-96.5,320.4c-59.8,38.6-855,150.5-1082.8,150.5c-218.1,1.9-322.3-29-691-200.7l-285.7-133.2l-930.3,397.6c-511.5,218.1-936.1,403.4-943.8,411.1c-7.7,5.8-3.9,46.3,5.8,88.8c19.3,69.5,42.5,90.7,254.8,235.5l231.6,156.3l111.9-229.7C2169.3-1131.8,2246.5-1276.5,2281.2-1326.7z M4898.4-1986.8c223.9-30.9,416.9-61.8,428.5-69.5c57.9-34.7,7.7-94.6-277.9-326.2c-164-133.2-312.7-243.2-332-243.2s-272.1,102.3-563.6,225.8l-528.8,227.7l171.8,81.1C4170.8-1911.5,4265.3-1901.9,4898.4-1986.8z M1536.2-2299.5c96.5-108.1,90.7-158.3-32.8-274.1c-90.7-84.9-476.7-384.1-555.9-428.5c-23.2-15.4-23.2-7.7,3.9,32.8c84.9,129.3,179.5,438.1,227.7,745l23.2,139l133.2-69.5C1408.8-2193.3,1499.5-2258.9,1536.2-2299.5z M6560.2-3063.8c677.5-357.1,1264.2-669.7,1306.7-694.8l77.2-46.3l-193,11.6c-395.7,25.1-808.7,83-1167.7,166c-196.9,46.3-332,48.3-586.7,9.6l-191.1-28.9l-252.8,98.4c-185.3,73.3-289.5,102.3-387.9,110l-135.1,11.6l193,104.2c241.3,129.3,241.3,127.4,241.3,206.5c0,98.4-106.2,202.7-310.7,306.9c-94.6,46.3-171.8,92.6-169.8,100.4c1.9,13.5,326.2,291.4,341.6,293.4C5328.8-2413.3,5884.6-2704.8,6560.2-3063.8z M3392.9-2791.6c231.6-90.7,440-177.6,465.1-193c57.9-38.6,84.9-110,61.8-169.8c-21.2-59.8-150.5-185.3-189.2-185.3c-17.4,0-140.9,52.1-277.9,115.8c-135.1,63.7-301.1,129.3-368.6,144.7c-249,59.8-492.2,27-725.7-96.5l-123.5-65.6l-223.9,65.6c-123.5,38.6-237.4,73.3-252.8,79.2c-17.4,7.7,61.8,57.9,212.3,135.1c592.5,303,669.7,330,882.1,333.9C2960.6-2625.6,3018.5-2643,3392.9-2791.6z M9490-2810.9c23.2-40.5,61.8-177.6,84.9-301.1c36.7-194.9,40.5-237.4,19.3-322.3c-13.5-54.1-36.7-100.4-54-108.1c-146.7-59.8-399.5-135.1-588.7-173.7l-227.7-46.3l-447.8,330c-247,181.4-463.2,343.5-482.5,360.9c-32.8,30.9-21.2,34.7,202.7,57.9c534.6,52.1,1090.5,158.3,1318.2,249c54,21.2,106.2,36.7,115.8,34.8C9441.7-2731.8,9468.8-2768.5,9490-2810.9z M1870.1-3339.8l409.2-121.6l54,38.6c106.2,77.2,254.8,140.9,386,162.1c223.9,36.7,333.9,3.8,999.8-308.8c320.4-150.6,598.3-272.1,617.6-272.1c19.3,0,181.4,48.3,362.8,108.1c409.2,135.1,436.2,135.1,810.6-11.6l266.3-104.2l196.9,27c287.6,40.5,413,34.7,735.4-32.8c507.6-108.1,714.1-129.3,1312.4-129.3c567.4-1.9,758.5,15.4,1117.5,106.2c83,21.2,154.4,34.7,160.2,30.9c19.3-19.3-235.5-179.5-478.7-301.1c-229.7-113.9-772-314.6-901.3-333.9c-36.7-5.8-50.2,9.6-86.8,100.4c-73.3,175.7-179.5,326.2-254.8,359c-218.1,90.7-719.9-44.4-1370.3-368.7l-250.9-125.4l-279.9,279.9c-166,164.1-310.7,291.5-353.2,308.8c-38.6,15.4-117.7,29-175.6,29c-96.5,0-148.6-21.2-609.9-250.9c-276-137-505.7-250.9-507.6-250.9c-3.9,0-7.7,54-7.7,121.6c-1.9,160.2-61.8,297.2-177.6,405.3c-75.3,71.4-154.4,110-513.4,254.8l-424.6,171.8h-214.2l-216.2,1.9l-430.4-216.2c-237.4-119.6-669.7-337.8-961.2-486.4l-530.8-270.2l-63.7,67.6c-106.2,113.9-115.8,183.3-67.6,476.7c25.1,140.9,42.5,306.9,42.5,370.6c0,63.7,9.6,129.3,19.3,144.8c9.6,17.4,125.5,52.1,293.4,90.7c231.6,52.1,308.8,61.8,478.7,56C1441.6-3216.2,1493.7-3227.8,1870.1-3339.8z M3244.3-3803c216.2-86.9,418.8-175.6,447.8-196.9c139-98.4,167.9-287.6,69.5-476.7l-59.8-117.7h-581c-519.2,0-1928.1,69.5-2171.3,108.1c-61.8,9.6-1.9,44.4,694.8,399.5c418.8,212.3,804.8,403.4,856.9,422.7C2675-3600.3,2792.7-3621.5,3244.3-3803z M5431.1-4281.6l173.7-173.7l-106.2-69.5l-104.2-69.5l-636.9,3.9l-635,5.8l482.5,247.1C5213-4028.8,5180.2-4030.7,5431.1-4281.6z M7542.6-4264.3c54-79.1,56-98.4,9.6-98.4c-19.3,0-84.9-42.5-146.7-94.6c-133.2-112-121.6-110-745-125.4l-395.7-9.6l125.4,63.7C6730-4353,7229.9-4187,7394-4194.8C7490.5-4198.6,7502-4204.4,7542.6-4264.3z"/></g></g>
</svg>