<?xml version="1.0" encoding="utf-8"?>
<!-- Svg Vector Icons : http://www.onlinewebfonts.com/icon -->
<!DOCTYPE svg PUBLIC "-//W3C//DTD SVG 1.1//EN" "http://www.w3.org/Graphics/SVG/1.1/DTD/svg11.dtd">
<svg version="1.1" xmlns="http://www.w3.org/2000/svg" xmlns:xlink="http://www.w3.org/1999/xlink" x="0px" y="0px" viewBox="0 0 1000 1000" enable-background="new 0 0 1000 1000" xml:space="preserve">
<metadata> Svg Vector Icons : http://www.onlinewebfonts.com/icon </metadata>
<g><g transform="translate(0.000000,298.000000) scale(0.100000,-0.100000)"><path d="M3854.4,815.4c-84.7-42.4-196.4-150.2-258-252.2c-30.8-53.9-77-84.7-238.7-157.9c-233-107.8-429.4-159.8-768.2-209.9c-304.2-44.3-1080.1-84.7-1316.9-67.4c-190.6,13.5-259.9-3.9-292.6-75.1c-11.6-21.2-28.9-167.5-40.4-323.5c-36.6-494.8-123.2-901.1-223.3-1037.8c-211.8-292.6-294.6-587.2-329.2-1172.5c-9.6-181-21.2-234.9-57.8-298.4c-63.5-109.7-104-285-104-448.6c0-111.7-13.5-181-61.6-319.6c-57.8-159.8-61.6-196.4-63.5-406.3c0-209.9,3.9-240.7,50.1-336.9c100.1-211.8,194.5-281.1,573.7-412c637.3-221.4,1476.7-240.7,2543.4-57.8c258,44.3,319.6,46.2,741.3,40.4l462.1-5.8l173.3-67.4l173.3-65.5l1422.8-5.8c1186-3.9,1459.4,0,1646.2,25c566,73.2,1087.8,265.7,1538.3,568c221.4,148.3,350.4,271.5,419.7,406.2c50.1,92.4,55.8,123.2,55.8,286.9c0,211.8-17.3,252.2-207.9,516c-142.5,196.4-300.4,344.6-442.8,413.9c-63.5,30.8-340.8,111.7-645,186.8c-747,186.8-1124.4,298.4-1303.5,385.1c-387,184.8-879.9,564.1-1509.5,1153.3c-192.5,182.9-317.7,321.5-498.7,560.3c-465.9,614.2-878,1060.9-1062.8,1155.2C4112.4,852,3952.6,861.6,3854.4,815.4z M4125.9,491.9c104-69.3,177.1-140.5,381.2-373.5c184.8-209.9,512.1-616.1,512.1-635.4c0-11.6-329.2-179.1-336.9-169.4c-1.9,3.8-36.6,88.6-75.1,188.7C4484-185.8,4459-126.1,4382,6.8c-100.1,171.4-252.2,333.1-379.3,406.2l-105.9,59.7l44.3,34.7C3998.8,553.6,4037.3,551.6,4125.9,491.9z M3866,135.7l61.6-44.3l-57.8-27c-30.8-15.4-71.2-50.1-88.6-77c-28.9-50.1-40.4-52-643.1-132.9c-698.9-92.4-679.6-90.5-679.6-57.8c1.9,53.9,40.4,69.3,277.3,109.7c313.8,52,523.7,113.6,737.4,211.8C3667.7,207,3760.1,212.8,3866,135.7z M2246.8-166.5c0-7.7-23.1-100.1-52-206c-46.2-171.4-50.1-229.1-52-529.5c-1.9-373.5,23.1-516,140.5-775.9c119.4-267.6,363.9-583.4,594.9-774c65.5-52,113.6-98.2,109.8-104c-28.9-27-275.3,80.8-837.5,373.5c-354.3,182.9-691.2,348.5-749,363.9c-130.9,38.5-390.8,40.4-512.1,1.9c-52-15.4-98.2-25-102-21.2c-3.9,3.9,13.5,57.8,38.5,119.4l44.3,113.6l259.9,146.3l259.9,148.2l90.5-48.1c50.1-28.9,144.4-105.9,209.9-173.3c119.4-125.1,127.1-127.1,206-57.8c55.8,52,53.9,78.9-5.8,63.5c-42.4-11.6-65.5,3.8-157.9,104c-59.7,65.5-130.9,129-157.9,144.4c-48.1,25-50.1,28.9-46.2,207.9c5.8,209.9,71.2,415.9,154,487.1c63.5,53.9,55.8,130.9-15.4,138.6c-67.4,7.7-109.7-44.3-78.9-94.3c19.3-28.9,13.5-59.7-36.6-171.4c-57.8-129-63.5-132.8-88.6-96.3c-42.4,59.7-129,46.2-136.7-23.1c-3.9-36.6,5.8-57.8,36.6-73.2c42.4-23.1,42.4-23.1-23.1-84.7c-102-92.4-179.1-204.1-159.8-223.3c11.6-11.6,46.2,13.5,90.5,67.4c40.4,48.1,80.9,86.6,90.5,86.6c25,0,23.1-65.5-1.9-123.2c-27-57.8-358.1-285-336.9-231c113.6,285,190.6,648.8,217.6,1018.5l15.4,192.5l452.5,21.2c248.4,11.6,471.7,21.2,496.7,23.1C2227.5-153.1,2246.8-156.9,2246.8-166.5z M4314.6-594c38.5-102,69.3-190.6,69.3-196.4c0-30.8-125.2,27-194.5,90.5c-40.4,36.6-92.4,67.4-115.5,67.4c-23.1,0-132.8-86.6-273.4-217.6c-285-261.9-465.9-410.1-706.6-575.7c-173.3-119.4-514.1-323.5-541-323.5c-23.1,0-132.8,261.9-173.3,415.9c-40.4,152.1-63.5,583.4-32.7,614.2c15.4,15.4,1426.7,279.2,1492.1,279.2c23.1,0,48.1-9.6,55.8-21.2c21.2-34.6,217.6-7.7,275.3,36.6c27,21.2,55.8,32.7,61.6,25C4237.6-405.3,4274.1-493.8,4314.6-594z M5535.2-1123.4c11.6-48.1-310-279.2-388.9-279.2c-13.5,0-30.8,19.3-36.6,44.3c-13.5,48.1-184.8,184.8-259.9,204.1c-48.1,13.5-44.3,21.2,136.7,217.6l186.8,206l179.1-184.8C5448.6-1015.6,5531.4-1109.9,5535.2-1123.4z M4663.1-990.6c-53.9-78.9-63.5-202.2-27-304.2c21.2-57.8,7.7-82.8-358.1-662.3c-269.6-425.5-390.8-604.6-419.7-610.3c-23.1-5.8-125.2-19.3-225.3-28.9c-167.5-15.4-186.8-15.4-248.4,21.2c-100.1,57.8-325.4,233-452.5,348.5l-111.7,102L3040-1986c392.8,246.4,708.5,500.6,1020.4,820.2l167.5,171.4l169.4,3.8c119.4,1.9,186.8,11.6,227.2,34.7C4709.3-907.8,4715.1-913.6,4663.1-990.6z M5999.3-1525.8c105.9-94.3,194.5-177.1,194.5-184.8c0-23.1-65.5-73.2-123.2-96.3c-50.1-19.3-61.6-15.4-96.3,27c-52,61.6-163.7,127.1-217.6,127.1c-30.8,0-48.1,15.4-55.8,50.1c-11.6,48.1,1.9,211.8,25,269.6C5739.3-1296.7,5739.3-1298.6,5999.3-1525.8z M5535.2-1762.6c19.2-34.6,13.5-55.8-44.3-150.2c-75.1-127.1-169.4-346.6-206-479.4l-23.1-90.5l-136.7,15.4c-73.2,7.7-261.8,13.5-417.8,11.6l-283-3.8l281.1,423.6l281.1,421.6h111.7c90.5,0,136.7,13.5,252.2,73.2L5491-1470l11.6-125.1C5508.3-1664.5,5523.7-1739.5,5535.2-1762.6z M6790.6-2145.8c15.4-17.3-46.2-46.2-96.3-46.2c-28.9,0-59.7,9.6-71.2,21.2c-9.6,9.6-69.3,25-129,30.8l-107.8,11.5v119.4c0,65.5,5.8,123.2,11.5,129C6405.5-1870.5,6742.4-2099.6,6790.6-2145.8z M1380.4-2026.4c48.1-17.3,321.5-152.1,606.5-302.3c693.1-363.9,758.6-392.8,993.5-440.9c271.5-57.8,702.7-46.2,1057,27c369.7,75.1,577.6,94.3,856.8,82.8c419.7-19.3,664.2-98.2,1047.4-336.9c236.8-148.3,362-204.1,569.9-248.4c186.8-40.4,531.4-25,712.4,32.7c259.9,80.9,537.2,258,733.6,465.9l98.2,104l512.1-127.1c444.8-109.8,523.7-134.8,616.1-198.3c98.2-63.5,263.8-250.3,263.8-294.6c0-19.3-167.5-121.3-336.9-206c-132.9-65.5-375.4-140.5-554.5-167.5c-192.5-30.8-654.6-15.4-812.5,28.9c-154,42.4-356.2,32.7-471.7-23.1c-86.6-44.3-140.5-88.6-275.3-231c-132.9-144.4-313.8-148.2-542.9-13.5c-367.7,213.7-641.1,302.3-1047.4,336.9c-269.6,25-656.5,1.9-955-53.9c-127.1-25-273.4-32.7-548.7-32.7h-375.4l-346.6,88.6c-706.6,184.8-1320.8,277.3-2064,315.8c-198.3,9.6-261.8,19.3-283,44.3c-13.5,17.3-55.8,100.1-92.4,184.8l-65.5,154l13.5,240.7c7.7,130.9,21.2,298.4,27,371.6l13.5,132.9l84.7,38.5C991.4-1976.3,1205.1-1966.7,1380.4-2026.4z M6174.5-2055.3c0-73.2,36.6-177.1,78.9-225.3c34.7-38.5,34.7-44.3-53.9-298.4c-50.1-140.5-92.4-261.9-94.3-265.7c-3.9-3.9-48.1,19.2-98.2,52c-50.1,30.8-138.6,80.9-192.5,109.8c-55.8,28.9-102,61.6-102,75.1c0,55.8,84.7,321.5,144.4,450.5c52,111.7,73.2,138.6,100.1,130.9c19.3-5.8,65.4-1.9,102.1,5.8C6166.7-1993.7,6174.5-1995.6,6174.5-2055.3z M7252.7-2407.6c0-23.1-17.3-19.2-78.9,17.3c-79,46.2-69.3,69.3,11.5,30.8C7221.9-2376.8,7252.7-2398,7252.7-2407.6z M6933-2430.7c52-90.5,127.1-146.3,250.3-184.8l75.1-23.1l-13.5-100.1c-5.8-53.9-11.5-134.8-11.5-179.1c0-71.2-5.8-80.8-59.7-100.1c-132.9-46.2-375.4-67.4-517.9-46.2c-75.1,11.5-140.5,25-144.4,28.9c-3.9,3.8,27,144.4,65.5,311.9l71.2,308.1l113.6,32.7c63.5,17.3,117.4,32.7,119.4,34.6C6881.1-2347.9,6906.1-2384.5,6933-2430.7z M7724.4-2686.8l-96.3-88.6l-5.8,61.6c-7.7,75.1-3.9,78.9,77,98.2C7816.8-2586.7,7820.6-2598.2,7724.4-2686.8z M598.7-3177.8c80.9-181,192.5-246.4,421.7-246.4c525.6,0,1345.8-117.4,2033.2-290.7c589.2-148.3,897.2-163.7,1455.6-71.2c198.3,32.7,331.2,42.4,645,42.4c535.2,0,729.7-46.2,1114.8-265.7c227.2-130.9,331.1-165.6,491-165.6c175.2,0,325.4,79,444.7,231c119.4,152.1,250.3,186.8,519.9,132.9c610.3-123.2,1184.1-28.9,1688.5,273.4c171.3,104,188.7,102,188.7-25v-73.2l-254.2-125.1c-277.2-136.7-562.2-236.8-829.8-292.7c-146.3-28.9-173.3-30.8-211.8-5.8c-130.9,84.7-177.1,96.3-350.4,96.3c-296.5,0-508.3-80.9-714.3-275.3c-69.3-63.5-152.1-161.7-186.8-217.6l-61.6-104h-100.1c-94.3,0-115.5,11.6-413.9,206c-489,319.6-648.8,379.3-997.3,379.3c-242.6-1.9-338.9-25-770.1-190.6l-317.7-119.4l-750.9-17.3c-1297.7-28.9-1561.5-17.3-2012,82.8c-423.6,92.4-743.2,248.4-947.3,462.1c-129,136.7-177.1,221.4-157.9,281.1c7.7,23.1,13.5,123.2,9.6,221.4c-1.9,96.3,0,177.1,7.7,177.1C548.6-3077.6,575.6-3123.8,598.7-3177.8z M668-4030.7c390.8-300.3,1058.9-485.2,1788.6-492.9c273.4-3.9,109.7-30.8-286.9-46.2c-627.7-26.9-1263,77-1603.8,263.8c-115.5,63.5-167.5,173.3-167.5,352.3c0,77,5.8,144.4,13.5,152.1c7.7,7.7,44.3-21.2,78.9-65.5C527.4-3909.4,606.4-3982.6,668-4030.7z M9129.9-4096.1c-48.1-46.2-433.2-221.4-637.3-288.8c-377.4-125.2-733.6-182.9-1074.4-171.4l-192.5,5.8l107.8,115.5c127.1,136.7,248.4,207.9,421.6,250.3c221.4,52,344.6,34.6,444.8-61.6c48.1-46.2,59.7-48.1,179.1-36.6c146.3,15.4,516,105.9,654.6,161.7C9149.1-4075,9151-4075,9129.9-4096.1z M5852.9-4234.8c75.1-25,219.5-100.1,346.6-184.8l215.6-140.5l-779.8,5.8c-671.9,3.9-793.2,9.6-876,36.6c-200.2,69.3-198.3,75.1,96.3,186.8c144.4,53.9,311.9,111.7,371.6,127.1C5385.1-4163.5,5685.4-4178.9,5852.9-4234.8z"/></g></g>
</svg>