<svg width="42" height="38" viewBox="0 0 42 38" fill="none" xmlns="http://www.w3.org/2000/svg">
<path d="M29.501 23.2074L40.4906 32.8571C42.8185 34.9069 42.4876 37.9996 39.2617 37.9996H33.1878C32.2307 37.9996 31.3089 37.652 30.6354 37.0167L22.2454 29.213C21.8319 28.8294 21.1583 28.8294 20.7447 29.213L12.2957 37.0167C11.6221 37.64 10.7122 37.9876 9.75507 37.9876H3.58669C0.384333 37.9876 -1.21094 34.4154 1.08153 32.3536L11.3385 23.1115C12.0003 22.5121 11.9884 21.5291 11.3149 20.9538L1.9087 12.8743C-0.478294 10.8485 1.09334 7.19238 4.34297 7.19238H9.9205C10.854 7.19238 11.7521 7.52803 12.4139 8.12739L20.7329 15.5715L29.501 23.2074Z" fill="#0C1615"/>
<path fill-rule="evenodd" clip-rule="evenodd" d="M25.0014 11.8361C25.0005 11.8902 25 11.9448 25 12L25.0068 12C25.1753 15.7255 28.4671 18.7 32.5 18.7C36.5376 18.7 39.8323 15.7187 39.9938 11.9871L40 11.9871C40 11.9328 39.9996 11.8791 39.9988 11.8258C39.9996 11.784 40 11.742 40 11.7H39.9962C39.9168 8.75634 38.6098 7.40441 36.9633 5.70147C35.7001 4.39492 34.2372 2.88175 32.9757 0.284562C32.7932 -0.103367 32.2198 -0.0904358 32.0374 0.297493C30.798 2.96578 29.3006 4.53646 28.0062 5.8942C26.3913 7.58821 25.0924 8.95074 25.0047 11.7H25C25 11.7455 25.0005 11.7908 25.0014 11.8361Z" fill="#0C1615"/>
</svg>
