<svg width="24" height="24" viewBox="0 0 24 24" fill="none" xmlns="http://www.w3.org/2000/svg">
<path d="M17.89 5.97V21.25H5.97C4.19 21.25 2.75 19.81 2.75 18.03V5.97C2.75 4.19 4.19 2.75 5.97 2.75H14.67C16.44 2.75 17.89 4.19 17.89 5.97Z" stroke="black" stroke-width="1.5" stroke-linecap="round" stroke-linejoin="round"/>
<path d="M21.2499 19.1301V14C21.2499 12.3 19.7399 10.92 17.8899 10.92" stroke="black" stroke-width="1.5" stroke-linecap="round" stroke-linejoin="round"/>
<path d="M14.21 21.25H19.18" stroke="black" stroke-width="1.5" stroke-linecap="round" stroke-linejoin="round"/>
<path d="M17.8899 16.89V19.71C17.8899 20.56 18.6399 21.25 19.5699 21.25C20.4999 21.25 21.2499 20.56 21.2499 19.71V16.89" stroke="black" stroke-width="1.5" stroke-linecap="round" stroke-linejoin="round"/>
<path d="M6.8501 6.87H14.0401" stroke="black" stroke-width="1.5" stroke-linecap="round" stroke-linejoin="round"/>
<path d="M6.8501 12H14.0401" stroke="black" stroke-width="1.5" stroke-linecap="round" stroke-linejoin="round"/>
<path d="M6.87988 17.12H8.92989" stroke="black" stroke-width="1.5" stroke-linecap="round" stroke-linejoin="round"/>
</svg>
