<?xml version="1.0" encoding="utf-8"?>
<!-- Svg Vector Icons : http://www.onlinewebfonts.com/icon -->
<!DOCTYPE svg PUBLIC "-//W3C//DTD SVG 1.1//EN" "http://www.w3.org/Graphics/SVG/1.1/DTD/svg11.dtd">
<svg version="1.1" xmlns="http://www.w3.org/2000/svg" xmlns:xlink="http://www.w3.org/1999/xlink" x="0px" y="0px" viewBox="0 0 1000 1000" enable-background="new 0 0 1000 1000" xml:space="preserve">
<metadata> Svg Vector Icons : http://www.onlinewebfonts.com/icon </metadata>
<g><g transform="translate(0.000000,320.000000) scale(0.100000,-0.100000)"><path d="M3196.9,755.7c-271.8-277.5-497.6-516.8-503.4-534c-7.7-23-264.1-99.5-943.6-285.2C1237-203.2,793-327.6,760.4-341c-30.6-13.4-158.9-126.3-281.4-252.6c-268-271.8-275.6-296.7-145.5-438.3L414-1118l-109.1-101.4c-124.4-114.8-139.7-179.9-65.1-273.7c97.6-120.6,97.6-109.1-1.9-178c-168.4-122.5-178-176.1-53.6-327.3l82.3-99.5l-82.3-80.4c-105.3-99.5-107.2-143.6-7.7-285.2c42.1-59.3,76.6-118.7,76.6-128.2c0-11.5-34.4-78.5-76.6-149.3c-42.1-70.8-76.6-145.4-76.6-168.4c0-21,65.1-137.8,145.5-262.2l143.5-222l-51.7-202.9c-42.1-174.2-49.8-233.5-42.1-407.7c5.7-172.3,15.3-218.2,59.3-300.5c68.9-135.9,185.7-229.7,338.8-275.6c262.2-78.5,891.9-181.8,1473.7-243.1c281.4-30.6,547.4-34.5,2440.3-34.5c2291,0,2245.1-1.9,2976.2,105.3C8835.4-4567,9650.8-4222.5,9861.3-3788c47.9,99.5,51.7,367.5,9.6,643.1c-45.9,312-139.7,524.4-292.8,675.6l-90,88l-1483.3,346.4c-815.3,191.4-1498.6,350.2-1517.8,356c-28.7,9.6-32.5,23-19.1,99.5c19.1,130.2,13.4,176.1-28.7,218.2c-23,24.9-222,95.7-520.6,189.5c-279.5,86.1-562.7,187.6-677.5,243.1l-195.2,93.8l-214.4,379c-193.3,344.5-231.6,428.7-396.2,876.6c-99.5,271.8-202.9,534-229.7,579.9c-61.3,105.3-174.2,189.5-302.4,227.8C3706,1287.8,3740.5,1310.8,3196.9,755.7z M3880.2,916.5c32.5-19.1,68.9-57.4,82.3-82.3c28.7-57.4,193.3-503.4,185.7-511c-1.9-1.9-45.9,19.1-97.6,47.9c-137.8,76.6-386.6,84.2-639.3,17.2c-99.5-24.9-183.8-45.9-185.7-44c-5.7,7.7,572.3,606.7,583.8,606.7C3817,950.9,3849.5,935.6,3880.2,916.5z M3855.3,127.9c70.8-21.1,130.1-63.2,130.1-97.6c0-9.6-55.5-17.2-124.4-17.2c-189.5,0-258.4-45.9-258.4-172.3c0-93.8,74.6-134,250.7-134c149.3,0,151.2,0,151.2-47.8c0-47.9-1.9-47.9-156.9-47.9c-134,0-162.7-5.7-201-42.1c-57.4-53.6-57.4-141.6-1.9-201c36.4-38.3,59.3-44,201-44h158.9v-55.5v-55.5l-193.3-7.7c-176.1-5.7-197.1-9.6-229.7-51.7c-49.8-61.3-45.9-147.4,11.5-202.9c42.1-44,61.3-47.9,229.7-47.9h181.8v-134c0-118.7,5.7-141.6,47.9-181.8c24.9-26.8,59.3-47.9,76.6-47.9c42.1,0,40.2-26.8-59.3-817.3c-57.4-459.4-84.2-748.3-78.5-830.7c9.6-155,76.6-308.1,185.7-424.9l78.5-86.1l-139.7-11.5c-313.9-26.8-949.3-45.9-1020.1-32.5c-88.1,17.2-1290,681.4-1425.9,788.6c-116.8,91.9-239.2,275.6-287.1,432.6c-53.6,174.2-49.8,336.9,23,786.6l61.2,386.6l-109.1,377.1c-59.3,206.7-107.2,379-103.4,380.9c9.6,9.6,2323.6,637.3,2377.1,645C3736.6,149,3784.5,147.1,3855.3,127.9z M4421.8-341c21-45.9,19.1-47.9-44-47.9c-59.3,0-67,5.7-67,47.9c0,38.3,9.6,47.8,44,47.8C4385.4-293.1,4408.4-310.4,4421.8-341z M1093.4-689.3c21.1-72.7,67-233.5,103.4-361.7l67-231.6l-65.1-400c-72.7-447.9-76.6-514.8-36.4-706.2c72.7-344.5,290.9-614.4,669.9-826.8c116.7-63.2,296.7-164.6,401.9-223.9c105.3-59.3,179.9-107.2,164.6-107.2c-57.4,0-656.5,143.5-901.5,216.3c-495.7,147.4-541.6,153.1-727.3,97.6c-118.7-34.4-103.4-45.9-245,176.1l-101.5,155l88.1,141.6c47.8,76.6,86.1,157,86.1,178c0,23-32.5,86.1-70.8,141.6L458-2339.1l76.6,70.8c124.4,114.8,124.4,158.9-3.8,319.6l-57.4,72.7l67,49.8c139.7,105.3,155,126.3,156.9,187.6c1.9,44-19.1,86.1-70.8,151.2l-72.7,88l107.2,95.7C754.7-1221.4,770-1198.4,770-1141c0,53.6-17.2,86.1-76.6,151.2c-42.1,45.9-76.6,90-76.6,99.5c0,7.7,61.3,74.7,134,147.4C867.6-628.1,948-576.4,1041.8-563C1049.4-561.1,1072.4-618.5,1093.4-689.3z M4645.8-733.3l30.6-57.4h-183.7h-181.8v57.4v57.4h153.1C4613.2-675.9,4617-675.9,4645.8-733.3z M5053.4-1167.8l157-68.9l-11.5-68.9c-7.6-38.3-19.1-76.6-26.8-86.1c-13.4-13.4-283.3,49.8-788.5,181.8c-59.3,15.3-72.7,26.8-72.7,65.1v47.9h292.8h290.9L5053.4-1167.8z M5849.6-1462.6c168.4-53.6,310.1-99.5,312-101.4c15.3-13.4-166.5-976.1-185.7-987.6c-13.4-7.7-97.6,5.7-189.5,30.6c-90,24.9-231.6,65.1-313.9,86.1c-82.3,23-155,53.6-160.8,68.9c-5.7,13.4,30.6,245,82.3,512.9c68.9,359.8,99.5,488,120.6,488C5528.1-1365,5679.3-1409,5849.6-1462.6z M4760.6-1615.7c179.9-44,333-86.1,340.7-93.8s-11.5-156.9-45.9-331.1c-68.9-359.8-65.1-417.3,40.2-537.8c68.9-78.5,84.2-84.2,478.5-193.3c348.3-95.7,413.4-101.4,530.2-49.8c135.9,63.2,174.2,143.5,237.3,513c30.6,176.1,57.4,325.4,59.3,331.1c3.8,7.6,631.6-134,1397.2-313.9l1393.4-325.4l-44-45.9c-107.2-114.8-468.9-315.8-855.5-472.8c-591.4-243.1-1812.5-602.9-2042.2-602.9c-124.4,0-277.5-51.7-394.3-132.1c-47.9-32.5-91.9-59.3-97.6-59.3c-7.6,0-101.4,57.4-212.4,126.3c-310.1,193.3-363.7,208.6-712,204.8l-290.9-5.7L4389.3-3455c-134,130.1-156.9,160.8-185.7,262.2c-32.5,112.9-30.6,118.7,57.4,851.7c105.3,865.1,97.6,828.7,141.6,815.3C4419.9-1531.5,4582.6-1571.6,4760.6-1615.7z M9440.2-2766c53.6-88,109.1-239.2,124.4-342.6l13.4-86.1l-93.8-49.8c-287.1-156.9-1288.1-440.2-2120.7-601c-93.8-17.2-214.4-53.6-266-80.4c-118.7-57.4-256.5-51.7-365.6,15.3l-74.7,45.9l67,15.3c438.3,109.1,1253.6,369.4,1628.8,522.5c442.1,181.8,918.7,461.3,995.3,583.8C9380.9-2691.3,9396.2-2695.1,9440.2-2766z M1296.3-3481.8c457.4-139.7,1299.6-323.4,1703.4-373.2c158.9-19.1,298.6-17.2,823,9.6c1012.5,53.6,1236.4,59.3,1322.5,30.6c86.1-26.8,430.6-233.5,423-252.6c-1.9-7.7-153.1-122.5-336.9-254.6l-333-241.2l-1265.1,7.7c-1351.3,7.7-1433.5,13.4-2136,120.6c-442.1,68.9-748.4,135.9-803.9,176.1c-82.3,61.3-105.3,132.1-103.4,319.6c1.9,212.4,65.1,417.2,145.5,474.7C848.5-3380.3,980.5-3384.2,1296.3-3481.8z M9593.3-3546.9c0-135.9,0-135.9-90-233.5c-302.4-321.5-1140.7-578-2398.2-735c-191.4-24.9-467-34.4-1062.3-40.2c-442.1-5.7-800-5.7-794.3,0c74.6,68.9,761.7,547.4,832.6,579.9c155,74.6,336.9,49.8,482.3-61.3c179.9-137.8,390.4-166.5,589.5-80.4c63.2,28.7,287.1,86.1,497.6,130.1c788.6,164.6,1540.7,380.9,1799.1,512.9c63.2,32.5,120.6,59.3,130.1,61.3C9587.6-3412.9,9593.3-3474.1,9593.3-3546.9z"/><path d="M1573.8-2048.2c1.9-7.7,245-208.6,543.6-446c560.8-445.9,727.3-553.1,985.7-631.6c137.8-44,294.8-49.8,365.6-13.4c107.2,53.6,149.3,271.8,82.3,438.3c-57.4,145.4-160.8,285.2-204.8,279.4c-32.5-3.8-42.1-23-49.8-109.1c-15.3-149.3-61.3-181.8-248.8-170.3c-141.6,7.6-149.3,11.5-775.2,333C1661.9-2055.9,1571.9-2013.8,1573.8-2048.2z"/><path d="M1906.9-4168.9c-40.2-61.3-13.4-135.9,61.2-162.7c76.6-28.7,1115.8-24.9,1175.2,5.7c59.3,28.7,74.6,126.3,28.7,174.2c-26.8,26.8-103.4,30.6-631.6,30.6h-602.9L1906.9-4168.9z"/></g></g>
</svg>