<svg width="750" height="750" viewBox="0 0 750 750" fill="none" xmlns="http://www.w3.org/2000/svg">
<rect width="750" height="750" rx="375" fill="black"/>
<rect x="25" y="25" width="700" height="700" rx="350" fill="#ACFF00"/>
<path d="M375.25 48V698M58 379.5H687" stroke="black" stroke-width="10"/>
<path d="M579.092 275.543C579.092 284.768 572.897 293.162 562.79 299.263C552.688 305.361 538.716 309.14 523.27 309.14C507.824 309.14 493.852 305.361 483.75 299.263C473.643 293.162 467.448 284.768 467.448 275.543C467.448 266.318 473.643 257.924 483.75 251.823C493.852 245.725 507.824 241.945 523.27 241.945C538.716 241.945 552.688 245.725 562.79 251.823C572.897 257.924 579.092 266.318 579.092 275.543Z" fill="#0C1615" stroke="#ACFF00" stroke-width="0.5"/>
<path d="M579.092 264.261C579.092 273.486 572.897 281.88 562.79 287.98C552.688 294.078 538.716 297.858 523.27 297.858C507.824 297.858 493.852 294.078 483.75 287.98C473.643 281.88 467.448 273.486 467.448 264.261C467.448 255.035 473.643 246.642 483.75 240.541C493.852 234.443 507.824 230.663 523.27 230.663C538.716 230.663 552.688 234.443 562.79 240.541C572.897 246.642 579.092 255.035 579.092 264.261Z" fill="#0C1615" stroke="#ACFF00" stroke-width="0.5"/>
<path d="M575.895 252.977C575.895 262.203 569.699 270.596 559.592 276.697C549.49 282.795 535.518 286.575 520.072 286.575C504.626 286.575 490.654 282.795 480.552 276.697C470.446 270.596 464.25 262.203 464.25 252.977C464.25 243.752 470.446 235.358 480.552 229.258C490.654 223.16 504.626 219.38 520.072 219.38C535.518 219.38 549.49 223.16 559.592 229.258C569.699 235.358 575.895 243.752 575.895 252.977Z" fill="#0C1615" stroke="#ACFF00" stroke-width="0.5"/>
<path d="M579.092 241.695C579.092 250.92 572.897 259.314 562.79 265.415C552.688 271.513 538.716 275.293 523.27 275.293C507.824 275.293 493.852 271.513 483.75 265.415C473.643 259.314 467.448 250.92 467.448 241.695C467.448 232.47 473.643 224.076 483.75 217.975C493.852 211.877 507.824 208.098 523.27 208.098C538.716 208.098 552.688 211.877 562.79 217.975C572.897 224.076 579.092 232.47 579.092 241.695Z" fill="#0C1615" stroke="#ACFF00" stroke-width="0.5"/>
<path d="M584.424 230.413C584.424 239.638 578.228 248.032 568.122 254.133C558.02 260.231 544.048 264.011 528.602 264.011C513.156 264.011 499.184 260.231 489.082 254.133C478.975 248.032 472.779 239.638 472.779 230.413C472.779 221.188 478.975 212.794 489.082 206.693C499.184 200.595 513.156 196.815 528.602 196.815C544.048 196.815 558.02 200.595 568.122 206.693C578.228 212.794 584.424 221.188 584.424 230.413Z" fill="#0C1615" stroke="#ACFF00" stroke-width="0.5"/>
<path d="M579.092 219.13C579.092 228.355 572.897 236.749 562.79 242.85C552.688 248.948 538.716 252.727 523.27 252.727C507.824 252.727 493.852 248.948 483.75 242.85C473.643 236.749 467.448 228.355 467.448 219.13C467.448 209.905 473.643 201.511 483.75 195.41C493.852 189.312 507.824 185.532 523.27 185.532C538.716 185.532 552.688 189.312 562.79 195.41C572.897 201.511 579.092 209.905 579.092 219.13Z" fill="#0C1615" stroke="#ACFF00" stroke-width="0.5"/>
<path d="M579.094 207.848C579.094 217.073 572.898 225.467 562.791 231.567C552.689 237.665 538.718 241.445 523.271 241.445C507.825 241.445 493.853 237.665 483.751 231.567C473.645 225.467 467.449 217.073 467.449 207.848C467.449 198.622 473.645 190.229 483.751 184.128C493.853 178.03 507.825 174.25 523.271 174.25C538.718 174.25 552.689 178.03 562.791 184.128C572.898 190.229 579.094 198.622 579.094 207.848Z" fill="#0C1615" stroke="#ACFF00" stroke-width="0.5"/>
<g clip-path="url(#clip0_1917_3777)">
<path d="M529.421 204.404L541 209.797C543.455 210.944 544.174 213.231 541.668 213.698L536.952 214.577C536.208 214.716 535.383 214.598 534.659 214.235L525.681 209.802C525.239 209.584 524.716 209.682 524.516 210.019L520.417 216.891C520.091 217.44 519.494 217.823 518.75 217.962L513.96 218.855C511.473 219.319 509.107 216.964 510.237 215.14L515.286 206.965C515.611 206.435 515.292 205.725 514.587 205.406L504.733 200.92C502.24 199.8 502.307 196.926 504.831 196.455L509.162 195.647C509.887 195.512 510.691 195.625 511.394 195.963L520.203 200.147L529.421 204.404Z" fill="#ACFF00"/>
<path fill-rule="evenodd" clip-rule="evenodd" d="M522.75 196.191L533.133 194.254C534.336 197.014 532.944 199.694 530.026 200.238C527.108 200.782 523.764 198.985 522.562 196.226L522.571 196.224C521.708 194.243 522.237 193.129 522.902 191.732C523.416 190.651 524.011 189.401 524.104 187.448C524.119 187.163 524.519 187.079 524.761 187.316C526.408 188.893 527.881 189.716 529.153 190.427C530.863 191.383 532.21 192.136 533.13 194.246L522.75 196.191Z" fill="#ACFF00"/>
</g>
<path d="M314.414 276.269C313.331 276.269 312.452 275.398 312.455 274.303C312.455 273.215 313.333 272.34 314.416 272.345V268.914C313.333 268.914 312.458 268.037 312.455 266.948C312.455 265.86 313.332 264.984 314.416 264.984L314.415 261.554C313.332 261.554 312.456 260.68 312.453 259.587C312.458 258.496 313.332 257.623 314.415 257.623L314.416 254.19C307.504 254.19 301.905 248.591 301.905 241.681C301.905 234.772 307.508 229.169 314.414 229.172V225.735C313.333 225.735 312.454 224.851 312.454 223.767C312.454 222.694 313.333 221.811 314.416 221.811V218.377C313.333 218.377 312.454 217.49 312.454 216.407C312.454 215.333 313.332 214.451 314.416 214.449L314.415 211.014C313.334 211.014 312.456 210.131 312.456 209.05C312.456 207.974 313.334 207.091 314.415 207.092L314.416 205H160V207.092C161.086 207.092 161.964 207.972 161.964 209.05C161.964 210.131 161.086 211.014 160 211.014V214.449C161.084 214.449 161.964 215.334 161.964 216.408C161.964 217.491 161.086 218.378 160 218.378V221.815C161.084 221.815 161.964 222.701 161.964 223.774C161.965 224.854 161.084 225.736 160 225.737V229.174C166.913 229.174 172.511 234.778 172.511 241.687C172.51 248.599 166.912 254.2 160 254.198V257.629C161.086 257.629 161.964 258.507 161.964 259.596C161.964 260.684 161.086 261.56 160 261.56V264.984C161.086 264.985 161.964 265.859 161.966 266.95C161.965 268.042 161.087 268.914 160 268.914V272.345C161.086 272.345 161.964 273.223 161.964 274.309C161.965 275.398 161.086 276.271 160.001 276.271L160 278.479L314.416 278.483L314.414 276.269ZM183.739 271.486L183.738 211.879L290.686 211.881L290.685 271.481L183.739 271.486Z" fill="black"/>
<path d="M195.446 219.158H279.088V227.617H195.446V219.158Z" fill="black"/>
<path d="M195.446 232.935H234.145V237.816H195.446V232.935Z" fill="black"/>
<path d="M195.446 242.145H234.142V247.023H195.446V242.145Z" fill="black"/>
<path d="M195.446 251.353H234.145V256.232H195.446V251.353Z" fill="black"/>
<path d="M195.446 260.556H225.535V265.435H195.446V260.556Z" fill="black"/>
<path d="M246.587 232.935H279.091V265.435H246.587V232.935Z" fill="black"/>
<path fill-rule="evenodd" clip-rule="evenodd" d="M237 441C194.54 441 160 475.543 160 518C160 560.457 194.54 595 237 595C279.46 595 314 560.457 314 518C314 475.543 279.46 441 237 441V441ZM237 588.252C198.262 588.252 166.748 556.738 166.748 518C166.748 479.262 198.264 447.748 237 447.748C275.735 447.748 307.252 479.264 307.252 518C307.252 556.736 275.738 588.252 237 588.252V588.252Z" fill="black"/>
<path fill-rule="evenodd" clip-rule="evenodd" d="M237 454.68C202.084 454.68 173.68 483.086 173.68 518C173.68 552.914 202.086 581.32 237 581.32C271.914 581.32 300.32 552.914 300.32 518C300.32 483.086 271.914 454.68 237 454.68ZM249.406 513.824H225.532V491.908H249.404C255.446 491.908 260.362 496.825 260.362 502.867C260.365 508.907 255.448 513.824 249.406 513.824ZM260.365 531.531C260.365 537.574 255.448 542.488 249.407 542.488H225.532V520.572H249.404C255.447 520.572 260.365 525.488 260.365 531.531V531.531ZM267.11 502.866C267.11 508.761 264.203 513.98 259.758 517.201C264.202 520.423 267.11 525.641 267.11 531.534C267.11 541.3 259.168 549.242 249.404 549.242H241.175V560.12C241.175 561.983 239.666 563.495 237.801 563.495C235.94 563.495 234.428 561.984 234.428 560.12V549.242H210.262C208.399 549.242 206.888 547.731 206.888 545.867C206.888 544.004 208.397 542.492 210.262 542.492H218.784L218.787 517.203V491.911H210.264C208.401 491.911 206.891 490.4 206.891 488.537C206.891 486.674 208.4 485.161 210.264 485.161H234.43L234.429 475.886C234.429 474.021 235.938 472.511 237.803 472.511C239.666 472.511 241.176 474.022 241.176 475.886V485.157H249.405C259.167 485.16 267.11 493.102 267.11 502.866L267.11 502.866Z" fill="black"/>
<path fill-rule="evenodd" clip-rule="evenodd" d="M569.81 581V503.683L597.665 509.52L604 475.634L553.319 455.618C552.493 462.107 549.463 467.944 545.021 472.373C539.754 477.591 532.488 480.819 524.5 480.819C516.512 480.819 509.281 477.591 504.013 472.373C499.537 467.944 496.508 462.107 495.681 455.618L445 475.634L451.335 509.52L479.19 503.683V581H569.81ZM524.499 475.874C531.144 475.874 537.135 473.161 541.508 468.87C545.192 465.197 547.706 460.39 548.394 455C540.44 456.201 532.487 456.82 524.498 456.854C516.51 456.854 508.556 456.236 500.637 455C501.291 460.39 503.804 465.197 507.488 468.87C511.861 473.162 517.886 475.874 524.498 475.874H524.499Z" fill="black"/>
<defs>
<clipPath id="clip0_1917_3777">
<rect width="33.1762" height="30.0046" fill="white" transform="matrix(0.983056 -0.183304 0.399593 0.916692 499.184 191.879)"/>
</clipPath>
</defs>
</svg>
