<svg width="20" height="20" viewBox="0 0 20 20" fill="none" xmlns="http://www.w3.org/2000/svg">
<path d="M12.6582 16.2L12.6582 17.9166" stroke="#748282" stroke-linecap="round" stroke-linejoin="round"/>
<path d="M12.6582 2.5L12.6582 12.775" stroke="#748282" stroke-linecap="round" stroke-linejoin="round"/>
<path d="M10.9584 14.4917C10.9584 15.4398 11.7195 16.2084 12.6584 16.2084C13.5973 16.2084 14.3584 15.4398 14.3584 14.4917C14.3584 13.5436 13.5973 12.775 12.6584 12.775C11.7195 12.775 10.9584 13.5436 10.9584 14.4917Z" stroke="#748282" stroke-linecap="round" stroke-linejoin="round"/>
<path d="M6.69995 7.64166L6.69995 17.9167" stroke="#748282" stroke-linecap="round" stroke-linejoin="round"/>
<path d="M6.69995 2.5L6.69995 4.21666" stroke="#748282" stroke-linecap="round" stroke-linejoin="round"/>
<path d="M4.9999 5.92498C4.9999 6.87307 5.76102 7.64167 6.6999 7.64167C7.63879 7.64167 8.3999 6.87307 8.3999 5.92498C8.3999 4.97689 7.63879 4.20831 6.6999 4.20831C5.76102 4.20831 4.9999 4.97689 4.9999 5.92498Z" stroke="#748282" stroke-linecap="round" stroke-linejoin="round"/>
</svg>
