<svg width="16" height="16" viewBox="0 0 16 16" fill="none" xmlns="http://www.w3.org/2000/svg">
<path fill-rule="evenodd" clip-rule="evenodd" d="M12.3333 8.16667C12.3333 8.49084 12.0705 8.75363 11.7463 8.75363L3.92021 8.75363C3.59604 8.75363 3.33325 8.49084 3.33325 8.16667C3.33325 7.8425 3.59604 7.57971 3.92021 7.57971L11.7463 7.57971C12.0705 7.57971 12.3333 7.8425 12.3333 8.16667Z" fill="#748282"/>
<path fill-rule="evenodd" clip-rule="evenodd" d="M8.24825 3.8386C8.47747 4.06782 8.47747 4.43946 8.24825 4.66868L4.75025 8.16669L8.24825 11.6647C8.47747 11.8939 8.47747 12.2656 8.24825 12.4948C8.01903 12.724 7.64739 12.724 7.41817 12.4948L3.50513 8.58173C3.27591 8.35251 3.27591 7.98087 3.50513 7.75165L7.41817 3.8386C7.64739 3.60938 8.01903 3.60938 8.24825 3.8386Z" fill="#748282"/>
</svg>
