<svg width="16" height="16" viewBox="0 0 12 12" fill="none" xmlns="http://www.w3.org/2000/svg">
<path fill-rule="evenodd" clip-rule="evenodd" d="M2.75 5.875C2.75 5.63187 2.94709 5.43478 3.19022 5.43478L9.05978 5.43478C9.30291 5.43478 9.5 5.63187 9.5 5.875C9.5 6.11812 9.30291 6.31522 9.05978 6.31522L3.19022 6.31522C2.94709 6.31522 2.75 6.11812 2.75 5.875Z" fill="white"/>
<path fill-rule="evenodd" clip-rule="evenodd" d="M5.81374 9.12106C5.64182 8.94915 5.64182 8.67042 5.81374 8.4985L8.43724 5.875L5.81374 3.2515C5.64182 3.07958 5.64182 2.80085 5.81374 2.62894C5.98565 2.45702 6.26438 2.45702 6.4363 2.62894L9.37108 5.56372C9.543 5.73563 9.543 6.01437 9.37108 6.18628L6.4363 9.12106C6.26438 9.29298 5.98565 9.29298 5.81374 9.12106Z" fill="white"/>
</svg>
