<?xml version="1.0" encoding="UTF-8"?><svg id="Layer_1" xmlns="http://www.w3.org/2000/svg" viewBox="0 0 512 247.39"><defs><style>.cls-1{fill:#fff;}</style></defs><g transform="translate(0 -1)"><g><path class="cls-1" d="M321.61,59.42c-1.19,1.18-1.07,2.61-.96,3.17,.15,.75,.57,1.74,1.76,2.25,.87,.38,1.7,.67,2.56,1.02l-5.72,4.16-107.36,66.31c-13.76,8.95-29.97,11.98-45.83,8.62-15.48-3.28-28.8-12.24-37.65-25.29l-.63-2.09-1.16-6.38c6.95-3.57,16.48-9.05,29.04-17.01-3.92-9.32-2.13-20.49,5.44-28.07,9.98-9.95,26.21-9.96,36.2,0l.03,.03c4.13-2.9,8.21-5.8,12.29-8.71-3.09-4.32-4.82-9.44-4.82-14.85,0-6.84,2.66-13.28,7.5-18.1,9.98-9.98,26.21-9.98,36.2,0l2.64,2.64c12.6-9.42,23.26-17.54,30.11-22.81,8.31-6.38,20.19-5.62,27.6,1.81l17.54,17.53c8.52,8.54,8.52,22.43,0,30.99l-4.77,4.78Zm-118.28,36.87l-18.1-18.1c-1.65-1.66-3.85-2.5-6.03-2.5s-4.38,.84-6.03,2.49c-3.33,3.34-3.33,8.74,0,12.07l.39,.39s.03,.02,.03,.03l17.67,17.68c1.61,1.61,3.83,2.42,6.04,2.42s4.41-.81,6.02-2.42h0c1.61-1.61,2.5-3.76,2.5-6.03s-.88-4.42-2.5-6.04Zm51.2-41.63l-10.24-10.24-7.86-7.86c-1.66-1.65-3.85-2.49-6.03-2.49s-4.38,.84-6.03,2.5c-1.61,1.6-2.5,3.74-2.5,6.02s.89,4.42,2.5,6.03l4.13,4.13,13.97,13.97c1.61,1.61,3.83,2.42,6.04,2.42s4.41-.8,6.02-2.42h0c3.33-3.32,3.33-8.74,0-12.07Z"/><path class="cls-1" d="M92.14,120.9c6.57-1.02,12.77-2,18.32-3.17l.62,3.4c.05,.32,.13,.64,.22,.96l1.14,3.75c.23,.77,.57,1.5,1.02,2.18,11.32,17.4,28.75,29.36,49.07,33.65,5.41,1.14,10.85,1.71,16.25,1.71,14.89,0,29.48-4.3,42.26-12.61l107.72-66.57,16.45-11.96c3.46,.75,6.83,1.35,10.08,1.71l-4.23,7.19c-17.9,29.73-28.18,62.96-33.1,106.52h17.16c4.73-40.07,14.25-70.62,30.6-97.8l9.37-15.92c39.87-4.67,59.12-37.12,60.18-38.99,1.25-2.2,3.42-3.75,5.92-4.2,3.15-.58,7.98-.43,13.21,3.33,16.45,11.83,29.82,60.98,38.48,102.58h-100.33c-14.11,0-25.6,11.39-25.6,25.4v25.6h17.07v-25.6c0-4.68,3.75-8.34,8.53-8.34h103.72c3.42,18.11,5.76,33.1,6.85,40.42l8.43,24.58c.64,1.86,.61,3.91-.08,5.75-2.02,5.38-13.55,22.91-77.47,22.91l-374.79-.02C38.67,246.1-.09,233.75,0,196.2H0v-.03H0v-.02c.03-60.94,55.45-69.55,92.14-75.26Zm-32.4,109.43H434c40.21,0,54.97-7.23,59.78-10.76l-5.09-14.84H18.22c6.7,22.97,40.41,25.5,41.52,25.6Z"/></g></g></svg>