<?xml version="1.0" encoding="UTF-8"?><svg id="Layer_1" xmlns="http://www.w3.org/2000/svg" viewBox="0 0 511.94 247.52"><defs><style>.cls-1{fill:#fff;}</style></defs><g transform="translate(0 -1)"><g><path class="cls-1" d="M190.34,59.42c1.2,1.2,1.1,2.6,1,3.2-.1,.8-.6,1.7-1.8,2.3-.9,.4-1.7,.7-2.6,1l5.7,4.2,107.4,66.3c13.8,9,30,12,45.8,8.6,15.5-3.3,28.8-12.2,37.6-25.3l.6-2.1,1.2-6.4c-7-3.6-16.5-9.1-29-17,3.9-9.3,2.1-20.5-5.4-28.1-10-9.9-26.2-10-36.2,0h0c-4.1-2.9-8.2-5.8-12.3-8.7,3.1-4.3,4.8-9.4,4.8-14.8,0-6.8-2.7-13.3-7.5-18.1-10-10-26.2-10-36.2,0l-2.6,2.6c-12.6-9.4-23.3-17.5-30.1-22.8-8.3-6.4-20.2-5.6-27.6,1.8l-17.5,17.5c-8.5,8.5-8.5,22.4,0,31l4.7,4.8Zm118.3,36.9l18.1-18.1c1.7-1.7,3.8-2.5,6-2.5s4.4,.8,6,2.5c3.3,3.3,3.3,8.7,0,12.1l-.4,.4h0l-17.7,17.7c-1.6,1.6-3.8,2.4-6,2.4s-4.4-.8-6-2.4h0c-1.6-1.6-2.5-3.8-2.5-6,0-2.4,.8-4.5,2.5-6.1Zm-51.2-41.6l10.2-10.2,7.9-7.9c1.7-1.7,3.8-2.5,6-2.5s4.4,.8,6,2.5c1.6,1.6,2.5,3.7,2.5,6s-.9,4.4-2.5,6l-4.1,4.1-14,14c-1.6,1.6-3.8,2.4-6,2.4s-4.4-.8-6-2.4h0c-3.4-3.3-3.4-8.7,0-12Z"/><path class="cls-1" d="M419.84,120.92c-6.6-1-12.8-2-18.3-3.2l-.6,3.4c-.1,.3-.1,.6-.2,1l-1.1,3.8c-.2,.8-.6,1.5-1,2.2-11.3,17.4-28.7,29.4-49.1,33.7-5.4,1.1-10.8,1.7-16.2,1.7-14.9,0-29.5-4.3-42.3-12.6l-107.7-66.6-16.5-12c-3.5,.8-6.8,1.3-10.1,1.7l4.2,7.2c17.9,29.7,28.2,63,33.1,106.5h-17.2c-4.7-40.1-14.3-70.6-30.6-97.8l-9.4-15.9c-39.9-4.7-59.1-37.1-60.2-39-1.2-2.2-3.4-3.7-5.9-4.2-3.1-.6-8-.4-13.2,3.3-16.5,11.8-29.8,61-38.5,102.6H119.44c14.1,0,25.6,11.4,25.6,25.4v25.6h-17.1v-25.6c0-4.7-3.7-8.3-8.5-8.3H15.74c-3.4,18.1-5.8,33.1-6.9,40.4L.44,218.82c-.6,1.9-.6,3.9,.1,5.8,2,5.4,13.6,22.9,77.5,22.9H452.84c20.4-1.4,59.2-13.7,59.1-51.3h0c0-61-55.5-69.6-92.1-75.3Zm32.4,109.4H77.94c-40.2,0-55-7.2-59.8-10.8l5.1-14.8H493.74c-6.7,23-40.4,25.5-41.5,25.6Z"/></g></g></svg>