<svg width="24" height="24" viewBox="0 0 24 24" fill="none" xmlns="http://www.w3.org/2000/svg">
<path d="M11.9999 2.00098C6.47988 2.00098 1.99988 6.48098 1.99988 12.001C1.99988 17.521 6.47988 22.001 11.9999 22.001C17.5199 22.001 21.9999 17.521 21.9999 12.001C21.9999 6.48098 17.5199 2.00098 11.9999 2.00098ZM16.5299 8.53098L15.0399 15.701C14.9299 16.221 14.6299 16.331 14.1799 16.111C13.4799 15.631 12.7699 15.161 12.0599 14.691C11.8899 14.571 11.6499 14.581 11.4799 14.711L10.4899 15.471C10.2099 14.721 9.91988 13.971 9.62988 13.231C9.57988 13.091 9.47988 12.981 9.33988 12.931C8.79988 12.741 7.56987 12.301 6.86988 12.001C6.74988 11.951 6.53988 11.851 6.51988 11.701C6.50988 11.551 6.65988 11.381 6.97988 11.261L15.8999 7.83098C16.3099 7.68098 16.6799 7.94098 16.5299 8.53098Z" fill="#0C1615"/>
</svg>
