<svg width="24" height="24" viewBox="0 0 24 24" fill="none" xmlns="http://www.w3.org/2000/svg">
<path d="M17.1399 2.00098H6.85988C4.17988 2.00098 1.99988 4.18098 1.99988 6.86098V17.141C1.99988 19.821 4.17988 22.001 6.85988 22.001H17.1399C19.8199 22.001 21.9999 19.821 21.9999 17.141V6.86098C21.9999 4.18098 19.8199 2.00098 17.1399 2.00098ZM16.7899 8.87098C17.4099 11.311 16.7199 13.871 14.9599 15.441C12.6999 17.461 9.02988 17.551 6.33988 15.451C6.53988 15.481 6.71989 15.491 6.87988 15.481C8.14988 15.431 9.01987 14.421 9.28987 14.081C8.81987 13.671 8.08988 12.951 7.57988 11.841C6.85988 10.301 6.92988 8.85098 7.04988 8.03098C7.07988 7.87098 7.27987 7.81098 7.39987 7.94098C7.76987 8.36098 8.36988 8.93098 9.24988 9.34098C10.1999 9.78098 11.0599 9.86098 11.5499 9.86098C11.5199 8.67098 12.2299 7.60098 13.2999 7.19098C14.2399 6.82098 15.3299 7.03098 16.0999 7.73098C16.6199 7.71098 17.1399 7.70097 17.6599 7.68097C17.3699 8.08097 17.0799 8.47098 16.7899 8.87098Z" fill="#0C1615"/>
</svg>
