<svg width="24" height="24" viewBox="0 0 24 24" fill="none" xmlns="http://www.w3.org/2000/svg">
<path fill-rule="evenodd" clip-rule="evenodd" d="M9.375 11C9.165 11 9 10.868 9 10.7C9 10.622 9.0375 10.556 9.0975 10.502L11.7225 8.102C11.79 8.042 11.8875 8 12 8C12.1125 8 12.21 8.042 12.2775 8.102L14.9025 10.502C14.9625 10.556 15 10.622 15 10.7C15 10.868 14.835 11 14.625 11L9.375 11ZM14.625 13C14.835 13 15 13.132 15 13.3C15 13.378 14.9625 13.444 14.9025 13.498L12.2775 15.898C12.21 15.958 12.1125 16 12 16C11.8875 16 11.79 15.958 11.7225 15.898L9.0975 13.498C9.0375 13.444 9 13.378 9 13.3C9 13.132 9.165 13 9.375 13H14.625Z" fill="#0C1615"/>
</svg>
