<svg width="16" height="16" viewBox="0 0 16 16" fill="none" xmlns="http://www.w3.org/2000/svg">
<rect width="16" height="16" rx="8" fill="#0C1615"/>
<path d="M9.88914 8.49928L12.3313 10.6472C12.8486 11.1035 12.7751 11.7919 12.0582 11.7919H10.7084C10.4957 11.7919 10.2909 11.7145 10.1412 11.5731L8.27681 9.83607C8.1849 9.75069 8.03522 9.75069 7.94331 9.83607L6.06575 11.5731C5.91607 11.7118 5.71387 11.7892 5.50117 11.7892H4.13042C3.41878 11.7892 3.06428 10.9941 3.57371 10.5352L5.85305 8.47794C6.0001 8.34452 5.99747 8.12573 5.84779 7.99765L3.75753 6.19926C3.22709 5.74832 3.57634 4.93451 4.29848 4.93451H5.53793C5.74538 4.93451 5.94495 5.00922 6.09201 5.14263L7.94068 6.79961L9.88914 8.49928Z" fill="#ACFF00"/>
<path fill-rule="evenodd" clip-rule="evenodd" d="M9.4736 4.62267C9.11834 5.00647 8.83508 5.31249 8.83508 5.95831L9.02424 5.95815C9.09788 6.73696 9.7441 7.3464 10.5298 7.3464C11.3649 7.3464 12.0424 6.65799 12.0424 5.80949H12.0165C11.9788 5.22253 11.7104 4.9366 11.3761 4.58051C11.1078 4.2947 10.797 3.9637 10.5291 3.39556C10.4904 3.3107 10.3686 3.31353 10.3298 3.39839C10.0666 3.98208 9.74852 4.32566 9.4736 4.62267Z" fill="#ACFF00"/>
</svg>
